<?xml version="1.0" standalone="no"?>
<!DOCTYPE svg PUBLIC "-//W3C//DTD SVG 1.1//EN" "http://www.w3.org/Graphics/SVG/1.1/DTD/svg11.dtd">
<svg width="134mm" height="104mm" viewBox="-67 -52 134 104" xmlns="http://www.w3.org/2000/svg" version="1.1">
<title>OpenSCAD Model</title>
<path d="
M 62.9369,51.9114 L 63.5451,51.7553 L 64.1289,51.5241 L 64.6791,51.2216 L 65.1871,50.8526 L 65.6448,50.4227
 L 66.0451,49.9389 L 66.3815,49.4088 L 66.6489,48.8406 L 66.8429,48.2434 L 66.9606,47.6267 L 67,47
 L 67,-47 L 66.9606,-47.6267 L 66.8429,-48.2434 L 66.6489,-48.8406 L 66.3815,-49.4088 L 66.0451,-49.9389
 L 65.6448,-50.4227 L 65.1871,-50.8526 L 64.6791,-51.2216 L 64.1289,-51.5241 L 63.5451,-51.7553 L 62.9369,-51.9114
 L 62.3139,-51.9901 L 57.686,-51.9901 L 57.0631,-51.9114 L 56.4549,-51.7553 L 55.8711,-51.5241 L 55.3209,-51.2216
 L 54.8129,-50.8526 L 54.3551,-50.4227 L 53.9549,-49.9389 L 53.6185,-49.4088 L 53.3511,-48.8406 L 53.1571,-48.2434
 L 53.0394,-47.6267 L 53,-47 L 53,38.0099 L -53,38.0099 L -53,-47 L -53.0394,-47.6267
 L -53.1571,-48.2434 L -53.3511,-48.8406 L -53.6185,-49.4088 L -53.9549,-49.9389 L -54.3551,-50.4227 L -54.8129,-50.8526
 L -55.3209,-51.2216 L -55.8711,-51.5241 L -56.4549,-51.7553 L -57.0631,-51.9114 L -57.686,-51.9901 L -62.3139,-51.9901
 L -62.9369,-51.9114 L -63.5451,-51.7553 L -64.1289,-51.5241 L -64.6791,-51.2216 L -65.1871,-50.8526 L -65.6448,-50.4227
 L -66.0451,-49.9389 L -66.3815,-49.4088 L -66.6489,-48.8406 L -66.8429,-48.2434 L -66.9606,-47.6267 L -67,-47
 L -67,47 L -66.9606,47.6267 L -66.8429,48.2434 L -66.6489,48.8406 L -66.3815,49.4088 L -66.0451,49.9389
 L -65.6448,50.4227 L -65.1871,50.8526 L -64.6791,51.2216 L -64.1289,51.5241 L -63.5451,51.7553 L -62.9369,51.9114
 L -62.3139,51.9901 L 62.3139,51.9901 z
M -60.1884,-42.0059 L -60.5621,-42.0531 L -60.927,-42.1468 L -61.2773,-42.2855 L -61.6075,-42.467 L -61.9123,-42.6885
 L -62.1869,-42.9464 L -62.427,-43.2366 L -62.6289,-43.5547 L -62.7893,-43.8956 L -62.9057,-44.2539 L -62.9763,-44.624
 L -63,-45 L -62.9763,-45.376 L -62.9057,-45.7461 L -62.7893,-46.1044 L -62.6289,-46.4453 L -62.427,-46.7634
 L -62.1869,-47.0536 L -61.9123,-47.3115 L -61.6075,-47.533 L -61.2773,-47.7145 L -60.927,-47.8532 L -60.5621,-47.9469
 L -60.1884,-47.9941 L -59.8116,-47.9941 L -59.4379,-47.9469 L -59.0729,-47.8532 L -58.7227,-47.7145 L -58.3925,-47.533
 L -58.0877,-47.3115 L -57.8131,-47.0536 L -57.5729,-46.7634 L -57.3711,-46.4453 L -57.2107,-46.1044 L -57.0942,-45.7461
 L -57.0237,-45.376 L -57,-45 L -57.0237,-44.624 L -57.0942,-44.2539 L -57.2107,-43.8956 L -57.3711,-43.5547
 L -57.5729,-43.2366 L -57.8131,-42.9464 L -58.0877,-42.6885 L -58.3925,-42.467 L -58.7227,-42.2855 L -59.0729,-42.1468
 L -59.4379,-42.0531 L -59.8116,-42.0059 z
M 59.8116,-42.0059 L 59.4379,-42.0531 L 59.0729,-42.1468 L 58.7227,-42.2855 L 58.3925,-42.467 L 58.0877,-42.6885
 L 57.8131,-42.9464 L 57.5729,-43.2366 L 57.3711,-43.5547 L 57.2107,-43.8956 L 57.0942,-44.2539 L 57.0237,-44.624
 L 57,-45 L 57.0237,-45.376 L 57.0942,-45.7461 L 57.2107,-46.1044 L 57.3711,-46.4453 L 57.5729,-46.7634
 L 57.8131,-47.0536 L 58.0877,-47.3115 L 58.3925,-47.533 L 58.7227,-47.7145 L 59.0729,-47.8532 L 59.4379,-47.9469
 L 59.8116,-47.9941 L 60.1884,-47.9941 L 60.5621,-47.9469 L 60.927,-47.8532 L 61.2773,-47.7145 L 61.6075,-47.533
 L 61.9123,-47.3115 L 62.1869,-47.0536 L 62.427,-46.7634 L 62.6289,-46.4453 L 62.7893,-46.1044 L 62.9057,-45.7461
 L 62.9763,-45.376 L 63,-45 L 62.9763,-44.624 L 62.9057,-44.2539 L 62.7893,-43.8956 L 62.6289,-43.5547
 L 62.427,-43.2366 L 62.1869,-42.9464 L 61.9123,-42.6885 L 61.6075,-42.467 L 61.2773,-42.2855 L 60.927,-42.1468
 L 60.5621,-42.0531 L 60.1884,-42.0059 z
M -60.0942,-36.003 L -60.2811,-36.0266 L -60.4635,-36.0734 L -60.6387,-36.1428 L -60.8037,-36.2335 L -60.9561,-36.3442
 L -61.0934,-36.4732 L -61.2135,-36.6183 L -61.3145,-36.7774 L -61.3947,-36.9478 L -61.4529,-37.127 L -61.4882,-37.312
 L -61.5,-37.5 L -61.4882,-37.688 L -61.4529,-37.873 L -61.3947,-38.0522 L -61.3145,-38.2226 L -61.2135,-38.3817
 L -61.0934,-38.5268 L -60.9561,-38.6558 L -60.8037,-38.7665 L -60.6387,-38.8572 L -60.4635,-38.9266 L -60.2811,-38.9734
 L -60.0942,-38.997 L -59.9058,-38.997 L -59.7189,-38.9734 L -59.5365,-38.9266 L -59.3613,-38.8572 L -59.1963,-38.7665
 L -59.0439,-38.6558 L -58.9065,-38.5268 L -58.7865,-38.3817 L -58.6855,-38.2226 L -58.6053,-38.0522 L -58.5471,-37.873
 L -58.5118,-37.688 L -58.5,-37.5 L -58.5118,-37.312 L -58.5471,-37.127 L -58.6053,-36.9478 L -58.6855,-36.7774
 L -58.7865,-36.6183 L -58.9065,-36.4732 L -59.0439,-36.3442 L -59.1963,-36.2335 L -59.3613,-36.1428 L -59.5365,-36.0734
 L -59.7189,-36.0266 L -59.9058,-36.003 z
M 59.9058,-36.003 L 59.7189,-36.0266 L 59.5365,-36.0734 L 59.3613,-36.1428 L 59.1963,-36.2335 L 59.0439,-36.3442
 L 58.9065,-36.4732 L 58.7865,-36.6183 L 58.6855,-36.7774 L 58.6053,-36.9478 L 58.5471,-37.127 L 58.5118,-37.312
 L 58.5,-37.5 L 58.5118,-37.688 L 58.5471,-37.873 L 58.6053,-38.0522 L 58.6855,-38.2226 L 58.7865,-38.3817
 L 58.9065,-38.5268 L 59.0439,-38.6558 L 59.1963,-38.7665 L 59.3613,-38.8572 L 59.5365,-38.9266 L 59.7189,-38.9734
 L 59.9058,-38.997 L 60.0942,-38.997 L 60.2811,-38.9734 L 60.4635,-38.9266 L 60.6387,-38.8572 L 60.8037,-38.7665
 L 60.9561,-38.6558 L 61.0934,-38.5268 L 61.2135,-38.3817 L 61.3145,-38.2226 L 61.3947,-38.0522 L 61.4529,-37.873
 L 61.4882,-37.688 L 61.5,-37.5 L 61.4882,-37.312 L 61.4529,-37.127 L 61.3947,-36.9478 L 61.3145,-36.7774
 L 61.2135,-36.6183 L 61.0934,-36.4732 L 60.9561,-36.3442 L 60.8037,-36.2335 L 60.6387,-36.1428 L 60.4635,-36.0734
 L 60.2811,-36.0266 L 60.0942,-36.003 z
M -60.1884,-27.0059 L -60.5621,-27.0531 L -60.927,-27.1468 L -61.2773,-27.2855 L -61.6075,-27.467 L -61.9123,-27.6884
 L -62.1869,-27.9464 L -62.427,-28.2366 L -62.6289,-28.5547 L -62.7893,-28.8956 L -62.9057,-29.2539 L -62.9763,-29.624
 L -63,-30 L -62.9763,-30.376 L -62.9057,-30.7461 L -62.7893,-31.1044 L -62.6289,-31.4453 L -62.427,-31.7634
 L -62.1869,-32.0536 L -61.9123,-32.3115 L -61.6075,-32.533 L -61.2773,-32.7145 L -60.927,-32.8532 L -60.5621,-32.9469
 L -60.1884,-32.9941 L -59.8116,-32.9941 L -59.4379,-32.9469 L -59.0729,-32.8532 L -58.7227,-32.7145 L -58.3925,-32.533
 L -58.0877,-32.3115 L -57.8131,-32.0536 L -57.5729,-31.7634 L -57.3711,-31.4453 L -57.2107,-31.1044 L -57.0942,-30.7461
 L -57.0237,-30.376 L -57,-30 L -57.0237,-29.624 L -57.0942,-29.2539 L -57.2107,-28.8956 L -57.3711,-28.5547
 L -57.5729,-28.2366 L -57.8131,-27.9464 L -58.0877,-27.6884 L -58.3925,-27.467 L -58.7227,-27.2855 L -59.0729,-27.1468
 L -59.4379,-27.0531 L -59.8116,-27.0059 z
M 59.8116,-27.0059 L 59.4379,-27.0531 L 59.0729,-27.1468 L 58.7227,-27.2855 L 58.3925,-27.467 L 58.0877,-27.6884
 L 57.8131,-27.9464 L 57.5729,-28.2366 L 57.3711,-28.5547 L 57.2107,-28.8956 L 57.0942,-29.2539 L 57.0237,-29.624
 L 57,-30 L 57.0237,-30.376 L 57.0942,-30.7461 L 57.2107,-31.1044 L 57.3711,-31.4453 L 57.5729,-31.7634
 L 57.8131,-32.0536 L 58.0877,-32.3115 L 58.3925,-32.533 L 58.7227,-32.7145 L 59.0729,-32.8532 L 59.4379,-32.9469
 L 59.8116,-32.9941 L 60.1884,-32.9941 L 60.5621,-32.9469 L 60.927,-32.8532 L 61.2773,-32.7145 L 61.6075,-32.533
 L 61.9123,-32.3115 L 62.1869,-32.0536 L 62.427,-31.7634 L 62.6289,-31.4453 L 62.7893,-31.1044 L 62.9057,-30.7461
 L 62.9763,-30.376 L 63,-30 L 62.9763,-29.624 L 62.9057,-29.2539 L 62.7893,-28.8956 L 62.6289,-28.5547
 L 62.427,-28.2366 L 62.1869,-27.9464 L 61.9123,-27.6884 L 61.6075,-27.467 L 61.2773,-27.2855 L 60.927,-27.1468
 L 60.5621,-27.0531 L 60.1884,-27.0059 z
M 59.9058,-21.003 L 59.7189,-21.0266 L 59.5365,-21.0734 L 59.3613,-21.1427 L 59.1963,-21.2335 L 59.0439,-21.3442
 L 58.9065,-21.4732 L 58.7865,-21.6183 L 58.6855,-21.7774 L 58.6053,-21.9478 L 58.5471,-22.127 L 58.5118,-22.312
 L 58.5,-22.5 L 58.5118,-22.688 L 58.5471,-22.873 L 58.6053,-23.0522 L 58.6855,-23.2226 L 58.7865,-23.3817
 L 58.9065,-23.5268 L 59.0439,-23.6558 L 59.1963,-23.7665 L 59.3613,-23.8572 L 59.5365,-23.9266 L 59.7189,-23.9734
 L 59.9058,-23.997 L 60.0942,-23.997 L 60.2811,-23.9734 L 60.4635,-23.9266 L 60.6387,-23.8572 L 60.8037,-23.7665
 L 60.9561,-23.6558 L 61.0934,-23.5268 L 61.2135,-23.3817 L 61.3145,-23.2226 L 61.3947,-23.0522 L 61.4529,-22.873
 L 61.4882,-22.688 L 61.5,-22.5 L 61.4882,-22.312 L 61.4529,-22.127 L 61.3947,-21.9478 L 61.3145,-21.7774
 L 61.2135,-21.6183 L 61.0934,-21.4732 L 60.9561,-21.3442 L 60.8037,-21.2335 L 60.6387,-21.1427 L 60.4635,-21.0734
 L 60.2811,-21.0266 L 60.0942,-21.003 z
M -60.0942,-21.003 L -60.2811,-21.0266 L -60.4635,-21.0734 L -60.6387,-21.1427 L -60.8037,-21.2335 L -60.9561,-21.3442
 L -61.0934,-21.4732 L -61.2135,-21.6183 L -61.3145,-21.7774 L -61.3947,-21.9478 L -61.4529,-22.127 L -61.4882,-22.312
 L -61.5,-22.5 L -61.4882,-22.688 L -61.4529,-22.873 L -61.3947,-23.0522 L -61.3145,-23.2226 L -61.2135,-23.3817
 L -61.0934,-23.5268 L -60.9561,-23.6558 L -60.8037,-23.7665 L -60.6387,-23.8572 L -60.4635,-23.9266 L -60.2811,-23.9734
 L -60.0942,-23.997 L -59.9058,-23.997 L -59.7189,-23.9734 L -59.5365,-23.9266 L -59.3613,-23.8572 L -59.1963,-23.7665
 L -59.0439,-23.6558 L -58.9065,-23.5268 L -58.7865,-23.3817 L -58.6855,-23.2226 L -58.6053,-23.0522 L -58.5471,-22.873
 L -58.5118,-22.688 L -58.5,-22.5 L -58.5118,-22.312 L -58.5471,-22.127 L -58.6053,-21.9478 L -58.6855,-21.7774
 L -58.7865,-21.6183 L -58.9065,-21.4732 L -59.0439,-21.3442 L -59.1963,-21.2335 L -59.3613,-21.1427 L -59.5365,-21.0734
 L -59.7189,-21.0266 L -59.9058,-21.003 z
M 59.8116,-12.0059 L 59.4379,-12.0531 L 59.0729,-12.1468 L 58.7227,-12.2855 L 58.3925,-12.467 L 58.0877,-12.6884
 L 57.8131,-12.9464 L 57.5729,-13.2366 L 57.3711,-13.5547 L 57.2107,-13.8956 L 57.0942,-14.2539 L 57.0237,-14.624
 L 57,-15 L 57.0237,-15.376 L 57.0942,-15.7461 L 57.2107,-16.1044 L 57.3711,-16.4453 L 57.5729,-16.7634
 L 57.8131,-17.0536 L 58.0877,-17.3115 L 58.3925,-17.533 L 58.7227,-17.7145 L 59.0729,-17.8532 L 59.4379,-17.9469
 L 59.8116,-17.9941 L 60.1884,-17.9941 L 60.5621,-17.9469 L 60.927,-17.8532 L 61.2773,-17.7145 L 61.6075,-17.533
 L 61.9123,-17.3115 L 62.1869,-17.0536 L 62.427,-16.7634 L 62.6289,-16.4453 L 62.7893,-16.1044 L 62.9057,-15.7461
 L 62.9763,-15.376 L 63,-15 L 62.9763,-14.624 L 62.9057,-14.2539 L 62.7893,-13.8956 L 62.6289,-13.5547
 L 62.427,-13.2366 L 62.1869,-12.9464 L 61.9123,-12.6884 L 61.6075,-12.467 L 61.2773,-12.2855 L 60.927,-12.1468
 L 60.5621,-12.0531 L 60.1884,-12.0059 z
M -60.1884,-12.0059 L -60.5621,-12.0531 L -60.927,-12.1468 L -61.2773,-12.2855 L -61.6075,-12.467 L -61.9123,-12.6884
 L -62.1869,-12.9464 L -62.427,-13.2366 L -62.6289,-13.5547 L -62.7893,-13.8956 L -62.9057,-14.2539 L -62.9763,-14.624
 L -63,-15 L -62.9763,-15.376 L -62.9057,-15.7461 L -62.7893,-16.1044 L -62.6289,-16.4453 L -62.427,-16.7634
 L -62.1869,-17.0536 L -61.9123,-17.3115 L -61.6075,-17.533 L -61.2773,-17.7145 L -60.927,-17.8532 L -60.5621,-17.9469
 L -60.1884,-17.9941 L -59.8116,-17.9941 L -59.4379,-17.9469 L -59.0729,-17.8532 L -58.7227,-17.7145 L -58.3925,-17.533
 L -58.0877,-17.3115 L -57.8131,-17.0536 L -57.5729,-16.7634 L -57.3711,-16.4453 L -57.2107,-16.1044 L -57.0942,-15.7461
 L -57.0237,-15.376 L -57,-15 L -57.0237,-14.624 L -57.0942,-14.2539 L -57.2107,-13.8956 L -57.3711,-13.5547
 L -57.5729,-13.2366 L -57.8131,-12.9464 L -58.0877,-12.6884 L -58.3925,-12.467 L -58.7227,-12.2855 L -59.0729,-12.1468
 L -59.4379,-12.0531 L -59.8116,-12.0059 z
M -60.0942,-6.00294 L -60.2811,-6.02657 L -60.4635,-6.07341 L -60.6387,-6.14275 L -60.8037,-6.23351 L -60.9561,-6.34422
 L -61.0934,-6.47318 L -61.2135,-6.61832 L -61.3145,-6.77736 L -61.3947,-6.9478 L -61.4529,-7.12695 L -61.4882,-7.312
 L -61.5,-7.5 L -61.4882,-7.68799 L -61.4529,-7.87303 L -61.3947,-8.05219 L -61.3145,-8.22263 L -61.2135,-8.38167
 L -61.0934,-8.52681 L -60.9561,-8.65576 L -60.8037,-8.76648 L -60.6387,-8.85724 L -60.4635,-8.92657 L -60.2811,-8.97342
 L -60.0942,-8.99704 L -59.9058,-8.99704 L -59.7189,-8.97342 L -59.5365,-8.92657 L -59.3613,-8.85724 L -59.1963,-8.76648
 L -59.0439,-8.65576 L -58.9065,-8.52681 L -58.7865,-8.38167 L -58.6855,-8.22263 L -58.6053,-8.05219 L -58.5471,-7.87303
 L -58.5118,-7.68799 L -58.5,-7.5 L -58.5118,-7.312 L -58.5471,-7.12695 L -58.6053,-6.9478 L -58.6855,-6.77736
 L -58.7865,-6.61832 L -58.9065,-6.47318 L -59.0439,-6.34422 L -59.1963,-6.23351 L -59.3613,-6.14275 L -59.5365,-6.07341
 L -59.7189,-6.02657 L -59.9058,-6.00294 z
M 59.9058,-6.00294 L 59.7189,-6.02657 L 59.5365,-6.07341 L 59.3613,-6.14275 L 59.1963,-6.23351 L 59.0439,-6.34422
 L 58.9065,-6.47318 L 58.7865,-6.61832 L 58.6855,-6.77736 L 58.6053,-6.9478 L 58.5471,-7.12695 L 58.5118,-7.312
 L 58.5,-7.5 L 58.5118,-7.68799 L 58.5471,-7.87303 L 58.6053,-8.05219 L 58.6855,-8.22263 L 58.7865,-8.38167
 L 58.9065,-8.52681 L 59.0439,-8.65576 L 59.1963,-8.76648 L 59.3613,-8.85724 L 59.5365,-8.92657 L 59.7189,-8.97342
 L 59.9058,-8.99704 L 60.0942,-8.99704 L 60.2811,-8.97342 L 60.4635,-8.92657 L 60.6387,-8.85724 L 60.8037,-8.76648
 L 60.9561,-8.65576 L 61.0934,-8.52681 L 61.2135,-8.38167 L 61.3145,-8.22263 L 61.3947,-8.05219 L 61.4529,-7.87303
 L 61.4882,-7.68799 L 61.5,-7.5 L 61.4882,-7.312 L 61.4529,-7.12695 L 61.3947,-6.9478 L 61.3145,-6.77736
 L 61.2135,-6.61832 L 61.0934,-6.47318 L 60.9561,-6.34422 L 60.8037,-6.23351 L 60.6387,-6.14275 L 60.4635,-6.07341
 L 60.2811,-6.02657 L 60.0942,-6.00294 z
M 59.8116,2.99408 L 59.4379,2.94685 L 59.0729,2.85316 L 58.7227,2.71448 L 58.3925,2.53297 L 58.0877,2.31154
 L 57.8131,2.05363 L 57.5729,1.76335 L 57.3711,1.44525 L 57.2107,1.10437 L 57.0942,0.746063 L 57.0237,0.375992
 L 57,-0 L 57.0237,-0.375992 L 57.0942,-0.746063 L 57.2107,-1.10437 L 57.3711,-1.44525 L 57.5729,-1.76335
 L 57.8131,-2.05363 L 58.0877,-2.31154 L 58.3925,-2.53297 L 58.7227,-2.71448 L 59.0729,-2.85316 L 59.4379,-2.94685
 L 59.8116,-2.99408 L 60.1884,-2.99408 L 60.5621,-2.94685 L 60.927,-2.85316 L 61.2773,-2.71448 L 61.6075,-2.53297
 L 61.9123,-2.31154 L 62.1869,-2.05363 L 62.427,-1.76335 L 62.6289,-1.44525 L 62.7893,-1.10437 L 62.9057,-0.746063
 L 62.9763,-0.375992 L 63,-0 L 62.9763,0.375992 L 62.9057,0.746063 L 62.7893,1.10437 L 62.6289,1.44525
 L 62.427,1.76335 L 62.1869,2.05363 L 61.9123,2.31154 L 61.6075,2.53297 L 61.2773,2.71448 L 60.927,2.85316
 L 60.5621,2.94685 L 60.1884,2.99408 z
M -60.1884,2.99408 L -60.5621,2.94685 L -60.927,2.85316 L -61.2773,2.71448 L -61.6075,2.53297 L -61.9123,2.31154
 L -62.1869,2.05363 L -62.427,1.76335 L -62.6289,1.44525 L -62.7893,1.10437 L -62.9057,0.746063 L -62.9763,0.375992
 L -63,-0 L -62.9763,-0.375992 L -62.9057,-0.746063 L -62.7893,-1.10437 L -62.6289,-1.44525 L -62.427,-1.76335
 L -62.1869,-2.05363 L -61.9123,-2.31154 L -61.6075,-2.53297 L -61.2773,-2.71448 L -60.927,-2.85316 L -60.5621,-2.94685
 L -60.1884,-2.99408 L -59.8116,-2.99408 L -59.4379,-2.94685 L -59.0729,-2.85316 L -58.7227,-2.71448 L -58.3925,-2.53297
 L -58.0877,-2.31154 L -57.8131,-2.05363 L -57.5729,-1.76335 L -57.3711,-1.44525 L -57.2107,-1.10437 L -57.0942,-0.746063
 L -57.0237,-0.375992 L -57,-0 L -57.0237,0.375992 L -57.0942,0.746063 L -57.2107,1.10437 L -57.3711,1.44525
 L -57.5729,1.76335 L -57.8131,2.05363 L -58.0877,2.31154 L -58.3925,2.53297 L -58.7227,2.71448 L -59.0729,2.85316
 L -59.4379,2.94685 L -59.8116,2.99408 z
M -60.0942,8.99704 L -60.2811,8.97342 L -60.4635,8.92657 L -60.6387,8.85724 L -60.8037,8.76648 L -60.9561,8.65576
 L -61.0934,8.52681 L -61.2135,8.38167 L -61.3145,8.22263 L -61.3947,8.05219 L -61.4529,7.87303 L -61.4882,7.68799
 L -61.5,7.5 L -61.4882,7.312 L -61.4529,7.12695 L -61.3947,6.9478 L -61.3145,6.77736 L -61.2135,6.61832
 L -61.0934,6.47318 L -60.9561,6.34422 L -60.8037,6.23351 L -60.6387,6.14275 L -60.4635,6.07341 L -60.2811,6.02657
 L -60.0942,6.00294 L -59.9058,6.00294 L -59.7189,6.02657 L -59.5365,6.07341 L -59.3613,6.14275 L -59.1963,6.23351
 L -59.0439,6.34422 L -58.9065,6.47318 L -58.7865,6.61832 L -58.6855,6.77736 L -58.6053,6.9478 L -58.5471,7.12695
 L -58.5118,7.312 L -58.5,7.5 L -58.5118,7.68799 L -58.5471,7.87303 L -58.6053,8.05219 L -58.6855,8.22263
 L -58.7865,8.38167 L -58.9065,8.52681 L -59.0439,8.65576 L -59.1963,8.76648 L -59.3613,8.85724 L -59.5365,8.92657
 L -59.7189,8.97342 L -59.9058,8.99704 z
M 59.9058,8.99704 L 59.7189,8.97342 L 59.5365,8.92657 L 59.3613,8.85724 L 59.1963,8.76648 L 59.0439,8.65576
 L 58.9065,8.52681 L 58.7865,8.38167 L 58.6855,8.22263 L 58.6053,8.05219 L 58.5471,7.87303 L 58.5118,7.68799
 L 58.5,7.5 L 58.5118,7.312 L 58.5471,7.12695 L 58.6053,6.9478 L 58.6855,6.77736 L 58.7865,6.61832
 L 58.9065,6.47318 L 59.0439,6.34422 L 59.1963,6.23351 L 59.3613,6.14275 L 59.5365,6.07341 L 59.7189,6.02657
 L 59.9058,6.00294 L 60.0942,6.00294 L 60.2811,6.02657 L 60.4635,6.07341 L 60.6387,6.14275 L 60.8037,6.23351
 L 60.9561,6.34422 L 61.0934,6.47318 L 61.2135,6.61832 L 61.3145,6.77736 L 61.3947,6.9478 L 61.4529,7.12695
 L 61.4882,7.312 L 61.5,7.5 L 61.4882,7.68799 L 61.4529,7.87303 L 61.3947,8.05219 L 61.3145,8.22263
 L 61.2135,8.38167 L 61.0934,8.52681 L 60.9561,8.65576 L 60.8037,8.76648 L 60.6387,8.85724 L 60.4635,8.92657
 L 60.2811,8.97342 L 60.0942,8.99704 z
M 59.8116,17.9941 L 59.4379,17.9469 L 59.0729,17.8532 L 58.7227,17.7145 L 58.3925,17.533 L 58.0877,17.3115
 L 57.8131,17.0536 L 57.5729,16.7634 L 57.3711,16.4453 L 57.2107,16.1044 L 57.0942,15.7461 L 57.0237,15.376
 L 57,15 L 57.0237,14.624 L 57.0942,14.2539 L 57.2107,13.8956 L 57.3711,13.5547 L 57.5729,13.2366
 L 57.8131,12.9464 L 58.0877,12.6884 L 58.3925,12.467 L 58.7227,12.2855 L 59.0729,12.1468 L 59.4379,12.0531
 L 59.8116,12.0059 L 60.1884,12.0059 L 60.5621,12.0531 L 60.927,12.1468 L 61.2773,12.2855 L 61.6075,12.467
 L 61.9123,12.6884 L 62.1869,12.9464 L 62.427,13.2366 L 62.6289,13.5547 L 62.7893,13.8956 L 62.9057,14.2539
 L 62.9763,14.624 L 63,15 L 62.9763,15.376 L 62.9057,15.7461 L 62.7893,16.1044 L 62.6289,16.4453
 L 62.427,16.7634 L 62.1869,17.0536 L 61.9123,17.3115 L 61.6075,17.533 L 61.2773,17.7145 L 60.927,17.8532
 L 60.5621,17.9469 L 60.1884,17.9941 z
M -60.1884,17.9941 L -60.5621,17.9469 L -60.927,17.8532 L -61.2773,17.7145 L -61.6075,17.533 L -61.9123,17.3115
 L -62.1869,17.0536 L -62.427,16.7634 L -62.6289,16.4453 L -62.7893,16.1044 L -62.9057,15.7461 L -62.9763,15.376
 L -63,15 L -62.9763,14.624 L -62.9057,14.2539 L -62.7893,13.8956 L -62.6289,13.5547 L -62.427,13.2366
 L -62.1869,12.9464 L -61.9123,12.6884 L -61.6075,12.467 L -61.2773,12.2855 L -60.927,12.1468 L -60.5621,12.0531
 L -60.1884,12.0059 L -59.8116,12.0059 L -59.4379,12.0531 L -59.0729,12.1468 L -58.7227,12.2855 L -58.3925,12.467
 L -58.0877,12.6884 L -57.8131,12.9464 L -57.5729,13.2366 L -57.3711,13.5547 L -57.2107,13.8956 L -57.0942,14.2539
 L -57.0237,14.624 L -57,15 L -57.0237,15.376 L -57.0942,15.7461 L -57.2107,16.1044 L -57.3711,16.4453
 L -57.5729,16.7634 L -57.8131,17.0536 L -58.0877,17.3115 L -58.3925,17.533 L -58.7227,17.7145 L -59.0729,17.8532
 L -59.4379,17.9469 L -59.8116,17.9941 z
M 59.9058,23.997 L 59.7189,23.9734 L 59.5365,23.9266 L 59.3613,23.8572 L 59.1963,23.7665 L 59.0439,23.6558
 L 58.9065,23.5268 L 58.7865,23.3817 L 58.6855,23.2226 L 58.6053,23.0522 L 58.5471,22.873 L 58.5118,22.688
 L 58.5,22.5 L 58.5118,22.312 L 58.5471,22.127 L 58.6053,21.9478 L 58.6855,21.7774 L 58.7865,21.6183
 L 58.9065,21.4732 L 59.0439,21.3442 L 59.1963,21.2335 L 59.3613,21.1427 L 59.5365,21.0734 L 59.7189,21.0266
 L 59.9058,21.003 L 60.0942,21.003 L 60.2811,21.0266 L 60.4635,21.0734 L 60.6387,21.1427 L 60.8037,21.2335
 L 60.9561,21.3442 L 61.0934,21.4732 L 61.2135,21.6183 L 61.3145,21.7774 L 61.3947,21.9478 L 61.4529,22.127
 L 61.4882,22.312 L 61.5,22.5 L 61.4882,22.688 L 61.4529,22.873 L 61.3947,23.0522 L 61.3145,23.2226
 L 61.2135,23.3817 L 61.0934,23.5268 L 60.9561,23.6558 L 60.8037,23.7665 L 60.6387,23.8572 L 60.4635,23.9266
 L 60.2811,23.9734 L 60.0942,23.997 z
M -60.0942,23.997 L -60.2811,23.9734 L -60.4635,23.9266 L -60.6387,23.8572 L -60.8037,23.7665 L -60.9561,23.6558
 L -61.0934,23.5268 L -61.2135,23.3817 L -61.3145,23.2226 L -61.3947,23.0522 L -61.4529,22.873 L -61.4882,22.688
 L -61.5,22.5 L -61.4882,22.312 L -61.4529,22.127 L -61.3947,21.9478 L -61.3145,21.7774 L -61.2135,21.6183
 L -61.0934,21.4732 L -60.9561,21.3442 L -60.8037,21.2335 L -60.6387,21.1427 L -60.4635,21.0734 L -60.2811,21.0266
 L -60.0942,21.003 L -59.9058,21.003 L -59.7189,21.0266 L -59.5365,21.0734 L -59.3613,21.1427 L -59.1963,21.2335
 L -59.0439,21.3442 L -58.9065,21.4732 L -58.7865,21.6183 L -58.6855,21.7774 L -58.6053,21.9478 L -58.5471,22.127
 L -58.5118,22.312 L -58.5,22.5 L -58.5118,22.688 L -58.5471,22.873 L -58.6053,23.0522 L -58.6855,23.2226
 L -58.7865,23.3817 L -58.9065,23.5268 L -59.0439,23.6558 L -59.1963,23.7665 L -59.3613,23.8572 L -59.5365,23.9266
 L -59.7189,23.9734 L -59.9058,23.997 z
M 59.8116,32.9941 L 59.4379,32.9469 L 59.0729,32.8532 L 58.7227,32.7145 L 58.3925,32.533 L 58.0877,32.3115
 L 57.8131,32.0536 L 57.5729,31.7634 L 57.3711,31.4453 L 57.2107,31.1044 L 57.0942,30.7461 L 57.0237,30.376
 L 57,30 L 57.0237,29.624 L 57.0942,29.2539 L 57.2107,28.8956 L 57.3711,28.5547 L 57.5729,28.2366
 L 57.8131,27.9464 L 58.0877,27.6884 L 58.3925,27.467 L 58.7227,27.2855 L 59.0729,27.1468 L 59.4379,27.0531
 L 59.8116,27.0059 L 60.1884,27.0059 L 60.5621,27.0531 L 60.927,27.1468 L 61.2773,27.2855 L 61.6075,27.467
 L 61.9123,27.6884 L 62.1869,27.9464 L 62.427,28.2366 L 62.6289,28.5547 L 62.7893,28.8956 L 62.9057,29.2539
 L 62.9763,29.624 L 63,30 L 62.9763,30.376 L 62.9057,30.7461 L 62.7893,31.1044 L 62.6289,31.4453
 L 62.427,31.7634 L 62.1869,32.0536 L 61.9123,32.3115 L 61.6075,32.533 L 61.2773,32.7145 L 60.927,32.8532
 L 60.5621,32.9469 L 60.1884,32.9941 z
M -60.1884,32.9941 L -60.5621,32.9469 L -60.927,32.8532 L -61.2773,32.7145 L -61.6075,32.533 L -61.9123,32.3115
 L -62.1869,32.0536 L -62.427,31.7634 L -62.6289,31.4453 L -62.7893,31.1044 L -62.9057,30.7461 L -62.9763,30.376
 L -63,30 L -62.9763,29.624 L -62.9057,29.2539 L -62.7893,28.8956 L -62.6289,28.5547 L -62.427,28.2366
 L -62.1869,27.9464 L -61.9123,27.6884 L -61.6075,27.467 L -61.2773,27.2855 L -60.927,27.1468 L -60.5621,27.0531
 L -60.1884,27.0059 L -59.8116,27.0059 L -59.4379,27.0531 L -59.0729,27.1468 L -58.7227,27.2855 L -58.3925,27.467
 L -58.0877,27.6884 L -57.8131,27.9464 L -57.5729,28.2366 L -57.3711,28.5547 L -57.2107,28.8956 L -57.0942,29.2539
 L -57.0237,29.624 L -57,30 L -57.0237,30.376 L -57.0942,30.7461 L -57.2107,31.1044 L -57.3711,31.4453
 L -57.5729,31.7634 L -57.8131,32.0536 L -58.0877,32.3115 L -58.3925,32.533 L -58.7227,32.7145 L -59.0729,32.8532
 L -59.4379,32.9469 L -59.8116,32.9941 z
M -60.0942,38.997 L -60.2811,38.9734 L -60.4635,38.9266 L -60.6387,38.8572 L -60.8037,38.7665 L -60.9561,38.6558
 L -61.0934,38.5268 L -61.2135,38.3817 L -61.3145,38.2226 L -61.3947,38.0522 L -61.4529,37.873 L -61.4882,37.688
 L -61.5,37.5 L -61.4882,37.312 L -61.4529,37.127 L -61.3947,36.9478 L -61.3145,36.7774 L -61.2135,36.6183
 L -61.0934,36.4732 L -60.9561,36.3442 L -60.8037,36.2335 L -60.6387,36.1428 L -60.4635,36.0734 L -60.2811,36.0266
 L -60.0942,36.003 L -59.9058,36.003 L -59.7189,36.0266 L -59.5365,36.0734 L -59.3613,36.1428 L -59.1963,36.2335
 L -59.0439,36.3442 L -58.9065,36.4732 L -58.7865,36.6183 L -58.6855,36.7774 L -58.6053,36.9478 L -58.5471,37.127
 L -58.5118,37.312 L -58.5,37.5 L -58.5118,37.688 L -58.5471,37.873 L -58.6053,38.0522 L -58.6855,38.2226
 L -58.7865,38.3817 L -58.9065,38.5268 L -59.0439,38.6558 L -59.1963,38.7665 L -59.3613,38.8572 L -59.5365,38.9266
 L -59.7189,38.9734 L -59.9058,38.997 z
M 59.9058,38.997 L 59.7189,38.9734 L 59.5365,38.9266 L 59.3613,38.8572 L 59.1963,38.7665 L 59.0439,38.6558
 L 58.9065,38.5268 L 58.7865,38.3817 L 58.6855,38.2226 L 58.6053,38.0522 L 58.5471,37.873 L 58.5118,37.688
 L 58.5,37.5 L 58.5118,37.312 L 58.5471,37.127 L 58.6053,36.9478 L 58.6855,36.7774 L 58.7865,36.6183
 L 58.9065,36.4732 L 59.0439,36.3442 L 59.1963,36.2335 L 59.3613,36.1428 L 59.5365,36.0734 L 59.7189,36.0266
 L 59.9058,36.003 L 60.0942,36.003 L 60.2811,36.0266 L 60.4635,36.0734 L 60.6387,36.1428 L 60.8037,36.2335
 L 60.9561,36.3442 L 61.0934,36.4732 L 61.2135,36.6183 L 61.3145,36.7774 L 61.3947,36.9478 L 61.4529,37.127
 L 61.4882,37.312 L 61.5,37.5 L 61.4882,37.688 L 61.4529,37.873 L 61.3947,38.0522 L 61.3145,38.2226
 L 61.2135,38.3817 L 61.0934,38.5268 L 60.9561,38.6558 L 60.8037,38.7665 L 60.6387,38.8572 L 60.4635,38.9266
 L 60.2811,38.9734 L 60.0942,38.997 z
M 59.8116,47.9941 L 59.4379,47.9469 L 59.0729,47.8532 L 58.7227,47.7145 L 58.3925,47.533 L 58.0877,47.3115
 L 57.8131,47.0536 L 57.5729,46.7634 L 57.3711,46.4453 L 57.2107,46.1044 L 57.0942,45.7461 L 57.0237,45.376
 L 57,45 L 57.0237,44.624 L 57.0942,44.2539 L 57.2107,43.8956 L 57.3711,43.5547 L 57.5729,43.2366
 L 57.8131,42.9464 L 58.0877,42.6885 L 58.3925,42.467 L 58.7227,42.2855 L 59.0729,42.1468 L 59.4379,42.0531
 L 59.8116,42.0059 L 60.1884,42.0059 L 60.5621,42.0531 L 60.927,42.1468 L 61.2773,42.2855 L 61.6075,42.467
 L 61.9123,42.6885 L 62.1869,42.9464 L 62.427,43.2366 L 62.6289,43.5547 L 62.7893,43.8956 L 62.9057,44.2539
 L 62.9763,44.624 L 63,45 L 62.9763,45.376 L 62.9057,45.7461 L 62.7893,46.1044 L 62.6289,46.4453
 L 62.427,46.7634 L 62.1869,47.0536 L 61.9123,47.3115 L 61.6075,47.533 L 61.2773,47.7145 L 60.927,47.8532
 L 60.5621,47.9469 L 60.1884,47.9941 z
M 29.8116,47.9941 L 29.4379,47.9469 L 29.0729,47.8532 L 28.7227,47.7145 L 28.3925,47.533 L 28.0877,47.3115
 L 27.8131,47.0536 L 27.5729,46.7634 L 27.3711,46.4453 L 27.2107,46.1044 L 27.0942,45.7461 L 27.0237,45.376
 L 27,45 L 27.0237,44.624 L 27.0942,44.2539 L 27.2107,43.8956 L 27.3711,43.5547 L 27.5729,43.2366
 L 27.8131,42.9464 L 28.0877,42.6885 L 28.3925,42.467 L 28.7227,42.2855 L 29.0729,42.1468 L 29.4379,42.0531
 L 29.8116,42.0059 L 30.1884,42.0059 L 30.5621,42.0531 L 30.927,42.1468 L 31.2773,42.2855 L 31.6075,42.467
 L 31.9123,42.6885 L 32.1869,42.9464 L 32.427,43.2366 L 32.6289,43.5547 L 32.7893,43.8956 L 32.9057,44.2539
 L 32.9763,44.624 L 33,45 L 32.9763,45.376 L 32.9057,45.7461 L 32.7893,46.1044 L 32.6289,46.4453
 L 32.427,46.7634 L 32.1869,47.0536 L 31.9123,47.3115 L 31.6075,47.533 L 31.2773,47.7145 L 30.927,47.8532
 L 30.5621,47.9469 L 30.1884,47.9941 z
M -60.1884,47.9941 L -60.5621,47.9469 L -60.927,47.8532 L -61.2773,47.7145 L -61.6075,47.533 L -61.9123,47.3115
 L -62.1869,47.0536 L -62.427,46.7634 L -62.6289,46.4453 L -62.7893,46.1044 L -62.9057,45.7461 L -62.9763,45.376
 L -63,45 L -62.9763,44.624 L -62.9057,44.2539 L -62.7893,43.8956 L -62.6289,43.5547 L -62.427,43.2366
 L -62.1869,42.9464 L -61.9123,42.6885 L -61.6075,42.467 L -61.2773,42.2855 L -60.927,42.1468 L -60.5621,42.0531
 L -60.1884,42.0059 L -59.8116,42.0059 L -59.4379,42.0531 L -59.0729,42.1468 L -58.7227,42.2855 L -58.3925,42.467
 L -58.0877,42.6885 L -57.8131,42.9464 L -57.5729,43.2366 L -57.3711,43.5547 L -57.2107,43.8956 L -57.0942,44.2539
 L -57.0237,44.624 L -57,45 L -57.0237,45.376 L -57.0942,45.7461 L -57.2107,46.1044 L -57.3711,46.4453
 L -57.5729,46.7634 L -57.8131,47.0536 L -58.0877,47.3115 L -58.3925,47.533 L -58.7227,47.7145 L -59.0729,47.8532
 L -59.4379,47.9469 L -59.8116,47.9941 z
M -45.1884,47.9941 L -45.5621,47.9469 L -45.927,47.8532 L -46.2773,47.7145 L -46.6075,47.533 L -46.9123,47.3115
 L -47.1869,47.0536 L -47.427,46.7634 L -47.6289,46.4453 L -47.7893,46.1044 L -47.9057,45.7461 L -47.9763,45.376
 L -48,45 L -47.9763,44.624 L -47.9057,44.2539 L -47.7893,43.8956 L -47.6289,43.5547 L -47.427,43.2366
 L -47.1869,42.9464 L -46.9123,42.6885 L -46.6075,42.467 L -46.2773,42.2855 L -45.927,42.1468 L -45.5621,42.0531
 L -45.1884,42.0059 L -44.8116,42.0059 L -44.4379,42.0531 L -44.0729,42.1468 L -43.7227,42.2855 L -43.3925,42.467
 L -43.0877,42.6885 L -42.8131,42.9464 L -42.5729,43.2366 L -42.3711,43.5547 L -42.2107,43.8956 L -42.0942,44.2539
 L -42.0237,44.624 L -42,45 L -42.0237,45.376 L -42.0942,45.7461 L -42.2107,46.1044 L -42.3711,46.4453
 L -42.5729,46.7634 L -42.8131,47.0536 L -43.0877,47.3115 L -43.3925,47.533 L -43.7227,47.7145 L -44.0729,47.8532
 L -44.4379,47.9469 L -44.8116,47.9941 z
M -15.1884,47.9941 L -15.5621,47.9469 L -15.927,47.8532 L -16.2773,47.7145 L -16.6075,47.533 L -16.9123,47.3115
 L -17.1869,47.0536 L -17.427,46.7634 L -17.6289,46.4453 L -17.7893,46.1044 L -17.9057,45.7461 L -17.9763,45.376
 L -18,45 L -17.9763,44.624 L -17.9057,44.2539 L -17.7893,43.8956 L -17.6289,43.5547 L -17.427,43.2366
 L -17.1869,42.9464 L -16.9123,42.6885 L -16.6075,42.467 L -16.2773,42.2855 L -15.927,42.1468 L -15.5621,42.0531
 L -15.1884,42.0059 L -14.8116,42.0059 L -14.4379,42.0531 L -14.0729,42.1468 L -13.7227,42.2855 L -13.3925,42.467
 L -13.0877,42.6885 L -12.8131,42.9464 L -12.5729,43.2366 L -12.3711,43.5547 L -12.2107,43.8956 L -12.0942,44.2539
 L -12.0237,44.624 L -12,45 L -12.0237,45.376 L -12.0942,45.7461 L -12.2107,46.1044 L -12.3711,46.4453
 L -12.5729,46.7634 L -12.8131,47.0536 L -13.0877,47.3115 L -13.3925,47.533 L -13.7227,47.7145 L -14.0729,47.8532
 L -14.4379,47.9469 L -14.8116,47.9941 z
M -0.18837,47.9941 L -0.562134,47.9469 L -0.927048,47.8532 L -1.27733,47.7145 L -1.60747,47.533 L -1.91226,47.3115
 L -2.1869,47.0536 L -2.42705,46.7634 L -2.62891,46.4453 L -2.78932,46.1044 L -2.90575,45.7461 L -2.97633,45.376
 L -3,45 L -2.97633,44.624 L -2.90575,44.2539 L -2.78932,43.8956 L -2.62891,43.5547 L -2.42705,43.2366
 L -2.1869,42.9464 L -1.91226,42.6885 L -1.60747,42.467 L -1.27733,42.2855 L -0.927048,42.1468 L -0.562134,42.0531
 L -0.18837,42.0059 L 0.18837,42.0059 L 0.562134,42.0531 L 0.927048,42.1468 L 1.27733,42.2855 L 1.60747,42.467
 L 1.91226,42.6885 L 2.1869,42.9464 L 2.42705,43.2366 L 2.62891,43.5547 L 2.78932,43.8956 L 2.90575,44.2539
 L 2.97633,44.624 L 3,45 L 2.97633,45.376 L 2.90575,45.7461 L 2.78932,46.1044 L 2.62891,46.4453
 L 2.42705,46.7634 L 2.1869,47.0536 L 1.91226,47.3115 L 1.60747,47.533 L 1.27733,47.7145 L 0.927048,47.8532
 L 0.562134,47.9469 L 0.18837,47.9941 z
M 14.8116,47.9941 L 14.4379,47.9469 L 14.0729,47.8532 L 13.7227,47.7145 L 13.3925,47.533 L 13.0877,47.3115
 L 12.8131,47.0536 L 12.5729,46.7634 L 12.3711,46.4453 L 12.2107,46.1044 L 12.0942,45.7461 L 12.0237,45.376
 L 12,45 L 12.0237,44.624 L 12.0942,44.2539 L 12.2107,43.8956 L 12.3711,43.5547 L 12.5729,43.2366
 L 12.8131,42.9464 L 13.0877,42.6885 L 13.3925,42.467 L 13.7227,42.2855 L 14.0729,42.1468 L 14.4379,42.0531
 L 14.8116,42.0059 L 15.1884,42.0059 L 15.5621,42.0531 L 15.927,42.1468 L 16.2773,42.2855 L 16.6075,42.467
 L 16.9123,42.6885 L 17.1869,42.9464 L 17.427,43.2366 L 17.6289,43.5547 L 17.7893,43.8956 L 17.9057,44.2539
 L 17.9763,44.624 L 18,45 L 17.9763,45.376 L 17.9057,45.7461 L 17.7893,46.1044 L 17.6289,46.4453
 L 17.427,46.7634 L 17.1869,47.0536 L 16.9123,47.3115 L 16.6075,47.533 L 16.2773,47.7145 L 15.927,47.8532
 L 15.5621,47.9469 L 15.1884,47.9941 z
M -30.1884,47.9941 L -30.5621,47.9469 L -30.927,47.8532 L -31.2773,47.7145 L -31.6075,47.533 L -31.9123,47.3115
 L -32.1869,47.0536 L -32.427,46.7634 L -32.6289,46.4453 L -32.7893,46.1044 L -32.9057,45.7461 L -32.9763,45.376
 L -33,45 L -32.9763,44.624 L -32.9057,44.2539 L -32.7893,43.8956 L -32.6289,43.5547 L -32.427,43.2366
 L -32.1869,42.9464 L -31.9123,42.6885 L -31.6075,42.467 L -31.2773,42.2855 L -30.927,42.1468 L -30.5621,42.0531
 L -30.1884,42.0059 L -29.8116,42.0059 L -29.4379,42.0531 L -29.0729,42.1468 L -28.7227,42.2855 L -28.3925,42.467
 L -28.0877,42.6885 L -27.8131,42.9464 L -27.5729,43.2366 L -27.3711,43.5547 L -27.2107,43.8956 L -27.0942,44.2539
 L -27.0237,44.624 L -27,45 L -27.0237,45.376 L -27.0942,45.7461 L -27.2107,46.1044 L -27.3711,46.4453
 L -27.5729,46.7634 L -27.8131,47.0536 L -28.0877,47.3115 L -28.3925,47.533 L -28.7227,47.7145 L -29.0729,47.8532
 L -29.4379,47.9469 L -29.8116,47.9941 z
M 44.8116,47.9941 L 44.4379,47.9469 L 44.0729,47.8532 L 43.7227,47.7145 L 43.3925,47.533 L 43.0877,47.3115
 L 42.8131,47.0536 L 42.5729,46.7634 L 42.3711,46.4453 L 42.2107,46.1044 L 42.0942,45.7461 L 42.0237,45.376
 L 42,45 L 42.0237,44.624 L 42.0942,44.2539 L 42.2107,43.8956 L 42.3711,43.5547 L 42.5729,43.2366
 L 42.8131,42.9464 L 43.0877,42.6885 L 43.3925,42.467 L 43.7227,42.2855 L 44.0729,42.1468 L 44.4379,42.0531
 L 44.8116,42.0059 L 45.1884,42.0059 L 45.5621,42.0531 L 45.927,42.1468 L 46.2773,42.2855 L 46.6075,42.467
 L 46.9123,42.6885 L 47.1869,42.9464 L 47.427,43.2366 L 47.6289,43.5547 L 47.7893,43.8956 L 47.9057,44.2539
 L 47.9763,44.624 L 48,45 L 47.9763,45.376 L 47.9057,45.7461 L 47.7893,46.1044 L 47.6289,46.4453
 L 47.427,46.7634 L 47.1869,47.0536 L 46.9123,47.3115 L 46.6075,47.533 L 46.2773,47.7145 L 45.927,47.8532
 L 45.5621,47.9469 L 45.1884,47.9941 z
M -37.5942,46.497 L -37.7811,46.4734 L -37.9635,46.4266 L -38.1387,46.3572 L -38.3037,46.2665 L -38.4561,46.1558
 L -38.5934,46.0268 L -38.7135,45.8817 L -38.8145,45.7226 L -38.8947,45.5522 L -38.9529,45.373 L -38.9882,45.188
 L -39,45 L -38.9882,44.812 L -38.9529,44.627 L -38.8947,44.4478 L -38.8145,44.2774 L -38.7135,44.1183
 L -38.5934,43.9732 L -38.4561,43.8442 L -38.3037,43.7335 L -38.1387,43.6428 L -37.9635,43.5734 L -37.7811,43.5266
 L -37.5942,43.503 L -37.4058,43.503 L -37.2189,43.5266 L -37.0365,43.5734 L -36.8613,43.6428 L -36.6963,43.7335
 L -36.5439,43.8442 L -36.4065,43.9732 L -36.2865,44.1183 L -36.1855,44.2774 L -36.1053,44.4478 L -36.0471,44.627
 L -36.0118,44.812 L -36,45 L -36.0118,45.188 L -36.0471,45.373 L -36.1053,45.5522 L -36.1855,45.7226
 L -36.2865,45.8817 L -36.4065,46.0268 L -36.5439,46.1558 L -36.6963,46.2665 L -36.8613,46.3572 L -37.0365,46.4266
 L -37.2189,46.4734 L -37.4058,46.497 z
M 22.4058,46.497 L 22.2189,46.4734 L 22.0365,46.4266 L 21.8613,46.3572 L 21.6963,46.2665 L 21.5439,46.1558
 L 21.4065,46.0268 L 21.2865,45.8817 L 21.1855,45.7226 L 21.1053,45.5522 L 21.0471,45.373 L 21.0118,45.188
 L 21,45 L 21.0118,44.812 L 21.0471,44.627 L 21.1053,44.4478 L 21.1855,44.2774 L 21.2865,44.1183
 L 21.4065,43.9732 L 21.5439,43.8442 L 21.6963,43.7335 L 21.8613,43.6428 L 22.0365,43.5734 L 22.2189,43.5266
 L 22.4058,43.503 L 22.5942,43.503 L 22.7811,43.5266 L 22.9635,43.5734 L 23.1387,43.6428 L 23.3037,43.7335
 L 23.4561,43.8442 L 23.5934,43.9732 L 23.7135,44.1183 L 23.8145,44.2774 L 23.8947,44.4478 L 23.9529,44.627
 L 23.9882,44.812 L 24,45 L 23.9882,45.188 L 23.9529,45.373 L 23.8947,45.5522 L 23.8145,45.7226
 L 23.7135,45.8817 L 23.5934,46.0268 L 23.4561,46.1558 L 23.3037,46.2665 L 23.1387,46.3572 L 22.9635,46.4266
 L 22.7811,46.4734 L 22.5942,46.497 z
M 52.4058,46.497 L 52.2189,46.4734 L 52.0365,46.4266 L 51.8613,46.3572 L 51.6963,46.2665 L 51.5439,46.1558
 L 51.4065,46.0268 L 51.2865,45.8817 L 51.1855,45.7226 L 51.1053,45.5522 L 51.0471,45.373 L 51.0118,45.188
 L 51,45 L 51.0118,44.812 L 51.0471,44.627 L 51.1053,44.4478 L 51.1855,44.2774 L 51.2865,44.1183
 L 51.4065,43.9732 L 51.5439,43.8442 L 51.6963,43.7335 L 51.8613,43.6428 L 52.0365,43.5734 L 52.2189,43.5266
 L 52.4058,43.503 L 52.5942,43.503 L 52.7811,43.5266 L 52.9635,43.5734 L 53.1387,43.6428 L 53.3037,43.7335
 L 53.4561,43.8442 L 53.5934,43.9732 L 53.7135,44.1183 L 53.8145,44.2774 L 53.8947,44.4478 L 53.9529,44.627
 L 53.9882,44.812 L 54,45 L 53.9882,45.188 L 53.9529,45.373 L 53.8947,45.5522 L 53.8145,45.7226
 L 53.7135,45.8817 L 53.5934,46.0268 L 53.4561,46.1558 L 53.3037,46.2665 L 53.1387,46.3572 L 52.9635,46.4266
 L 52.7811,46.4734 L 52.5942,46.497 z
M -52.5942,46.497 L -52.7811,46.4734 L -52.9635,46.4266 L -53.1387,46.3572 L -53.3037,46.2665 L -53.4561,46.1558
 L -53.5934,46.0268 L -53.7135,45.8817 L -53.8145,45.7226 L -53.8947,45.5522 L -53.9529,45.373 L -53.9882,45.188
 L -54,45 L -53.9882,44.812 L -53.9529,44.627 L -53.8947,44.4478 L -53.8145,44.2774 L -53.7135,44.1183
 L -53.5934,43.9732 L -53.4561,43.8442 L -53.3037,43.7335 L -53.1387,43.6428 L -52.9635,43.5734 L -52.7811,43.5266
 L -52.5942,43.503 L -52.4058,43.503 L -52.2189,43.5266 L -52.0365,43.5734 L -51.8613,43.6428 L -51.6963,43.7335
 L -51.5439,43.8442 L -51.4065,43.9732 L -51.2865,44.1183 L -51.1855,44.2774 L -51.1053,44.4478 L -51.0471,44.627
 L -51.0118,44.812 L -51,45 L -51.0118,45.188 L -51.0471,45.373 L -51.1053,45.5522 L -51.1855,45.7226
 L -51.2865,45.8817 L -51.4065,46.0268 L -51.5439,46.1558 L -51.6963,46.2665 L -51.8613,46.3572 L -52.0365,46.4266
 L -52.2189,46.4734 L -52.4058,46.497 z
M -22.5942,46.497 L -22.7811,46.4734 L -22.9635,46.4266 L -23.1387,46.3572 L -23.3037,46.2665 L -23.4561,46.1558
 L -23.5934,46.0268 L -23.7135,45.8817 L -23.8145,45.7226 L -23.8947,45.5522 L -23.9529,45.373 L -23.9882,45.188
 L -24,45 L -23.9882,44.812 L -23.9529,44.627 L -23.8947,44.4478 L -23.8145,44.2774 L -23.7135,44.1183
 L -23.5934,43.9732 L -23.4561,43.8442 L -23.3037,43.7335 L -23.1387,43.6428 L -22.9635,43.5734 L -22.7811,43.5266
 L -22.5942,43.503 L -22.4058,43.503 L -22.2189,43.5266 L -22.0365,43.5734 L -21.8613,43.6428 L -21.6963,43.7335
 L -21.5439,43.8442 L -21.4065,43.9732 L -21.2865,44.1183 L -21.1855,44.2774 L -21.1053,44.4478 L -21.0471,44.627
 L -21.0118,44.812 L -21,45 L -21.0118,45.188 L -21.0471,45.373 L -21.1053,45.5522 L -21.1855,45.7226
 L -21.2865,45.8817 L -21.4065,46.0268 L -21.5439,46.1558 L -21.6963,46.2665 L -21.8613,46.3572 L -22.0365,46.4266
 L -22.2189,46.4734 L -22.4058,46.497 z
M -7.59418,46.497 L -7.78107,46.4734 L -7.96352,46.4266 L -8.13866,46.3572 L -8.30373,46.2665 L -8.45613,46.1558
 L -8.59344,46.0268 L -8.71352,45.8817 L -8.81445,45.7226 L -8.89465,45.5522 L -8.95287,45.373 L -8.98816,45.188
 L -9,45 L -8.98816,44.812 L -8.95287,44.627 L -8.89465,44.4478 L -8.81445,44.2774 L -8.71352,44.1183
 L -8.59344,43.9732 L -8.45613,43.8442 L -8.30373,43.7335 L -8.13866,43.6428 L -7.96352,43.5734 L -7.78107,43.5266
 L -7.59418,43.503 L -7.40581,43.503 L -7.21892,43.5266 L -7.03647,43.5734 L -6.86133,43.6428 L -6.69626,43.7335
 L -6.54385,43.8442 L -6.40654,43.9732 L -6.28647,44.1183 L -6.18553,44.2774 L -6.10533,44.4478 L -6.04712,44.627
 L -6.01183,44.812 L -6,45 L -6.01183,45.188 L -6.04712,45.373 L -6.10533,45.5522 L -6.18553,45.7226
 L -6.28647,45.8817 L -6.40654,46.0268 L -6.54385,46.1558 L -6.69626,46.2665 L -6.86133,46.3572 L -7.03647,46.4266
 L -7.21892,46.4734 L -7.40581,46.497 z
M 7.40581,46.497 L 7.21892,46.4734 L 7.03647,46.4266 L 6.86133,46.3572 L 6.69626,46.2665 L 6.54385,46.1558
 L 6.40654,46.0268 L 6.28647,45.8817 L 6.18553,45.7226 L 6.10533,45.5522 L 6.04712,45.373 L 6.01183,45.188
 L 6,45 L 6.01183,44.812 L 6.04712,44.627 L 6.10533,44.4478 L 6.18553,44.2774 L 6.28647,44.1183
 L 6.40654,43.9732 L 6.54385,43.8442 L 6.69626,43.7335 L 6.86133,43.6428 L 7.03647,43.5734 L 7.21892,43.5266
 L 7.40581,43.503 L 7.59418,43.503 L 7.78107,43.5266 L 7.96352,43.5734 L 8.13866,43.6428 L 8.30373,43.7335
 L 8.45613,43.8442 L 8.59344,43.9732 L 8.71352,44.1183 L 8.81445,44.2774 L 8.89465,44.4478 L 8.95287,44.627
 L 8.98816,44.812 L 9,45 L 8.98816,45.188 L 8.95287,45.373 L 8.89465,45.5522 L 8.81445,45.7226
 L 8.71352,45.8817 L 8.59344,46.0268 L 8.45613,46.1558 L 8.30373,46.2665 L 8.13866,46.3572 L 7.96352,46.4266
 L 7.78107,46.4734 L 7.59418,46.497 z
M 37.4058,46.497 L 37.2189,46.4734 L 37.0365,46.4266 L 36.8613,46.3572 L 36.6963,46.2665 L 36.5439,46.1558
 L 36.4065,46.0268 L 36.2865,45.8817 L 36.1855,45.7226 L 36.1053,45.5522 L 36.0471,45.373 L 36.0118,45.188
 L 36,45 L 36.0118,44.812 L 36.0471,44.627 L 36.1053,44.4478 L 36.1855,44.2774 L 36.2865,44.1183
 L 36.4065,43.9732 L 36.5439,43.8442 L 36.6963,43.7335 L 36.8613,43.6428 L 37.0365,43.5734 L 37.2189,43.5266
 L 37.4058,43.503 L 37.5942,43.503 L 37.7811,43.5266 L 37.9635,43.5734 L 38.1387,43.6428 L 38.3037,43.7335
 L 38.4561,43.8442 L 38.5934,43.9732 L 38.7135,44.1183 L 38.8145,44.2774 L 38.8947,44.4478 L 38.9529,44.627
 L 38.9882,44.812 L 39,45 L 38.9882,45.188 L 38.9529,45.373 L 38.8947,45.5522 L 38.8145,45.7226
 L 38.7135,45.8817 L 38.5934,46.0268 L 38.4561,46.1558 L 38.3037,46.2665 L 38.1387,46.3572 L 37.9635,46.4266
 L 37.7811,46.4734 L 37.5942,46.497 z
" stroke="black" fill="lightgray" stroke-width="0.5"/>
</svg>
