<?xml version="1.0" standalone="no"?>
<!DOCTYPE svg PUBLIC "-//W3C//DTD SVG 1.1//EN" "http://www.w3.org/Graphics/SVG/1.1/DTD/svg11.dtd">
<svg width="134mm" height="44mm" viewBox="-67 -22 134 44" xmlns="http://www.w3.org/2000/svg" version="1.1">
<title>OpenSCAD Model</title>
<path d="
M 62.9369,21.9114 L 63.5451,21.7553 L 64.1289,21.5241 L 64.6791,21.2216 L 65.1871,20.8526 L 65.6448,20.4227
 L 66.0451,19.9389 L 66.3815,19.4088 L 66.6489,18.8406 L 66.8429,18.2434 L 66.9606,17.6267 L 67,17
 L 67,-17 L 66.9606,-17.6267 L 66.8429,-18.2434 L 66.6489,-18.8406 L 66.3815,-19.4088 L 66.0451,-19.9389
 L 65.6448,-20.4227 L 65.1871,-20.8526 L 64.6791,-21.2216 L 64.1289,-21.5241 L 63.5451,-21.7553 L 62.9369,-21.9114
 L 62.3139,-21.9901 L 57.686,-21.9901 L 57.0631,-21.9114 L 56.4549,-21.7553 L 55.8711,-21.5241 L 55.3209,-21.2216
 L 54.8129,-20.8526 L 54.3551,-20.4227 L 53.9549,-19.9389 L 53.6185,-19.4088 L 53.3511,-18.8406 L 53.1571,-18.2434
 L 53.0394,-17.6267 L 53,-17 L 53,8.00986 L -53,8.00986 L -53,-17 L -53.0394,-17.6267
 L -53.1571,-18.2434 L -53.3511,-18.8406 L -53.6185,-19.4088 L -53.9549,-19.9389 L -54.3551,-20.4227 L -54.8129,-20.8526
 L -55.3209,-21.2216 L -55.8711,-21.5241 L -56.4549,-21.7553 L -57.0631,-21.9114 L -57.686,-21.9901 L -62.3139,-21.9901
 L -62.9369,-21.9114 L -63.5451,-21.7553 L -64.1289,-21.5241 L -64.6791,-21.2216 L -65.1871,-20.8526 L -65.6448,-20.4227
 L -66.0451,-19.9389 L -66.3815,-19.4088 L -66.6489,-18.8406 L -66.8429,-18.2434 L -66.9606,-17.6267 L -67,-17
 L -67,17 L -66.9606,17.6267 L -66.8429,18.2434 L -66.6489,18.8406 L -66.3815,19.4088 L -66.0451,19.9389
 L -65.6448,20.4227 L -65.1871,20.8526 L -64.6791,21.2216 L -64.1289,21.5241 L -63.5451,21.7553 L -62.9369,21.9114
 L -62.3139,21.9901 L 62.3139,21.9901 z
M -60.1884,-12.0059 L -60.5621,-12.0531 L -60.927,-12.1468 L -61.2773,-12.2855 L -61.6075,-12.467 L -61.9123,-12.6884
 L -62.1869,-12.9464 L -62.427,-13.2366 L -62.6289,-13.5547 L -62.7893,-13.8956 L -62.9057,-14.2539 L -62.9763,-14.624
 L -63,-15 L -62.9763,-15.376 L -62.9057,-15.7461 L -62.7893,-16.1044 L -62.6289,-16.4453 L -62.427,-16.7634
 L -62.1869,-17.0536 L -61.9123,-17.3115 L -61.6075,-17.533 L -61.2773,-17.7145 L -60.927,-17.8532 L -60.5621,-17.9469
 L -60.1884,-17.9941 L -59.8116,-17.9941 L -59.4379,-17.9469 L -59.0729,-17.8532 L -58.7227,-17.7145 L -58.3925,-17.533
 L -58.0877,-17.3115 L -57.8131,-17.0536 L -57.5729,-16.7634 L -57.3711,-16.4453 L -57.2107,-16.1044 L -57.0942,-15.7461
 L -57.0237,-15.376 L -57,-15 L -57.0237,-14.624 L -57.0942,-14.2539 L -57.2107,-13.8956 L -57.3711,-13.5547
 L -57.5729,-13.2366 L -57.8131,-12.9464 L -58.0877,-12.6884 L -58.3925,-12.467 L -58.7227,-12.2855 L -59.0729,-12.1468
 L -59.4379,-12.0531 L -59.8116,-12.0059 z
M 59.8116,-12.0059 L 59.4379,-12.0531 L 59.0729,-12.1468 L 58.7227,-12.2855 L 58.3925,-12.467 L 58.0877,-12.6884
 L 57.8131,-12.9464 L 57.5729,-13.2366 L 57.3711,-13.5547 L 57.2107,-13.8956 L 57.0942,-14.2539 L 57.0237,-14.624
 L 57,-15 L 57.0237,-15.376 L 57.0942,-15.7461 L 57.2107,-16.1044 L 57.3711,-16.4453 L 57.5729,-16.7634
 L 57.8131,-17.0536 L 58.0877,-17.3115 L 58.3925,-17.533 L 58.7227,-17.7145 L 59.0729,-17.8532 L 59.4379,-17.9469
 L 59.8116,-17.9941 L 60.1884,-17.9941 L 60.5621,-17.9469 L 60.927,-17.8532 L 61.2773,-17.7145 L 61.6075,-17.533
 L 61.9123,-17.3115 L 62.1869,-17.0536 L 62.427,-16.7634 L 62.6289,-16.4453 L 62.7893,-16.1044 L 62.9057,-15.7461
 L 62.9763,-15.376 L 63,-15 L 62.9763,-14.624 L 62.9057,-14.2539 L 62.7893,-13.8956 L 62.6289,-13.5547
 L 62.427,-13.2366 L 62.1869,-12.9464 L 61.9123,-12.6884 L 61.6075,-12.467 L 61.2773,-12.2855 L 60.927,-12.1468
 L 60.5621,-12.0531 L 60.1884,-12.0059 z
M 59.9058,-6.00294 L 59.7189,-6.02657 L 59.5365,-6.07341 L 59.3613,-6.14275 L 59.1963,-6.23351 L 59.0439,-6.34422
 L 58.9065,-6.47318 L 58.7865,-6.61832 L 58.6855,-6.77736 L 58.6053,-6.9478 L 58.5471,-7.12695 L 58.5118,-7.312
 L 58.5,-7.5 L 58.5118,-7.68799 L 58.5471,-7.87303 L 58.6053,-8.05219 L 58.6855,-8.22263 L 58.7865,-8.38167
 L 58.9065,-8.52681 L 59.0439,-8.65576 L 59.1963,-8.76648 L 59.3613,-8.85724 L 59.5365,-8.92657 L 59.7189,-8.97342
 L 59.9058,-8.99704 L 60.0942,-8.99704 L 60.2811,-8.97342 L 60.4635,-8.92657 L 60.6387,-8.85724 L 60.8037,-8.76648
 L 60.9561,-8.65576 L 61.0934,-8.52681 L 61.2135,-8.38167 L 61.3145,-8.22263 L 61.3947,-8.05219 L 61.4529,-7.87303
 L 61.4882,-7.68799 L 61.5,-7.5 L 61.4882,-7.312 L 61.4529,-7.12695 L 61.3947,-6.9478 L 61.3145,-6.77736
 L 61.2135,-6.61832 L 61.0934,-6.47318 L 60.9561,-6.34422 L 60.8037,-6.23351 L 60.6387,-6.14275 L 60.4635,-6.07341
 L 60.2811,-6.02657 L 60.0942,-6.00294 z
M -60.0942,-6.00294 L -60.2811,-6.02657 L -60.4635,-6.07341 L -60.6387,-6.14275 L -60.8037,-6.23351 L -60.9561,-6.34422
 L -61.0934,-6.47318 L -61.2135,-6.61832 L -61.3145,-6.77736 L -61.3947,-6.9478 L -61.4529,-7.12695 L -61.4882,-7.312
 L -61.5,-7.5 L -61.4882,-7.68799 L -61.4529,-7.87303 L -61.3947,-8.05219 L -61.3145,-8.22263 L -61.2135,-8.38167
 L -61.0934,-8.52681 L -60.9561,-8.65576 L -60.8037,-8.76648 L -60.6387,-8.85724 L -60.4635,-8.92657 L -60.2811,-8.97342
 L -60.0942,-8.99704 L -59.9058,-8.99704 L -59.7189,-8.97342 L -59.5365,-8.92657 L -59.3613,-8.85724 L -59.1963,-8.76648
 L -59.0439,-8.65576 L -58.9065,-8.52681 L -58.7865,-8.38167 L -58.6855,-8.22263 L -58.6053,-8.05219 L -58.5471,-7.87303
 L -58.5118,-7.68799 L -58.5,-7.5 L -58.5118,-7.312 L -58.5471,-7.12695 L -58.6053,-6.9478 L -58.6855,-6.77736
 L -58.7865,-6.61832 L -58.9065,-6.47318 L -59.0439,-6.34422 L -59.1963,-6.23351 L -59.3613,-6.14275 L -59.5365,-6.07341
 L -59.7189,-6.02657 L -59.9058,-6.00294 z
M 59.8116,2.99408 L 59.4379,2.94685 L 59.0729,2.85316 L 58.7227,2.71448 L 58.3925,2.53297 L 58.0877,2.31154
 L 57.8131,2.05363 L 57.5729,1.76335 L 57.3711,1.44525 L 57.2107,1.10437 L 57.0942,0.746063 L 57.0237,0.375992
 L 57,-0 L 57.0237,-0.375992 L 57.0942,-0.746063 L 57.2107,-1.10437 L 57.3711,-1.44525 L 57.5729,-1.76335
 L 57.8131,-2.05363 L 58.0877,-2.31154 L 58.3925,-2.53297 L 58.7227,-2.71448 L 59.0729,-2.85316 L 59.4379,-2.94685
 L 59.8116,-2.99408 L 60.1884,-2.99408 L 60.5621,-2.94685 L 60.927,-2.85316 L 61.2773,-2.71448 L 61.6075,-2.53297
 L 61.9123,-2.31154 L 62.1869,-2.05363 L 62.427,-1.76335 L 62.6289,-1.44525 L 62.7893,-1.10437 L 62.9057,-0.746063
 L 62.9763,-0.375992 L 63,-0 L 62.9763,0.375992 L 62.9057,0.746063 L 62.7893,1.10437 L 62.6289,1.44525
 L 62.427,1.76335 L 62.1869,2.05363 L 61.9123,2.31154 L 61.6075,2.53297 L 61.2773,2.71448 L 60.927,2.85316
 L 60.5621,2.94685 L 60.1884,2.99408 z
M -60.1884,2.99408 L -60.5621,2.94685 L -60.927,2.85316 L -61.2773,2.71448 L -61.6075,2.53297 L -61.9123,2.31154
 L -62.1869,2.05363 L -62.427,1.76335 L -62.6289,1.44525 L -62.7893,1.10437 L -62.9057,0.746063 L -62.9763,0.375992
 L -63,-0 L -62.9763,-0.375992 L -62.9057,-0.746063 L -62.7893,-1.10437 L -62.6289,-1.44525 L -62.427,-1.76335
 L -62.1869,-2.05363 L -61.9123,-2.31154 L -61.6075,-2.53297 L -61.2773,-2.71448 L -60.927,-2.85316 L -60.5621,-2.94685
 L -60.1884,-2.99408 L -59.8116,-2.99408 L -59.4379,-2.94685 L -59.0729,-2.85316 L -58.7227,-2.71448 L -58.3925,-2.53297
 L -58.0877,-2.31154 L -57.8131,-2.05363 L -57.5729,-1.76335 L -57.3711,-1.44525 L -57.2107,-1.10437 L -57.0942,-0.746063
 L -57.0237,-0.375992 L -57,-0 L -57.0237,0.375992 L -57.0942,0.746063 L -57.2107,1.10437 L -57.3711,1.44525
 L -57.5729,1.76335 L -57.8131,2.05363 L -58.0877,2.31154 L -58.3925,2.53297 L -58.7227,2.71448 L -59.0729,2.85316
 L -59.4379,2.94685 L -59.8116,2.99408 z
M 59.9058,8.99704 L 59.7189,8.97342 L 59.5365,8.92657 L 59.3613,8.85724 L 59.1963,8.76648 L 59.0439,8.65576
 L 58.9065,8.52681 L 58.7865,8.38167 L 58.6855,8.22263 L 58.6053,8.05219 L 58.5471,7.87303 L 58.5118,7.68799
 L 58.5,7.5 L 58.5118,7.312 L 58.5471,7.12695 L 58.6053,6.9478 L 58.6855,6.77736 L 58.7865,6.61832
 L 58.9065,6.47318 L 59.0439,6.34422 L 59.1963,6.23351 L 59.3613,6.14275 L 59.5365,6.07341 L 59.7189,6.02657
 L 59.9058,6.00294 L 60.0942,6.00294 L 60.2811,6.02657 L 60.4635,6.07341 L 60.6387,6.14275 L 60.8037,6.23351
 L 60.9561,6.34422 L 61.0934,6.47318 L 61.2135,6.61832 L 61.3145,6.77736 L 61.3947,6.9478 L 61.4529,7.12695
 L 61.4882,7.312 L 61.5,7.5 L 61.4882,7.68799 L 61.4529,7.87303 L 61.3947,8.05219 L 61.3145,8.22263
 L 61.2135,8.38167 L 61.0934,8.52681 L 60.9561,8.65576 L 60.8037,8.76648 L 60.6387,8.85724 L 60.4635,8.92657
 L 60.2811,8.97342 L 60.0942,8.99704 z
M -60.0942,8.99704 L -60.2811,8.97342 L -60.4635,8.92657 L -60.6387,8.85724 L -60.8037,8.76648 L -60.9561,8.65576
 L -61.0934,8.52681 L -61.2135,8.38167 L -61.3145,8.22263 L -61.3947,8.05219 L -61.4529,7.87303 L -61.4882,7.68799
 L -61.5,7.5 L -61.4882,7.312 L -61.4529,7.12695 L -61.3947,6.9478 L -61.3145,6.77736 L -61.2135,6.61832
 L -61.0934,6.47318 L -60.9561,6.34422 L -60.8037,6.23351 L -60.6387,6.14275 L -60.4635,6.07341 L -60.2811,6.02657
 L -60.0942,6.00294 L -59.9058,6.00294 L -59.7189,6.02657 L -59.5365,6.07341 L -59.3613,6.14275 L -59.1963,6.23351
 L -59.0439,6.34422 L -58.9065,6.47318 L -58.7865,6.61832 L -58.6855,6.77736 L -58.6053,6.9478 L -58.5471,7.12695
 L -58.5118,7.312 L -58.5,7.5 L -58.5118,7.68799 L -58.5471,7.87303 L -58.6053,8.05219 L -58.6855,8.22263
 L -58.7865,8.38167 L -58.9065,8.52681 L -59.0439,8.65576 L -59.1963,8.76648 L -59.3613,8.85724 L -59.5365,8.92657
 L -59.7189,8.97342 L -59.9058,8.99704 z
M -0.18837,17.9941 L -0.562134,17.9469 L -0.927048,17.8532 L -1.27733,17.7145 L -1.60747,17.533 L -1.91226,17.3115
 L -2.1869,17.0536 L -2.42705,16.7634 L -2.62891,16.4453 L -2.78932,16.1044 L -2.90575,15.7461 L -2.97633,15.376
 L -3,15 L -2.97633,14.624 L -2.90575,14.2539 L -2.78932,13.8956 L -2.62891,13.5547 L -2.42705,13.2366
 L -2.1869,12.9464 L -1.91226,12.6884 L -1.60747,12.467 L -1.27733,12.2855 L -0.927048,12.1468 L -0.562134,12.0531
 L -0.18837,12.0059 L 0.18837,12.0059 L 0.562134,12.0531 L 0.927048,12.1468 L 1.27733,12.2855 L 1.60747,12.467
 L 1.91226,12.6884 L 2.1869,12.9464 L 2.42705,13.2366 L 2.62891,13.5547 L 2.78932,13.8956 L 2.90575,14.2539
 L 2.97633,14.624 L 3,15 L 2.97633,15.376 L 2.90575,15.7461 L 2.78932,16.1044 L 2.62891,16.4453
 L 2.42705,16.7634 L 2.1869,17.0536 L 1.91226,17.3115 L 1.60747,17.533 L 1.27733,17.7145 L 0.927048,17.8532
 L 0.562134,17.9469 L 0.18837,17.9941 z
M 59.8116,17.9941 L 59.4379,17.9469 L 59.0729,17.8532 L 58.7227,17.7145 L 58.3925,17.533 L 58.0877,17.3115
 L 57.8131,17.0536 L 57.5729,16.7634 L 57.3711,16.4453 L 57.2107,16.1044 L 57.0942,15.7461 L 57.0237,15.376
 L 57,15 L 57.0237,14.624 L 57.0942,14.2539 L 57.2107,13.8956 L 57.3711,13.5547 L 57.5729,13.2366
 L 57.8131,12.9464 L 58.0877,12.6884 L 58.3925,12.467 L 58.7227,12.2855 L 59.0729,12.1468 L 59.4379,12.0531
 L 59.8116,12.0059 L 60.1884,12.0059 L 60.5621,12.0531 L 60.927,12.1468 L 61.2773,12.2855 L 61.6075,12.467
 L 61.9123,12.6884 L 62.1869,12.9464 L 62.427,13.2366 L 62.6289,13.5547 L 62.7893,13.8956 L 62.9057,14.2539
 L 62.9763,14.624 L 63,15 L 62.9763,15.376 L 62.9057,15.7461 L 62.7893,16.1044 L 62.6289,16.4453
 L 62.427,16.7634 L 62.1869,17.0536 L 61.9123,17.3115 L 61.6075,17.533 L 61.2773,17.7145 L 60.927,17.8532
 L 60.5621,17.9469 L 60.1884,17.9941 z
M -60.1884,17.9941 L -60.5621,17.9469 L -60.927,17.8532 L -61.2773,17.7145 L -61.6075,17.533 L -61.9123,17.3115
 L -62.1869,17.0536 L -62.427,16.7634 L -62.6289,16.4453 L -62.7893,16.1044 L -62.9057,15.7461 L -62.9763,15.376
 L -63,15 L -62.9763,14.624 L -62.9057,14.2539 L -62.7893,13.8956 L -62.6289,13.5547 L -62.427,13.2366
 L -62.1869,12.9464 L -61.9123,12.6884 L -61.6075,12.467 L -61.2773,12.2855 L -60.927,12.1468 L -60.5621,12.0531
 L -60.1884,12.0059 L -59.8116,12.0059 L -59.4379,12.0531 L -59.0729,12.1468 L -58.7227,12.2855 L -58.3925,12.467
 L -58.0877,12.6884 L -57.8131,12.9464 L -57.5729,13.2366 L -57.3711,13.5547 L -57.2107,13.8956 L -57.0942,14.2539
 L -57.0237,14.624 L -57,15 L -57.0237,15.376 L -57.0942,15.7461 L -57.2107,16.1044 L -57.3711,16.4453
 L -57.5729,16.7634 L -57.8131,17.0536 L -58.0877,17.3115 L -58.3925,17.533 L -58.7227,17.7145 L -59.0729,17.8532
 L -59.4379,17.9469 L -59.8116,17.9941 z
M -45.1884,17.9941 L -45.5621,17.9469 L -45.927,17.8532 L -46.2773,17.7145 L -46.6075,17.533 L -46.9123,17.3115
 L -47.1869,17.0536 L -47.427,16.7634 L -47.6289,16.4453 L -47.7893,16.1044 L -47.9057,15.7461 L -47.9763,15.376
 L -48,15 L -47.9763,14.624 L -47.9057,14.2539 L -47.7893,13.8956 L -47.6289,13.5547 L -47.427,13.2366
 L -47.1869,12.9464 L -46.9123,12.6884 L -46.6075,12.467 L -46.2773,12.2855 L -45.927,12.1468 L -45.5621,12.0531
 L -45.1884,12.0059 L -44.8116,12.0059 L -44.4379,12.0531 L -44.0729,12.1468 L -43.7227,12.2855 L -43.3925,12.467
 L -43.0877,12.6884 L -42.8131,12.9464 L -42.5729,13.2366 L -42.3711,13.5547 L -42.2107,13.8956 L -42.0942,14.2539
 L -42.0237,14.624 L -42,15 L -42.0237,15.376 L -42.0942,15.7461 L -42.2107,16.1044 L -42.3711,16.4453
 L -42.5729,16.7634 L -42.8131,17.0536 L -43.0877,17.3115 L -43.3925,17.533 L -43.7227,17.7145 L -44.0729,17.8532
 L -44.4379,17.9469 L -44.8116,17.9941 z
M 29.8116,17.9941 L 29.4379,17.9469 L 29.0729,17.8532 L 28.7227,17.7145 L 28.3925,17.533 L 28.0877,17.3115
 L 27.8131,17.0536 L 27.5729,16.7634 L 27.3711,16.4453 L 27.2107,16.1044 L 27.0942,15.7461 L 27.0237,15.376
 L 27,15 L 27.0237,14.624 L 27.0942,14.2539 L 27.2107,13.8956 L 27.3711,13.5547 L 27.5729,13.2366
 L 27.8131,12.9464 L 28.0877,12.6884 L 28.3925,12.467 L 28.7227,12.2855 L 29.0729,12.1468 L 29.4379,12.0531
 L 29.8116,12.0059 L 30.1884,12.0059 L 30.5621,12.0531 L 30.927,12.1468 L 31.2773,12.2855 L 31.6075,12.467
 L 31.9123,12.6884 L 32.1869,12.9464 L 32.427,13.2366 L 32.6289,13.5547 L 32.7893,13.8956 L 32.9057,14.2539
 L 32.9763,14.624 L 33,15 L 32.9763,15.376 L 32.9057,15.7461 L 32.7893,16.1044 L 32.6289,16.4453
 L 32.427,16.7634 L 32.1869,17.0536 L 31.9123,17.3115 L 31.6075,17.533 L 31.2773,17.7145 L 30.927,17.8532
 L 30.5621,17.9469 L 30.1884,17.9941 z
M 14.8116,17.9941 L 14.4379,17.9469 L 14.0729,17.8532 L 13.7227,17.7145 L 13.3925,17.533 L 13.0877,17.3115
 L 12.8131,17.0536 L 12.5729,16.7634 L 12.3711,16.4453 L 12.2107,16.1044 L 12.0942,15.7461 L 12.0237,15.376
 L 12,15 L 12.0237,14.624 L 12.0942,14.2539 L 12.2107,13.8956 L 12.3711,13.5547 L 12.5729,13.2366
 L 12.8131,12.9464 L 13.0877,12.6884 L 13.3925,12.467 L 13.7227,12.2855 L 14.0729,12.1468 L 14.4379,12.0531
 L 14.8116,12.0059 L 15.1884,12.0059 L 15.5621,12.0531 L 15.927,12.1468 L 16.2773,12.2855 L 16.6075,12.467
 L 16.9123,12.6884 L 17.1869,12.9464 L 17.427,13.2366 L 17.6289,13.5547 L 17.7893,13.8956 L 17.9057,14.2539
 L 17.9763,14.624 L 18,15 L 17.9763,15.376 L 17.9057,15.7461 L 17.7893,16.1044 L 17.6289,16.4453
 L 17.427,16.7634 L 17.1869,17.0536 L 16.9123,17.3115 L 16.6075,17.533 L 16.2773,17.7145 L 15.927,17.8532
 L 15.5621,17.9469 L 15.1884,17.9941 z
M -15.1884,17.9941 L -15.5621,17.9469 L -15.927,17.8532 L -16.2773,17.7145 L -16.6075,17.533 L -16.9123,17.3115
 L -17.1869,17.0536 L -17.427,16.7634 L -17.6289,16.4453 L -17.7893,16.1044 L -17.9057,15.7461 L -17.9763,15.376
 L -18,15 L -17.9763,14.624 L -17.9057,14.2539 L -17.7893,13.8956 L -17.6289,13.5547 L -17.427,13.2366
 L -17.1869,12.9464 L -16.9123,12.6884 L -16.6075,12.467 L -16.2773,12.2855 L -15.927,12.1468 L -15.5621,12.0531
 L -15.1884,12.0059 L -14.8116,12.0059 L -14.4379,12.0531 L -14.0729,12.1468 L -13.7227,12.2855 L -13.3925,12.467
 L -13.0877,12.6884 L -12.8131,12.9464 L -12.5729,13.2366 L -12.3711,13.5547 L -12.2107,13.8956 L -12.0942,14.2539
 L -12.0237,14.624 L -12,15 L -12.0237,15.376 L -12.0942,15.7461 L -12.2107,16.1044 L -12.3711,16.4453
 L -12.5729,16.7634 L -12.8131,17.0536 L -13.0877,17.3115 L -13.3925,17.533 L -13.7227,17.7145 L -14.0729,17.8532
 L -14.4379,17.9469 L -14.8116,17.9941 z
M -30.1884,17.9941 L -30.5621,17.9469 L -30.927,17.8532 L -31.2773,17.7145 L -31.6075,17.533 L -31.9123,17.3115
 L -32.1869,17.0536 L -32.427,16.7634 L -32.6289,16.4453 L -32.7893,16.1044 L -32.9057,15.7461 L -32.9763,15.376
 L -33,15 L -32.9763,14.624 L -32.9057,14.2539 L -32.7893,13.8956 L -32.6289,13.5547 L -32.427,13.2366
 L -32.1869,12.9464 L -31.9123,12.6884 L -31.6075,12.467 L -31.2773,12.2855 L -30.927,12.1468 L -30.5621,12.0531
 L -30.1884,12.0059 L -29.8116,12.0059 L -29.4379,12.0531 L -29.0729,12.1468 L -28.7227,12.2855 L -28.3925,12.467
 L -28.0877,12.6884 L -27.8131,12.9464 L -27.5729,13.2366 L -27.3711,13.5547 L -27.2107,13.8956 L -27.0942,14.2539
 L -27.0237,14.624 L -27,15 L -27.0237,15.376 L -27.0942,15.7461 L -27.2107,16.1044 L -27.3711,16.4453
 L -27.5729,16.7634 L -27.8131,17.0536 L -28.0877,17.3115 L -28.3925,17.533 L -28.7227,17.7145 L -29.0729,17.8532
 L -29.4379,17.9469 L -29.8116,17.9941 z
M 44.8116,17.9941 L 44.4379,17.9469 L 44.0729,17.8532 L 43.7227,17.7145 L 43.3925,17.533 L 43.0877,17.3115
 L 42.8131,17.0536 L 42.5729,16.7634 L 42.3711,16.4453 L 42.2107,16.1044 L 42.0942,15.7461 L 42.0237,15.376
 L 42,15 L 42.0237,14.624 L 42.0942,14.2539 L 42.2107,13.8956 L 42.3711,13.5547 L 42.5729,13.2366
 L 42.8131,12.9464 L 43.0877,12.6884 L 43.3925,12.467 L 43.7227,12.2855 L 44.0729,12.1468 L 44.4379,12.0531
 L 44.8116,12.0059 L 45.1884,12.0059 L 45.5621,12.0531 L 45.927,12.1468 L 46.2773,12.2855 L 46.6075,12.467
 L 46.9123,12.6884 L 47.1869,12.9464 L 47.427,13.2366 L 47.6289,13.5547 L 47.7893,13.8956 L 47.9057,14.2539
 L 47.9763,14.624 L 48,15 L 47.9763,15.376 L 47.9057,15.7461 L 47.7893,16.1044 L 47.6289,16.4453
 L 47.427,16.7634 L 47.1869,17.0536 L 46.9123,17.3115 L 46.6075,17.533 L 46.2773,17.7145 L 45.927,17.8532
 L 45.5621,17.9469 L 45.1884,17.9941 z
M -22.5942,16.497 L -22.7811,16.4734 L -22.9635,16.4266 L -23.1387,16.3572 L -23.3037,16.2665 L -23.4561,16.1558
 L -23.5934,16.0268 L -23.7135,15.8817 L -23.8145,15.7226 L -23.8947,15.5522 L -23.9529,15.373 L -23.9882,15.188
 L -24,15 L -23.9882,14.812 L -23.9529,14.627 L -23.8947,14.4478 L -23.8145,14.2774 L -23.7135,14.1183
 L -23.5934,13.9732 L -23.4561,13.8442 L -23.3037,13.7335 L -23.1387,13.6427 L -22.9635,13.5734 L -22.7811,13.5266
 L -22.5942,13.5029 L -22.4058,13.5029 L -22.2189,13.5266 L -22.0365,13.5734 L -21.8613,13.6427 L -21.6963,13.7335
 L -21.5439,13.8442 L -21.4065,13.9732 L -21.2865,14.1183 L -21.1855,14.2774 L -21.1053,14.4478 L -21.0471,14.627
 L -21.0118,14.812 L -21,15 L -21.0118,15.188 L -21.0471,15.373 L -21.1053,15.5522 L -21.1855,15.7226
 L -21.2865,15.8817 L -21.4065,16.0268 L -21.5439,16.1558 L -21.6963,16.2665 L -21.8613,16.3572 L -22.0365,16.4266
 L -22.2189,16.4734 L -22.4058,16.497 z
M -7.59418,16.497 L -7.78107,16.4734 L -7.96352,16.4266 L -8.13866,16.3572 L -8.30373,16.2665 L -8.45613,16.1558
 L -8.59344,16.0268 L -8.71352,15.8817 L -8.81445,15.7226 L -8.89465,15.5522 L -8.95287,15.373 L -8.98816,15.188
 L -9,15 L -8.98816,14.812 L -8.95287,14.627 L -8.89465,14.4478 L -8.81445,14.2774 L -8.71352,14.1183
 L -8.59344,13.9732 L -8.45613,13.8442 L -8.30373,13.7335 L -8.13866,13.6427 L -7.96352,13.5734 L -7.78107,13.5266
 L -7.59418,13.5029 L -7.40581,13.5029 L -7.21892,13.5266 L -7.03647,13.5734 L -6.86133,13.6427 L -6.69626,13.7335
 L -6.54385,13.8442 L -6.40654,13.9732 L -6.28647,14.1183 L -6.18553,14.2774 L -6.10533,14.4478 L -6.04712,14.627
 L -6.01183,14.812 L -6,15 L -6.01183,15.188 L -6.04712,15.373 L -6.10533,15.5522 L -6.18553,15.7226
 L -6.28647,15.8817 L -6.40654,16.0268 L -6.54385,16.1558 L -6.69626,16.2665 L -6.86133,16.3572 L -7.03647,16.4266
 L -7.21892,16.4734 L -7.40581,16.497 z
M 22.4058,16.497 L 22.2189,16.4734 L 22.0365,16.4266 L 21.8613,16.3572 L 21.6963,16.2665 L 21.5439,16.1558
 L 21.4065,16.0268 L 21.2865,15.8817 L 21.1855,15.7226 L 21.1053,15.5522 L 21.0471,15.373 L 21.0118,15.188
 L 21,15 L 21.0118,14.812 L 21.0471,14.627 L 21.1053,14.4478 L 21.1855,14.2774 L 21.2865,14.1183
 L 21.4065,13.9732 L 21.5439,13.8442 L 21.6963,13.7335 L 21.8613,13.6427 L 22.0365,13.5734 L 22.2189,13.5266
 L 22.4058,13.5029 L 22.5942,13.5029 L 22.7811,13.5266 L 22.9635,13.5734 L 23.1387,13.6427 L 23.3037,13.7335
 L 23.4561,13.8442 L 23.5934,13.9732 L 23.7135,14.1183 L 23.8145,14.2774 L 23.8947,14.4478 L 23.9529,14.627
 L 23.9882,14.812 L 24,15 L 23.9882,15.188 L 23.9529,15.373 L 23.8947,15.5522 L 23.8145,15.7226
 L 23.7135,15.8817 L 23.5934,16.0268 L 23.4561,16.1558 L 23.3037,16.2665 L 23.1387,16.3572 L 22.9635,16.4266
 L 22.7811,16.4734 L 22.5942,16.497 z
M 52.4058,16.497 L 52.2189,16.4734 L 52.0365,16.4266 L 51.8613,16.3572 L 51.6963,16.2665 L 51.5439,16.1558
 L 51.4065,16.0268 L 51.2865,15.8817 L 51.1855,15.7226 L 51.1053,15.5522 L 51.0471,15.373 L 51.0118,15.188
 L 51,15 L 51.0118,14.812 L 51.0471,14.627 L 51.1053,14.4478 L 51.1855,14.2774 L 51.2865,14.1183
 L 51.4065,13.9732 L 51.5439,13.8442 L 51.6963,13.7335 L 51.8613,13.6427 L 52.0365,13.5734 L 52.2189,13.5266
 L 52.4058,13.5029 L 52.5942,13.5029 L 52.7811,13.5266 L 52.9635,13.5734 L 53.1387,13.6427 L 53.3037,13.7335
 L 53.4561,13.8442 L 53.5934,13.9732 L 53.7135,14.1183 L 53.8145,14.2774 L 53.8947,14.4478 L 53.9529,14.627
 L 53.9882,14.812 L 54,15 L 53.9882,15.188 L 53.9529,15.373 L 53.8947,15.5522 L 53.8145,15.7226
 L 53.7135,15.8817 L 53.5934,16.0268 L 53.4561,16.1558 L 53.3037,16.2665 L 53.1387,16.3572 L 52.9635,16.4266
 L 52.7811,16.4734 L 52.5942,16.497 z
M 37.4058,16.497 L 37.2189,16.4734 L 37.0365,16.4266 L 36.8613,16.3572 L 36.6963,16.2665 L 36.5439,16.1558
 L 36.4065,16.0268 L 36.2865,15.8817 L 36.1855,15.7226 L 36.1053,15.5522 L 36.0471,15.373 L 36.0118,15.188
 L 36,15 L 36.0118,14.812 L 36.0471,14.627 L 36.1053,14.4478 L 36.1855,14.2774 L 36.2865,14.1183
 L 36.4065,13.9732 L 36.5439,13.8442 L 36.6963,13.7335 L 36.8613,13.6427 L 37.0365,13.5734 L 37.2189,13.5266
 L 37.4058,13.5029 L 37.5942,13.5029 L 37.7811,13.5266 L 37.9635,13.5734 L 38.1387,13.6427 L 38.3037,13.7335
 L 38.4561,13.8442 L 38.5934,13.9732 L 38.7135,14.1183 L 38.8145,14.2774 L 38.8947,14.4478 L 38.9529,14.627
 L 38.9882,14.812 L 39,15 L 38.9882,15.188 L 38.9529,15.373 L 38.8947,15.5522 L 38.8145,15.7226
 L 38.7135,15.8817 L 38.5934,16.0268 L 38.4561,16.1558 L 38.3037,16.2665 L 38.1387,16.3572 L 37.9635,16.4266
 L 37.7811,16.4734 L 37.5942,16.497 z
M -52.5942,16.497 L -52.7811,16.4734 L -52.9635,16.4266 L -53.1387,16.3572 L -53.3037,16.2665 L -53.4561,16.1558
 L -53.5934,16.0268 L -53.7135,15.8817 L -53.8145,15.7226 L -53.8947,15.5522 L -53.9529,15.373 L -53.9882,15.188
 L -54,15 L -53.9882,14.812 L -53.9529,14.627 L -53.8947,14.4478 L -53.8145,14.2774 L -53.7135,14.1183
 L -53.5934,13.9732 L -53.4561,13.8442 L -53.3037,13.7335 L -53.1387,13.6427 L -52.9635,13.5734 L -52.7811,13.5266
 L -52.5942,13.5029 L -52.4058,13.5029 L -52.2189,13.5266 L -52.0365,13.5734 L -51.8613,13.6427 L -51.6963,13.7335
 L -51.5439,13.8442 L -51.4065,13.9732 L -51.2865,14.1183 L -51.1855,14.2774 L -51.1053,14.4478 L -51.0471,14.627
 L -51.0118,14.812 L -51,15 L -51.0118,15.188 L -51.0471,15.373 L -51.1053,15.5522 L -51.1855,15.7226
 L -51.2865,15.8817 L -51.4065,16.0268 L -51.5439,16.1558 L -51.6963,16.2665 L -51.8613,16.3572 L -52.0365,16.4266
 L -52.2189,16.4734 L -52.4058,16.497 z
M -37.5942,16.497 L -37.7811,16.4734 L -37.9635,16.4266 L -38.1387,16.3572 L -38.3037,16.2665 L -38.4561,16.1558
 L -38.5934,16.0268 L -38.7135,15.8817 L -38.8145,15.7226 L -38.8947,15.5522 L -38.9529,15.373 L -38.9882,15.188
 L -39,15 L -38.9882,14.812 L -38.9529,14.627 L -38.8947,14.4478 L -38.8145,14.2774 L -38.7135,14.1183
 L -38.5934,13.9732 L -38.4561,13.8442 L -38.3037,13.7335 L -38.1387,13.6427 L -37.9635,13.5734 L -37.7811,13.5266
 L -37.5942,13.5029 L -37.4058,13.5029 L -37.2189,13.5266 L -37.0365,13.5734 L -36.8613,13.6427 L -36.6963,13.7335
 L -36.5439,13.8442 L -36.4065,13.9732 L -36.2865,14.1183 L -36.1855,14.2774 L -36.1053,14.4478 L -36.0471,14.627
 L -36.0118,14.812 L -36,15 L -36.0118,15.188 L -36.0471,15.373 L -36.1053,15.5522 L -36.1855,15.7226
 L -36.2865,15.8817 L -36.4065,16.0268 L -36.5439,16.1558 L -36.6963,16.2665 L -36.8613,16.3572 L -37.0365,16.4266
 L -37.2189,16.4734 L -37.4058,16.497 z
M 7.40581,16.497 L 7.21892,16.4734 L 7.03647,16.4266 L 6.86133,16.3572 L 6.69626,16.2665 L 6.54385,16.1558
 L 6.40654,16.0268 L 6.28647,15.8817 L 6.18553,15.7226 L 6.10533,15.5522 L 6.04712,15.373 L 6.01183,15.188
 L 6,15 L 6.01183,14.812 L 6.04712,14.627 L 6.10533,14.4478 L 6.18553,14.2774 L 6.28647,14.1183
 L 6.40654,13.9732 L 6.54385,13.8442 L 6.69626,13.7335 L 6.86133,13.6427 L 7.03647,13.5734 L 7.21892,13.5266
 L 7.40581,13.5029 L 7.59418,13.5029 L 7.78107,13.5266 L 7.96352,13.5734 L 8.13866,13.6427 L 8.30373,13.7335
 L 8.45613,13.8442 L 8.59344,13.9732 L 8.71352,14.1183 L 8.81445,14.2774 L 8.89465,14.4478 L 8.95287,14.627
 L 8.98816,14.812 L 9,15 L 8.98816,15.188 L 8.95287,15.373 L 8.89465,15.5522 L 8.81445,15.7226
 L 8.71352,15.8817 L 8.59344,16.0268 L 8.45613,16.1558 L 8.30373,16.2665 L 8.13866,16.3572 L 7.96352,16.4266
 L 7.78107,16.4734 L 7.59418,16.497 z
" stroke="black" fill="lightgray" stroke-width="0.5"/>
</svg>
