  0
SECTION
  2
BLOCKS
  0
ENDSEC
  0
SECTION
  2
ENTITIES
  0
LINE
  8
0
 10
70.4369
 20
-44.4114
 11
71.0451
 21
-44.2553
  0
LINE
  8
0
 10
71.0451
 20
-44.2553
 11
71.6289
 21
-44.0241
  0
LINE
  8
0
 10
71.6289
 20
-44.0241
 11
72.1791
 21
-43.7216
  0
LINE
  8
0
 10
72.1791
 20
-43.7216
 11
72.6871
 21
-43.3526
  0
LINE
  8
0
 10
72.6871
 20
-43.3526
 11
73.1448
 21
-42.9227
  0
LINE
  8
0
 10
73.1448
 20
-42.9227
 11
73.5451
 21
-42.4389
  0
LINE
  8
0
 10
73.5451
 20
-42.4389
 11
73.8815
 21
-41.9088
  0
LINE
  8
0
 10
73.8815
 20
-41.9088
 11
74.1489
 21
-41.3406
  0
LINE
  8
0
 10
74.1489
 20
-41.3406
 11
74.3429
 21
-40.7434
  0
LINE
  8
0
 10
74.3429
 20
-40.7434
 11
74.4606
 21
-40.1267
  0
LINE
  8
0
 10
74.4606
 20
-40.1267
 11
74.5
 21
-39.5
  0
LINE
  8
0
 10
74.5
 20
-39.5
 11
74.5
 21
39.5
  0
LINE
  8
0
 10
74.5
 20
39.5
 11
74.4606
 21
40.1267
  0
LINE
  8
0
 10
74.4606
 20
40.1267
 11
74.3429
 21
40.7434
  0
LINE
  8
0
 10
74.3429
 20
40.7434
 11
74.1489
 21
41.3406
  0
LINE
  8
0
 10
74.1489
 20
41.3406
 11
73.8815
 21
41.9088
  0
LINE
  8
0
 10
73.8815
 20
41.9088
 11
73.5451
 21
42.4389
  0
LINE
  8
0
 10
73.5451
 20
42.4389
 11
73.1448
 21
42.9227
  0
LINE
  8
0
 10
73.1448
 20
42.9227
 11
72.6871
 21
43.3526
  0
LINE
  8
0
 10
72.6871
 20
43.3526
 11
72.1791
 21
43.7216
  0
LINE
  8
0
 10
72.1791
 20
43.7216
 11
71.6289
 21
44.0241
  0
LINE
  8
0
 10
71.6289
 20
44.0241
 11
71.0451
 21
44.2553
  0
LINE
  8
0
 10
71.0451
 20
44.2553
 11
70.4369
 21
44.4114
  0
LINE
  8
0
 10
70.4369
 20
44.4114
 11
69.8139
 21
44.4901
  0
LINE
  8
0
 10
69.8139
 20
44.4901
 11
65.1861
 21
44.4901
  0
LINE
  8
0
 10
65.1861
 20
44.4901
 11
64.5631
 21
44.4114
  0
LINE
  8
0
 10
64.5631
 20
44.4114
 11
63.9549
 21
44.2553
  0
LINE
  8
0
 10
63.9549
 20
44.2553
 11
63.3711
 21
44.0241
  0
LINE
  8
0
 10
63.3711
 20
44.0241
 11
62.8209
 21
43.7216
  0
LINE
  8
0
 10
62.8209
 20
43.7216
 11
62.3129
 21
43.3526
  0
LINE
  8
0
 10
62.3129
 20
43.3526
 11
61.8551
 21
42.9227
  0
LINE
  8
0
 10
61.8551
 20
42.9227
 11
61.4549
 21
42.4389
  0
LINE
  8
0
 10
61.4549
 20
42.4389
 11
61.1185
 21
41.9088
  0
LINE
  8
0
 10
61.1185
 20
41.9088
 11
60.8511
 21
41.3406
  0
LINE
  8
0
 10
60.8511
 20
41.3406
 11
60.6571
 21
40.7434
  0
LINE
  8
0
 10
60.6571
 20
40.7434
 11
60.5394
 21
40.1267
  0
LINE
  8
0
 10
60.5394
 20
40.1267
 11
60.5
 21
39.5
  0
LINE
  8
0
 10
60.5
 20
39.5
 11
60.5
 21
-30.5099
  0
LINE
  8
0
 10
60.5
 20
-30.5099
 11
-60.5
 21
-30.5099
  0
LINE
  8
0
 10
-60.5
 20
-30.5099
 11
-60.5
 21
39.5
  0
LINE
  8
0
 10
-60.5
 20
39.5
 11
-60.5394
 21
40.1267
  0
LINE
  8
0
 10
-60.5394
 20
40.1267
 11
-60.6571
 21
40.7434
  0
LINE
  8
0
 10
-60.6571
 20
40.7434
 11
-60.8511
 21
41.3406
  0
LINE
  8
0
 10
-60.8511
 20
41.3406
 11
-61.1185
 21
41.9088
  0
LINE
  8
0
 10
-61.1185
 20
41.9088
 11
-61.4549
 21
42.4389
  0
LINE
  8
0
 10
-61.4549
 20
42.4389
 11
-61.8551
 21
42.9227
  0
LINE
  8
0
 10
-61.8551
 20
42.9227
 11
-62.3129
 21
43.3526
  0
LINE
  8
0
 10
-62.3129
 20
43.3526
 11
-62.8209
 21
43.7216
  0
LINE
  8
0
 10
-62.8209
 20
43.7216
 11
-63.3711
 21
44.0241
  0
LINE
  8
0
 10
-63.3711
 20
44.0241
 11
-63.9549
 21
44.2553
  0
LINE
  8
0
 10
-63.9549
 20
44.2553
 11
-64.5631
 21
44.4114
  0
LINE
  8
0
 10
-64.5631
 20
44.4114
 11
-65.1861
 21
44.4901
  0
LINE
  8
0
 10
-65.1861
 20
44.4901
 11
-69.8139
 21
44.4901
  0
LINE
  8
0
 10
-69.8139
 20
44.4901
 11
-70.4369
 21
44.4114
  0
LINE
  8
0
 10
-70.4369
 20
44.4114
 11
-71.0451
 21
44.2553
  0
LINE
  8
0
 10
-71.0451
 20
44.2553
 11
-71.6289
 21
44.0241
  0
LINE
  8
0
 10
-71.6289
 20
44.0241
 11
-72.1791
 21
43.7216
  0
LINE
  8
0
 10
-72.1791
 20
43.7216
 11
-72.6871
 21
43.3526
  0
LINE
  8
0
 10
-72.6871
 20
43.3526
 11
-73.1448
 21
42.9227
  0
LINE
  8
0
 10
-73.1448
 20
42.9227
 11
-73.5451
 21
42.4389
  0
LINE
  8
0
 10
-73.5451
 20
42.4389
 11
-73.8815
 21
41.9088
  0
LINE
  8
0
 10
-73.8815
 20
41.9088
 11
-74.1489
 21
41.3406
  0
LINE
  8
0
 10
-74.1489
 20
41.3406
 11
-74.3429
 21
40.7434
  0
LINE
  8
0
 10
-74.3429
 20
40.7434
 11
-74.4606
 21
40.1267
  0
LINE
  8
0
 10
-74.4606
 20
40.1267
 11
-74.5
 21
39.5
  0
LINE
  8
0
 10
-74.5
 20
39.5
 11
-74.5
 21
-39.5
  0
LINE
  8
0
 10
-74.5
 20
-39.5
 11
-74.4606
 21
-40.1267
  0
LINE
  8
0
 10
-74.4606
 20
-40.1267
 11
-74.3429
 21
-40.7434
  0
LINE
  8
0
 10
-74.3429
 20
-40.7434
 11
-74.1489
 21
-41.3406
  0
LINE
  8
0
 10
-74.1489
 20
-41.3406
 11
-73.8815
 21
-41.9088
  0
LINE
  8
0
 10
-73.8815
 20
-41.9088
 11
-73.5451
 21
-42.4389
  0
LINE
  8
0
 10
-73.5451
 20
-42.4389
 11
-73.1448
 21
-42.9227
  0
LINE
  8
0
 10
-73.1448
 20
-42.9227
 11
-72.6871
 21
-43.3526
  0
LINE
  8
0
 10
-72.6871
 20
-43.3526
 11
-72.1791
 21
-43.7216
  0
LINE
  8
0
 10
-72.1791
 20
-43.7216
 11
-71.6289
 21
-44.0241
  0
LINE
  8
0
 10
-71.6289
 20
-44.0241
 11
-71.0451
 21
-44.2553
  0
LINE
  8
0
 10
-71.0451
 20
-44.2553
 11
-70.4369
 21
-44.4114
  0
LINE
  8
0
 10
-70.4369
 20
-44.4114
 11
-69.8139
 21
-44.4901
  0
LINE
  8
0
 10
-69.8139
 20
-44.4901
 11
69.8139
 21
-44.4901
  0
LINE
  8
0
 10
69.8139
 20
-44.4901
 11
70.4369
 21
-44.4114
  0
LINE
  8
0
 10
67.3116
 20
34.5059
 11
66.9379
 21
34.5531
  0
LINE
  8
0
 10
66.9379
 20
34.5531
 11
66.573
 21
34.6468
  0
LINE
  8
0
 10
66.573
 20
34.6468
 11
66.2227
 21
34.7855
  0
LINE
  8
0
 10
66.2227
 20
34.7855
 11
65.8925
 21
34.967
  0
LINE
  8
0
 10
65.8925
 20
34.967
 11
65.5877
 21
35.1885
  0
LINE
  8
0
 10
65.5877
 20
35.1885
 11
65.3131
 21
35.4464
  0
LINE
  8
0
 10
65.3131
 20
35.4464
 11
65.073
 21
35.7366
  0
LINE
  8
0
 10
65.073
 20
35.7366
 11
64.8711
 21
36.0547
  0
LINE
  8
0
 10
64.8711
 20
36.0547
 11
64.7107
 21
36.3956
  0
LINE
  8
0
 10
64.7107
 20
36.3956
 11
64.5943
 21
36.7539
  0
LINE
  8
0
 10
64.5943
 20
36.7539
 11
64.5237
 21
37.124
  0
LINE
  8
0
 10
64.5237
 20
37.124
 11
64.5
 21
37.5
  0
LINE
  8
0
 10
64.5
 20
37.5
 11
64.5237
 21
37.876
  0
LINE
  8
0
 10
64.5237
 20
37.876
 11
64.5943
 21
38.2461
  0
LINE
  8
0
 10
64.5943
 20
38.2461
 11
64.7107
 21
38.6044
  0
LINE
  8
0
 10
64.7107
 20
38.6044
 11
64.8711
 21
38.9453
  0
LINE
  8
0
 10
64.8711
 20
38.9453
 11
65.073
 21
39.2634
  0
LINE
  8
0
 10
65.073
 20
39.2634
 11
65.3131
 21
39.5536
  0
LINE
  8
0
 10
65.3131
 20
39.5536
 11
65.5877
 21
39.8115
  0
LINE
  8
0
 10
65.5877
 20
39.8115
 11
65.8925
 21
40.033
  0
LINE
  8
0
 10
65.8925
 20
40.033
 11
66.2227
 21
40.2145
  0
LINE
  8
0
 10
66.2227
 20
40.2145
 11
66.573
 21
40.3532
  0
LINE
  8
0
 10
66.573
 20
40.3532
 11
66.9379
 21
40.4469
  0
LINE
  8
0
 10
66.9379
 20
40.4469
 11
67.3116
 21
40.4941
  0
LINE
  8
0
 10
67.3116
 20
40.4941
 11
67.6884
 21
40.4941
  0
LINE
  8
0
 10
67.6884
 20
40.4941
 11
68.0621
 21
40.4469
  0
LINE
  8
0
 10
68.0621
 20
40.4469
 11
68.427
 21
40.3532
  0
LINE
  8
0
 10
68.427
 20
40.3532
 11
68.7773
 21
40.2145
  0
LINE
  8
0
 10
68.7773
 20
40.2145
 11
69.1075
 21
40.033
  0
LINE
  8
0
 10
69.1075
 20
40.033
 11
69.4123
 21
39.8115
  0
LINE
  8
0
 10
69.4123
 20
39.8115
 11
69.6869
 21
39.5536
  0
LINE
  8
0
 10
69.6869
 20
39.5536
 11
69.927
 21
39.2634
  0
LINE
  8
0
 10
69.927
 20
39.2634
 11
70.1289
 21
38.9453
  0
LINE
  8
0
 10
70.1289
 20
38.9453
 11
70.2893
 21
38.6044
  0
LINE
  8
0
 10
70.2893
 20
38.6044
 11
70.4057
 21
38.2461
  0
LINE
  8
0
 10
70.4057
 20
38.2461
 11
70.4763
 21
37.876
  0
LINE
  8
0
 10
70.4763
 20
37.876
 11
70.5
 21
37.5
  0
LINE
  8
0
 10
70.5
 20
37.5
 11
70.4763
 21
37.124
  0
LINE
  8
0
 10
70.4763
 20
37.124
 11
70.4057
 21
36.7539
  0
LINE
  8
0
 10
70.4057
 20
36.7539
 11
70.2893
 21
36.3956
  0
LINE
  8
0
 10
70.2893
 20
36.3956
 11
70.1289
 21
36.0547
  0
LINE
  8
0
 10
70.1289
 20
36.0547
 11
69.927
 21
35.7366
  0
LINE
  8
0
 10
69.927
 20
35.7366
 11
69.6869
 21
35.4464
  0
LINE
  8
0
 10
69.6869
 20
35.4464
 11
69.4123
 21
35.1885
  0
LINE
  8
0
 10
69.4123
 20
35.1885
 11
69.1075
 21
34.967
  0
LINE
  8
0
 10
69.1075
 20
34.967
 11
68.7773
 21
34.7855
  0
LINE
  8
0
 10
68.7773
 20
34.7855
 11
68.427
 21
34.6468
  0
LINE
  8
0
 10
68.427
 20
34.6468
 11
68.0621
 21
34.5531
  0
LINE
  8
0
 10
68.0621
 20
34.5531
 11
67.6884
 21
34.5059
  0
LINE
  8
0
 10
67.6884
 20
34.5059
 11
67.3116
 21
34.5059
  0
LINE
  8
0
 10
-67.6884
 20
34.5059
 11
-68.0621
 21
34.5531
  0
LINE
  8
0
 10
-68.0621
 20
34.5531
 11
-68.427
 21
34.6468
  0
LINE
  8
0
 10
-68.427
 20
34.6468
 11
-68.7773
 21
34.7855
  0
LINE
  8
0
 10
-68.7773
 20
34.7855
 11
-69.1075
 21
34.967
  0
LINE
  8
0
 10
-69.1075
 20
34.967
 11
-69.4123
 21
35.1885
  0
LINE
  8
0
 10
-69.4123
 20
35.1885
 11
-69.6869
 21
35.4464
  0
LINE
  8
0
 10
-69.6869
 20
35.4464
 11
-69.927
 21
35.7366
  0
LINE
  8
0
 10
-69.927
 20
35.7366
 11
-70.1289
 21
36.0547
  0
LINE
  8
0
 10
-70.1289
 20
36.0547
 11
-70.2893
 21
36.3956
  0
LINE
  8
0
 10
-70.2893
 20
36.3956
 11
-70.4057
 21
36.7539
  0
LINE
  8
0
 10
-70.4057
 20
36.7539
 11
-70.4763
 21
37.124
  0
LINE
  8
0
 10
-70.4763
 20
37.124
 11
-70.5
 21
37.5
  0
LINE
  8
0
 10
-70.5
 20
37.5
 11
-70.4763
 21
37.876
  0
LINE
  8
0
 10
-70.4763
 20
37.876
 11
-70.4057
 21
38.2461
  0
LINE
  8
0
 10
-70.4057
 20
38.2461
 11
-70.2893
 21
38.6044
  0
LINE
  8
0
 10
-70.2893
 20
38.6044
 11
-70.1289
 21
38.9453
  0
LINE
  8
0
 10
-70.1289
 20
38.9453
 11
-69.927
 21
39.2634
  0
LINE
  8
0
 10
-69.927
 20
39.2634
 11
-69.6869
 21
39.5536
  0
LINE
  8
0
 10
-69.6869
 20
39.5536
 11
-69.4123
 21
39.8115
  0
LINE
  8
0
 10
-69.4123
 20
39.8115
 11
-69.1075
 21
40.033
  0
LINE
  8
0
 10
-69.1075
 20
40.033
 11
-68.7773
 21
40.2145
  0
LINE
  8
0
 10
-68.7773
 20
40.2145
 11
-68.427
 21
40.3532
  0
LINE
  8
0
 10
-68.427
 20
40.3532
 11
-68.0621
 21
40.4469
  0
LINE
  8
0
 10
-68.0621
 20
40.4469
 11
-67.6884
 21
40.4941
  0
LINE
  8
0
 10
-67.6884
 20
40.4941
 11
-67.3116
 21
40.4941
  0
LINE
  8
0
 10
-67.3116
 20
40.4941
 11
-66.9379
 21
40.4469
  0
LINE
  8
0
 10
-66.9379
 20
40.4469
 11
-66.573
 21
40.3532
  0
LINE
  8
0
 10
-66.573
 20
40.3532
 11
-66.2227
 21
40.2145
  0
LINE
  8
0
 10
-66.2227
 20
40.2145
 11
-65.8925
 21
40.033
  0
LINE
  8
0
 10
-65.8925
 20
40.033
 11
-65.5877
 21
39.8115
  0
LINE
  8
0
 10
-65.5877
 20
39.8115
 11
-65.3131
 21
39.5536
  0
LINE
  8
0
 10
-65.3131
 20
39.5536
 11
-65.073
 21
39.2634
  0
LINE
  8
0
 10
-65.073
 20
39.2634
 11
-64.8711
 21
38.9453
  0
LINE
  8
0
 10
-64.8711
 20
38.9453
 11
-64.7107
 21
38.6044
  0
LINE
  8
0
 10
-64.7107
 20
38.6044
 11
-64.5943
 21
38.2461
  0
LINE
  8
0
 10
-64.5943
 20
38.2461
 11
-64.5237
 21
37.876
  0
LINE
  8
0
 10
-64.5237
 20
37.876
 11
-64.5
 21
37.5
  0
LINE
  8
0
 10
-64.5
 20
37.5
 11
-64.5237
 21
37.124
  0
LINE
  8
0
 10
-64.5237
 20
37.124
 11
-64.5943
 21
36.7539
  0
LINE
  8
0
 10
-64.5943
 20
36.7539
 11
-64.7107
 21
36.3956
  0
LINE
  8
0
 10
-64.7107
 20
36.3956
 11
-64.8711
 21
36.0547
  0
LINE
  8
0
 10
-64.8711
 20
36.0547
 11
-65.073
 21
35.7366
  0
LINE
  8
0
 10
-65.073
 20
35.7366
 11
-65.3131
 21
35.4464
  0
LINE
  8
0
 10
-65.3131
 20
35.4464
 11
-65.5877
 21
35.1885
  0
LINE
  8
0
 10
-65.5877
 20
35.1885
 11
-65.8925
 21
34.967
  0
LINE
  8
0
 10
-65.8925
 20
34.967
 11
-66.2227
 21
34.7855
  0
LINE
  8
0
 10
-66.2227
 20
34.7855
 11
-66.573
 21
34.6468
  0
LINE
  8
0
 10
-66.573
 20
34.6468
 11
-66.9379
 21
34.5531
  0
LINE
  8
0
 10
-66.9379
 20
34.5531
 11
-67.3116
 21
34.5059
  0
LINE
  8
0
 10
-67.3116
 20
34.5059
 11
-67.6884
 21
34.5059
  0
LINE
  8
0
 10
-67.5942
 20
28.503
 11
-67.7811
 21
28.5266
  0
LINE
  8
0
 10
-67.7811
 20
28.5266
 11
-67.9635
 21
28.5734
  0
LINE
  8
0
 10
-67.9635
 20
28.5734
 11
-68.1387
 21
28.6427
  0
LINE
  8
0
 10
-68.1387
 20
28.6427
 11
-68.3037
 21
28.7335
  0
LINE
  8
0
 10
-68.3037
 20
28.7335
 11
-68.4561
 21
28.8442
  0
LINE
  8
0
 10
-68.4561
 20
28.8442
 11
-68.5934
 21
28.9732
  0
LINE
  8
0
 10
-68.5934
 20
28.9732
 11
-68.7135
 21
29.1183
  0
LINE
  8
0
 10
-68.7135
 20
29.1183
 11
-68.8145
 21
29.2774
  0
LINE
  8
0
 10
-68.8145
 20
29.2774
 11
-68.8947
 21
29.4478
  0
LINE
  8
0
 10
-68.8947
 20
29.4478
 11
-68.9529
 21
29.627
  0
LINE
  8
0
 10
-68.9529
 20
29.627
 11
-68.9882
 21
29.812
  0
LINE
  8
0
 10
-68.9882
 20
29.812
 11
-69
 21
30
  0
LINE
  8
0
 10
-69
 20
30
 11
-68.9882
 21
30.188
  0
LINE
  8
0
 10
-68.9882
 20
30.188
 11
-68.9529
 21
30.373
  0
LINE
  8
0
 10
-68.9529
 20
30.373
 11
-68.8947
 21
30.5522
  0
LINE
  8
0
 10
-68.8947
 20
30.5522
 11
-68.8145
 21
30.7226
  0
LINE
  8
0
 10
-68.8145
 20
30.7226
 11
-68.7135
 21
30.8817
  0
LINE
  8
0
 10
-68.7135
 20
30.8817
 11
-68.5934
 21
31.0268
  0
LINE
  8
0
 10
-68.5934
 20
31.0268
 11
-68.4561
 21
31.1558
  0
LINE
  8
0
 10
-68.4561
 20
31.1558
 11
-68.3037
 21
31.2665
  0
LINE
  8
0
 10
-68.3037
 20
31.2665
 11
-68.1387
 21
31.3572
  0
LINE
  8
0
 10
-68.1387
 20
31.3572
 11
-67.9635
 21
31.4266
  0
LINE
  8
0
 10
-67.9635
 20
31.4266
 11
-67.7811
 21
31.4734
  0
LINE
  8
0
 10
-67.7811
 20
31.4734
 11
-67.5942
 21
31.497
  0
LINE
  8
0
 10
-67.5942
 20
31.497
 11
-67.4058
 21
31.497
  0
LINE
  8
0
 10
-67.4058
 20
31.497
 11
-67.2189
 21
31.4734
  0
LINE
  8
0
 10
-67.2189
 20
31.4734
 11
-67.0365
 21
31.4266
  0
LINE
  8
0
 10
-67.0365
 20
31.4266
 11
-66.8613
 21
31.3572
  0
LINE
  8
0
 10
-66.8613
 20
31.3572
 11
-66.6963
 21
31.2665
  0
LINE
  8
0
 10
-66.6963
 20
31.2665
 11
-66.5439
 21
31.1558
  0
LINE
  8
0
 10
-66.5439
 20
31.1558
 11
-66.4065
 21
31.0268
  0
LINE
  8
0
 10
-66.4065
 20
31.0268
 11
-66.2865
 21
30.8817
  0
LINE
  8
0
 10
-66.2865
 20
30.8817
 11
-66.1855
 21
30.7226
  0
LINE
  8
0
 10
-66.1855
 20
30.7226
 11
-66.1053
 21
30.5522
  0
LINE
  8
0
 10
-66.1053
 20
30.5522
 11
-66.0471
 21
30.373
  0
LINE
  8
0
 10
-66.0471
 20
30.373
 11
-66.0118
 21
30.188
  0
LINE
  8
0
 10
-66.0118
 20
30.188
 11
-66
 21
30
  0
LINE
  8
0
 10
-66
 20
30
 11
-66.0118
 21
29.812
  0
LINE
  8
0
 10
-66.0118
 20
29.812
 11
-66.0471
 21
29.627
  0
LINE
  8
0
 10
-66.0471
 20
29.627
 11
-66.1053
 21
29.4478
  0
LINE
  8
0
 10
-66.1053
 20
29.4478
 11
-66.1855
 21
29.2774
  0
LINE
  8
0
 10
-66.1855
 20
29.2774
 11
-66.2865
 21
29.1183
  0
LINE
  8
0
 10
-66.2865
 20
29.1183
 11
-66.4065
 21
28.9732
  0
LINE
  8
0
 10
-66.4065
 20
28.9732
 11
-66.5439
 21
28.8442
  0
LINE
  8
0
 10
-66.5439
 20
28.8442
 11
-66.6963
 21
28.7335
  0
LINE
  8
0
 10
-66.6963
 20
28.7335
 11
-66.8613
 21
28.6427
  0
LINE
  8
0
 10
-66.8613
 20
28.6427
 11
-67.0365
 21
28.5734
  0
LINE
  8
0
 10
-67.0365
 20
28.5734
 11
-67.2189
 21
28.5266
  0
LINE
  8
0
 10
-67.2189
 20
28.5266
 11
-67.4058
 21
28.503
  0
LINE
  8
0
 10
-67.4058
 20
28.503
 11
-67.5942
 21
28.503
  0
LINE
  8
0
 10
67.4058
 20
28.503
 11
67.2189
 21
28.5266
  0
LINE
  8
0
 10
67.2189
 20
28.5266
 11
67.0365
 21
28.5734
  0
LINE
  8
0
 10
67.0365
 20
28.5734
 11
66.8613
 21
28.6427
  0
LINE
  8
0
 10
66.8613
 20
28.6427
 11
66.6963
 21
28.7335
  0
LINE
  8
0
 10
66.6963
 20
28.7335
 11
66.5439
 21
28.8442
  0
LINE
  8
0
 10
66.5439
 20
28.8442
 11
66.4065
 21
28.9732
  0
LINE
  8
0
 10
66.4065
 20
28.9732
 11
66.2865
 21
29.1183
  0
LINE
  8
0
 10
66.2865
 20
29.1183
 11
66.1855
 21
29.2774
  0
LINE
  8
0
 10
66.1855
 20
29.2774
 11
66.1053
 21
29.4478
  0
LINE
  8
0
 10
66.1053
 20
29.4478
 11
66.0471
 21
29.627
  0
LINE
  8
0
 10
66.0471
 20
29.627
 11
66.0118
 21
29.812
  0
LINE
  8
0
 10
66.0118
 20
29.812
 11
66
 21
30
  0
LINE
  8
0
 10
66
 20
30
 11
66.0118
 21
30.188
  0
LINE
  8
0
 10
66.0118
 20
30.188
 11
66.0471
 21
30.373
  0
LINE
  8
0
 10
66.0471
 20
30.373
 11
66.1053
 21
30.5522
  0
LINE
  8
0
 10
66.1053
 20
30.5522
 11
66.1855
 21
30.7226
  0
LINE
  8
0
 10
66.1855
 20
30.7226
 11
66.2865
 21
30.8817
  0
LINE
  8
0
 10
66.2865
 20
30.8817
 11
66.4065
 21
31.0268
  0
LINE
  8
0
 10
66.4065
 20
31.0268
 11
66.5439
 21
31.1558
  0
LINE
  8
0
 10
66.5439
 20
31.1558
 11
66.6963
 21
31.2665
  0
LINE
  8
0
 10
66.6963
 20
31.2665
 11
66.8613
 21
31.3572
  0
LINE
  8
0
 10
66.8613
 20
31.3572
 11
67.0365
 21
31.4266
  0
LINE
  8
0
 10
67.0365
 20
31.4266
 11
67.2189
 21
31.4734
  0
LINE
  8
0
 10
67.2189
 20
31.4734
 11
67.4058
 21
31.497
  0
LINE
  8
0
 10
67.4058
 20
31.497
 11
67.5942
 21
31.497
  0
LINE
  8
0
 10
67.5942
 20
31.497
 11
67.7811
 21
31.4734
  0
LINE
  8
0
 10
67.7811
 20
31.4734
 11
67.9635
 21
31.4266
  0
LINE
  8
0
 10
67.9635
 20
31.4266
 11
68.1387
 21
31.3572
  0
LINE
  8
0
 10
68.1387
 20
31.3572
 11
68.3037
 21
31.2665
  0
LINE
  8
0
 10
68.3037
 20
31.2665
 11
68.4561
 21
31.1558
  0
LINE
  8
0
 10
68.4561
 20
31.1558
 11
68.5934
 21
31.0268
  0
LINE
  8
0
 10
68.5934
 20
31.0268
 11
68.7135
 21
30.8817
  0
LINE
  8
0
 10
68.7135
 20
30.8817
 11
68.8145
 21
30.7226
  0
LINE
  8
0
 10
68.8145
 20
30.7226
 11
68.8947
 21
30.5522
  0
LINE
  8
0
 10
68.8947
 20
30.5522
 11
68.9529
 21
30.373
  0
LINE
  8
0
 10
68.9529
 20
30.373
 11
68.9882
 21
30.188
  0
LINE
  8
0
 10
68.9882
 20
30.188
 11
69
 21
30
  0
LINE
  8
0
 10
69
 20
30
 11
68.9882
 21
29.812
  0
LINE
  8
0
 10
68.9882
 20
29.812
 11
68.9529
 21
29.627
  0
LINE
  8
0
 10
68.9529
 20
29.627
 11
68.8947
 21
29.4478
  0
LINE
  8
0
 10
68.8947
 20
29.4478
 11
68.8145
 21
29.2774
  0
LINE
  8
0
 10
68.8145
 20
29.2774
 11
68.7135
 21
29.1183
  0
LINE
  8
0
 10
68.7135
 20
29.1183
 11
68.5934
 21
28.9732
  0
LINE
  8
0
 10
68.5934
 20
28.9732
 11
68.4561
 21
28.8442
  0
LINE
  8
0
 10
68.4561
 20
28.8442
 11
68.3037
 21
28.7335
  0
LINE
  8
0
 10
68.3037
 20
28.7335
 11
68.1387
 21
28.6427
  0
LINE
  8
0
 10
68.1387
 20
28.6427
 11
67.9635
 21
28.5734
  0
LINE
  8
0
 10
67.9635
 20
28.5734
 11
67.7811
 21
28.5266
  0
LINE
  8
0
 10
67.7811
 20
28.5266
 11
67.5942
 21
28.503
  0
LINE
  8
0
 10
67.5942
 20
28.503
 11
67.4058
 21
28.503
  0
LINE
  8
0
 10
-67.6884
 20
19.5059
 11
-68.0621
 21
19.5531
  0
LINE
  8
0
 10
-68.0621
 20
19.5531
 11
-68.427
 21
19.6468
  0
LINE
  8
0
 10
-68.427
 20
19.6468
 11
-68.7773
 21
19.7855
  0
LINE
  8
0
 10
-68.7773
 20
19.7855
 11
-69.1075
 21
19.967
  0
LINE
  8
0
 10
-69.1075
 20
19.967
 11
-69.4123
 21
20.1884
  0
LINE
  8
0
 10
-69.4123
 20
20.1884
 11
-69.6869
 21
20.4464
  0
LINE
  8
0
 10
-69.6869
 20
20.4464
 11
-69.927
 21
20.7366
  0
LINE
  8
0
 10
-69.927
 20
20.7366
 11
-70.1289
 21
21.0547
  0
LINE
  8
0
 10
-70.1289
 20
21.0547
 11
-70.2893
 21
21.3956
  0
LINE
  8
0
 10
-70.2893
 20
21.3956
 11
-70.4057
 21
21.7539
  0
LINE
  8
0
 10
-70.4057
 20
21.7539
 11
-70.4763
 21
22.124
  0
LINE
  8
0
 10
-70.4763
 20
22.124
 11
-70.5
 21
22.5
  0
LINE
  8
0
 10
-70.5
 20
22.5
 11
-70.4763
 21
22.876
  0
LINE
  8
0
 10
-70.4763
 20
22.876
 11
-70.4057
 21
23.2461
  0
LINE
  8
0
 10
-70.4057
 20
23.2461
 11
-70.2893
 21
23.6044
  0
LINE
  8
0
 10
-70.2893
 20
23.6044
 11
-70.1289
 21
23.9453
  0
LINE
  8
0
 10
-70.1289
 20
23.9453
 11
-69.927
 21
24.2634
  0
LINE
  8
0
 10
-69.927
 20
24.2634
 11
-69.6869
 21
24.5536
  0
LINE
  8
0
 10
-69.6869
 20
24.5536
 11
-69.4123
 21
24.8115
  0
LINE
  8
0
 10
-69.4123
 20
24.8115
 11
-69.1075
 21
25.033
  0
LINE
  8
0
 10
-69.1075
 20
25.033
 11
-68.7773
 21
25.2145
  0
LINE
  8
0
 10
-68.7773
 20
25.2145
 11
-68.427
 21
25.3532
  0
LINE
  8
0
 10
-68.427
 20
25.3532
 11
-68.0621
 21
25.4469
  0
LINE
  8
0
 10
-68.0621
 20
25.4469
 11
-67.6884
 21
25.4941
  0
LINE
  8
0
 10
-67.6884
 20
25.4941
 11
-67.3116
 21
25.4941
  0
LINE
  8
0
 10
-67.3116
 20
25.4941
 11
-66.9379
 21
25.4469
  0
LINE
  8
0
 10
-66.9379
 20
25.4469
 11
-66.573
 21
25.3532
  0
LINE
  8
0
 10
-66.573
 20
25.3532
 11
-66.2227
 21
25.2145
  0
LINE
  8
0
 10
-66.2227
 20
25.2145
 11
-65.8925
 21
25.033
  0
LINE
  8
0
 10
-65.8925
 20
25.033
 11
-65.5877
 21
24.8115
  0
LINE
  8
0
 10
-65.5877
 20
24.8115
 11
-65.3131
 21
24.5536
  0
LINE
  8
0
 10
-65.3131
 20
24.5536
 11
-65.073
 21
24.2634
  0
LINE
  8
0
 10
-65.073
 20
24.2634
 11
-64.8711
 21
23.9453
  0
LINE
  8
0
 10
-64.8711
 20
23.9453
 11
-64.7107
 21
23.6044
  0
LINE
  8
0
 10
-64.7107
 20
23.6044
 11
-64.5943
 21
23.2461
  0
LINE
  8
0
 10
-64.5943
 20
23.2461
 11
-64.5237
 21
22.876
  0
LINE
  8
0
 10
-64.5237
 20
22.876
 11
-64.5
 21
22.5
  0
LINE
  8
0
 10
-64.5
 20
22.5
 11
-64.5237
 21
22.124
  0
LINE
  8
0
 10
-64.5237
 20
22.124
 11
-64.5943
 21
21.7539
  0
LINE
  8
0
 10
-64.5943
 20
21.7539
 11
-64.7107
 21
21.3956
  0
LINE
  8
0
 10
-64.7107
 20
21.3956
 11
-64.8711
 21
21.0547
  0
LINE
  8
0
 10
-64.8711
 20
21.0547
 11
-65.073
 21
20.7366
  0
LINE
  8
0
 10
-65.073
 20
20.7366
 11
-65.3131
 21
20.4464
  0
LINE
  8
0
 10
-65.3131
 20
20.4464
 11
-65.5877
 21
20.1884
  0
LINE
  8
0
 10
-65.5877
 20
20.1884
 11
-65.8925
 21
19.967
  0
LINE
  8
0
 10
-65.8925
 20
19.967
 11
-66.2227
 21
19.7855
  0
LINE
  8
0
 10
-66.2227
 20
19.7855
 11
-66.573
 21
19.6468
  0
LINE
  8
0
 10
-66.573
 20
19.6468
 11
-66.9379
 21
19.5531
  0
LINE
  8
0
 10
-66.9379
 20
19.5531
 11
-67.3116
 21
19.5059
  0
LINE
  8
0
 10
-67.3116
 20
19.5059
 11
-67.6884
 21
19.5059
  0
LINE
  8
0
 10
67.3116
 20
19.5059
 11
66.9379
 21
19.5531
  0
LINE
  8
0
 10
66.9379
 20
19.5531
 11
66.573
 21
19.6468
  0
LINE
  8
0
 10
66.573
 20
19.6468
 11
66.2227
 21
19.7855
  0
LINE
  8
0
 10
66.2227
 20
19.7855
 11
65.8925
 21
19.967
  0
LINE
  8
0
 10
65.8925
 20
19.967
 11
65.5877
 21
20.1884
  0
LINE
  8
0
 10
65.5877
 20
20.1884
 11
65.3131
 21
20.4464
  0
LINE
  8
0
 10
65.3131
 20
20.4464
 11
65.073
 21
20.7366
  0
LINE
  8
0
 10
65.073
 20
20.7366
 11
64.8711
 21
21.0547
  0
LINE
  8
0
 10
64.8711
 20
21.0547
 11
64.7107
 21
21.3956
  0
LINE
  8
0
 10
64.7107
 20
21.3956
 11
64.5943
 21
21.7539
  0
LINE
  8
0
 10
64.5943
 20
21.7539
 11
64.5237
 21
22.124
  0
LINE
  8
0
 10
64.5237
 20
22.124
 11
64.5
 21
22.5
  0
LINE
  8
0
 10
64.5
 20
22.5
 11
64.5237
 21
22.876
  0
LINE
  8
0
 10
64.5237
 20
22.876
 11
64.5943
 21
23.2461
  0
LINE
  8
0
 10
64.5943
 20
23.2461
 11
64.7107
 21
23.6044
  0
LINE
  8
0
 10
64.7107
 20
23.6044
 11
64.8711
 21
23.9453
  0
LINE
  8
0
 10
64.8711
 20
23.9453
 11
65.073
 21
24.2634
  0
LINE
  8
0
 10
65.073
 20
24.2634
 11
65.3131
 21
24.5536
  0
LINE
  8
0
 10
65.3131
 20
24.5536
 11
65.5877
 21
24.8115
  0
LINE
  8
0
 10
65.5877
 20
24.8115
 11
65.8925
 21
25.033
  0
LINE
  8
0
 10
65.8925
 20
25.033
 11
66.2227
 21
25.2145
  0
LINE
  8
0
 10
66.2227
 20
25.2145
 11
66.573
 21
25.3532
  0
LINE
  8
0
 10
66.573
 20
25.3532
 11
66.9379
 21
25.4469
  0
LINE
  8
0
 10
66.9379
 20
25.4469
 11
67.3116
 21
25.4941
  0
LINE
  8
0
 10
67.3116
 20
25.4941
 11
67.6884
 21
25.4941
  0
LINE
  8
0
 10
67.6884
 20
25.4941
 11
68.0621
 21
25.4469
  0
LINE
  8
0
 10
68.0621
 20
25.4469
 11
68.427
 21
25.3532
  0
LINE
  8
0
 10
68.427
 20
25.3532
 11
68.7773
 21
25.2145
  0
LINE
  8
0
 10
68.7773
 20
25.2145
 11
69.1075
 21
25.033
  0
LINE
  8
0
 10
69.1075
 20
25.033
 11
69.4123
 21
24.8115
  0
LINE
  8
0
 10
69.4123
 20
24.8115
 11
69.6869
 21
24.5536
  0
LINE
  8
0
 10
69.6869
 20
24.5536
 11
69.927
 21
24.2634
  0
LINE
  8
0
 10
69.927
 20
24.2634
 11
70.1289
 21
23.9453
  0
LINE
  8
0
 10
70.1289
 20
23.9453
 11
70.2893
 21
23.6044
  0
LINE
  8
0
 10
70.2893
 20
23.6044
 11
70.4057
 21
23.2461
  0
LINE
  8
0
 10
70.4057
 20
23.2461
 11
70.4763
 21
22.876
  0
LINE
  8
0
 10
70.4763
 20
22.876
 11
70.5
 21
22.5
  0
LINE
  8
0
 10
70.5
 20
22.5
 11
70.4763
 21
22.124
  0
LINE
  8
0
 10
70.4763
 20
22.124
 11
70.4057
 21
21.7539
  0
LINE
  8
0
 10
70.4057
 20
21.7539
 11
70.2893
 21
21.3956
  0
LINE
  8
0
 10
70.2893
 20
21.3956
 11
70.1289
 21
21.0547
  0
LINE
  8
0
 10
70.1289
 20
21.0547
 11
69.927
 21
20.7366
  0
LINE
  8
0
 10
69.927
 20
20.7366
 11
69.6869
 21
20.4464
  0
LINE
  8
0
 10
69.6869
 20
20.4464
 11
69.4123
 21
20.1884
  0
LINE
  8
0
 10
69.4123
 20
20.1884
 11
69.1075
 21
19.967
  0
LINE
  8
0
 10
69.1075
 20
19.967
 11
68.7773
 21
19.7855
  0
LINE
  8
0
 10
68.7773
 20
19.7855
 11
68.427
 21
19.6468
  0
LINE
  8
0
 10
68.427
 20
19.6468
 11
68.0621
 21
19.5531
  0
LINE
  8
0
 10
68.0621
 20
19.5531
 11
67.6884
 21
19.5059
  0
LINE
  8
0
 10
67.6884
 20
19.5059
 11
67.3116
 21
19.5059
  0
LINE
  8
0
 10
67.4058
 20
13.5029
 11
67.2189
 21
13.5266
  0
LINE
  8
0
 10
67.2189
 20
13.5266
 11
67.0365
 21
13.5734
  0
LINE
  8
0
 10
67.0365
 20
13.5734
 11
66.8613
 21
13.6427
  0
LINE
  8
0
 10
66.8613
 20
13.6427
 11
66.6963
 21
13.7335
  0
LINE
  8
0
 10
66.6963
 20
13.7335
 11
66.5439
 21
13.8442
  0
LINE
  8
0
 10
66.5439
 20
13.8442
 11
66.4065
 21
13.9732
  0
LINE
  8
0
 10
66.4065
 20
13.9732
 11
66.2865
 21
14.1183
  0
LINE
  8
0
 10
66.2865
 20
14.1183
 11
66.1855
 21
14.2774
  0
LINE
  8
0
 10
66.1855
 20
14.2774
 11
66.1053
 21
14.4478
  0
LINE
  8
0
 10
66.1053
 20
14.4478
 11
66.0471
 21
14.627
  0
LINE
  8
0
 10
66.0471
 20
14.627
 11
66.0118
 21
14.812
  0
LINE
  8
0
 10
66.0118
 20
14.812
 11
66
 21
15
  0
LINE
  8
0
 10
66
 20
15
 11
66.0118
 21
15.188
  0
LINE
  8
0
 10
66.0118
 20
15.188
 11
66.0471
 21
15.373
  0
LINE
  8
0
 10
66.0471
 20
15.373
 11
66.1053
 21
15.5522
  0
LINE
  8
0
 10
66.1053
 20
15.5522
 11
66.1855
 21
15.7226
  0
LINE
  8
0
 10
66.1855
 20
15.7226
 11
66.2865
 21
15.8817
  0
LINE
  8
0
 10
66.2865
 20
15.8817
 11
66.4065
 21
16.0268
  0
LINE
  8
0
 10
66.4065
 20
16.0268
 11
66.5439
 21
16.1558
  0
LINE
  8
0
 10
66.5439
 20
16.1558
 11
66.6963
 21
16.2665
  0
LINE
  8
0
 10
66.6963
 20
16.2665
 11
66.8613
 21
16.3572
  0
LINE
  8
0
 10
66.8613
 20
16.3572
 11
67.0365
 21
16.4266
  0
LINE
  8
0
 10
67.0365
 20
16.4266
 11
67.2189
 21
16.4734
  0
LINE
  8
0
 10
67.2189
 20
16.4734
 11
67.4058
 21
16.497
  0
LINE
  8
0
 10
67.4058
 20
16.497
 11
67.5942
 21
16.497
  0
LINE
  8
0
 10
67.5942
 20
16.497
 11
67.7811
 21
16.4734
  0
LINE
  8
0
 10
67.7811
 20
16.4734
 11
67.9635
 21
16.4266
  0
LINE
  8
0
 10
67.9635
 20
16.4266
 11
68.1387
 21
16.3572
  0
LINE
  8
0
 10
68.1387
 20
16.3572
 11
68.3037
 21
16.2665
  0
LINE
  8
0
 10
68.3037
 20
16.2665
 11
68.4561
 21
16.1558
  0
LINE
  8
0
 10
68.4561
 20
16.1558
 11
68.5934
 21
16.0268
  0
LINE
  8
0
 10
68.5934
 20
16.0268
 11
68.7135
 21
15.8817
  0
LINE
  8
0
 10
68.7135
 20
15.8817
 11
68.8145
 21
15.7226
  0
LINE
  8
0
 10
68.8145
 20
15.7226
 11
68.8947
 21
15.5522
  0
LINE
  8
0
 10
68.8947
 20
15.5522
 11
68.9529
 21
15.373
  0
LINE
  8
0
 10
68.9529
 20
15.373
 11
68.9882
 21
15.188
  0
LINE
  8
0
 10
68.9882
 20
15.188
 11
69
 21
15
  0
LINE
  8
0
 10
69
 20
15
 11
68.9882
 21
14.812
  0
LINE
  8
0
 10
68.9882
 20
14.812
 11
68.9529
 21
14.627
  0
LINE
  8
0
 10
68.9529
 20
14.627
 11
68.8947
 21
14.4478
  0
LINE
  8
0
 10
68.8947
 20
14.4478
 11
68.8145
 21
14.2774
  0
LINE
  8
0
 10
68.8145
 20
14.2774
 11
68.7135
 21
14.1183
  0
LINE
  8
0
 10
68.7135
 20
14.1183
 11
68.5934
 21
13.9732
  0
LINE
  8
0
 10
68.5934
 20
13.9732
 11
68.4561
 21
13.8442
  0
LINE
  8
0
 10
68.4561
 20
13.8442
 11
68.3037
 21
13.7335
  0
LINE
  8
0
 10
68.3037
 20
13.7335
 11
68.1387
 21
13.6427
  0
LINE
  8
0
 10
68.1387
 20
13.6427
 11
67.9635
 21
13.5734
  0
LINE
  8
0
 10
67.9635
 20
13.5734
 11
67.7811
 21
13.5266
  0
LINE
  8
0
 10
67.7811
 20
13.5266
 11
67.5942
 21
13.5029
  0
LINE
  8
0
 10
67.5942
 20
13.5029
 11
67.4058
 21
13.5029
  0
LINE
  8
0
 10
-67.5942
 20
13.5029
 11
-67.7811
 21
13.5266
  0
LINE
  8
0
 10
-67.7811
 20
13.5266
 11
-67.9635
 21
13.5734
  0
LINE
  8
0
 10
-67.9635
 20
13.5734
 11
-68.1387
 21
13.6427
  0
LINE
  8
0
 10
-68.1387
 20
13.6427
 11
-68.3037
 21
13.7335
  0
LINE
  8
0
 10
-68.3037
 20
13.7335
 11
-68.4561
 21
13.8442
  0
LINE
  8
0
 10
-68.4561
 20
13.8442
 11
-68.5934
 21
13.9732
  0
LINE
  8
0
 10
-68.5934
 20
13.9732
 11
-68.7135
 21
14.1183
  0
LINE
  8
0
 10
-68.7135
 20
14.1183
 11
-68.8145
 21
14.2774
  0
LINE
  8
0
 10
-68.8145
 20
14.2774
 11
-68.8947
 21
14.4478
  0
LINE
  8
0
 10
-68.8947
 20
14.4478
 11
-68.9529
 21
14.627
  0
LINE
  8
0
 10
-68.9529
 20
14.627
 11
-68.9882
 21
14.812
  0
LINE
  8
0
 10
-68.9882
 20
14.812
 11
-69
 21
15
  0
LINE
  8
0
 10
-69
 20
15
 11
-68.9882
 21
15.188
  0
LINE
  8
0
 10
-68.9882
 20
15.188
 11
-68.9529
 21
15.373
  0
LINE
  8
0
 10
-68.9529
 20
15.373
 11
-68.8947
 21
15.5522
  0
LINE
  8
0
 10
-68.8947
 20
15.5522
 11
-68.8145
 21
15.7226
  0
LINE
  8
0
 10
-68.8145
 20
15.7226
 11
-68.7135
 21
15.8817
  0
LINE
  8
0
 10
-68.7135
 20
15.8817
 11
-68.5934
 21
16.0268
  0
LINE
  8
0
 10
-68.5934
 20
16.0268
 11
-68.4561
 21
16.1558
  0
LINE
  8
0
 10
-68.4561
 20
16.1558
 11
-68.3037
 21
16.2665
  0
LINE
  8
0
 10
-68.3037
 20
16.2665
 11
-68.1387
 21
16.3572
  0
LINE
  8
0
 10
-68.1387
 20
16.3572
 11
-67.9635
 21
16.4266
  0
LINE
  8
0
 10
-67.9635
 20
16.4266
 11
-67.7811
 21
16.4734
  0
LINE
  8
0
 10
-67.7811
 20
16.4734
 11
-67.5942
 21
16.497
  0
LINE
  8
0
 10
-67.5942
 20
16.497
 11
-67.4058
 21
16.497
  0
LINE
  8
0
 10
-67.4058
 20
16.497
 11
-67.2189
 21
16.4734
  0
LINE
  8
0
 10
-67.2189
 20
16.4734
 11
-67.0365
 21
16.4266
  0
LINE
  8
0
 10
-67.0365
 20
16.4266
 11
-66.8613
 21
16.3572
  0
LINE
  8
0
 10
-66.8613
 20
16.3572
 11
-66.6963
 21
16.2665
  0
LINE
  8
0
 10
-66.6963
 20
16.2665
 11
-66.5439
 21
16.1558
  0
LINE
  8
0
 10
-66.5439
 20
16.1558
 11
-66.4065
 21
16.0268
  0
LINE
  8
0
 10
-66.4065
 20
16.0268
 11
-66.2865
 21
15.8817
  0
LINE
  8
0
 10
-66.2865
 20
15.8817
 11
-66.1855
 21
15.7226
  0
LINE
  8
0
 10
-66.1855
 20
15.7226
 11
-66.1053
 21
15.5522
  0
LINE
  8
0
 10
-66.1053
 20
15.5522
 11
-66.0471
 21
15.373
  0
LINE
  8
0
 10
-66.0471
 20
15.373
 11
-66.0118
 21
15.188
  0
LINE
  8
0
 10
-66.0118
 20
15.188
 11
-66
 21
15
  0
LINE
  8
0
 10
-66
 20
15
 11
-66.0118
 21
14.812
  0
LINE
  8
0
 10
-66.0118
 20
14.812
 11
-66.0471
 21
14.627
  0
LINE
  8
0
 10
-66.0471
 20
14.627
 11
-66.1053
 21
14.4478
  0
LINE
  8
0
 10
-66.1053
 20
14.4478
 11
-66.1855
 21
14.2774
  0
LINE
  8
0
 10
-66.1855
 20
14.2774
 11
-66.2865
 21
14.1183
  0
LINE
  8
0
 10
-66.2865
 20
14.1183
 11
-66.4065
 21
13.9732
  0
LINE
  8
0
 10
-66.4065
 20
13.9732
 11
-66.5439
 21
13.8442
  0
LINE
  8
0
 10
-66.5439
 20
13.8442
 11
-66.6963
 21
13.7335
  0
LINE
  8
0
 10
-66.6963
 20
13.7335
 11
-66.8613
 21
13.6427
  0
LINE
  8
0
 10
-66.8613
 20
13.6427
 11
-67.0365
 21
13.5734
  0
LINE
  8
0
 10
-67.0365
 20
13.5734
 11
-67.2189
 21
13.5266
  0
LINE
  8
0
 10
-67.2189
 20
13.5266
 11
-67.4058
 21
13.5029
  0
LINE
  8
0
 10
-67.4058
 20
13.5029
 11
-67.5942
 21
13.5029
  0
LINE
  8
0
 10
-67.6884
 20
4.50591
 11
-68.0621
 21
4.55313
  0
LINE
  8
0
 10
-68.0621
 20
4.55313
 11
-68.427
 21
4.64682
  0
LINE
  8
0
 10
-68.427
 20
4.64682
 11
-68.7773
 21
4.78551
  0
LINE
  8
0
 10
-68.7773
 20
4.78551
 11
-69.1075
 21
4.96701
  0
LINE
  8
0
 10
-69.1075
 20
4.96701
 11
-69.4123
 21
5.18845
  0
LINE
  8
0
 10
-69.4123
 20
5.18845
 11
-69.6869
 21
5.44635
  0
LINE
  8
0
 10
-69.6869
 20
5.44635
 11
-69.927
 21
5.73663
  0
LINE
  8
0
 10
-69.927
 20
5.73663
 11
-70.1289
 21
6.05473
  0
LINE
  8
0
 10
-70.1289
 20
6.05473
 11
-70.2893
 21
6.39561
  0
LINE
  8
0
 10
-70.2893
 20
6.39561
 11
-70.4057
 21
6.75392
  0
LINE
  8
0
 10
-70.4057
 20
6.75392
 11
-70.4763
 21
7.12399
  0
LINE
  8
0
 10
-70.4763
 20
7.12399
 11
-70.5
 21
7.5
  0
LINE
  8
0
 10
-70.5
 20
7.5
 11
-70.4763
 21
7.87599
  0
LINE
  8
0
 10
-70.4763
 20
7.87599
 11
-70.4057
 21
8.24606
  0
LINE
  8
0
 10
-70.4057
 20
8.24606
 11
-70.2893
 21
8.60437
  0
LINE
  8
0
 10
-70.2893
 20
8.60437
 11
-70.1289
 21
8.94525
  0
LINE
  8
0
 10
-70.1289
 20
8.94525
 11
-69.927
 21
9.26335
  0
LINE
  8
0
 10
-69.927
 20
9.26335
 11
-69.6869
 21
9.55363
  0
LINE
  8
0
 10
-69.6869
 20
9.55363
 11
-69.4123
 21
9.81154
  0
LINE
  8
0
 10
-69.4123
 20
9.81154
 11
-69.1075
 21
10.033
  0
LINE
  8
0
 10
-69.1075
 20
10.033
 11
-68.7773
 21
10.2145
  0
LINE
  8
0
 10
-68.7773
 20
10.2145
 11
-68.427
 21
10.3532
  0
LINE
  8
0
 10
-68.427
 20
10.3532
 11
-68.0621
 21
10.4469
  0
LINE
  8
0
 10
-68.0621
 20
10.4469
 11
-67.6884
 21
10.4941
  0
LINE
  8
0
 10
-67.6884
 20
10.4941
 11
-67.3116
 21
10.4941
  0
LINE
  8
0
 10
-67.3116
 20
10.4941
 11
-66.9379
 21
10.4469
  0
LINE
  8
0
 10
-66.9379
 20
10.4469
 11
-66.573
 21
10.3532
  0
LINE
  8
0
 10
-66.573
 20
10.3532
 11
-66.2227
 21
10.2145
  0
LINE
  8
0
 10
-66.2227
 20
10.2145
 11
-65.8925
 21
10.033
  0
LINE
  8
0
 10
-65.8925
 20
10.033
 11
-65.5877
 21
9.81154
  0
LINE
  8
0
 10
-65.5877
 20
9.81154
 11
-65.3131
 21
9.55363
  0
LINE
  8
0
 10
-65.3131
 20
9.55363
 11
-65.073
 21
9.26335
  0
LINE
  8
0
 10
-65.073
 20
9.26335
 11
-64.8711
 21
8.94525
  0
LINE
  8
0
 10
-64.8711
 20
8.94525
 11
-64.7107
 21
8.60437
  0
LINE
  8
0
 10
-64.7107
 20
8.60437
 11
-64.5943
 21
8.24606
  0
LINE
  8
0
 10
-64.5943
 20
8.24606
 11
-64.5237
 21
7.87599
  0
LINE
  8
0
 10
-64.5237
 20
7.87599
 11
-64.5
 21
7.5
  0
LINE
  8
0
 10
-64.5
 20
7.5
 11
-64.5237
 21
7.12399
  0
LINE
  8
0
 10
-64.5237
 20
7.12399
 11
-64.5943
 21
6.75392
  0
LINE
  8
0
 10
-64.5943
 20
6.75392
 11
-64.7107
 21
6.39561
  0
LINE
  8
0
 10
-64.7107
 20
6.39561
 11
-64.8711
 21
6.05473
  0
LINE
  8
0
 10
-64.8711
 20
6.05473
 11
-65.073
 21
5.73663
  0
LINE
  8
0
 10
-65.073
 20
5.73663
 11
-65.3131
 21
5.44635
  0
LINE
  8
0
 10
-65.3131
 20
5.44635
 11
-65.5877
 21
5.18845
  0
LINE
  8
0
 10
-65.5877
 20
5.18845
 11
-65.8925
 21
4.96701
  0
LINE
  8
0
 10
-65.8925
 20
4.96701
 11
-66.2227
 21
4.78551
  0
LINE
  8
0
 10
-66.2227
 20
4.78551
 11
-66.573
 21
4.64682
  0
LINE
  8
0
 10
-66.573
 20
4.64682
 11
-66.9379
 21
4.55313
  0
LINE
  8
0
 10
-66.9379
 20
4.55313
 11
-67.3116
 21
4.50591
  0
LINE
  8
0
 10
-67.3116
 20
4.50591
 11
-67.6884
 21
4.50591
  0
LINE
  8
0
 10
67.3116
 20
4.50591
 11
66.9379
 21
4.55313
  0
LINE
  8
0
 10
66.9379
 20
4.55313
 11
66.573
 21
4.64682
  0
LINE
  8
0
 10
66.573
 20
4.64682
 11
66.2227
 21
4.78551
  0
LINE
  8
0
 10
66.2227
 20
4.78551
 11
65.8925
 21
4.96701
  0
LINE
  8
0
 10
65.8925
 20
4.96701
 11
65.5877
 21
5.18845
  0
LINE
  8
0
 10
65.5877
 20
5.18845
 11
65.3131
 21
5.44635
  0
LINE
  8
0
 10
65.3131
 20
5.44635
 11
65.073
 21
5.73663
  0
LINE
  8
0
 10
65.073
 20
5.73663
 11
64.8711
 21
6.05473
  0
LINE
  8
0
 10
64.8711
 20
6.05473
 11
64.7107
 21
6.39561
  0
LINE
  8
0
 10
64.7107
 20
6.39561
 11
64.5943
 21
6.75392
  0
LINE
  8
0
 10
64.5943
 20
6.75392
 11
64.5237
 21
7.12399
  0
LINE
  8
0
 10
64.5237
 20
7.12399
 11
64.5
 21
7.5
  0
LINE
  8
0
 10
64.5
 20
7.5
 11
64.5237
 21
7.87599
  0
LINE
  8
0
 10
64.5237
 20
7.87599
 11
64.5943
 21
8.24606
  0
LINE
  8
0
 10
64.5943
 20
8.24606
 11
64.7107
 21
8.60437
  0
LINE
  8
0
 10
64.7107
 20
8.60437
 11
64.8711
 21
8.94525
  0
LINE
  8
0
 10
64.8711
 20
8.94525
 11
65.073
 21
9.26335
  0
LINE
  8
0
 10
65.073
 20
9.26335
 11
65.3131
 21
9.55363
  0
LINE
  8
0
 10
65.3131
 20
9.55363
 11
65.5877
 21
9.81154
  0
LINE
  8
0
 10
65.5877
 20
9.81154
 11
65.8925
 21
10.033
  0
LINE
  8
0
 10
65.8925
 20
10.033
 11
66.2227
 21
10.2145
  0
LINE
  8
0
 10
66.2227
 20
10.2145
 11
66.573
 21
10.3532
  0
LINE
  8
0
 10
66.573
 20
10.3532
 11
66.9379
 21
10.4469
  0
LINE
  8
0
 10
66.9379
 20
10.4469
 11
67.3116
 21
10.4941
  0
LINE
  8
0
 10
67.3116
 20
10.4941
 11
67.6884
 21
10.4941
  0
LINE
  8
0
 10
67.6884
 20
10.4941
 11
68.0621
 21
10.4469
  0
LINE
  8
0
 10
68.0621
 20
10.4469
 11
68.427
 21
10.3532
  0
LINE
  8
0
 10
68.427
 20
10.3532
 11
68.7773
 21
10.2145
  0
LINE
  8
0
 10
68.7773
 20
10.2145
 11
69.1075
 21
10.033
  0
LINE
  8
0
 10
69.1075
 20
10.033
 11
69.4123
 21
9.81154
  0
LINE
  8
0
 10
69.4123
 20
9.81154
 11
69.6869
 21
9.55363
  0
LINE
  8
0
 10
69.6869
 20
9.55363
 11
69.927
 21
9.26335
  0
LINE
  8
0
 10
69.927
 20
9.26335
 11
70.1289
 21
8.94525
  0
LINE
  8
0
 10
70.1289
 20
8.94525
 11
70.2893
 21
8.60437
  0
LINE
  8
0
 10
70.2893
 20
8.60437
 11
70.4057
 21
8.24606
  0
LINE
  8
0
 10
70.4057
 20
8.24606
 11
70.4763
 21
7.87599
  0
LINE
  8
0
 10
70.4763
 20
7.87599
 11
70.5
 21
7.5
  0
LINE
  8
0
 10
70.5
 20
7.5
 11
70.4763
 21
7.12399
  0
LINE
  8
0
 10
70.4763
 20
7.12399
 11
70.4057
 21
6.75392
  0
LINE
  8
0
 10
70.4057
 20
6.75392
 11
70.2893
 21
6.39561
  0
LINE
  8
0
 10
70.2893
 20
6.39561
 11
70.1289
 21
6.05473
  0
LINE
  8
0
 10
70.1289
 20
6.05473
 11
69.927
 21
5.73663
  0
LINE
  8
0
 10
69.927
 20
5.73663
 11
69.6869
 21
5.44635
  0
LINE
  8
0
 10
69.6869
 20
5.44635
 11
69.4123
 21
5.18845
  0
LINE
  8
0
 10
69.4123
 20
5.18845
 11
69.1075
 21
4.96701
  0
LINE
  8
0
 10
69.1075
 20
4.96701
 11
68.7773
 21
4.78551
  0
LINE
  8
0
 10
68.7773
 20
4.78551
 11
68.427
 21
4.64682
  0
LINE
  8
0
 10
68.427
 20
4.64682
 11
68.0621
 21
4.55313
  0
LINE
  8
0
 10
68.0621
 20
4.55313
 11
67.6884
 21
4.50591
  0
LINE
  8
0
 10
67.6884
 20
4.50591
 11
67.3116
 21
4.50591
  0
LINE
  8
0
 10
67.4058
 20
-1.49704
 11
67.2189
 21
-1.47342
  0
LINE
  8
0
 10
67.2189
 20
-1.47342
 11
67.0365
 21
-1.42657
  0
LINE
  8
0
 10
67.0365
 20
-1.42657
 11
66.8613
 21
-1.35724
  0
LINE
  8
0
 10
66.8613
 20
-1.35724
 11
66.6963
 21
-1.26648
  0
LINE
  8
0
 10
66.6963
 20
-1.26648
 11
66.5439
 21
-1.15576
  0
LINE
  8
0
 10
66.5439
 20
-1.15576
 11
66.4065
 21
-1.02681
  0
LINE
  8
0
 10
66.4065
 20
-1.02681
 11
66.2865
 21
-0.881668
  0
LINE
  8
0
 10
66.2865
 20
-0.881668
 11
66.1855
 21
-0.722626
  0
LINE
  8
0
 10
66.1855
 20
-0.722626
 11
66.1053
 21
-0.552185
  0
LINE
  8
0
 10
66.1053
 20
-0.552185
 11
66.0471
 21
-0.373032
  0
LINE
  8
0
 10
66.0471
 20
-0.373032
 11
66.0118
 21
-0.187988
  0
LINE
  8
0
 10
66.0118
 20
-0.187988
 11
66
 21
0
  0
LINE
  8
0
 10
66
 20
0
 11
66.0118
 21
0.187988
  0
LINE
  8
0
 10
66.0118
 20
0.187988
 11
66.0471
 21
0.373032
  0
LINE
  8
0
 10
66.0471
 20
0.373032
 11
66.1053
 21
0.552185
  0
LINE
  8
0
 10
66.1053
 20
0.552185
 11
66.1855
 21
0.722626
  0
LINE
  8
0
 10
66.1855
 20
0.722626
 11
66.2865
 21
0.881668
  0
LINE
  8
0
 10
66.2865
 20
0.881668
 11
66.4065
 21
1.02681
  0
LINE
  8
0
 10
66.4065
 20
1.02681
 11
66.5439
 21
1.15576
  0
LINE
  8
0
 10
66.5439
 20
1.15576
 11
66.6963
 21
1.26648
  0
LINE
  8
0
 10
66.6963
 20
1.26648
 11
66.8613
 21
1.35724
  0
LINE
  8
0
 10
66.8613
 20
1.35724
 11
67.0365
 21
1.42657
  0
LINE
  8
0
 10
67.0365
 20
1.42657
 11
67.2189
 21
1.47342
  0
LINE
  8
0
 10
67.2189
 20
1.47342
 11
67.4058
 21
1.49704
  0
LINE
  8
0
 10
67.4058
 20
1.49704
 11
67.5942
 21
1.49704
  0
LINE
  8
0
 10
67.5942
 20
1.49704
 11
67.7811
 21
1.47342
  0
LINE
  8
0
 10
67.7811
 20
1.47342
 11
67.9635
 21
1.42657
  0
LINE
  8
0
 10
67.9635
 20
1.42657
 11
68.1387
 21
1.35724
  0
LINE
  8
0
 10
68.1387
 20
1.35724
 11
68.3037
 21
1.26648
  0
LINE
  8
0
 10
68.3037
 20
1.26648
 11
68.4561
 21
1.15576
  0
LINE
  8
0
 10
68.4561
 20
1.15576
 11
68.5934
 21
1.02681
  0
LINE
  8
0
 10
68.5934
 20
1.02681
 11
68.7135
 21
0.881668
  0
LINE
  8
0
 10
68.7135
 20
0.881668
 11
68.8145
 21
0.722626
  0
LINE
  8
0
 10
68.8145
 20
0.722626
 11
68.8947
 21
0.552185
  0
LINE
  8
0
 10
68.8947
 20
0.552185
 11
68.9529
 21
0.373032
  0
LINE
  8
0
 10
68.9529
 20
0.373032
 11
68.9882
 21
0.187988
  0
LINE
  8
0
 10
68.9882
 20
0.187988
 11
69
 21
0
  0
LINE
  8
0
 10
69
 20
0
 11
68.9882
 21
-0.187988
  0
LINE
  8
0
 10
68.9882
 20
-0.187988
 11
68.9529
 21
-0.373032
  0
LINE
  8
0
 10
68.9529
 20
-0.373032
 11
68.8947
 21
-0.552185
  0
LINE
  8
0
 10
68.8947
 20
-0.552185
 11
68.8145
 21
-0.722626
  0
LINE
  8
0
 10
68.8145
 20
-0.722626
 11
68.7135
 21
-0.881668
  0
LINE
  8
0
 10
68.7135
 20
-0.881668
 11
68.5934
 21
-1.02681
  0
LINE
  8
0
 10
68.5934
 20
-1.02681
 11
68.4561
 21
-1.15576
  0
LINE
  8
0
 10
68.4561
 20
-1.15576
 11
68.3037
 21
-1.26648
  0
LINE
  8
0
 10
68.3037
 20
-1.26648
 11
68.1387
 21
-1.35724
  0
LINE
  8
0
 10
68.1387
 20
-1.35724
 11
67.9635
 21
-1.42657
  0
LINE
  8
0
 10
67.9635
 20
-1.42657
 11
67.7811
 21
-1.47342
  0
LINE
  8
0
 10
67.7811
 20
-1.47342
 11
67.5942
 21
-1.49704
  0
LINE
  8
0
 10
67.5942
 20
-1.49704
 11
67.4058
 21
-1.49704
  0
LINE
  8
0
 10
-67.5942
 20
-1.49704
 11
-67.7811
 21
-1.47342
  0
LINE
  8
0
 10
-67.7811
 20
-1.47342
 11
-67.9635
 21
-1.42657
  0
LINE
  8
0
 10
-67.9635
 20
-1.42657
 11
-68.1387
 21
-1.35724
  0
LINE
  8
0
 10
-68.1387
 20
-1.35724
 11
-68.3037
 21
-1.26648
  0
LINE
  8
0
 10
-68.3037
 20
-1.26648
 11
-68.4561
 21
-1.15576
  0
LINE
  8
0
 10
-68.4561
 20
-1.15576
 11
-68.5934
 21
-1.02681
  0
LINE
  8
0
 10
-68.5934
 20
-1.02681
 11
-68.7135
 21
-0.881668
  0
LINE
  8
0
 10
-68.7135
 20
-0.881668
 11
-68.8145
 21
-0.722626
  0
LINE
  8
0
 10
-68.8145
 20
-0.722626
 11
-68.8947
 21
-0.552185
  0
LINE
  8
0
 10
-68.8947
 20
-0.552185
 11
-68.9529
 21
-0.373032
  0
LINE
  8
0
 10
-68.9529
 20
-0.373032
 11
-68.9882
 21
-0.187988
  0
LINE
  8
0
 10
-68.9882
 20
-0.187988
 11
-69
 21
0
  0
LINE
  8
0
 10
-69
 20
0
 11
-68.9882
 21
0.187988
  0
LINE
  8
0
 10
-68.9882
 20
0.187988
 11
-68.9529
 21
0.373032
  0
LINE
  8
0
 10
-68.9529
 20
0.373032
 11
-68.8947
 21
0.552185
  0
LINE
  8
0
 10
-68.8947
 20
0.552185
 11
-68.8145
 21
0.722626
  0
LINE
  8
0
 10
-68.8145
 20
0.722626
 11
-68.7135
 21
0.881668
  0
LINE
  8
0
 10
-68.7135
 20
0.881668
 11
-68.5934
 21
1.02681
  0
LINE
  8
0
 10
-68.5934
 20
1.02681
 11
-68.4561
 21
1.15576
  0
LINE
  8
0
 10
-68.4561
 20
1.15576
 11
-68.3037
 21
1.26648
  0
LINE
  8
0
 10
-68.3037
 20
1.26648
 11
-68.1387
 21
1.35724
  0
LINE
  8
0
 10
-68.1387
 20
1.35724
 11
-67.9635
 21
1.42657
  0
LINE
  8
0
 10
-67.9635
 20
1.42657
 11
-67.7811
 21
1.47342
  0
LINE
  8
0
 10
-67.7811
 20
1.47342
 11
-67.5942
 21
1.49704
  0
LINE
  8
0
 10
-67.5942
 20
1.49704
 11
-67.4058
 21
1.49704
  0
LINE
  8
0
 10
-67.4058
 20
1.49704
 11
-67.2189
 21
1.47342
  0
LINE
  8
0
 10
-67.2189
 20
1.47342
 11
-67.0365
 21
1.42657
  0
LINE
  8
0
 10
-67.0365
 20
1.42657
 11
-66.8613
 21
1.35724
  0
LINE
  8
0
 10
-66.8613
 20
1.35724
 11
-66.6963
 21
1.26648
  0
LINE
  8
0
 10
-66.6963
 20
1.26648
 11
-66.5439
 21
1.15576
  0
LINE
  8
0
 10
-66.5439
 20
1.15576
 11
-66.4065
 21
1.02681
  0
LINE
  8
0
 10
-66.4065
 20
1.02681
 11
-66.2865
 21
0.881668
  0
LINE
  8
0
 10
-66.2865
 20
0.881668
 11
-66.1855
 21
0.722626
  0
LINE
  8
0
 10
-66.1855
 20
0.722626
 11
-66.1053
 21
0.552185
  0
LINE
  8
0
 10
-66.1053
 20
0.552185
 11
-66.0471
 21
0.373032
  0
LINE
  8
0
 10
-66.0471
 20
0.373032
 11
-66.0118
 21
0.187988
  0
LINE
  8
0
 10
-66.0118
 20
0.187988
 11
-66
 21
0
  0
LINE
  8
0
 10
-66
 20
0
 11
-66.0118
 21
-0.187988
  0
LINE
  8
0
 10
-66.0118
 20
-0.187988
 11
-66.0471
 21
-0.373032
  0
LINE
  8
0
 10
-66.0471
 20
-0.373032
 11
-66.1053
 21
-0.552185
  0
LINE
  8
0
 10
-66.1053
 20
-0.552185
 11
-66.1855
 21
-0.722626
  0
LINE
  8
0
 10
-66.1855
 20
-0.722626
 11
-66.2865
 21
-0.881668
  0
LINE
  8
0
 10
-66.2865
 20
-0.881668
 11
-66.4065
 21
-1.02681
  0
LINE
  8
0
 10
-66.4065
 20
-1.02681
 11
-66.5439
 21
-1.15576
  0
LINE
  8
0
 10
-66.5439
 20
-1.15576
 11
-66.6963
 21
-1.26648
  0
LINE
  8
0
 10
-66.6963
 20
-1.26648
 11
-66.8613
 21
-1.35724
  0
LINE
  8
0
 10
-66.8613
 20
-1.35724
 11
-67.0365
 21
-1.42657
  0
LINE
  8
0
 10
-67.0365
 20
-1.42657
 11
-67.2189
 21
-1.47342
  0
LINE
  8
0
 10
-67.2189
 20
-1.47342
 11
-67.4058
 21
-1.49704
  0
LINE
  8
0
 10
-67.4058
 20
-1.49704
 11
-67.5942
 21
-1.49704
  0
LINE
  8
0
 10
67.3116
 20
-10.4941
 11
66.9379
 21
-10.4469
  0
LINE
  8
0
 10
66.9379
 20
-10.4469
 11
66.573
 21
-10.3532
  0
LINE
  8
0
 10
66.573
 20
-10.3532
 11
66.2227
 21
-10.2145
  0
LINE
  8
0
 10
66.2227
 20
-10.2145
 11
65.8925
 21
-10.033
  0
LINE
  8
0
 10
65.8925
 20
-10.033
 11
65.5877
 21
-9.81154
  0
LINE
  8
0
 10
65.5877
 20
-9.81154
 11
65.3131
 21
-9.55363
  0
LINE
  8
0
 10
65.3131
 20
-9.55363
 11
65.073
 21
-9.26335
  0
LINE
  8
0
 10
65.073
 20
-9.26335
 11
64.8711
 21
-8.94525
  0
LINE
  8
0
 10
64.8711
 20
-8.94525
 11
64.7107
 21
-8.60437
  0
LINE
  8
0
 10
64.7107
 20
-8.60437
 11
64.5943
 21
-8.24606
  0
LINE
  8
0
 10
64.5943
 20
-8.24606
 11
64.5237
 21
-7.87599
  0
LINE
  8
0
 10
64.5237
 20
-7.87599
 11
64.5
 21
-7.5
  0
LINE
  8
0
 10
64.5
 20
-7.5
 11
64.5237
 21
-7.12399
  0
LINE
  8
0
 10
64.5237
 20
-7.12399
 11
64.5943
 21
-6.75392
  0
LINE
  8
0
 10
64.5943
 20
-6.75392
 11
64.7107
 21
-6.39561
  0
LINE
  8
0
 10
64.7107
 20
-6.39561
 11
64.8711
 21
-6.05473
  0
LINE
  8
0
 10
64.8711
 20
-6.05473
 11
65.073
 21
-5.73663
  0
LINE
  8
0
 10
65.073
 20
-5.73663
 11
65.3131
 21
-5.44635
  0
LINE
  8
0
 10
65.3131
 20
-5.44635
 11
65.5877
 21
-5.18845
  0
LINE
  8
0
 10
65.5877
 20
-5.18845
 11
65.8925
 21
-4.96701
  0
LINE
  8
0
 10
65.8925
 20
-4.96701
 11
66.2227
 21
-4.78551
  0
LINE
  8
0
 10
66.2227
 20
-4.78551
 11
66.573
 21
-4.64682
  0
LINE
  8
0
 10
66.573
 20
-4.64682
 11
66.9379
 21
-4.55313
  0
LINE
  8
0
 10
66.9379
 20
-4.55313
 11
67.3116
 21
-4.50591
  0
LINE
  8
0
 10
67.3116
 20
-4.50591
 11
67.6884
 21
-4.50591
  0
LINE
  8
0
 10
67.6884
 20
-4.50591
 11
68.0621
 21
-4.55313
  0
LINE
  8
0
 10
68.0621
 20
-4.55313
 11
68.427
 21
-4.64682
  0
LINE
  8
0
 10
68.427
 20
-4.64682
 11
68.7773
 21
-4.78551
  0
LINE
  8
0
 10
68.7773
 20
-4.78551
 11
69.1075
 21
-4.96701
  0
LINE
  8
0
 10
69.1075
 20
-4.96701
 11
69.4123
 21
-5.18845
  0
LINE
  8
0
 10
69.4123
 20
-5.18845
 11
69.6869
 21
-5.44635
  0
LINE
  8
0
 10
69.6869
 20
-5.44635
 11
69.927
 21
-5.73663
  0
LINE
  8
0
 10
69.927
 20
-5.73663
 11
70.1289
 21
-6.05473
  0
LINE
  8
0
 10
70.1289
 20
-6.05473
 11
70.2893
 21
-6.39561
  0
LINE
  8
0
 10
70.2893
 20
-6.39561
 11
70.4057
 21
-6.75392
  0
LINE
  8
0
 10
70.4057
 20
-6.75392
 11
70.4763
 21
-7.12399
  0
LINE
  8
0
 10
70.4763
 20
-7.12399
 11
70.5
 21
-7.5
  0
LINE
  8
0
 10
70.5
 20
-7.5
 11
70.4763
 21
-7.87599
  0
LINE
  8
0
 10
70.4763
 20
-7.87599
 11
70.4057
 21
-8.24606
  0
LINE
  8
0
 10
70.4057
 20
-8.24606
 11
70.2893
 21
-8.60437
  0
LINE
  8
0
 10
70.2893
 20
-8.60437
 11
70.1289
 21
-8.94525
  0
LINE
  8
0
 10
70.1289
 20
-8.94525
 11
69.927
 21
-9.26335
  0
LINE
  8
0
 10
69.927
 20
-9.26335
 11
69.6869
 21
-9.55363
  0
LINE
  8
0
 10
69.6869
 20
-9.55363
 11
69.4123
 21
-9.81154
  0
LINE
  8
0
 10
69.4123
 20
-9.81154
 11
69.1075
 21
-10.033
  0
LINE
  8
0
 10
69.1075
 20
-10.033
 11
68.7773
 21
-10.2145
  0
LINE
  8
0
 10
68.7773
 20
-10.2145
 11
68.427
 21
-10.3532
  0
LINE
  8
0
 10
68.427
 20
-10.3532
 11
68.0621
 21
-10.4469
  0
LINE
  8
0
 10
68.0621
 20
-10.4469
 11
67.6884
 21
-10.4941
  0
LINE
  8
0
 10
67.6884
 20
-10.4941
 11
67.3116
 21
-10.4941
  0
LINE
  8
0
 10
-67.6884
 20
-10.4941
 11
-68.0621
 21
-10.4469
  0
LINE
  8
0
 10
-68.0621
 20
-10.4469
 11
-68.427
 21
-10.3532
  0
LINE
  8
0
 10
-68.427
 20
-10.3532
 11
-68.7773
 21
-10.2145
  0
LINE
  8
0
 10
-68.7773
 20
-10.2145
 11
-69.1075
 21
-10.033
  0
LINE
  8
0
 10
-69.1075
 20
-10.033
 11
-69.4123
 21
-9.81154
  0
LINE
  8
0
 10
-69.4123
 20
-9.81154
 11
-69.6869
 21
-9.55363
  0
LINE
  8
0
 10
-69.6869
 20
-9.55363
 11
-69.927
 21
-9.26335
  0
LINE
  8
0
 10
-69.927
 20
-9.26335
 11
-70.1289
 21
-8.94525
  0
LINE
  8
0
 10
-70.1289
 20
-8.94525
 11
-70.2893
 21
-8.60437
  0
LINE
  8
0
 10
-70.2893
 20
-8.60437
 11
-70.4057
 21
-8.24606
  0
LINE
  8
0
 10
-70.4057
 20
-8.24606
 11
-70.4763
 21
-7.87599
  0
LINE
  8
0
 10
-70.4763
 20
-7.87599
 11
-70.5
 21
-7.5
  0
LINE
  8
0
 10
-70.5
 20
-7.5
 11
-70.4763
 21
-7.12399
  0
LINE
  8
0
 10
-70.4763
 20
-7.12399
 11
-70.4057
 21
-6.75392
  0
LINE
  8
0
 10
-70.4057
 20
-6.75392
 11
-70.2893
 21
-6.39561
  0
LINE
  8
0
 10
-70.2893
 20
-6.39561
 11
-70.1289
 21
-6.05473
  0
LINE
  8
0
 10
-70.1289
 20
-6.05473
 11
-69.927
 21
-5.73663
  0
LINE
  8
0
 10
-69.927
 20
-5.73663
 11
-69.6869
 21
-5.44635
  0
LINE
  8
0
 10
-69.6869
 20
-5.44635
 11
-69.4123
 21
-5.18845
  0
LINE
  8
0
 10
-69.4123
 20
-5.18845
 11
-69.1075
 21
-4.96701
  0
LINE
  8
0
 10
-69.1075
 20
-4.96701
 11
-68.7773
 21
-4.78551
  0
LINE
  8
0
 10
-68.7773
 20
-4.78551
 11
-68.427
 21
-4.64682
  0
LINE
  8
0
 10
-68.427
 20
-4.64682
 11
-68.0621
 21
-4.55313
  0
LINE
  8
0
 10
-68.0621
 20
-4.55313
 11
-67.6884
 21
-4.50591
  0
LINE
  8
0
 10
-67.6884
 20
-4.50591
 11
-67.3116
 21
-4.50591
  0
LINE
  8
0
 10
-67.3116
 20
-4.50591
 11
-66.9379
 21
-4.55313
  0
LINE
  8
0
 10
-66.9379
 20
-4.55313
 11
-66.573
 21
-4.64682
  0
LINE
  8
0
 10
-66.573
 20
-4.64682
 11
-66.2227
 21
-4.78551
  0
LINE
  8
0
 10
-66.2227
 20
-4.78551
 11
-65.8925
 21
-4.96701
  0
LINE
  8
0
 10
-65.8925
 20
-4.96701
 11
-65.5877
 21
-5.18845
  0
LINE
  8
0
 10
-65.5877
 20
-5.18845
 11
-65.3131
 21
-5.44635
  0
LINE
  8
0
 10
-65.3131
 20
-5.44635
 11
-65.073
 21
-5.73663
  0
LINE
  8
0
 10
-65.073
 20
-5.73663
 11
-64.8711
 21
-6.05473
  0
LINE
  8
0
 10
-64.8711
 20
-6.05473
 11
-64.7107
 21
-6.39561
  0
LINE
  8
0
 10
-64.7107
 20
-6.39561
 11
-64.5943
 21
-6.75392
  0
LINE
  8
0
 10
-64.5943
 20
-6.75392
 11
-64.5237
 21
-7.12399
  0
LINE
  8
0
 10
-64.5237
 20
-7.12399
 11
-64.5
 21
-7.5
  0
LINE
  8
0
 10
-64.5
 20
-7.5
 11
-64.5237
 21
-7.87599
  0
LINE
  8
0
 10
-64.5237
 20
-7.87599
 11
-64.5943
 21
-8.24606
  0
LINE
  8
0
 10
-64.5943
 20
-8.24606
 11
-64.7107
 21
-8.60437
  0
LINE
  8
0
 10
-64.7107
 20
-8.60437
 11
-64.8711
 21
-8.94525
  0
LINE
  8
0
 10
-64.8711
 20
-8.94525
 11
-65.073
 21
-9.26335
  0
LINE
  8
0
 10
-65.073
 20
-9.26335
 11
-65.3131
 21
-9.55363
  0
LINE
  8
0
 10
-65.3131
 20
-9.55363
 11
-65.5877
 21
-9.81154
  0
LINE
  8
0
 10
-65.5877
 20
-9.81154
 11
-65.8925
 21
-10.033
  0
LINE
  8
0
 10
-65.8925
 20
-10.033
 11
-66.2227
 21
-10.2145
  0
LINE
  8
0
 10
-66.2227
 20
-10.2145
 11
-66.573
 21
-10.3532
  0
LINE
  8
0
 10
-66.573
 20
-10.3532
 11
-66.9379
 21
-10.4469
  0
LINE
  8
0
 10
-66.9379
 20
-10.4469
 11
-67.3116
 21
-10.4941
  0
LINE
  8
0
 10
-67.3116
 20
-10.4941
 11
-67.6884
 21
-10.4941
  0
LINE
  8
0
 10
67.4058
 20
-16.497
 11
67.2189
 21
-16.4734
  0
LINE
  8
0
 10
67.2189
 20
-16.4734
 11
67.0365
 21
-16.4266
  0
LINE
  8
0
 10
67.0365
 20
-16.4266
 11
66.8613
 21
-16.3572
  0
LINE
  8
0
 10
66.8613
 20
-16.3572
 11
66.6963
 21
-16.2665
  0
LINE
  8
0
 10
66.6963
 20
-16.2665
 11
66.5439
 21
-16.1558
  0
LINE
  8
0
 10
66.5439
 20
-16.1558
 11
66.4065
 21
-16.0268
  0
LINE
  8
0
 10
66.4065
 20
-16.0268
 11
66.2865
 21
-15.8817
  0
LINE
  8
0
 10
66.2865
 20
-15.8817
 11
66.1855
 21
-15.7226
  0
LINE
  8
0
 10
66.1855
 20
-15.7226
 11
66.1053
 21
-15.5522
  0
LINE
  8
0
 10
66.1053
 20
-15.5522
 11
66.0471
 21
-15.373
  0
LINE
  8
0
 10
66.0471
 20
-15.373
 11
66.0118
 21
-15.188
  0
LINE
  8
0
 10
66.0118
 20
-15.188
 11
66
 21
-15
  0
LINE
  8
0
 10
66
 20
-15
 11
66.0118
 21
-14.812
  0
LINE
  8
0
 10
66.0118
 20
-14.812
 11
66.0471
 21
-14.627
  0
LINE
  8
0
 10
66.0471
 20
-14.627
 11
66.1053
 21
-14.4478
  0
LINE
  8
0
 10
66.1053
 20
-14.4478
 11
66.1855
 21
-14.2774
  0
LINE
  8
0
 10
66.1855
 20
-14.2774
 11
66.2865
 21
-14.1183
  0
LINE
  8
0
 10
66.2865
 20
-14.1183
 11
66.4065
 21
-13.9732
  0
LINE
  8
0
 10
66.4065
 20
-13.9732
 11
66.5439
 21
-13.8442
  0
LINE
  8
0
 10
66.5439
 20
-13.8442
 11
66.6963
 21
-13.7335
  0
LINE
  8
0
 10
66.6963
 20
-13.7335
 11
66.8613
 21
-13.6427
  0
LINE
  8
0
 10
66.8613
 20
-13.6427
 11
67.0365
 21
-13.5734
  0
LINE
  8
0
 10
67.0365
 20
-13.5734
 11
67.2189
 21
-13.5266
  0
LINE
  8
0
 10
67.2189
 20
-13.5266
 11
67.4058
 21
-13.5029
  0
LINE
  8
0
 10
67.4058
 20
-13.5029
 11
67.5942
 21
-13.5029
  0
LINE
  8
0
 10
67.5942
 20
-13.5029
 11
67.7811
 21
-13.5266
  0
LINE
  8
0
 10
67.7811
 20
-13.5266
 11
67.9635
 21
-13.5734
  0
LINE
  8
0
 10
67.9635
 20
-13.5734
 11
68.1387
 21
-13.6427
  0
LINE
  8
0
 10
68.1387
 20
-13.6427
 11
68.3037
 21
-13.7335
  0
LINE
  8
0
 10
68.3037
 20
-13.7335
 11
68.4561
 21
-13.8442
  0
LINE
  8
0
 10
68.4561
 20
-13.8442
 11
68.5934
 21
-13.9732
  0
LINE
  8
0
 10
68.5934
 20
-13.9732
 11
68.7135
 21
-14.1183
  0
LINE
  8
0
 10
68.7135
 20
-14.1183
 11
68.8145
 21
-14.2774
  0
LINE
  8
0
 10
68.8145
 20
-14.2774
 11
68.8947
 21
-14.4478
  0
LINE
  8
0
 10
68.8947
 20
-14.4478
 11
68.9529
 21
-14.627
  0
LINE
  8
0
 10
68.9529
 20
-14.627
 11
68.9882
 21
-14.812
  0
LINE
  8
0
 10
68.9882
 20
-14.812
 11
69
 21
-15
  0
LINE
  8
0
 10
69
 20
-15
 11
68.9882
 21
-15.188
  0
LINE
  8
0
 10
68.9882
 20
-15.188
 11
68.9529
 21
-15.373
  0
LINE
  8
0
 10
68.9529
 20
-15.373
 11
68.8947
 21
-15.5522
  0
LINE
  8
0
 10
68.8947
 20
-15.5522
 11
68.8145
 21
-15.7226
  0
LINE
  8
0
 10
68.8145
 20
-15.7226
 11
68.7135
 21
-15.8817
  0
LINE
  8
0
 10
68.7135
 20
-15.8817
 11
68.5934
 21
-16.0268
  0
LINE
  8
0
 10
68.5934
 20
-16.0268
 11
68.4561
 21
-16.1558
  0
LINE
  8
0
 10
68.4561
 20
-16.1558
 11
68.3037
 21
-16.2665
  0
LINE
  8
0
 10
68.3037
 20
-16.2665
 11
68.1387
 21
-16.3572
  0
LINE
  8
0
 10
68.1387
 20
-16.3572
 11
67.9635
 21
-16.4266
  0
LINE
  8
0
 10
67.9635
 20
-16.4266
 11
67.7811
 21
-16.4734
  0
LINE
  8
0
 10
67.7811
 20
-16.4734
 11
67.5942
 21
-16.497
  0
LINE
  8
0
 10
67.5942
 20
-16.497
 11
67.4058
 21
-16.497
  0
LINE
  8
0
 10
-67.5942
 20
-16.497
 11
-67.7811
 21
-16.4734
  0
LINE
  8
0
 10
-67.7811
 20
-16.4734
 11
-67.9635
 21
-16.4266
  0
LINE
  8
0
 10
-67.9635
 20
-16.4266
 11
-68.1387
 21
-16.3572
  0
LINE
  8
0
 10
-68.1387
 20
-16.3572
 11
-68.3037
 21
-16.2665
  0
LINE
  8
0
 10
-68.3037
 20
-16.2665
 11
-68.4561
 21
-16.1558
  0
LINE
  8
0
 10
-68.4561
 20
-16.1558
 11
-68.5934
 21
-16.0268
  0
LINE
  8
0
 10
-68.5934
 20
-16.0268
 11
-68.7135
 21
-15.8817
  0
LINE
  8
0
 10
-68.7135
 20
-15.8817
 11
-68.8145
 21
-15.7226
  0
LINE
  8
0
 10
-68.8145
 20
-15.7226
 11
-68.8947
 21
-15.5522
  0
LINE
  8
0
 10
-68.8947
 20
-15.5522
 11
-68.9529
 21
-15.373
  0
LINE
  8
0
 10
-68.9529
 20
-15.373
 11
-68.9882
 21
-15.188
  0
LINE
  8
0
 10
-68.9882
 20
-15.188
 11
-69
 21
-15
  0
LINE
  8
0
 10
-69
 20
-15
 11
-68.9882
 21
-14.812
  0
LINE
  8
0
 10
-68.9882
 20
-14.812
 11
-68.9529
 21
-14.627
  0
LINE
  8
0
 10
-68.9529
 20
-14.627
 11
-68.8947
 21
-14.4478
  0
LINE
  8
0
 10
-68.8947
 20
-14.4478
 11
-68.8145
 21
-14.2774
  0
LINE
  8
0
 10
-68.8145
 20
-14.2774
 11
-68.7135
 21
-14.1183
  0
LINE
  8
0
 10
-68.7135
 20
-14.1183
 11
-68.5934
 21
-13.9732
  0
LINE
  8
0
 10
-68.5934
 20
-13.9732
 11
-68.4561
 21
-13.8442
  0
LINE
  8
0
 10
-68.4561
 20
-13.8442
 11
-68.3037
 21
-13.7335
  0
LINE
  8
0
 10
-68.3037
 20
-13.7335
 11
-68.1387
 21
-13.6427
  0
LINE
  8
0
 10
-68.1387
 20
-13.6427
 11
-67.9635
 21
-13.5734
  0
LINE
  8
0
 10
-67.9635
 20
-13.5734
 11
-67.7811
 21
-13.5266
  0
LINE
  8
0
 10
-67.7811
 20
-13.5266
 11
-67.5942
 21
-13.5029
  0
LINE
  8
0
 10
-67.5942
 20
-13.5029
 11
-67.4058
 21
-13.5029
  0
LINE
  8
0
 10
-67.4058
 20
-13.5029
 11
-67.2189
 21
-13.5266
  0
LINE
  8
0
 10
-67.2189
 20
-13.5266
 11
-67.0365
 21
-13.5734
  0
LINE
  8
0
 10
-67.0365
 20
-13.5734
 11
-66.8613
 21
-13.6427
  0
LINE
  8
0
 10
-66.8613
 20
-13.6427
 11
-66.6963
 21
-13.7335
  0
LINE
  8
0
 10
-66.6963
 20
-13.7335
 11
-66.5439
 21
-13.8442
  0
LINE
  8
0
 10
-66.5439
 20
-13.8442
 11
-66.4065
 21
-13.9732
  0
LINE
  8
0
 10
-66.4065
 20
-13.9732
 11
-66.2865
 21
-14.1183
  0
LINE
  8
0
 10
-66.2865
 20
-14.1183
 11
-66.1855
 21
-14.2774
  0
LINE
  8
0
 10
-66.1855
 20
-14.2774
 11
-66.1053
 21
-14.4478
  0
LINE
  8
0
 10
-66.1053
 20
-14.4478
 11
-66.0471
 21
-14.627
  0
LINE
  8
0
 10
-66.0471
 20
-14.627
 11
-66.0118
 21
-14.812
  0
LINE
  8
0
 10
-66.0118
 20
-14.812
 11
-66
 21
-15
  0
LINE
  8
0
 10
-66
 20
-15
 11
-66.0118
 21
-15.188
  0
LINE
  8
0
 10
-66.0118
 20
-15.188
 11
-66.0471
 21
-15.373
  0
LINE
  8
0
 10
-66.0471
 20
-15.373
 11
-66.1053
 21
-15.5522
  0
LINE
  8
0
 10
-66.1053
 20
-15.5522
 11
-66.1855
 21
-15.7226
  0
LINE
  8
0
 10
-66.1855
 20
-15.7226
 11
-66.2865
 21
-15.8817
  0
LINE
  8
0
 10
-66.2865
 20
-15.8817
 11
-66.4065
 21
-16.0268
  0
LINE
  8
0
 10
-66.4065
 20
-16.0268
 11
-66.5439
 21
-16.1558
  0
LINE
  8
0
 10
-66.5439
 20
-16.1558
 11
-66.6963
 21
-16.2665
  0
LINE
  8
0
 10
-66.6963
 20
-16.2665
 11
-66.8613
 21
-16.3572
  0
LINE
  8
0
 10
-66.8613
 20
-16.3572
 11
-67.0365
 21
-16.4266
  0
LINE
  8
0
 10
-67.0365
 20
-16.4266
 11
-67.2189
 21
-16.4734
  0
LINE
  8
0
 10
-67.2189
 20
-16.4734
 11
-67.4058
 21
-16.497
  0
LINE
  8
0
 10
-67.4058
 20
-16.497
 11
-67.5942
 21
-16.497
  0
LINE
  8
0
 10
67.3116
 20
-25.4941
 11
66.9379
 21
-25.4469
  0
LINE
  8
0
 10
66.9379
 20
-25.4469
 11
66.573
 21
-25.3532
  0
LINE
  8
0
 10
66.573
 20
-25.3532
 11
66.2227
 21
-25.2145
  0
LINE
  8
0
 10
66.2227
 20
-25.2145
 11
65.8925
 21
-25.033
  0
LINE
  8
0
 10
65.8925
 20
-25.033
 11
65.5877
 21
-24.8115
  0
LINE
  8
0
 10
65.5877
 20
-24.8115
 11
65.3131
 21
-24.5536
  0
LINE
  8
0
 10
65.3131
 20
-24.5536
 11
65.073
 21
-24.2634
  0
LINE
  8
0
 10
65.073
 20
-24.2634
 11
64.8711
 21
-23.9453
  0
LINE
  8
0
 10
64.8711
 20
-23.9453
 11
64.7107
 21
-23.6044
  0
LINE
  8
0
 10
64.7107
 20
-23.6044
 11
64.5943
 21
-23.2461
  0
LINE
  8
0
 10
64.5943
 20
-23.2461
 11
64.5237
 21
-22.876
  0
LINE
  8
0
 10
64.5237
 20
-22.876
 11
64.5
 21
-22.5
  0
LINE
  8
0
 10
64.5
 20
-22.5
 11
64.5237
 21
-22.124
  0
LINE
  8
0
 10
64.5237
 20
-22.124
 11
64.5943
 21
-21.7539
  0
LINE
  8
0
 10
64.5943
 20
-21.7539
 11
64.7107
 21
-21.3956
  0
LINE
  8
0
 10
64.7107
 20
-21.3956
 11
64.8711
 21
-21.0547
  0
LINE
  8
0
 10
64.8711
 20
-21.0547
 11
65.073
 21
-20.7366
  0
LINE
  8
0
 10
65.073
 20
-20.7366
 11
65.3131
 21
-20.4464
  0
LINE
  8
0
 10
65.3131
 20
-20.4464
 11
65.5877
 21
-20.1884
  0
LINE
  8
0
 10
65.5877
 20
-20.1884
 11
65.8925
 21
-19.967
  0
LINE
  8
0
 10
65.8925
 20
-19.967
 11
66.2227
 21
-19.7855
  0
LINE
  8
0
 10
66.2227
 20
-19.7855
 11
66.573
 21
-19.6468
  0
LINE
  8
0
 10
66.573
 20
-19.6468
 11
66.9379
 21
-19.5531
  0
LINE
  8
0
 10
66.9379
 20
-19.5531
 11
67.3116
 21
-19.5059
  0
LINE
  8
0
 10
67.3116
 20
-19.5059
 11
67.6884
 21
-19.5059
  0
LINE
  8
0
 10
67.6884
 20
-19.5059
 11
68.0621
 21
-19.5531
  0
LINE
  8
0
 10
68.0621
 20
-19.5531
 11
68.427
 21
-19.6468
  0
LINE
  8
0
 10
68.427
 20
-19.6468
 11
68.7773
 21
-19.7855
  0
LINE
  8
0
 10
68.7773
 20
-19.7855
 11
69.1075
 21
-19.967
  0
LINE
  8
0
 10
69.1075
 20
-19.967
 11
69.4123
 21
-20.1884
  0
LINE
  8
0
 10
69.4123
 20
-20.1884
 11
69.6869
 21
-20.4464
  0
LINE
  8
0
 10
69.6869
 20
-20.4464
 11
69.927
 21
-20.7366
  0
LINE
  8
0
 10
69.927
 20
-20.7366
 11
70.1289
 21
-21.0547
  0
LINE
  8
0
 10
70.1289
 20
-21.0547
 11
70.2893
 21
-21.3956
  0
LINE
  8
0
 10
70.2893
 20
-21.3956
 11
70.4057
 21
-21.7539
  0
LINE
  8
0
 10
70.4057
 20
-21.7539
 11
70.4763
 21
-22.124
  0
LINE
  8
0
 10
70.4763
 20
-22.124
 11
70.5
 21
-22.5
  0
LINE
  8
0
 10
70.5
 20
-22.5
 11
70.4763
 21
-22.876
  0
LINE
  8
0
 10
70.4763
 20
-22.876
 11
70.4057
 21
-23.2461
  0
LINE
  8
0
 10
70.4057
 20
-23.2461
 11
70.2893
 21
-23.6044
  0
LINE
  8
0
 10
70.2893
 20
-23.6044
 11
70.1289
 21
-23.9453
  0
LINE
  8
0
 10
70.1289
 20
-23.9453
 11
69.927
 21
-24.2634
  0
LINE
  8
0
 10
69.927
 20
-24.2634
 11
69.6869
 21
-24.5536
  0
LINE
  8
0
 10
69.6869
 20
-24.5536
 11
69.4123
 21
-24.8115
  0
LINE
  8
0
 10
69.4123
 20
-24.8115
 11
69.1075
 21
-25.033
  0
LINE
  8
0
 10
69.1075
 20
-25.033
 11
68.7773
 21
-25.2145
  0
LINE
  8
0
 10
68.7773
 20
-25.2145
 11
68.427
 21
-25.3532
  0
LINE
  8
0
 10
68.427
 20
-25.3532
 11
68.0621
 21
-25.4469
  0
LINE
  8
0
 10
68.0621
 20
-25.4469
 11
67.6884
 21
-25.4941
  0
LINE
  8
0
 10
67.6884
 20
-25.4941
 11
67.3116
 21
-25.4941
  0
LINE
  8
0
 10
-67.6884
 20
-25.4941
 11
-68.0621
 21
-25.4469
  0
LINE
  8
0
 10
-68.0621
 20
-25.4469
 11
-68.427
 21
-25.3532
  0
LINE
  8
0
 10
-68.427
 20
-25.3532
 11
-68.7773
 21
-25.2145
  0
LINE
  8
0
 10
-68.7773
 20
-25.2145
 11
-69.1075
 21
-25.033
  0
LINE
  8
0
 10
-69.1075
 20
-25.033
 11
-69.4123
 21
-24.8115
  0
LINE
  8
0
 10
-69.4123
 20
-24.8115
 11
-69.6869
 21
-24.5536
  0
LINE
  8
0
 10
-69.6869
 20
-24.5536
 11
-69.927
 21
-24.2634
  0
LINE
  8
0
 10
-69.927
 20
-24.2634
 11
-70.1289
 21
-23.9453
  0
LINE
  8
0
 10
-70.1289
 20
-23.9453
 11
-70.2893
 21
-23.6044
  0
LINE
  8
0
 10
-70.2893
 20
-23.6044
 11
-70.4057
 21
-23.2461
  0
LINE
  8
0
 10
-70.4057
 20
-23.2461
 11
-70.4763
 21
-22.876
  0
LINE
  8
0
 10
-70.4763
 20
-22.876
 11
-70.5
 21
-22.5
  0
LINE
  8
0
 10
-70.5
 20
-22.5
 11
-70.4763
 21
-22.124
  0
LINE
  8
0
 10
-70.4763
 20
-22.124
 11
-70.4057
 21
-21.7539
  0
LINE
  8
0
 10
-70.4057
 20
-21.7539
 11
-70.2893
 21
-21.3956
  0
LINE
  8
0
 10
-70.2893
 20
-21.3956
 11
-70.1289
 21
-21.0547
  0
LINE
  8
0
 10
-70.1289
 20
-21.0547
 11
-69.927
 21
-20.7366
  0
LINE
  8
0
 10
-69.927
 20
-20.7366
 11
-69.6869
 21
-20.4464
  0
LINE
  8
0
 10
-69.6869
 20
-20.4464
 11
-69.4123
 21
-20.1884
  0
LINE
  8
0
 10
-69.4123
 20
-20.1884
 11
-69.1075
 21
-19.967
  0
LINE
  8
0
 10
-69.1075
 20
-19.967
 11
-68.7773
 21
-19.7855
  0
LINE
  8
0
 10
-68.7773
 20
-19.7855
 11
-68.427
 21
-19.6468
  0
LINE
  8
0
 10
-68.427
 20
-19.6468
 11
-68.0621
 21
-19.5531
  0
LINE
  8
0
 10
-68.0621
 20
-19.5531
 11
-67.6884
 21
-19.5059
  0
LINE
  8
0
 10
-67.6884
 20
-19.5059
 11
-67.3116
 21
-19.5059
  0
LINE
  8
0
 10
-67.3116
 20
-19.5059
 11
-66.9379
 21
-19.5531
  0
LINE
  8
0
 10
-66.9379
 20
-19.5531
 11
-66.573
 21
-19.6468
  0
LINE
  8
0
 10
-66.573
 20
-19.6468
 11
-66.2227
 21
-19.7855
  0
LINE
  8
0
 10
-66.2227
 20
-19.7855
 11
-65.8925
 21
-19.967
  0
LINE
  8
0
 10
-65.8925
 20
-19.967
 11
-65.5877
 21
-20.1884
  0
LINE
  8
0
 10
-65.5877
 20
-20.1884
 11
-65.3131
 21
-20.4464
  0
LINE
  8
0
 10
-65.3131
 20
-20.4464
 11
-65.073
 21
-20.7366
  0
LINE
  8
0
 10
-65.073
 20
-20.7366
 11
-64.8711
 21
-21.0547
  0
LINE
  8
0
 10
-64.8711
 20
-21.0547
 11
-64.7107
 21
-21.3956
  0
LINE
  8
0
 10
-64.7107
 20
-21.3956
 11
-64.5943
 21
-21.7539
  0
LINE
  8
0
 10
-64.5943
 20
-21.7539
 11
-64.5237
 21
-22.124
  0
LINE
  8
0
 10
-64.5237
 20
-22.124
 11
-64.5
 21
-22.5
  0
LINE
  8
0
 10
-64.5
 20
-22.5
 11
-64.5237
 21
-22.876
  0
LINE
  8
0
 10
-64.5237
 20
-22.876
 11
-64.5943
 21
-23.2461
  0
LINE
  8
0
 10
-64.5943
 20
-23.2461
 11
-64.7107
 21
-23.6044
  0
LINE
  8
0
 10
-64.7107
 20
-23.6044
 11
-64.8711
 21
-23.9453
  0
LINE
  8
0
 10
-64.8711
 20
-23.9453
 11
-65.073
 21
-24.2634
  0
LINE
  8
0
 10
-65.073
 20
-24.2634
 11
-65.3131
 21
-24.5536
  0
LINE
  8
0
 10
-65.3131
 20
-24.5536
 11
-65.5877
 21
-24.8115
  0
LINE
  8
0
 10
-65.5877
 20
-24.8115
 11
-65.8925
 21
-25.033
  0
LINE
  8
0
 10
-65.8925
 20
-25.033
 11
-66.2227
 21
-25.2145
  0
LINE
  8
0
 10
-66.2227
 20
-25.2145
 11
-66.573
 21
-25.3532
  0
LINE
  8
0
 10
-66.573
 20
-25.3532
 11
-66.9379
 21
-25.4469
  0
LINE
  8
0
 10
-66.9379
 20
-25.4469
 11
-67.3116
 21
-25.4941
  0
LINE
  8
0
 10
-67.3116
 20
-25.4941
 11
-67.6884
 21
-25.4941
  0
LINE
  8
0
 10
-67.5942
 20
-31.497
 11
-67.7811
 21
-31.4734
  0
LINE
  8
0
 10
-67.7811
 20
-31.4734
 11
-67.9635
 21
-31.4266
  0
LINE
  8
0
 10
-67.9635
 20
-31.4266
 11
-68.1387
 21
-31.3572
  0
LINE
  8
0
 10
-68.1387
 20
-31.3572
 11
-68.3037
 21
-31.2665
  0
LINE
  8
0
 10
-68.3037
 20
-31.2665
 11
-68.4561
 21
-31.1558
  0
LINE
  8
0
 10
-68.4561
 20
-31.1558
 11
-68.5934
 21
-31.0268
  0
LINE
  8
0
 10
-68.5934
 20
-31.0268
 11
-68.7135
 21
-30.8817
  0
LINE
  8
0
 10
-68.7135
 20
-30.8817
 11
-68.8145
 21
-30.7226
  0
LINE
  8
0
 10
-68.8145
 20
-30.7226
 11
-68.8947
 21
-30.5522
  0
LINE
  8
0
 10
-68.8947
 20
-30.5522
 11
-68.9529
 21
-30.373
  0
LINE
  8
0
 10
-68.9529
 20
-30.373
 11
-68.9882
 21
-30.188
  0
LINE
  8
0
 10
-68.9882
 20
-30.188
 11
-69
 21
-30
  0
LINE
  8
0
 10
-69
 20
-30
 11
-68.9882
 21
-29.812
  0
LINE
  8
0
 10
-68.9882
 20
-29.812
 11
-68.9529
 21
-29.627
  0
LINE
  8
0
 10
-68.9529
 20
-29.627
 11
-68.8947
 21
-29.4478
  0
LINE
  8
0
 10
-68.8947
 20
-29.4478
 11
-68.8145
 21
-29.2774
  0
LINE
  8
0
 10
-68.8145
 20
-29.2774
 11
-68.7135
 21
-29.1183
  0
LINE
  8
0
 10
-68.7135
 20
-29.1183
 11
-68.5934
 21
-28.9732
  0
LINE
  8
0
 10
-68.5934
 20
-28.9732
 11
-68.4561
 21
-28.8442
  0
LINE
  8
0
 10
-68.4561
 20
-28.8442
 11
-68.3037
 21
-28.7335
  0
LINE
  8
0
 10
-68.3037
 20
-28.7335
 11
-68.1387
 21
-28.6427
  0
LINE
  8
0
 10
-68.1387
 20
-28.6427
 11
-67.9635
 21
-28.5734
  0
LINE
  8
0
 10
-67.9635
 20
-28.5734
 11
-67.7811
 21
-28.5266
  0
LINE
  8
0
 10
-67.7811
 20
-28.5266
 11
-67.5942
 21
-28.503
  0
LINE
  8
0
 10
-67.5942
 20
-28.503
 11
-67.4058
 21
-28.503
  0
LINE
  8
0
 10
-67.4058
 20
-28.503
 11
-67.2189
 21
-28.5266
  0
LINE
  8
0
 10
-67.2189
 20
-28.5266
 11
-67.0365
 21
-28.5734
  0
LINE
  8
0
 10
-67.0365
 20
-28.5734
 11
-66.8613
 21
-28.6427
  0
LINE
  8
0
 10
-66.8613
 20
-28.6427
 11
-66.6963
 21
-28.7335
  0
LINE
  8
0
 10
-66.6963
 20
-28.7335
 11
-66.5439
 21
-28.8442
  0
LINE
  8
0
 10
-66.5439
 20
-28.8442
 11
-66.4065
 21
-28.9732
  0
LINE
  8
0
 10
-66.4065
 20
-28.9732
 11
-66.2865
 21
-29.1183
  0
LINE
  8
0
 10
-66.2865
 20
-29.1183
 11
-66.1855
 21
-29.2774
  0
LINE
  8
0
 10
-66.1855
 20
-29.2774
 11
-66.1053
 21
-29.4478
  0
LINE
  8
0
 10
-66.1053
 20
-29.4478
 11
-66.0471
 21
-29.627
  0
LINE
  8
0
 10
-66.0471
 20
-29.627
 11
-66.0118
 21
-29.812
  0
LINE
  8
0
 10
-66.0118
 20
-29.812
 11
-66
 21
-30
  0
LINE
  8
0
 10
-66
 20
-30
 11
-66.0118
 21
-30.188
  0
LINE
  8
0
 10
-66.0118
 20
-30.188
 11
-66.0471
 21
-30.373
  0
LINE
  8
0
 10
-66.0471
 20
-30.373
 11
-66.1053
 21
-30.5522
  0
LINE
  8
0
 10
-66.1053
 20
-30.5522
 11
-66.1855
 21
-30.7226
  0
LINE
  8
0
 10
-66.1855
 20
-30.7226
 11
-66.2865
 21
-30.8817
  0
LINE
  8
0
 10
-66.2865
 20
-30.8817
 11
-66.4065
 21
-31.0268
  0
LINE
  8
0
 10
-66.4065
 20
-31.0268
 11
-66.5439
 21
-31.1558
  0
LINE
  8
0
 10
-66.5439
 20
-31.1558
 11
-66.6963
 21
-31.2665
  0
LINE
  8
0
 10
-66.6963
 20
-31.2665
 11
-66.8613
 21
-31.3572
  0
LINE
  8
0
 10
-66.8613
 20
-31.3572
 11
-67.0365
 21
-31.4266
  0
LINE
  8
0
 10
-67.0365
 20
-31.4266
 11
-67.2189
 21
-31.4734
  0
LINE
  8
0
 10
-67.2189
 20
-31.4734
 11
-67.4058
 21
-31.497
  0
LINE
  8
0
 10
-67.4058
 20
-31.497
 11
-67.5942
 21
-31.497
  0
LINE
  8
0
 10
67.4058
 20
-31.497
 11
67.2189
 21
-31.4734
  0
LINE
  8
0
 10
67.2189
 20
-31.4734
 11
67.0365
 21
-31.4266
  0
LINE
  8
0
 10
67.0365
 20
-31.4266
 11
66.8613
 21
-31.3572
  0
LINE
  8
0
 10
66.8613
 20
-31.3572
 11
66.6963
 21
-31.2665
  0
LINE
  8
0
 10
66.6963
 20
-31.2665
 11
66.5439
 21
-31.1558
  0
LINE
  8
0
 10
66.5439
 20
-31.1558
 11
66.4065
 21
-31.0268
  0
LINE
  8
0
 10
66.4065
 20
-31.0268
 11
66.2865
 21
-30.8817
  0
LINE
  8
0
 10
66.2865
 20
-30.8817
 11
66.1855
 21
-30.7226
  0
LINE
  8
0
 10
66.1855
 20
-30.7226
 11
66.1053
 21
-30.5522
  0
LINE
  8
0
 10
66.1053
 20
-30.5522
 11
66.0471
 21
-30.373
  0
LINE
  8
0
 10
66.0471
 20
-30.373
 11
66.0118
 21
-30.188
  0
LINE
  8
0
 10
66.0118
 20
-30.188
 11
66
 21
-30
  0
LINE
  8
0
 10
66
 20
-30
 11
66.0118
 21
-29.812
  0
LINE
  8
0
 10
66.0118
 20
-29.812
 11
66.0471
 21
-29.627
  0
LINE
  8
0
 10
66.0471
 20
-29.627
 11
66.1053
 21
-29.4478
  0
LINE
  8
0
 10
66.1053
 20
-29.4478
 11
66.1855
 21
-29.2774
  0
LINE
  8
0
 10
66.1855
 20
-29.2774
 11
66.2865
 21
-29.1183
  0
LINE
  8
0
 10
66.2865
 20
-29.1183
 11
66.4065
 21
-28.9732
  0
LINE
  8
0
 10
66.4065
 20
-28.9732
 11
66.5439
 21
-28.8442
  0
LINE
  8
0
 10
66.5439
 20
-28.8442
 11
66.6963
 21
-28.7335
  0
LINE
  8
0
 10
66.6963
 20
-28.7335
 11
66.8613
 21
-28.6427
  0
LINE
  8
0
 10
66.8613
 20
-28.6427
 11
67.0365
 21
-28.5734
  0
LINE
  8
0
 10
67.0365
 20
-28.5734
 11
67.2189
 21
-28.5266
  0
LINE
  8
0
 10
67.2189
 20
-28.5266
 11
67.4058
 21
-28.503
  0
LINE
  8
0
 10
67.4058
 20
-28.503
 11
67.5942
 21
-28.503
  0
LINE
  8
0
 10
67.5942
 20
-28.503
 11
67.7811
 21
-28.5266
  0
LINE
  8
0
 10
67.7811
 20
-28.5266
 11
67.9635
 21
-28.5734
  0
LINE
  8
0
 10
67.9635
 20
-28.5734
 11
68.1387
 21
-28.6427
  0
LINE
  8
0
 10
68.1387
 20
-28.6427
 11
68.3037
 21
-28.7335
  0
LINE
  8
0
 10
68.3037
 20
-28.7335
 11
68.4561
 21
-28.8442
  0
LINE
  8
0
 10
68.4561
 20
-28.8442
 11
68.5934
 21
-28.9732
  0
LINE
  8
0
 10
68.5934
 20
-28.9732
 11
68.7135
 21
-29.1183
  0
LINE
  8
0
 10
68.7135
 20
-29.1183
 11
68.8145
 21
-29.2774
  0
LINE
  8
0
 10
68.8145
 20
-29.2774
 11
68.8947
 21
-29.4478
  0
LINE
  8
0
 10
68.8947
 20
-29.4478
 11
68.9529
 21
-29.627
  0
LINE
  8
0
 10
68.9529
 20
-29.627
 11
68.9882
 21
-29.812
  0
LINE
  8
0
 10
68.9882
 20
-29.812
 11
69
 21
-30
  0
LINE
  8
0
 10
69
 20
-30
 11
68.9882
 21
-30.188
  0
LINE
  8
0
 10
68.9882
 20
-30.188
 11
68.9529
 21
-30.373
  0
LINE
  8
0
 10
68.9529
 20
-30.373
 11
68.8947
 21
-30.5522
  0
LINE
  8
0
 10
68.8947
 20
-30.5522
 11
68.8145
 21
-30.7226
  0
LINE
  8
0
 10
68.8145
 20
-30.7226
 11
68.7135
 21
-30.8817
  0
LINE
  8
0
 10
68.7135
 20
-30.8817
 11
68.5934
 21
-31.0268
  0
LINE
  8
0
 10
68.5934
 20
-31.0268
 11
68.4561
 21
-31.1558
  0
LINE
  8
0
 10
68.4561
 20
-31.1558
 11
68.3037
 21
-31.2665
  0
LINE
  8
0
 10
68.3037
 20
-31.2665
 11
68.1387
 21
-31.3572
  0
LINE
  8
0
 10
68.1387
 20
-31.3572
 11
67.9635
 21
-31.4266
  0
LINE
  8
0
 10
67.9635
 20
-31.4266
 11
67.7811
 21
-31.4734
  0
LINE
  8
0
 10
67.7811
 20
-31.4734
 11
67.5942
 21
-31.497
  0
LINE
  8
0
 10
67.5942
 20
-31.497
 11
67.4058
 21
-31.497
  0
LINE
  8
0
 10
37.3116
 20
-40.4941
 11
36.9379
 21
-40.4469
  0
LINE
  8
0
 10
36.9379
 20
-40.4469
 11
36.5729
 21
-40.3532
  0
LINE
  8
0
 10
36.5729
 20
-40.3532
 11
36.2227
 21
-40.2145
  0
LINE
  8
0
 10
36.2227
 20
-40.2145
 11
35.8925
 21
-40.033
  0
LINE
  8
0
 10
35.8925
 20
-40.033
 11
35.5877
 21
-39.8115
  0
LINE
  8
0
 10
35.5877
 20
-39.8115
 11
35.3131
 21
-39.5536
  0
LINE
  8
0
 10
35.3131
 20
-39.5536
 11
35.0729
 21
-39.2634
  0
LINE
  8
0
 10
35.0729
 20
-39.2634
 11
34.8711
 21
-38.9453
  0
LINE
  8
0
 10
34.8711
 20
-38.9453
 11
34.7107
 21
-38.6044
  0
LINE
  8
0
 10
34.7107
 20
-38.6044
 11
34.5942
 21
-38.2461
  0
LINE
  8
0
 10
34.5942
 20
-38.2461
 11
34.5237
 21
-37.876
  0
LINE
  8
0
 10
34.5237
 20
-37.876
 11
34.5
 21
-37.5
  0
LINE
  8
0
 10
34.5
 20
-37.5
 11
34.5237
 21
-37.124
  0
LINE
  8
0
 10
34.5237
 20
-37.124
 11
34.5942
 21
-36.7539
  0
LINE
  8
0
 10
34.5942
 20
-36.7539
 11
34.7107
 21
-36.3956
  0
LINE
  8
0
 10
34.7107
 20
-36.3956
 11
34.8711
 21
-36.0547
  0
LINE
  8
0
 10
34.8711
 20
-36.0547
 11
35.0729
 21
-35.7366
  0
LINE
  8
0
 10
35.0729
 20
-35.7366
 11
35.3131
 21
-35.4464
  0
LINE
  8
0
 10
35.3131
 20
-35.4464
 11
35.5877
 21
-35.1885
  0
LINE
  8
0
 10
35.5877
 20
-35.1885
 11
35.8925
 21
-34.967
  0
LINE
  8
0
 10
35.8925
 20
-34.967
 11
36.2227
 21
-34.7855
  0
LINE
  8
0
 10
36.2227
 20
-34.7855
 11
36.5729
 21
-34.6468
  0
LINE
  8
0
 10
36.5729
 20
-34.6468
 11
36.9379
 21
-34.5531
  0
LINE
  8
0
 10
36.9379
 20
-34.5531
 11
37.3116
 21
-34.5059
  0
LINE
  8
0
 10
37.3116
 20
-34.5059
 11
37.6884
 21
-34.5059
  0
LINE
  8
0
 10
37.6884
 20
-34.5059
 11
38.0621
 21
-34.5531
  0
LINE
  8
0
 10
38.0621
 20
-34.5531
 11
38.427
 21
-34.6468
  0
LINE
  8
0
 10
38.427
 20
-34.6468
 11
38.7773
 21
-34.7855
  0
LINE
  8
0
 10
38.7773
 20
-34.7855
 11
39.1075
 21
-34.967
  0
LINE
  8
0
 10
39.1075
 20
-34.967
 11
39.4123
 21
-35.1885
  0
LINE
  8
0
 10
39.4123
 20
-35.1885
 11
39.6869
 21
-35.4464
  0
LINE
  8
0
 10
39.6869
 20
-35.4464
 11
39.927
 21
-35.7366
  0
LINE
  8
0
 10
39.927
 20
-35.7366
 11
40.1289
 21
-36.0547
  0
LINE
  8
0
 10
40.1289
 20
-36.0547
 11
40.2893
 21
-36.3956
  0
LINE
  8
0
 10
40.2893
 20
-36.3956
 11
40.4057
 21
-36.7539
  0
LINE
  8
0
 10
40.4057
 20
-36.7539
 11
40.4763
 21
-37.124
  0
LINE
  8
0
 10
40.4763
 20
-37.124
 11
40.5
 21
-37.5
  0
LINE
  8
0
 10
40.5
 20
-37.5
 11
40.4763
 21
-37.876
  0
LINE
  8
0
 10
40.4763
 20
-37.876
 11
40.4057
 21
-38.2461
  0
LINE
  8
0
 10
40.4057
 20
-38.2461
 11
40.2893
 21
-38.6044
  0
LINE
  8
0
 10
40.2893
 20
-38.6044
 11
40.1289
 21
-38.9453
  0
LINE
  8
0
 10
40.1289
 20
-38.9453
 11
39.927
 21
-39.2634
  0
LINE
  8
0
 10
39.927
 20
-39.2634
 11
39.6869
 21
-39.5536
  0
LINE
  8
0
 10
39.6869
 20
-39.5536
 11
39.4123
 21
-39.8115
  0
LINE
  8
0
 10
39.4123
 20
-39.8115
 11
39.1075
 21
-40.033
  0
LINE
  8
0
 10
39.1075
 20
-40.033
 11
38.7773
 21
-40.2145
  0
LINE
  8
0
 10
38.7773
 20
-40.2145
 11
38.427
 21
-40.3532
  0
LINE
  8
0
 10
38.427
 20
-40.3532
 11
38.0621
 21
-40.4469
  0
LINE
  8
0
 10
38.0621
 20
-40.4469
 11
37.6884
 21
-40.4941
  0
LINE
  8
0
 10
37.6884
 20
-40.4941
 11
37.3116
 21
-40.4941
  0
LINE
  8
0
 10
-37.6884
 20
-40.4941
 11
-38.0621
 21
-40.4469
  0
LINE
  8
0
 10
-38.0621
 20
-40.4469
 11
-38.427
 21
-40.3532
  0
LINE
  8
0
 10
-38.427
 20
-40.3532
 11
-38.7773
 21
-40.2145
  0
LINE
  8
0
 10
-38.7773
 20
-40.2145
 11
-39.1075
 21
-40.033
  0
LINE
  8
0
 10
-39.1075
 20
-40.033
 11
-39.4123
 21
-39.8115
  0
LINE
  8
0
 10
-39.4123
 20
-39.8115
 11
-39.6869
 21
-39.5536
  0
LINE
  8
0
 10
-39.6869
 20
-39.5536
 11
-39.927
 21
-39.2634
  0
LINE
  8
0
 10
-39.927
 20
-39.2634
 11
-40.1289
 21
-38.9453
  0
LINE
  8
0
 10
-40.1289
 20
-38.9453
 11
-40.2893
 21
-38.6044
  0
LINE
  8
0
 10
-40.2893
 20
-38.6044
 11
-40.4057
 21
-38.2461
  0
LINE
  8
0
 10
-40.4057
 20
-38.2461
 11
-40.4763
 21
-37.876
  0
LINE
  8
0
 10
-40.4763
 20
-37.876
 11
-40.5
 21
-37.5
  0
LINE
  8
0
 10
-40.5
 20
-37.5
 11
-40.4763
 21
-37.124
  0
LINE
  8
0
 10
-40.4763
 20
-37.124
 11
-40.4057
 21
-36.7539
  0
LINE
  8
0
 10
-40.4057
 20
-36.7539
 11
-40.2893
 21
-36.3956
  0
LINE
  8
0
 10
-40.2893
 20
-36.3956
 11
-40.1289
 21
-36.0547
  0
LINE
  8
0
 10
-40.1289
 20
-36.0547
 11
-39.927
 21
-35.7366
  0
LINE
  8
0
 10
-39.927
 20
-35.7366
 11
-39.6869
 21
-35.4464
  0
LINE
  8
0
 10
-39.6869
 20
-35.4464
 11
-39.4123
 21
-35.1885
  0
LINE
  8
0
 10
-39.4123
 20
-35.1885
 11
-39.1075
 21
-34.967
  0
LINE
  8
0
 10
-39.1075
 20
-34.967
 11
-38.7773
 21
-34.7855
  0
LINE
  8
0
 10
-38.7773
 20
-34.7855
 11
-38.427
 21
-34.6468
  0
LINE
  8
0
 10
-38.427
 20
-34.6468
 11
-38.0621
 21
-34.5531
  0
LINE
  8
0
 10
-38.0621
 20
-34.5531
 11
-37.6884
 21
-34.5059
  0
LINE
  8
0
 10
-37.6884
 20
-34.5059
 11
-37.3116
 21
-34.5059
  0
LINE
  8
0
 10
-37.3116
 20
-34.5059
 11
-36.9379
 21
-34.5531
  0
LINE
  8
0
 10
-36.9379
 20
-34.5531
 11
-36.5729
 21
-34.6468
  0
LINE
  8
0
 10
-36.5729
 20
-34.6468
 11
-36.2227
 21
-34.7855
  0
LINE
  8
0
 10
-36.2227
 20
-34.7855
 11
-35.8925
 21
-34.967
  0
LINE
  8
0
 10
-35.8925
 20
-34.967
 11
-35.5877
 21
-35.1885
  0
LINE
  8
0
 10
-35.5877
 20
-35.1885
 11
-35.3131
 21
-35.4464
  0
LINE
  8
0
 10
-35.3131
 20
-35.4464
 11
-35.0729
 21
-35.7366
  0
LINE
  8
0
 10
-35.0729
 20
-35.7366
 11
-34.8711
 21
-36.0547
  0
LINE
  8
0
 10
-34.8711
 20
-36.0547
 11
-34.7107
 21
-36.3956
  0
LINE
  8
0
 10
-34.7107
 20
-36.3956
 11
-34.5942
 21
-36.7539
  0
LINE
  8
0
 10
-34.5942
 20
-36.7539
 11
-34.5237
 21
-37.124
  0
LINE
  8
0
 10
-34.5237
 20
-37.124
 11
-34.5
 21
-37.5
  0
LINE
  8
0
 10
-34.5
 20
-37.5
 11
-34.5237
 21
-37.876
  0
LINE
  8
0
 10
-34.5237
 20
-37.876
 11
-34.5942
 21
-38.2461
  0
LINE
  8
0
 10
-34.5942
 20
-38.2461
 11
-34.7107
 21
-38.6044
  0
LINE
  8
0
 10
-34.7107
 20
-38.6044
 11
-34.8711
 21
-38.9453
  0
LINE
  8
0
 10
-34.8711
 20
-38.9453
 11
-35.0729
 21
-39.2634
  0
LINE
  8
0
 10
-35.0729
 20
-39.2634
 11
-35.3131
 21
-39.5536
  0
LINE
  8
0
 10
-35.3131
 20
-39.5536
 11
-35.5877
 21
-39.8115
  0
LINE
  8
0
 10
-35.5877
 20
-39.8115
 11
-35.8925
 21
-40.033
  0
LINE
  8
0
 10
-35.8925
 20
-40.033
 11
-36.2227
 21
-40.2145
  0
LINE
  8
0
 10
-36.2227
 20
-40.2145
 11
-36.5729
 21
-40.3532
  0
LINE
  8
0
 10
-36.5729
 20
-40.3532
 11
-36.9379
 21
-40.4469
  0
LINE
  8
0
 10
-36.9379
 20
-40.4469
 11
-37.3116
 21
-40.4941
  0
LINE
  8
0
 10
-37.3116
 20
-40.4941
 11
-37.6884
 21
-40.4941
  0
LINE
  8
0
 10
7.31161
 20
-40.4941
 11
6.93785
 21
-40.4469
  0
LINE
  8
0
 10
6.93785
 20
-40.4469
 11
6.57294
 21
-40.3532
  0
LINE
  8
0
 10
6.57294
 20
-40.3532
 11
6.22266
 21
-40.2145
  0
LINE
  8
0
 10
6.22266
 20
-40.2145
 11
5.89252
 21
-40.033
  0
LINE
  8
0
 10
5.89252
 20
-40.033
 11
5.58772
 21
-39.8115
  0
LINE
  8
0
 10
5.58772
 20
-39.8115
 11
5.31308
 21
-39.5536
  0
LINE
  8
0
 10
5.31308
 20
-39.5536
 11
5.07294
 21
-39.2634
  0
LINE
  8
0
 10
5.07294
 20
-39.2634
 11
4.87108
 21
-38.9453
  0
LINE
  8
0
 10
4.87108
 20
-38.9453
 11
4.71066
 21
-38.6044
  0
LINE
  8
0
 10
4.71066
 20
-38.6044
 11
4.59424
 21
-38.2461
  0
LINE
  8
0
 10
4.59424
 20
-38.2461
 11
4.52365
 21
-37.876
  0
LINE
  8
0
 10
4.52365
 20
-37.876
 11
4.5
 21
-37.5
  0
LINE
  8
0
 10
4.5
 20
-37.5
 11
4.52365
 21
-37.124
  0
LINE
  8
0
 10
4.52365
 20
-37.124
 11
4.59424
 21
-36.7539
  0
LINE
  8
0
 10
4.59424
 20
-36.7539
 11
4.71066
 21
-36.3956
  0
LINE
  8
0
 10
4.71066
 20
-36.3956
 11
4.87108
 21
-36.0547
  0
LINE
  8
0
 10
4.87108
 20
-36.0547
 11
5.07294
 21
-35.7366
  0
LINE
  8
0
 10
5.07294
 20
-35.7366
 11
5.31308
 21
-35.4464
  0
LINE
  8
0
 10
5.31308
 20
-35.4464
 11
5.58772
 21
-35.1885
  0
LINE
  8
0
 10
5.58772
 20
-35.1885
 11
5.89252
 21
-34.967
  0
LINE
  8
0
 10
5.89252
 20
-34.967
 11
6.22266
 21
-34.7855
  0
LINE
  8
0
 10
6.22266
 20
-34.7855
 11
6.57294
 21
-34.6468
  0
LINE
  8
0
 10
6.57294
 20
-34.6468
 11
6.93785
 21
-34.5531
  0
LINE
  8
0
 10
6.93785
 20
-34.5531
 11
7.31161
 21
-34.5059
  0
LINE
  8
0
 10
7.31161
 20
-34.5059
 11
7.68837
 21
-34.5059
  0
LINE
  8
0
 10
7.68837
 20
-34.5059
 11
8.06213
 21
-34.5531
  0
LINE
  8
0
 10
8.06213
 20
-34.5531
 11
8.42705
 21
-34.6468
  0
LINE
  8
0
 10
8.42705
 20
-34.6468
 11
8.77733
 21
-34.7855
  0
LINE
  8
0
 10
8.77733
 20
-34.7855
 11
9.10747
 21
-34.967
  0
LINE
  8
0
 10
9.10747
 20
-34.967
 11
9.41226
 21
-35.1885
  0
LINE
  8
0
 10
9.41226
 20
-35.1885
 11
9.6869
 21
-35.4464
  0
LINE
  8
0
 10
9.6869
 20
-35.4464
 11
9.92705
 21
-35.7366
  0
LINE
  8
0
 10
9.92705
 20
-35.7366
 11
10.1289
 21
-36.0547
  0
LINE
  8
0
 10
10.1289
 20
-36.0547
 11
10.2893
 21
-36.3956
  0
LINE
  8
0
 10
10.2893
 20
-36.3956
 11
10.4057
 21
-36.7539
  0
LINE
  8
0
 10
10.4057
 20
-36.7539
 11
10.4763
 21
-37.124
  0
LINE
  8
0
 10
10.4763
 20
-37.124
 11
10.5
 21
-37.5
  0
LINE
  8
0
 10
10.5
 20
-37.5
 11
10.4763
 21
-37.876
  0
LINE
  8
0
 10
10.4763
 20
-37.876
 11
10.4057
 21
-38.2461
  0
LINE
  8
0
 10
10.4057
 20
-38.2461
 11
10.2893
 21
-38.6044
  0
LINE
  8
0
 10
10.2893
 20
-38.6044
 11
10.1289
 21
-38.9453
  0
LINE
  8
0
 10
10.1289
 20
-38.9453
 11
9.92705
 21
-39.2634
  0
LINE
  8
0
 10
9.92705
 20
-39.2634
 11
9.6869
 21
-39.5536
  0
LINE
  8
0
 10
9.6869
 20
-39.5536
 11
9.41226
 21
-39.8115
  0
LINE
  8
0
 10
9.41226
 20
-39.8115
 11
9.10747
 21
-40.033
  0
LINE
  8
0
 10
9.10747
 20
-40.033
 11
8.77733
 21
-40.2145
  0
LINE
  8
0
 10
8.77733
 20
-40.2145
 11
8.42705
 21
-40.3532
  0
LINE
  8
0
 10
8.42705
 20
-40.3532
 11
8.06213
 21
-40.4469
  0
LINE
  8
0
 10
8.06213
 20
-40.4469
 11
7.68837
 21
-40.4941
  0
LINE
  8
0
 10
7.68837
 20
-40.4941
 11
7.31161
 21
-40.4941
  0
LINE
  8
0
 10
-67.6884
 20
-40.4941
 11
-68.0621
 21
-40.4469
  0
LINE
  8
0
 10
-68.0621
 20
-40.4469
 11
-68.427
 21
-40.3532
  0
LINE
  8
0
 10
-68.427
 20
-40.3532
 11
-68.7773
 21
-40.2145
  0
LINE
  8
0
 10
-68.7773
 20
-40.2145
 11
-69.1075
 21
-40.033
  0
LINE
  8
0
 10
-69.1075
 20
-40.033
 11
-69.4123
 21
-39.8115
  0
LINE
  8
0
 10
-69.4123
 20
-39.8115
 11
-69.6869
 21
-39.5536
  0
LINE
  8
0
 10
-69.6869
 20
-39.5536
 11
-69.927
 21
-39.2634
  0
LINE
  8
0
 10
-69.927
 20
-39.2634
 11
-70.1289
 21
-38.9453
  0
LINE
  8
0
 10
-70.1289
 20
-38.9453
 11
-70.2893
 21
-38.6044
  0
LINE
  8
0
 10
-70.2893
 20
-38.6044
 11
-70.4057
 21
-38.2461
  0
LINE
  8
0
 10
-70.4057
 20
-38.2461
 11
-70.4763
 21
-37.876
  0
LINE
  8
0
 10
-70.4763
 20
-37.876
 11
-70.5
 21
-37.5
  0
LINE
  8
0
 10
-70.5
 20
-37.5
 11
-70.4763
 21
-37.124
  0
LINE
  8
0
 10
-70.4763
 20
-37.124
 11
-70.4057
 21
-36.7539
  0
LINE
  8
0
 10
-70.4057
 20
-36.7539
 11
-70.2893
 21
-36.3956
  0
LINE
  8
0
 10
-70.2893
 20
-36.3956
 11
-70.1289
 21
-36.0547
  0
LINE
  8
0
 10
-70.1289
 20
-36.0547
 11
-69.927
 21
-35.7366
  0
LINE
  8
0
 10
-69.927
 20
-35.7366
 11
-69.6869
 21
-35.4464
  0
LINE
  8
0
 10
-69.6869
 20
-35.4464
 11
-69.4123
 21
-35.1885
  0
LINE
  8
0
 10
-69.4123
 20
-35.1885
 11
-69.1075
 21
-34.967
  0
LINE
  8
0
 10
-69.1075
 20
-34.967
 11
-68.7773
 21
-34.7855
  0
LINE
  8
0
 10
-68.7773
 20
-34.7855
 11
-68.427
 21
-34.6468
  0
LINE
  8
0
 10
-68.427
 20
-34.6468
 11
-68.0621
 21
-34.5531
  0
LINE
  8
0
 10
-68.0621
 20
-34.5531
 11
-67.6884
 21
-34.5059
  0
LINE
  8
0
 10
-67.6884
 20
-34.5059
 11
-67.3116
 21
-34.5059
  0
LINE
  8
0
 10
-67.3116
 20
-34.5059
 11
-66.9379
 21
-34.5531
  0
LINE
  8
0
 10
-66.9379
 20
-34.5531
 11
-66.573
 21
-34.6468
  0
LINE
  8
0
 10
-66.573
 20
-34.6468
 11
-66.2227
 21
-34.7855
  0
LINE
  8
0
 10
-66.2227
 20
-34.7855
 11
-65.8925
 21
-34.967
  0
LINE
  8
0
 10
-65.8925
 20
-34.967
 11
-65.5877
 21
-35.1885
  0
LINE
  8
0
 10
-65.5877
 20
-35.1885
 11
-65.3131
 21
-35.4464
  0
LINE
  8
0
 10
-65.3131
 20
-35.4464
 11
-65.073
 21
-35.7366
  0
LINE
  8
0
 10
-65.073
 20
-35.7366
 11
-64.8711
 21
-36.0547
  0
LINE
  8
0
 10
-64.8711
 20
-36.0547
 11
-64.7107
 21
-36.3956
  0
LINE
  8
0
 10
-64.7107
 20
-36.3956
 11
-64.5943
 21
-36.7539
  0
LINE
  8
0
 10
-64.5943
 20
-36.7539
 11
-64.5237
 21
-37.124
  0
LINE
  8
0
 10
-64.5237
 20
-37.124
 11
-64.5
 21
-37.5
  0
LINE
  8
0
 10
-64.5
 20
-37.5
 11
-64.5237
 21
-37.876
  0
LINE
  8
0
 10
-64.5237
 20
-37.876
 11
-64.5943
 21
-38.2461
  0
LINE
  8
0
 10
-64.5943
 20
-38.2461
 11
-64.7107
 21
-38.6044
  0
LINE
  8
0
 10
-64.7107
 20
-38.6044
 11
-64.8711
 21
-38.9453
  0
LINE
  8
0
 10
-64.8711
 20
-38.9453
 11
-65.073
 21
-39.2634
  0
LINE
  8
0
 10
-65.073
 20
-39.2634
 11
-65.3131
 21
-39.5536
  0
LINE
  8
0
 10
-65.3131
 20
-39.5536
 11
-65.5877
 21
-39.8115
  0
LINE
  8
0
 10
-65.5877
 20
-39.8115
 11
-65.8925
 21
-40.033
  0
LINE
  8
0
 10
-65.8925
 20
-40.033
 11
-66.2227
 21
-40.2145
  0
LINE
  8
0
 10
-66.2227
 20
-40.2145
 11
-66.573
 21
-40.3532
  0
LINE
  8
0
 10
-66.573
 20
-40.3532
 11
-66.9379
 21
-40.4469
  0
LINE
  8
0
 10
-66.9379
 20
-40.4469
 11
-67.3116
 21
-40.4941
  0
LINE
  8
0
 10
-67.3116
 20
-40.4941
 11
-67.6884
 21
-40.4941
  0
LINE
  8
0
 10
-52.6884
 20
-40.4941
 11
-53.0621
 21
-40.4469
  0
LINE
  8
0
 10
-53.0621
 20
-40.4469
 11
-53.427
 21
-40.3532
  0
LINE
  8
0
 10
-53.427
 20
-40.3532
 11
-53.7773
 21
-40.2145
  0
LINE
  8
0
 10
-53.7773
 20
-40.2145
 11
-54.1075
 21
-40.033
  0
LINE
  8
0
 10
-54.1075
 20
-40.033
 11
-54.4123
 21
-39.8115
  0
LINE
  8
0
 10
-54.4123
 20
-39.8115
 11
-54.6869
 21
-39.5536
  0
LINE
  8
0
 10
-54.6869
 20
-39.5536
 11
-54.927
 21
-39.2634
  0
LINE
  8
0
 10
-54.927
 20
-39.2634
 11
-55.1289
 21
-38.9453
  0
LINE
  8
0
 10
-55.1289
 20
-38.9453
 11
-55.2893
 21
-38.6044
  0
LINE
  8
0
 10
-55.2893
 20
-38.6044
 11
-55.4057
 21
-38.2461
  0
LINE
  8
0
 10
-55.4057
 20
-38.2461
 11
-55.4763
 21
-37.876
  0
LINE
  8
0
 10
-55.4763
 20
-37.876
 11
-55.5
 21
-37.5
  0
LINE
  8
0
 10
-55.5
 20
-37.5
 11
-55.4763
 21
-37.124
  0
LINE
  8
0
 10
-55.4763
 20
-37.124
 11
-55.4057
 21
-36.7539
  0
LINE
  8
0
 10
-55.4057
 20
-36.7539
 11
-55.2893
 21
-36.3956
  0
LINE
  8
0
 10
-55.2893
 20
-36.3956
 11
-55.1289
 21
-36.0547
  0
LINE
  8
0
 10
-55.1289
 20
-36.0547
 11
-54.927
 21
-35.7366
  0
LINE
  8
0
 10
-54.927
 20
-35.7366
 11
-54.6869
 21
-35.4464
  0
LINE
  8
0
 10
-54.6869
 20
-35.4464
 11
-54.4123
 21
-35.1885
  0
LINE
  8
0
 10
-54.4123
 20
-35.1885
 11
-54.1075
 21
-34.967
  0
LINE
  8
0
 10
-54.1075
 20
-34.967
 11
-53.7773
 21
-34.7855
  0
LINE
  8
0
 10
-53.7773
 20
-34.7855
 11
-53.427
 21
-34.6468
  0
LINE
  8
0
 10
-53.427
 20
-34.6468
 11
-53.0621
 21
-34.5531
  0
LINE
  8
0
 10
-53.0621
 20
-34.5531
 11
-52.6884
 21
-34.5059
  0
LINE
  8
0
 10
-52.6884
 20
-34.5059
 11
-52.3116
 21
-34.5059
  0
LINE
  8
0
 10
-52.3116
 20
-34.5059
 11
-51.9379
 21
-34.5531
  0
LINE
  8
0
 10
-51.9379
 20
-34.5531
 11
-51.5729
 21
-34.6468
  0
LINE
  8
0
 10
-51.5729
 20
-34.6468
 11
-51.2227
 21
-34.7855
  0
LINE
  8
0
 10
-51.2227
 20
-34.7855
 11
-50.8925
 21
-34.967
  0
LINE
  8
0
 10
-50.8925
 20
-34.967
 11
-50.5877
 21
-35.1885
  0
LINE
  8
0
 10
-50.5877
 20
-35.1885
 11
-50.3131
 21
-35.4464
  0
LINE
  8
0
 10
-50.3131
 20
-35.4464
 11
-50.0729
 21
-35.7366
  0
LINE
  8
0
 10
-50.0729
 20
-35.7366
 11
-49.8711
 21
-36.0547
  0
LINE
  8
0
 10
-49.8711
 20
-36.0547
 11
-49.7107
 21
-36.3956
  0
LINE
  8
0
 10
-49.7107
 20
-36.3956
 11
-49.5942
 21
-36.7539
  0
LINE
  8
0
 10
-49.5942
 20
-36.7539
 11
-49.5237
 21
-37.124
  0
LINE
  8
0
 10
-49.5237
 20
-37.124
 11
-49.5
 21
-37.5
  0
LINE
  8
0
 10
-49.5
 20
-37.5
 11
-49.5237
 21
-37.876
  0
LINE
  8
0
 10
-49.5237
 20
-37.876
 11
-49.5942
 21
-38.2461
  0
LINE
  8
0
 10
-49.5942
 20
-38.2461
 11
-49.7107
 21
-38.6044
  0
LINE
  8
0
 10
-49.7107
 20
-38.6044
 11
-49.8711
 21
-38.9453
  0
LINE
  8
0
 10
-49.8711
 20
-38.9453
 11
-50.0729
 21
-39.2634
  0
LINE
  8
0
 10
-50.0729
 20
-39.2634
 11
-50.3131
 21
-39.5536
  0
LINE
  8
0
 10
-50.3131
 20
-39.5536
 11
-50.5877
 21
-39.8115
  0
LINE
  8
0
 10
-50.5877
 20
-39.8115
 11
-50.8925
 21
-40.033
  0
LINE
  8
0
 10
-50.8925
 20
-40.033
 11
-51.2227
 21
-40.2145
  0
LINE
  8
0
 10
-51.2227
 20
-40.2145
 11
-51.5729
 21
-40.3532
  0
LINE
  8
0
 10
-51.5729
 20
-40.3532
 11
-51.9379
 21
-40.4469
  0
LINE
  8
0
 10
-51.9379
 20
-40.4469
 11
-52.3116
 21
-40.4941
  0
LINE
  8
0
 10
-52.3116
 20
-40.4941
 11
-52.6884
 21
-40.4941
  0
LINE
  8
0
 10
-22.6884
 20
-40.4941
 11
-23.0621
 21
-40.4469
  0
LINE
  8
0
 10
-23.0621
 20
-40.4469
 11
-23.427
 21
-40.3532
  0
LINE
  8
0
 10
-23.427
 20
-40.3532
 11
-23.7773
 21
-40.2145
  0
LINE
  8
0
 10
-23.7773
 20
-40.2145
 11
-24.1075
 21
-40.033
  0
LINE
  8
0
 10
-24.1075
 20
-40.033
 11
-24.4123
 21
-39.8115
  0
LINE
  8
0
 10
-24.4123
 20
-39.8115
 11
-24.6869
 21
-39.5536
  0
LINE
  8
0
 10
-24.6869
 20
-39.5536
 11
-24.927
 21
-39.2634
  0
LINE
  8
0
 10
-24.927
 20
-39.2634
 11
-25.1289
 21
-38.9453
  0
LINE
  8
0
 10
-25.1289
 20
-38.9453
 11
-25.2893
 21
-38.6044
  0
LINE
  8
0
 10
-25.2893
 20
-38.6044
 11
-25.4057
 21
-38.2461
  0
LINE
  8
0
 10
-25.4057
 20
-38.2461
 11
-25.4763
 21
-37.876
  0
LINE
  8
0
 10
-25.4763
 20
-37.876
 11
-25.5
 21
-37.5
  0
LINE
  8
0
 10
-25.5
 20
-37.5
 11
-25.4763
 21
-37.124
  0
LINE
  8
0
 10
-25.4763
 20
-37.124
 11
-25.4057
 21
-36.7539
  0
LINE
  8
0
 10
-25.4057
 20
-36.7539
 11
-25.2893
 21
-36.3956
  0
LINE
  8
0
 10
-25.2893
 20
-36.3956
 11
-25.1289
 21
-36.0547
  0
LINE
  8
0
 10
-25.1289
 20
-36.0547
 11
-24.927
 21
-35.7366
  0
LINE
  8
0
 10
-24.927
 20
-35.7366
 11
-24.6869
 21
-35.4464
  0
LINE
  8
0
 10
-24.6869
 20
-35.4464
 11
-24.4123
 21
-35.1885
  0
LINE
  8
0
 10
-24.4123
 20
-35.1885
 11
-24.1075
 21
-34.967
  0
LINE
  8
0
 10
-24.1075
 20
-34.967
 11
-23.7773
 21
-34.7855
  0
LINE
  8
0
 10
-23.7773
 20
-34.7855
 11
-23.427
 21
-34.6468
  0
LINE
  8
0
 10
-23.427
 20
-34.6468
 11
-23.0621
 21
-34.5531
  0
LINE
  8
0
 10
-23.0621
 20
-34.5531
 11
-22.6884
 21
-34.5059
  0
LINE
  8
0
 10
-22.6884
 20
-34.5059
 11
-22.3116
 21
-34.5059
  0
LINE
  8
0
 10
-22.3116
 20
-34.5059
 11
-21.9379
 21
-34.5531
  0
LINE
  8
0
 10
-21.9379
 20
-34.5531
 11
-21.5729
 21
-34.6468
  0
LINE
  8
0
 10
-21.5729
 20
-34.6468
 11
-21.2227
 21
-34.7855
  0
LINE
  8
0
 10
-21.2227
 20
-34.7855
 11
-20.8925
 21
-34.967
  0
LINE
  8
0
 10
-20.8925
 20
-34.967
 11
-20.5877
 21
-35.1885
  0
LINE
  8
0
 10
-20.5877
 20
-35.1885
 11
-20.3131
 21
-35.4464
  0
LINE
  8
0
 10
-20.3131
 20
-35.4464
 11
-20.0729
 21
-35.7366
  0
LINE
  8
0
 10
-20.0729
 20
-35.7366
 11
-19.8711
 21
-36.0547
  0
LINE
  8
0
 10
-19.8711
 20
-36.0547
 11
-19.7107
 21
-36.3956
  0
LINE
  8
0
 10
-19.7107
 20
-36.3956
 11
-19.5942
 21
-36.7539
  0
LINE
  8
0
 10
-19.5942
 20
-36.7539
 11
-19.5237
 21
-37.124
  0
LINE
  8
0
 10
-19.5237
 20
-37.124
 11
-19.5
 21
-37.5
  0
LINE
  8
0
 10
-19.5
 20
-37.5
 11
-19.5237
 21
-37.876
  0
LINE
  8
0
 10
-19.5237
 20
-37.876
 11
-19.5942
 21
-38.2461
  0
LINE
  8
0
 10
-19.5942
 20
-38.2461
 11
-19.7107
 21
-38.6044
  0
LINE
  8
0
 10
-19.7107
 20
-38.6044
 11
-19.8711
 21
-38.9453
  0
LINE
  8
0
 10
-19.8711
 20
-38.9453
 11
-20.0729
 21
-39.2634
  0
LINE
  8
0
 10
-20.0729
 20
-39.2634
 11
-20.3131
 21
-39.5536
  0
LINE
  8
0
 10
-20.3131
 20
-39.5536
 11
-20.5877
 21
-39.8115
  0
LINE
  8
0
 10
-20.5877
 20
-39.8115
 11
-20.8925
 21
-40.033
  0
LINE
  8
0
 10
-20.8925
 20
-40.033
 11
-21.2227
 21
-40.2145
  0
LINE
  8
0
 10
-21.2227
 20
-40.2145
 11
-21.5729
 21
-40.3532
  0
LINE
  8
0
 10
-21.5729
 20
-40.3532
 11
-21.9379
 21
-40.4469
  0
LINE
  8
0
 10
-21.9379
 20
-40.4469
 11
-22.3116
 21
-40.4941
  0
LINE
  8
0
 10
-22.3116
 20
-40.4941
 11
-22.6884
 21
-40.4941
  0
LINE
  8
0
 10
-7.68837
 20
-40.4941
 11
-8.06213
 21
-40.4469
  0
LINE
  8
0
 10
-8.06213
 20
-40.4469
 11
-8.42705
 21
-40.3532
  0
LINE
  8
0
 10
-8.42705
 20
-40.3532
 11
-8.77733
 21
-40.2145
  0
LINE
  8
0
 10
-8.77733
 20
-40.2145
 11
-9.10747
 21
-40.033
  0
LINE
  8
0
 10
-9.10747
 20
-40.033
 11
-9.41226
 21
-39.8115
  0
LINE
  8
0
 10
-9.41226
 20
-39.8115
 11
-9.6869
 21
-39.5536
  0
LINE
  8
0
 10
-9.6869
 20
-39.5536
 11
-9.92705
 21
-39.2634
  0
LINE
  8
0
 10
-9.92705
 20
-39.2634
 11
-10.1289
 21
-38.9453
  0
LINE
  8
0
 10
-10.1289
 20
-38.9453
 11
-10.2893
 21
-38.6044
  0
LINE
  8
0
 10
-10.2893
 20
-38.6044
 11
-10.4057
 21
-38.2461
  0
LINE
  8
0
 10
-10.4057
 20
-38.2461
 11
-10.4763
 21
-37.876
  0
LINE
  8
0
 10
-10.4763
 20
-37.876
 11
-10.5
 21
-37.5
  0
LINE
  8
0
 10
-10.5
 20
-37.5
 11
-10.4763
 21
-37.124
  0
LINE
  8
0
 10
-10.4763
 20
-37.124
 11
-10.4057
 21
-36.7539
  0
LINE
  8
0
 10
-10.4057
 20
-36.7539
 11
-10.2893
 21
-36.3956
  0
LINE
  8
0
 10
-10.2893
 20
-36.3956
 11
-10.1289
 21
-36.0547
  0
LINE
  8
0
 10
-10.1289
 20
-36.0547
 11
-9.92705
 21
-35.7366
  0
LINE
  8
0
 10
-9.92705
 20
-35.7366
 11
-9.6869
 21
-35.4464
  0
LINE
  8
0
 10
-9.6869
 20
-35.4464
 11
-9.41226
 21
-35.1885
  0
LINE
  8
0
 10
-9.41226
 20
-35.1885
 11
-9.10747
 21
-34.967
  0
LINE
  8
0
 10
-9.10747
 20
-34.967
 11
-8.77733
 21
-34.7855
  0
LINE
  8
0
 10
-8.77733
 20
-34.7855
 11
-8.42705
 21
-34.6468
  0
LINE
  8
0
 10
-8.42705
 20
-34.6468
 11
-8.06213
 21
-34.5531
  0
LINE
  8
0
 10
-8.06213
 20
-34.5531
 11
-7.68837
 21
-34.5059
  0
LINE
  8
0
 10
-7.68837
 20
-34.5059
 11
-7.31161
 21
-34.5059
  0
LINE
  8
0
 10
-7.31161
 20
-34.5059
 11
-6.93785
 21
-34.5531
  0
LINE
  8
0
 10
-6.93785
 20
-34.5531
 11
-6.57294
 21
-34.6468
  0
LINE
  8
0
 10
-6.57294
 20
-34.6468
 11
-6.22266
 21
-34.7855
  0
LINE
  8
0
 10
-6.22266
 20
-34.7855
 11
-5.89252
 21
-34.967
  0
LINE
  8
0
 10
-5.89252
 20
-34.967
 11
-5.58772
 21
-35.1885
  0
LINE
  8
0
 10
-5.58772
 20
-35.1885
 11
-5.31308
 21
-35.4464
  0
LINE
  8
0
 10
-5.31308
 20
-35.4464
 11
-5.07294
 21
-35.7366
  0
LINE
  8
0
 10
-5.07294
 20
-35.7366
 11
-4.87108
 21
-36.0547
  0
LINE
  8
0
 10
-4.87108
 20
-36.0547
 11
-4.71066
 21
-36.3956
  0
LINE
  8
0
 10
-4.71066
 20
-36.3956
 11
-4.59424
 21
-36.7539
  0
LINE
  8
0
 10
-4.59424
 20
-36.7539
 11
-4.52365
 21
-37.124
  0
LINE
  8
0
 10
-4.52365
 20
-37.124
 11
-4.5
 21
-37.5
  0
LINE
  8
0
 10
-4.5
 20
-37.5
 11
-4.52365
 21
-37.876
  0
LINE
  8
0
 10
-4.52365
 20
-37.876
 11
-4.59424
 21
-38.2461
  0
LINE
  8
0
 10
-4.59424
 20
-38.2461
 11
-4.71066
 21
-38.6044
  0
LINE
  8
0
 10
-4.71066
 20
-38.6044
 11
-4.87108
 21
-38.9453
  0
LINE
  8
0
 10
-4.87108
 20
-38.9453
 11
-5.07294
 21
-39.2634
  0
LINE
  8
0
 10
-5.07294
 20
-39.2634
 11
-5.31308
 21
-39.5536
  0
LINE
  8
0
 10
-5.31308
 20
-39.5536
 11
-5.58772
 21
-39.8115
  0
LINE
  8
0
 10
-5.58772
 20
-39.8115
 11
-5.89252
 21
-40.033
  0
LINE
  8
0
 10
-5.89252
 20
-40.033
 11
-6.22266
 21
-40.2145
  0
LINE
  8
0
 10
-6.22266
 20
-40.2145
 11
-6.57294
 21
-40.3532
  0
LINE
  8
0
 10
-6.57294
 20
-40.3532
 11
-6.93785
 21
-40.4469
  0
LINE
  8
0
 10
-6.93785
 20
-40.4469
 11
-7.31161
 21
-40.4941
  0
LINE
  8
0
 10
-7.31161
 20
-40.4941
 11
-7.68837
 21
-40.4941
  0
LINE
  8
0
 10
22.3116
 20
-40.4941
 11
21.9379
 21
-40.4469
  0
LINE
  8
0
 10
21.9379
 20
-40.4469
 11
21.5729
 21
-40.3532
  0
LINE
  8
0
 10
21.5729
 20
-40.3532
 11
21.2227
 21
-40.2145
  0
LINE
  8
0
 10
21.2227
 20
-40.2145
 11
20.8925
 21
-40.033
  0
LINE
  8
0
 10
20.8925
 20
-40.033
 11
20.5877
 21
-39.8115
  0
LINE
  8
0
 10
20.5877
 20
-39.8115
 11
20.3131
 21
-39.5536
  0
LINE
  8
0
 10
20.3131
 20
-39.5536
 11
20.0729
 21
-39.2634
  0
LINE
  8
0
 10
20.0729
 20
-39.2634
 11
19.8711
 21
-38.9453
  0
LINE
  8
0
 10
19.8711
 20
-38.9453
 11
19.7107
 21
-38.6044
  0
LINE
  8
0
 10
19.7107
 20
-38.6044
 11
19.5942
 21
-38.2461
  0
LINE
  8
0
 10
19.5942
 20
-38.2461
 11
19.5237
 21
-37.876
  0
LINE
  8
0
 10
19.5237
 20
-37.876
 11
19.5
 21
-37.5
  0
LINE
  8
0
 10
19.5
 20
-37.5
 11
19.5237
 21
-37.124
  0
LINE
  8
0
 10
19.5237
 20
-37.124
 11
19.5942
 21
-36.7539
  0
LINE
  8
0
 10
19.5942
 20
-36.7539
 11
19.7107
 21
-36.3956
  0
LINE
  8
0
 10
19.7107
 20
-36.3956
 11
19.8711
 21
-36.0547
  0
LINE
  8
0
 10
19.8711
 20
-36.0547
 11
20.0729
 21
-35.7366
  0
LINE
  8
0
 10
20.0729
 20
-35.7366
 11
20.3131
 21
-35.4464
  0
LINE
  8
0
 10
20.3131
 20
-35.4464
 11
20.5877
 21
-35.1885
  0
LINE
  8
0
 10
20.5877
 20
-35.1885
 11
20.8925
 21
-34.967
  0
LINE
  8
0
 10
20.8925
 20
-34.967
 11
21.2227
 21
-34.7855
  0
LINE
  8
0
 10
21.2227
 20
-34.7855
 11
21.5729
 21
-34.6468
  0
LINE
  8
0
 10
21.5729
 20
-34.6468
 11
21.9379
 21
-34.5531
  0
LINE
  8
0
 10
21.9379
 20
-34.5531
 11
22.3116
 21
-34.5059
  0
LINE
  8
0
 10
22.3116
 20
-34.5059
 11
22.6884
 21
-34.5059
  0
LINE
  8
0
 10
22.6884
 20
-34.5059
 11
23.0621
 21
-34.5531
  0
LINE
  8
0
 10
23.0621
 20
-34.5531
 11
23.427
 21
-34.6468
  0
LINE
  8
0
 10
23.427
 20
-34.6468
 11
23.7773
 21
-34.7855
  0
LINE
  8
0
 10
23.7773
 20
-34.7855
 11
24.1075
 21
-34.967
  0
LINE
  8
0
 10
24.1075
 20
-34.967
 11
24.4123
 21
-35.1885
  0
LINE
  8
0
 10
24.4123
 20
-35.1885
 11
24.6869
 21
-35.4464
  0
LINE
  8
0
 10
24.6869
 20
-35.4464
 11
24.927
 21
-35.7366
  0
LINE
  8
0
 10
24.927
 20
-35.7366
 11
25.1289
 21
-36.0547
  0
LINE
  8
0
 10
25.1289
 20
-36.0547
 11
25.2893
 21
-36.3956
  0
LINE
  8
0
 10
25.2893
 20
-36.3956
 11
25.4057
 21
-36.7539
  0
LINE
  8
0
 10
25.4057
 20
-36.7539
 11
25.4763
 21
-37.124
  0
LINE
  8
0
 10
25.4763
 20
-37.124
 11
25.5
 21
-37.5
  0
LINE
  8
0
 10
25.5
 20
-37.5
 11
25.4763
 21
-37.876
  0
LINE
  8
0
 10
25.4763
 20
-37.876
 11
25.4057
 21
-38.2461
  0
LINE
  8
0
 10
25.4057
 20
-38.2461
 11
25.2893
 21
-38.6044
  0
LINE
  8
0
 10
25.2893
 20
-38.6044
 11
25.1289
 21
-38.9453
  0
LINE
  8
0
 10
25.1289
 20
-38.9453
 11
24.927
 21
-39.2634
  0
LINE
  8
0
 10
24.927
 20
-39.2634
 11
24.6869
 21
-39.5536
  0
LINE
  8
0
 10
24.6869
 20
-39.5536
 11
24.4123
 21
-39.8115
  0
LINE
  8
0
 10
24.4123
 20
-39.8115
 11
24.1075
 21
-40.033
  0
LINE
  8
0
 10
24.1075
 20
-40.033
 11
23.7773
 21
-40.2145
  0
LINE
  8
0
 10
23.7773
 20
-40.2145
 11
23.427
 21
-40.3532
  0
LINE
  8
0
 10
23.427
 20
-40.3532
 11
23.0621
 21
-40.4469
  0
LINE
  8
0
 10
23.0621
 20
-40.4469
 11
22.6884
 21
-40.4941
  0
LINE
  8
0
 10
22.6884
 20
-40.4941
 11
22.3116
 21
-40.4941
  0
LINE
  8
0
 10
67.3116
 20
-40.4941
 11
66.9379
 21
-40.4469
  0
LINE
  8
0
 10
66.9379
 20
-40.4469
 11
66.573
 21
-40.3532
  0
LINE
  8
0
 10
66.573
 20
-40.3532
 11
66.2227
 21
-40.2145
  0
LINE
  8
0
 10
66.2227
 20
-40.2145
 11
65.8925
 21
-40.033
  0
LINE
  8
0
 10
65.8925
 20
-40.033
 11
65.5877
 21
-39.8115
  0
LINE
  8
0
 10
65.5877
 20
-39.8115
 11
65.3131
 21
-39.5536
  0
LINE
  8
0
 10
65.3131
 20
-39.5536
 11
65.073
 21
-39.2634
  0
LINE
  8
0
 10
65.073
 20
-39.2634
 11
64.8711
 21
-38.9453
  0
LINE
  8
0
 10
64.8711
 20
-38.9453
 11
64.7107
 21
-38.6044
  0
LINE
  8
0
 10
64.7107
 20
-38.6044
 11
64.5943
 21
-38.2461
  0
LINE
  8
0
 10
64.5943
 20
-38.2461
 11
64.5237
 21
-37.876
  0
LINE
  8
0
 10
64.5237
 20
-37.876
 11
64.5
 21
-37.5
  0
LINE
  8
0
 10
64.5
 20
-37.5
 11
64.5237
 21
-37.124
  0
LINE
  8
0
 10
64.5237
 20
-37.124
 11
64.5943
 21
-36.7539
  0
LINE
  8
0
 10
64.5943
 20
-36.7539
 11
64.7107
 21
-36.3956
  0
LINE
  8
0
 10
64.7107
 20
-36.3956
 11
64.8711
 21
-36.0547
  0
LINE
  8
0
 10
64.8711
 20
-36.0547
 11
65.073
 21
-35.7366
  0
LINE
  8
0
 10
65.073
 20
-35.7366
 11
65.3131
 21
-35.4464
  0
LINE
  8
0
 10
65.3131
 20
-35.4464
 11
65.5877
 21
-35.1885
  0
LINE
  8
0
 10
65.5877
 20
-35.1885
 11
65.8925
 21
-34.967
  0
LINE
  8
0
 10
65.8925
 20
-34.967
 11
66.2227
 21
-34.7855
  0
LINE
  8
0
 10
66.2227
 20
-34.7855
 11
66.573
 21
-34.6468
  0
LINE
  8
0
 10
66.573
 20
-34.6468
 11
66.9379
 21
-34.5531
  0
LINE
  8
0
 10
66.9379
 20
-34.5531
 11
67.3116
 21
-34.5059
  0
LINE
  8
0
 10
67.3116
 20
-34.5059
 11
67.6884
 21
-34.5059
  0
LINE
  8
0
 10
67.6884
 20
-34.5059
 11
68.0621
 21
-34.5531
  0
LINE
  8
0
 10
68.0621
 20
-34.5531
 11
68.427
 21
-34.6468
  0
LINE
  8
0
 10
68.427
 20
-34.6468
 11
68.7773
 21
-34.7855
  0
LINE
  8
0
 10
68.7773
 20
-34.7855
 11
69.1075
 21
-34.967
  0
LINE
  8
0
 10
69.1075
 20
-34.967
 11
69.4123
 21
-35.1885
  0
LINE
  8
0
 10
69.4123
 20
-35.1885
 11
69.6869
 21
-35.4464
  0
LINE
  8
0
 10
69.6869
 20
-35.4464
 11
69.927
 21
-35.7366
  0
LINE
  8
0
 10
69.927
 20
-35.7366
 11
70.1289
 21
-36.0547
  0
LINE
  8
0
 10
70.1289
 20
-36.0547
 11
70.2893
 21
-36.3956
  0
LINE
  8
0
 10
70.2893
 20
-36.3956
 11
70.4057
 21
-36.7539
  0
LINE
  8
0
 10
70.4057
 20
-36.7539
 11
70.4763
 21
-37.124
  0
LINE
  8
0
 10
70.4763
 20
-37.124
 11
70.5
 21
-37.5
  0
LINE
  8
0
 10
70.5
 20
-37.5
 11
70.4763
 21
-37.876
  0
LINE
  8
0
 10
70.4763
 20
-37.876
 11
70.4057
 21
-38.2461
  0
LINE
  8
0
 10
70.4057
 20
-38.2461
 11
70.2893
 21
-38.6044
  0
LINE
  8
0
 10
70.2893
 20
-38.6044
 11
70.1289
 21
-38.9453
  0
LINE
  8
0
 10
70.1289
 20
-38.9453
 11
69.927
 21
-39.2634
  0
LINE
  8
0
 10
69.927
 20
-39.2634
 11
69.6869
 21
-39.5536
  0
LINE
  8
0
 10
69.6869
 20
-39.5536
 11
69.4123
 21
-39.8115
  0
LINE
  8
0
 10
69.4123
 20
-39.8115
 11
69.1075
 21
-40.033
  0
LINE
  8
0
 10
69.1075
 20
-40.033
 11
68.7773
 21
-40.2145
  0
LINE
  8
0
 10
68.7773
 20
-40.2145
 11
68.427
 21
-40.3532
  0
LINE
  8
0
 10
68.427
 20
-40.3532
 11
68.0621
 21
-40.4469
  0
LINE
  8
0
 10
68.0621
 20
-40.4469
 11
67.6884
 21
-40.4941
  0
LINE
  8
0
 10
67.6884
 20
-40.4941
 11
67.3116
 21
-40.4941
  0
LINE
  8
0
 10
52.3116
 20
-40.4941
 11
51.9379
 21
-40.4469
  0
LINE
  8
0
 10
51.9379
 20
-40.4469
 11
51.5729
 21
-40.3532
  0
LINE
  8
0
 10
51.5729
 20
-40.3532
 11
51.2227
 21
-40.2145
  0
LINE
  8
0
 10
51.2227
 20
-40.2145
 11
50.8925
 21
-40.033
  0
LINE
  8
0
 10
50.8925
 20
-40.033
 11
50.5877
 21
-39.8115
  0
LINE
  8
0
 10
50.5877
 20
-39.8115
 11
50.3131
 21
-39.5536
  0
LINE
  8
0
 10
50.3131
 20
-39.5536
 11
50.0729
 21
-39.2634
  0
LINE
  8
0
 10
50.0729
 20
-39.2634
 11
49.8711
 21
-38.9453
  0
LINE
  8
0
 10
49.8711
 20
-38.9453
 11
49.7107
 21
-38.6044
  0
LINE
  8
0
 10
49.7107
 20
-38.6044
 11
49.5942
 21
-38.2461
  0
LINE
  8
0
 10
49.5942
 20
-38.2461
 11
49.5237
 21
-37.876
  0
LINE
  8
0
 10
49.5237
 20
-37.876
 11
49.5
 21
-37.5
  0
LINE
  8
0
 10
49.5
 20
-37.5
 11
49.5237
 21
-37.124
  0
LINE
  8
0
 10
49.5237
 20
-37.124
 11
49.5942
 21
-36.7539
  0
LINE
  8
0
 10
49.5942
 20
-36.7539
 11
49.7107
 21
-36.3956
  0
LINE
  8
0
 10
49.7107
 20
-36.3956
 11
49.8711
 21
-36.0547
  0
LINE
  8
0
 10
49.8711
 20
-36.0547
 11
50.0729
 21
-35.7366
  0
LINE
  8
0
 10
50.0729
 20
-35.7366
 11
50.3131
 21
-35.4464
  0
LINE
  8
0
 10
50.3131
 20
-35.4464
 11
50.5877
 21
-35.1885
  0
LINE
  8
0
 10
50.5877
 20
-35.1885
 11
50.8925
 21
-34.967
  0
LINE
  8
0
 10
50.8925
 20
-34.967
 11
51.2227
 21
-34.7855
  0
LINE
  8
0
 10
51.2227
 20
-34.7855
 11
51.5729
 21
-34.6468
  0
LINE
  8
0
 10
51.5729
 20
-34.6468
 11
51.9379
 21
-34.5531
  0
LINE
  8
0
 10
51.9379
 20
-34.5531
 11
52.3116
 21
-34.5059
  0
LINE
  8
0
 10
52.3116
 20
-34.5059
 11
52.6884
 21
-34.5059
  0
LINE
  8
0
 10
52.6884
 20
-34.5059
 11
53.0621
 21
-34.5531
  0
LINE
  8
0
 10
53.0621
 20
-34.5531
 11
53.427
 21
-34.6468
  0
LINE
  8
0
 10
53.427
 20
-34.6468
 11
53.7773
 21
-34.7855
  0
LINE
  8
0
 10
53.7773
 20
-34.7855
 11
54.1075
 21
-34.967
  0
LINE
  8
0
 10
54.1075
 20
-34.967
 11
54.4123
 21
-35.1885
  0
LINE
  8
0
 10
54.4123
 20
-35.1885
 11
54.6869
 21
-35.4464
  0
LINE
  8
0
 10
54.6869
 20
-35.4464
 11
54.927
 21
-35.7366
  0
LINE
  8
0
 10
54.927
 20
-35.7366
 11
55.1289
 21
-36.0547
  0
LINE
  8
0
 10
55.1289
 20
-36.0547
 11
55.2893
 21
-36.3956
  0
LINE
  8
0
 10
55.2893
 20
-36.3956
 11
55.4057
 21
-36.7539
  0
LINE
  8
0
 10
55.4057
 20
-36.7539
 11
55.4763
 21
-37.124
  0
LINE
  8
0
 10
55.4763
 20
-37.124
 11
55.5
 21
-37.5
  0
LINE
  8
0
 10
55.5
 20
-37.5
 11
55.4763
 21
-37.876
  0
LINE
  8
0
 10
55.4763
 20
-37.876
 11
55.4057
 21
-38.2461
  0
LINE
  8
0
 10
55.4057
 20
-38.2461
 11
55.2893
 21
-38.6044
  0
LINE
  8
0
 10
55.2893
 20
-38.6044
 11
55.1289
 21
-38.9453
  0
LINE
  8
0
 10
55.1289
 20
-38.9453
 11
54.927
 21
-39.2634
  0
LINE
  8
0
 10
54.927
 20
-39.2634
 11
54.6869
 21
-39.5536
  0
LINE
  8
0
 10
54.6869
 20
-39.5536
 11
54.4123
 21
-39.8115
  0
LINE
  8
0
 10
54.4123
 20
-39.8115
 11
54.1075
 21
-40.033
  0
LINE
  8
0
 10
54.1075
 20
-40.033
 11
53.7773
 21
-40.2145
  0
LINE
  8
0
 10
53.7773
 20
-40.2145
 11
53.427
 21
-40.3532
  0
LINE
  8
0
 10
53.427
 20
-40.3532
 11
53.0621
 21
-40.4469
  0
LINE
  8
0
 10
53.0621
 20
-40.4469
 11
52.6884
 21
-40.4941
  0
LINE
  8
0
 10
52.6884
 20
-40.4941
 11
52.3116
 21
-40.4941
  0
LINE
  8
0
 10
59.9058
 20
-38.997
 11
59.7189
 21
-38.9734
  0
LINE
  8
0
 10
59.7189
 20
-38.9734
 11
59.5365
 21
-38.9266
  0
LINE
  8
0
 10
59.5365
 20
-38.9266
 11
59.3613
 21
-38.8572
  0
LINE
  8
0
 10
59.3613
 20
-38.8572
 11
59.1963
 21
-38.7665
  0
LINE
  8
0
 10
59.1963
 20
-38.7665
 11
59.0439
 21
-38.6558
  0
LINE
  8
0
 10
59.0439
 20
-38.6558
 11
58.9065
 21
-38.5268
  0
LINE
  8
0
 10
58.9065
 20
-38.5268
 11
58.7865
 21
-38.3817
  0
LINE
  8
0
 10
58.7865
 20
-38.3817
 11
58.6855
 21
-38.2226
  0
LINE
  8
0
 10
58.6855
 20
-38.2226
 11
58.6053
 21
-38.0522
  0
LINE
  8
0
 10
58.6053
 20
-38.0522
 11
58.5471
 21
-37.873
  0
LINE
  8
0
 10
58.5471
 20
-37.873
 11
58.5118
 21
-37.688
  0
LINE
  8
0
 10
58.5118
 20
-37.688
 11
58.5
 21
-37.5
  0
LINE
  8
0
 10
58.5
 20
-37.5
 11
58.5118
 21
-37.312
  0
LINE
  8
0
 10
58.5118
 20
-37.312
 11
58.5471
 21
-37.127
  0
LINE
  8
0
 10
58.5471
 20
-37.127
 11
58.6053
 21
-36.9478
  0
LINE
  8
0
 10
58.6053
 20
-36.9478
 11
58.6855
 21
-36.7774
  0
LINE
  8
0
 10
58.6855
 20
-36.7774
 11
58.7865
 21
-36.6183
  0
LINE
  8
0
 10
58.7865
 20
-36.6183
 11
58.9065
 21
-36.4732
  0
LINE
  8
0
 10
58.9065
 20
-36.4732
 11
59.0439
 21
-36.3442
  0
LINE
  8
0
 10
59.0439
 20
-36.3442
 11
59.1963
 21
-36.2335
  0
LINE
  8
0
 10
59.1963
 20
-36.2335
 11
59.3613
 21
-36.1428
  0
LINE
  8
0
 10
59.3613
 20
-36.1428
 11
59.5365
 21
-36.0734
  0
LINE
  8
0
 10
59.5365
 20
-36.0734
 11
59.7189
 21
-36.0266
  0
LINE
  8
0
 10
59.7189
 20
-36.0266
 11
59.9058
 21
-36.003
  0
LINE
  8
0
 10
59.9058
 20
-36.003
 11
60.0942
 21
-36.003
  0
LINE
  8
0
 10
60.0942
 20
-36.003
 11
60.2811
 21
-36.0266
  0
LINE
  8
0
 10
60.2811
 20
-36.0266
 11
60.4635
 21
-36.0734
  0
LINE
  8
0
 10
60.4635
 20
-36.0734
 11
60.6387
 21
-36.1428
  0
LINE
  8
0
 10
60.6387
 20
-36.1428
 11
60.8037
 21
-36.2335
  0
LINE
  8
0
 10
60.8037
 20
-36.2335
 11
60.9561
 21
-36.3442
  0
LINE
  8
0
 10
60.9561
 20
-36.3442
 11
61.0934
 21
-36.4732
  0
LINE
  8
0
 10
61.0934
 20
-36.4732
 11
61.2135
 21
-36.6183
  0
LINE
  8
0
 10
61.2135
 20
-36.6183
 11
61.3145
 21
-36.7774
  0
LINE
  8
0
 10
61.3145
 20
-36.7774
 11
61.3947
 21
-36.9478
  0
LINE
  8
0
 10
61.3947
 20
-36.9478
 11
61.4529
 21
-37.127
  0
LINE
  8
0
 10
61.4529
 20
-37.127
 11
61.4882
 21
-37.312
  0
LINE
  8
0
 10
61.4882
 20
-37.312
 11
61.5
 21
-37.5
  0
LINE
  8
0
 10
61.5
 20
-37.5
 11
61.4882
 21
-37.688
  0
LINE
  8
0
 10
61.4882
 20
-37.688
 11
61.4529
 21
-37.873
  0
LINE
  8
0
 10
61.4529
 20
-37.873
 11
61.3947
 21
-38.0522
  0
LINE
  8
0
 10
61.3947
 20
-38.0522
 11
61.3145
 21
-38.2226
  0
LINE
  8
0
 10
61.3145
 20
-38.2226
 11
61.2135
 21
-38.3817
  0
LINE
  8
0
 10
61.2135
 20
-38.3817
 11
61.0934
 21
-38.5268
  0
LINE
  8
0
 10
61.0934
 20
-38.5268
 11
60.9561
 21
-38.6558
  0
LINE
  8
0
 10
60.9561
 20
-38.6558
 11
60.8037
 21
-38.7665
  0
LINE
  8
0
 10
60.8037
 20
-38.7665
 11
60.6387
 21
-38.8572
  0
LINE
  8
0
 10
60.6387
 20
-38.8572
 11
60.4635
 21
-38.9266
  0
LINE
  8
0
 10
60.4635
 20
-38.9266
 11
60.2811
 21
-38.9734
  0
LINE
  8
0
 10
60.2811
 20
-38.9734
 11
60.0942
 21
-38.997
  0
LINE
  8
0
 10
60.0942
 20
-38.997
 11
59.9058
 21
-38.997
  0
LINE
  8
0
 10
-0.0941772
 20
-38.997
 11
-0.281067
 21
-38.9734
  0
LINE
  8
0
 10
-0.281067
 20
-38.9734
 11
-0.463516
 21
-38.9266
  0
LINE
  8
0
 10
-0.463516
 20
-38.9266
 11
-0.638657
 21
-38.8572
  0
LINE
  8
0
 10
-0.638657
 20
-38.8572
 11
-0.803726
 21
-38.7665
  0
LINE
  8
0
 10
-0.803726
 20
-38.7665
 11
-0.956131
 21
-38.6558
  0
LINE
  8
0
 10
-0.956131
 20
-38.6558
 11
-1.09344
 21
-38.5268
  0
LINE
  8
0
 10
-1.09344
 20
-38.5268
 11
-1.21352
 21
-38.3817
  0
LINE
  8
0
 10
-1.21352
 20
-38.3817
 11
-1.31445
 21
-38.2226
  0
LINE
  8
0
 10
-1.31445
 20
-38.2226
 11
-1.39465
 21
-38.0522
  0
LINE
  8
0
 10
-1.39465
 20
-38.0522
 11
-1.45287
 21
-37.873
  0
LINE
  8
0
 10
-1.45287
 20
-37.873
 11
-1.48816
 21
-37.688
  0
LINE
  8
0
 10
-1.48816
 20
-37.688
 11
-1.5
 21
-37.5
  0
LINE
  8
0
 10
-1.5
 20
-37.5
 11
-1.48816
 21
-37.312
  0
LINE
  8
0
 10
-1.48816
 20
-37.312
 11
-1.45287
 21
-37.127
  0
LINE
  8
0
 10
-1.45287
 20
-37.127
 11
-1.39465
 21
-36.9478
  0
LINE
  8
0
 10
-1.39465
 20
-36.9478
 11
-1.31445
 21
-36.7774
  0
LINE
  8
0
 10
-1.31445
 20
-36.7774
 11
-1.21352
 21
-36.6183
  0
LINE
  8
0
 10
-1.21352
 20
-36.6183
 11
-1.09344
 21
-36.4732
  0
LINE
  8
0
 10
-1.09344
 20
-36.4732
 11
-0.956131
 21
-36.3442
  0
LINE
  8
0
 10
-0.956131
 20
-36.3442
 11
-0.803726
 21
-36.2335
  0
LINE
  8
0
 10
-0.803726
 20
-36.2335
 11
-0.638657
 21
-36.1428
  0
LINE
  8
0
 10
-0.638657
 20
-36.1428
 11
-0.463516
 21
-36.0734
  0
LINE
  8
0
 10
-0.463516
 20
-36.0734
 11
-0.281067
 21
-36.0266
  0
LINE
  8
0
 10
-0.281067
 20
-36.0266
 11
-0.0941772
 21
-36.003
  0
LINE
  8
0
 10
-0.0941772
 20
-36.003
 11
0.0941772
 21
-36.003
  0
LINE
  8
0
 10
0.0941772
 20
-36.003
 11
0.281067
 21
-36.0266
  0
LINE
  8
0
 10
0.281067
 20
-36.0266
 11
0.463516
 21
-36.0734
  0
LINE
  8
0
 10
0.463516
 20
-36.0734
 11
0.638657
 21
-36.1428
  0
LINE
  8
0
 10
0.638657
 20
-36.1428
 11
0.803726
 21
-36.2335
  0
LINE
  8
0
 10
0.803726
 20
-36.2335
 11
0.956131
 21
-36.3442
  0
LINE
  8
0
 10
0.956131
 20
-36.3442
 11
1.09344
 21
-36.4732
  0
LINE
  8
0
 10
1.09344
 20
-36.4732
 11
1.21352
 21
-36.6183
  0
LINE
  8
0
 10
1.21352
 20
-36.6183
 11
1.31445
 21
-36.7774
  0
LINE
  8
0
 10
1.31445
 20
-36.7774
 11
1.39465
 21
-36.9478
  0
LINE
  8
0
 10
1.39465
 20
-36.9478
 11
1.45287
 21
-37.127
  0
LINE
  8
0
 10
1.45287
 20
-37.127
 11
1.48816
 21
-37.312
  0
LINE
  8
0
 10
1.48816
 20
-37.312
 11
1.5
 21
-37.5
  0
LINE
  8
0
 10
1.5
 20
-37.5
 11
1.48816
 21
-37.688
  0
LINE
  8
0
 10
1.48816
 20
-37.688
 11
1.45287
 21
-37.873
  0
LINE
  8
0
 10
1.45287
 20
-37.873
 11
1.39465
 21
-38.0522
  0
LINE
  8
0
 10
1.39465
 20
-38.0522
 11
1.31445
 21
-38.2226
  0
LINE
  8
0
 10
1.31445
 20
-38.2226
 11
1.21352
 21
-38.3817
  0
LINE
  8
0
 10
1.21352
 20
-38.3817
 11
1.09344
 21
-38.5268
  0
LINE
  8
0
 10
1.09344
 20
-38.5268
 11
0.956131
 21
-38.6558
  0
LINE
  8
0
 10
0.956131
 20
-38.6558
 11
0.803726
 21
-38.7665
  0
LINE
  8
0
 10
0.803726
 20
-38.7665
 11
0.638657
 21
-38.8572
  0
LINE
  8
0
 10
0.638657
 20
-38.8572
 11
0.463516
 21
-38.9266
  0
LINE
  8
0
 10
0.463516
 20
-38.9266
 11
0.281067
 21
-38.9734
  0
LINE
  8
0
 10
0.281067
 20
-38.9734
 11
0.0941772
 21
-38.997
  0
LINE
  8
0
 10
0.0941772
 20
-38.997
 11
-0.0941772
 21
-38.997
  0
LINE
  8
0
 10
-45.0942
 20
-38.997
 11
-45.2811
 21
-38.9734
  0
LINE
  8
0
 10
-45.2811
 20
-38.9734
 11
-45.4635
 21
-38.9266
  0
LINE
  8
0
 10
-45.4635
 20
-38.9266
 11
-45.6387
 21
-38.8572
  0
LINE
  8
0
 10
-45.6387
 20
-38.8572
 11
-45.8037
 21
-38.7665
  0
LINE
  8
0
 10
-45.8037
 20
-38.7665
 11
-45.9561
 21
-38.6558
  0
LINE
  8
0
 10
-45.9561
 20
-38.6558
 11
-46.0934
 21
-38.5268
  0
LINE
  8
0
 10
-46.0934
 20
-38.5268
 11
-46.2135
 21
-38.3817
  0
LINE
  8
0
 10
-46.2135
 20
-38.3817
 11
-46.3145
 21
-38.2226
  0
LINE
  8
0
 10
-46.3145
 20
-38.2226
 11
-46.3947
 21
-38.0522
  0
LINE
  8
0
 10
-46.3947
 20
-38.0522
 11
-46.4529
 21
-37.873
  0
LINE
  8
0
 10
-46.4529
 20
-37.873
 11
-46.4882
 21
-37.688
  0
LINE
  8
0
 10
-46.4882
 20
-37.688
 11
-46.5
 21
-37.5
  0
LINE
  8
0
 10
-46.5
 20
-37.5
 11
-46.4882
 21
-37.312
  0
LINE
  8
0
 10
-46.4882
 20
-37.312
 11
-46.4529
 21
-37.127
  0
LINE
  8
0
 10
-46.4529
 20
-37.127
 11
-46.3947
 21
-36.9478
  0
LINE
  8
0
 10
-46.3947
 20
-36.9478
 11
-46.3145
 21
-36.7774
  0
LINE
  8
0
 10
-46.3145
 20
-36.7774
 11
-46.2135
 21
-36.6183
  0
LINE
  8
0
 10
-46.2135
 20
-36.6183
 11
-46.0934
 21
-36.4732
  0
LINE
  8
0
 10
-46.0934
 20
-36.4732
 11
-45.9561
 21
-36.3442
  0
LINE
  8
0
 10
-45.9561
 20
-36.3442
 11
-45.8037
 21
-36.2335
  0
LINE
  8
0
 10
-45.8037
 20
-36.2335
 11
-45.6387
 21
-36.1428
  0
LINE
  8
0
 10
-45.6387
 20
-36.1428
 11
-45.4635
 21
-36.0734
  0
LINE
  8
0
 10
-45.4635
 20
-36.0734
 11
-45.2811
 21
-36.0266
  0
LINE
  8
0
 10
-45.2811
 20
-36.0266
 11
-45.0942
 21
-36.003
  0
LINE
  8
0
 10
-45.0942
 20
-36.003
 11
-44.9058
 21
-36.003
  0
LINE
  8
0
 10
-44.9058
 20
-36.003
 11
-44.7189
 21
-36.0266
  0
LINE
  8
0
 10
-44.7189
 20
-36.0266
 11
-44.5365
 21
-36.0734
  0
LINE
  8
0
 10
-44.5365
 20
-36.0734
 11
-44.3613
 21
-36.1428
  0
LINE
  8
0
 10
-44.3613
 20
-36.1428
 11
-44.1963
 21
-36.2335
  0
LINE
  8
0
 10
-44.1963
 20
-36.2335
 11
-44.0439
 21
-36.3442
  0
LINE
  8
0
 10
-44.0439
 20
-36.3442
 11
-43.9065
 21
-36.4732
  0
LINE
  8
0
 10
-43.9065
 20
-36.4732
 11
-43.7865
 21
-36.6183
  0
LINE
  8
0
 10
-43.7865
 20
-36.6183
 11
-43.6855
 21
-36.7774
  0
LINE
  8
0
 10
-43.6855
 20
-36.7774
 11
-43.6053
 21
-36.9478
  0
LINE
  8
0
 10
-43.6053
 20
-36.9478
 11
-43.5471
 21
-37.127
  0
LINE
  8
0
 10
-43.5471
 20
-37.127
 11
-43.5118
 21
-37.312
  0
LINE
  8
0
 10
-43.5118
 20
-37.312
 11
-43.5
 21
-37.5
  0
LINE
  8
0
 10
-43.5
 20
-37.5
 11
-43.5118
 21
-37.688
  0
LINE
  8
0
 10
-43.5118
 20
-37.688
 11
-43.5471
 21
-37.873
  0
LINE
  8
0
 10
-43.5471
 20
-37.873
 11
-43.6053
 21
-38.0522
  0
LINE
  8
0
 10
-43.6053
 20
-38.0522
 11
-43.6855
 21
-38.2226
  0
LINE
  8
0
 10
-43.6855
 20
-38.2226
 11
-43.7865
 21
-38.3817
  0
LINE
  8
0
 10
-43.7865
 20
-38.3817
 11
-43.9065
 21
-38.5268
  0
LINE
  8
0
 10
-43.9065
 20
-38.5268
 11
-44.0439
 21
-38.6558
  0
LINE
  8
0
 10
-44.0439
 20
-38.6558
 11
-44.1963
 21
-38.7665
  0
LINE
  8
0
 10
-44.1963
 20
-38.7665
 11
-44.3613
 21
-38.8572
  0
LINE
  8
0
 10
-44.3613
 20
-38.8572
 11
-44.5365
 21
-38.9266
  0
LINE
  8
0
 10
-44.5365
 20
-38.9266
 11
-44.7189
 21
-38.9734
  0
LINE
  8
0
 10
-44.7189
 20
-38.9734
 11
-44.9058
 21
-38.997
  0
LINE
  8
0
 10
-44.9058
 20
-38.997
 11
-45.0942
 21
-38.997
  0
LINE
  8
0
 10
14.9058
 20
-38.997
 11
14.7189
 21
-38.9734
  0
LINE
  8
0
 10
14.7189
 20
-38.9734
 11
14.5365
 21
-38.9266
  0
LINE
  8
0
 10
14.5365
 20
-38.9266
 11
14.3613
 21
-38.8572
  0
LINE
  8
0
 10
14.3613
 20
-38.8572
 11
14.1963
 21
-38.7665
  0
LINE
  8
0
 10
14.1963
 20
-38.7665
 11
14.0439
 21
-38.6558
  0
LINE
  8
0
 10
14.0439
 20
-38.6558
 11
13.9065
 21
-38.5268
  0
LINE
  8
0
 10
13.9065
 20
-38.5268
 11
13.7865
 21
-38.3817
  0
LINE
  8
0
 10
13.7865
 20
-38.3817
 11
13.6855
 21
-38.2226
  0
LINE
  8
0
 10
13.6855
 20
-38.2226
 11
13.6053
 21
-38.0522
  0
LINE
  8
0
 10
13.6053
 20
-38.0522
 11
13.5471
 21
-37.873
  0
LINE
  8
0
 10
13.5471
 20
-37.873
 11
13.5118
 21
-37.688
  0
LINE
  8
0
 10
13.5118
 20
-37.688
 11
13.5
 21
-37.5
  0
LINE
  8
0
 10
13.5
 20
-37.5
 11
13.5118
 21
-37.312
  0
LINE
  8
0
 10
13.5118
 20
-37.312
 11
13.5471
 21
-37.127
  0
LINE
  8
0
 10
13.5471
 20
-37.127
 11
13.6053
 21
-36.9478
  0
LINE
  8
0
 10
13.6053
 20
-36.9478
 11
13.6855
 21
-36.7774
  0
LINE
  8
0
 10
13.6855
 20
-36.7774
 11
13.7865
 21
-36.6183
  0
LINE
  8
0
 10
13.7865
 20
-36.6183
 11
13.9065
 21
-36.4732
  0
LINE
  8
0
 10
13.9065
 20
-36.4732
 11
14.0439
 21
-36.3442
  0
LINE
  8
0
 10
14.0439
 20
-36.3442
 11
14.1963
 21
-36.2335
  0
LINE
  8
0
 10
14.1963
 20
-36.2335
 11
14.3613
 21
-36.1428
  0
LINE
  8
0
 10
14.3613
 20
-36.1428
 11
14.5365
 21
-36.0734
  0
LINE
  8
0
 10
14.5365
 20
-36.0734
 11
14.7189
 21
-36.0266
  0
LINE
  8
0
 10
14.7189
 20
-36.0266
 11
14.9058
 21
-36.003
  0
LINE
  8
0
 10
14.9058
 20
-36.003
 11
15.0942
 21
-36.003
  0
LINE
  8
0
 10
15.0942
 20
-36.003
 11
15.2811
 21
-36.0266
  0
LINE
  8
0
 10
15.2811
 20
-36.0266
 11
15.4635
 21
-36.0734
  0
LINE
  8
0
 10
15.4635
 20
-36.0734
 11
15.6387
 21
-36.1428
  0
LINE
  8
0
 10
15.6387
 20
-36.1428
 11
15.8037
 21
-36.2335
  0
LINE
  8
0
 10
15.8037
 20
-36.2335
 11
15.9561
 21
-36.3442
  0
LINE
  8
0
 10
15.9561
 20
-36.3442
 11
16.0934
 21
-36.4732
  0
LINE
  8
0
 10
16.0934
 20
-36.4732
 11
16.2135
 21
-36.6183
  0
LINE
  8
0
 10
16.2135
 20
-36.6183
 11
16.3145
 21
-36.7774
  0
LINE
  8
0
 10
16.3145
 20
-36.7774
 11
16.3947
 21
-36.9478
  0
LINE
  8
0
 10
16.3947
 20
-36.9478
 11
16.4529
 21
-37.127
  0
LINE
  8
0
 10
16.4529
 20
-37.127
 11
16.4882
 21
-37.312
  0
LINE
  8
0
 10
16.4882
 20
-37.312
 11
16.5
 21
-37.5
  0
LINE
  8
0
 10
16.5
 20
-37.5
 11
16.4882
 21
-37.688
  0
LINE
  8
0
 10
16.4882
 20
-37.688
 11
16.4529
 21
-37.873
  0
LINE
  8
0
 10
16.4529
 20
-37.873
 11
16.3947
 21
-38.0522
  0
LINE
  8
0
 10
16.3947
 20
-38.0522
 11
16.3145
 21
-38.2226
  0
LINE
  8
0
 10
16.3145
 20
-38.2226
 11
16.2135
 21
-38.3817
  0
LINE
  8
0
 10
16.2135
 20
-38.3817
 11
16.0934
 21
-38.5268
  0
LINE
  8
0
 10
16.0934
 20
-38.5268
 11
15.9561
 21
-38.6558
  0
LINE
  8
0
 10
15.9561
 20
-38.6558
 11
15.8037
 21
-38.7665
  0
LINE
  8
0
 10
15.8037
 20
-38.7665
 11
15.6387
 21
-38.8572
  0
LINE
  8
0
 10
15.6387
 20
-38.8572
 11
15.4635
 21
-38.9266
  0
LINE
  8
0
 10
15.4635
 20
-38.9266
 11
15.2811
 21
-38.9734
  0
LINE
  8
0
 10
15.2811
 20
-38.9734
 11
15.0942
 21
-38.997
  0
LINE
  8
0
 10
15.0942
 20
-38.997
 11
14.9058
 21
-38.997
  0
LINE
  8
0
 10
29.9058
 20
-38.997
 11
29.7189
 21
-38.9734
  0
LINE
  8
0
 10
29.7189
 20
-38.9734
 11
29.5365
 21
-38.9266
  0
LINE
  8
0
 10
29.5365
 20
-38.9266
 11
29.3613
 21
-38.8572
  0
LINE
  8
0
 10
29.3613
 20
-38.8572
 11
29.1963
 21
-38.7665
  0
LINE
  8
0
 10
29.1963
 20
-38.7665
 11
29.0439
 21
-38.6558
  0
LINE
  8
0
 10
29.0439
 20
-38.6558
 11
28.9065
 21
-38.5268
  0
LINE
  8
0
 10
28.9065
 20
-38.5268
 11
28.7865
 21
-38.3817
  0
LINE
  8
0
 10
28.7865
 20
-38.3817
 11
28.6855
 21
-38.2226
  0
LINE
  8
0
 10
28.6855
 20
-38.2226
 11
28.6053
 21
-38.0522
  0
LINE
  8
0
 10
28.6053
 20
-38.0522
 11
28.5471
 21
-37.873
  0
LINE
  8
0
 10
28.5471
 20
-37.873
 11
28.5118
 21
-37.688
  0
LINE
  8
0
 10
28.5118
 20
-37.688
 11
28.5
 21
-37.5
  0
LINE
  8
0
 10
28.5
 20
-37.5
 11
28.5118
 21
-37.312
  0
LINE
  8
0
 10
28.5118
 20
-37.312
 11
28.5471
 21
-37.127
  0
LINE
  8
0
 10
28.5471
 20
-37.127
 11
28.6053
 21
-36.9478
  0
LINE
  8
0
 10
28.6053
 20
-36.9478
 11
28.6855
 21
-36.7774
  0
LINE
  8
0
 10
28.6855
 20
-36.7774
 11
28.7865
 21
-36.6183
  0
LINE
  8
0
 10
28.7865
 20
-36.6183
 11
28.9065
 21
-36.4732
  0
LINE
  8
0
 10
28.9065
 20
-36.4732
 11
29.0439
 21
-36.3442
  0
LINE
  8
0
 10
29.0439
 20
-36.3442
 11
29.1963
 21
-36.2335
  0
LINE
  8
0
 10
29.1963
 20
-36.2335
 11
29.3613
 21
-36.1428
  0
LINE
  8
0
 10
29.3613
 20
-36.1428
 11
29.5365
 21
-36.0734
  0
LINE
  8
0
 10
29.5365
 20
-36.0734
 11
29.7189
 21
-36.0266
  0
LINE
  8
0
 10
29.7189
 20
-36.0266
 11
29.9058
 21
-36.003
  0
LINE
  8
0
 10
29.9058
 20
-36.003
 11
30.0942
 21
-36.003
  0
LINE
  8
0
 10
30.0942
 20
-36.003
 11
30.2811
 21
-36.0266
  0
LINE
  8
0
 10
30.2811
 20
-36.0266
 11
30.4635
 21
-36.0734
  0
LINE
  8
0
 10
30.4635
 20
-36.0734
 11
30.6387
 21
-36.1428
  0
LINE
  8
0
 10
30.6387
 20
-36.1428
 11
30.8037
 21
-36.2335
  0
LINE
  8
0
 10
30.8037
 20
-36.2335
 11
30.9561
 21
-36.3442
  0
LINE
  8
0
 10
30.9561
 20
-36.3442
 11
31.0934
 21
-36.4732
  0
LINE
  8
0
 10
31.0934
 20
-36.4732
 11
31.2135
 21
-36.6183
  0
LINE
  8
0
 10
31.2135
 20
-36.6183
 11
31.3145
 21
-36.7774
  0
LINE
  8
0
 10
31.3145
 20
-36.7774
 11
31.3947
 21
-36.9478
  0
LINE
  8
0
 10
31.3947
 20
-36.9478
 11
31.4529
 21
-37.127
  0
LINE
  8
0
 10
31.4529
 20
-37.127
 11
31.4882
 21
-37.312
  0
LINE
  8
0
 10
31.4882
 20
-37.312
 11
31.5
 21
-37.5
  0
LINE
  8
0
 10
31.5
 20
-37.5
 11
31.4882
 21
-37.688
  0
LINE
  8
0
 10
31.4882
 20
-37.688
 11
31.4529
 21
-37.873
  0
LINE
  8
0
 10
31.4529
 20
-37.873
 11
31.3947
 21
-38.0522
  0
LINE
  8
0
 10
31.3947
 20
-38.0522
 11
31.3145
 21
-38.2226
  0
LINE
  8
0
 10
31.3145
 20
-38.2226
 11
31.2135
 21
-38.3817
  0
LINE
  8
0
 10
31.2135
 20
-38.3817
 11
31.0934
 21
-38.5268
  0
LINE
  8
0
 10
31.0934
 20
-38.5268
 11
30.9561
 21
-38.6558
  0
LINE
  8
0
 10
30.9561
 20
-38.6558
 11
30.8037
 21
-38.7665
  0
LINE
  8
0
 10
30.8037
 20
-38.7665
 11
30.6387
 21
-38.8572
  0
LINE
  8
0
 10
30.6387
 20
-38.8572
 11
30.4635
 21
-38.9266
  0
LINE
  8
0
 10
30.4635
 20
-38.9266
 11
30.2811
 21
-38.9734
  0
LINE
  8
0
 10
30.2811
 20
-38.9734
 11
30.0942
 21
-38.997
  0
LINE
  8
0
 10
30.0942
 20
-38.997
 11
29.9058
 21
-38.997
  0
LINE
  8
0
 10
-30.0942
 20
-38.997
 11
-30.2811
 21
-38.9734
  0
LINE
  8
0
 10
-30.2811
 20
-38.9734
 11
-30.4635
 21
-38.9266
  0
LINE
  8
0
 10
-30.4635
 20
-38.9266
 11
-30.6387
 21
-38.8572
  0
LINE
  8
0
 10
-30.6387
 20
-38.8572
 11
-30.8037
 21
-38.7665
  0
LINE
  8
0
 10
-30.8037
 20
-38.7665
 11
-30.9561
 21
-38.6558
  0
LINE
  8
0
 10
-30.9561
 20
-38.6558
 11
-31.0934
 21
-38.5268
  0
LINE
  8
0
 10
-31.0934
 20
-38.5268
 11
-31.2135
 21
-38.3817
  0
LINE
  8
0
 10
-31.2135
 20
-38.3817
 11
-31.3145
 21
-38.2226
  0
LINE
  8
0
 10
-31.3145
 20
-38.2226
 11
-31.3947
 21
-38.0522
  0
LINE
  8
0
 10
-31.3947
 20
-38.0522
 11
-31.4529
 21
-37.873
  0
LINE
  8
0
 10
-31.4529
 20
-37.873
 11
-31.4882
 21
-37.688
  0
LINE
  8
0
 10
-31.4882
 20
-37.688
 11
-31.5
 21
-37.5
  0
LINE
  8
0
 10
-31.5
 20
-37.5
 11
-31.4882
 21
-37.312
  0
LINE
  8
0
 10
-31.4882
 20
-37.312
 11
-31.4529
 21
-37.127
  0
LINE
  8
0
 10
-31.4529
 20
-37.127
 11
-31.3947
 21
-36.9478
  0
LINE
  8
0
 10
-31.3947
 20
-36.9478
 11
-31.3145
 21
-36.7774
  0
LINE
  8
0
 10
-31.3145
 20
-36.7774
 11
-31.2135
 21
-36.6183
  0
LINE
  8
0
 10
-31.2135
 20
-36.6183
 11
-31.0934
 21
-36.4732
  0
LINE
  8
0
 10
-31.0934
 20
-36.4732
 11
-30.9561
 21
-36.3442
  0
LINE
  8
0
 10
-30.9561
 20
-36.3442
 11
-30.8037
 21
-36.2335
  0
LINE
  8
0
 10
-30.8037
 20
-36.2335
 11
-30.6387
 21
-36.1428
  0
LINE
  8
0
 10
-30.6387
 20
-36.1428
 11
-30.4635
 21
-36.0734
  0
LINE
  8
0
 10
-30.4635
 20
-36.0734
 11
-30.2811
 21
-36.0266
  0
LINE
  8
0
 10
-30.2811
 20
-36.0266
 11
-30.0942
 21
-36.003
  0
LINE
  8
0
 10
-30.0942
 20
-36.003
 11
-29.9058
 21
-36.003
  0
LINE
  8
0
 10
-29.9058
 20
-36.003
 11
-29.7189
 21
-36.0266
  0
LINE
  8
0
 10
-29.7189
 20
-36.0266
 11
-29.5365
 21
-36.0734
  0
LINE
  8
0
 10
-29.5365
 20
-36.0734
 11
-29.3613
 21
-36.1428
  0
LINE
  8
0
 10
-29.3613
 20
-36.1428
 11
-29.1963
 21
-36.2335
  0
LINE
  8
0
 10
-29.1963
 20
-36.2335
 11
-29.0439
 21
-36.3442
  0
LINE
  8
0
 10
-29.0439
 20
-36.3442
 11
-28.9065
 21
-36.4732
  0
LINE
  8
0
 10
-28.9065
 20
-36.4732
 11
-28.7865
 21
-36.6183
  0
LINE
  8
0
 10
-28.7865
 20
-36.6183
 11
-28.6855
 21
-36.7774
  0
LINE
  8
0
 10
-28.6855
 20
-36.7774
 11
-28.6053
 21
-36.9478
  0
LINE
  8
0
 10
-28.6053
 20
-36.9478
 11
-28.5471
 21
-37.127
  0
LINE
  8
0
 10
-28.5471
 20
-37.127
 11
-28.5118
 21
-37.312
  0
LINE
  8
0
 10
-28.5118
 20
-37.312
 11
-28.5
 21
-37.5
  0
LINE
  8
0
 10
-28.5
 20
-37.5
 11
-28.5118
 21
-37.688
  0
LINE
  8
0
 10
-28.5118
 20
-37.688
 11
-28.5471
 21
-37.873
  0
LINE
  8
0
 10
-28.5471
 20
-37.873
 11
-28.6053
 21
-38.0522
  0
LINE
  8
0
 10
-28.6053
 20
-38.0522
 11
-28.6855
 21
-38.2226
  0
LINE
  8
0
 10
-28.6855
 20
-38.2226
 11
-28.7865
 21
-38.3817
  0
LINE
  8
0
 10
-28.7865
 20
-38.3817
 11
-28.9065
 21
-38.5268
  0
LINE
  8
0
 10
-28.9065
 20
-38.5268
 11
-29.0439
 21
-38.6558
  0
LINE
  8
0
 10
-29.0439
 20
-38.6558
 11
-29.1963
 21
-38.7665
  0
LINE
  8
0
 10
-29.1963
 20
-38.7665
 11
-29.3613
 21
-38.8572
  0
LINE
  8
0
 10
-29.3613
 20
-38.8572
 11
-29.5365
 21
-38.9266
  0
LINE
  8
0
 10
-29.5365
 20
-38.9266
 11
-29.7189
 21
-38.9734
  0
LINE
  8
0
 10
-29.7189
 20
-38.9734
 11
-29.9058
 21
-38.997
  0
LINE
  8
0
 10
-29.9058
 20
-38.997
 11
-30.0942
 21
-38.997
  0
LINE
  8
0
 10
-15.0942
 20
-38.997
 11
-15.2811
 21
-38.9734
  0
LINE
  8
0
 10
-15.2811
 20
-38.9734
 11
-15.4635
 21
-38.9266
  0
LINE
  8
0
 10
-15.4635
 20
-38.9266
 11
-15.6387
 21
-38.8572
  0
LINE
  8
0
 10
-15.6387
 20
-38.8572
 11
-15.8037
 21
-38.7665
  0
LINE
  8
0
 10
-15.8037
 20
-38.7665
 11
-15.9561
 21
-38.6558
  0
LINE
  8
0
 10
-15.9561
 20
-38.6558
 11
-16.0934
 21
-38.5268
  0
LINE
  8
0
 10
-16.0934
 20
-38.5268
 11
-16.2135
 21
-38.3817
  0
LINE
  8
0
 10
-16.2135
 20
-38.3817
 11
-16.3145
 21
-38.2226
  0
LINE
  8
0
 10
-16.3145
 20
-38.2226
 11
-16.3947
 21
-38.0522
  0
LINE
  8
0
 10
-16.3947
 20
-38.0522
 11
-16.4529
 21
-37.873
  0
LINE
  8
0
 10
-16.4529
 20
-37.873
 11
-16.4882
 21
-37.688
  0
LINE
  8
0
 10
-16.4882
 20
-37.688
 11
-16.5
 21
-37.5
  0
LINE
  8
0
 10
-16.5
 20
-37.5
 11
-16.4882
 21
-37.312
  0
LINE
  8
0
 10
-16.4882
 20
-37.312
 11
-16.4529
 21
-37.127
  0
LINE
  8
0
 10
-16.4529
 20
-37.127
 11
-16.3947
 21
-36.9478
  0
LINE
  8
0
 10
-16.3947
 20
-36.9478
 11
-16.3145
 21
-36.7774
  0
LINE
  8
0
 10
-16.3145
 20
-36.7774
 11
-16.2135
 21
-36.6183
  0
LINE
  8
0
 10
-16.2135
 20
-36.6183
 11
-16.0934
 21
-36.4732
  0
LINE
  8
0
 10
-16.0934
 20
-36.4732
 11
-15.9561
 21
-36.3442
  0
LINE
  8
0
 10
-15.9561
 20
-36.3442
 11
-15.8037
 21
-36.2335
  0
LINE
  8
0
 10
-15.8037
 20
-36.2335
 11
-15.6387
 21
-36.1428
  0
LINE
  8
0
 10
-15.6387
 20
-36.1428
 11
-15.4635
 21
-36.0734
  0
LINE
  8
0
 10
-15.4635
 20
-36.0734
 11
-15.2811
 21
-36.0266
  0
LINE
  8
0
 10
-15.2811
 20
-36.0266
 11
-15.0942
 21
-36.003
  0
LINE
  8
0
 10
-15.0942
 20
-36.003
 11
-14.9058
 21
-36.003
  0
LINE
  8
0
 10
-14.9058
 20
-36.003
 11
-14.7189
 21
-36.0266
  0
LINE
  8
0
 10
-14.7189
 20
-36.0266
 11
-14.5365
 21
-36.0734
  0
LINE
  8
0
 10
-14.5365
 20
-36.0734
 11
-14.3613
 21
-36.1428
  0
LINE
  8
0
 10
-14.3613
 20
-36.1428
 11
-14.1963
 21
-36.2335
  0
LINE
  8
0
 10
-14.1963
 20
-36.2335
 11
-14.0439
 21
-36.3442
  0
LINE
  8
0
 10
-14.0439
 20
-36.3442
 11
-13.9065
 21
-36.4732
  0
LINE
  8
0
 10
-13.9065
 20
-36.4732
 11
-13.7865
 21
-36.6183
  0
LINE
  8
0
 10
-13.7865
 20
-36.6183
 11
-13.6855
 21
-36.7774
  0
LINE
  8
0
 10
-13.6855
 20
-36.7774
 11
-13.6053
 21
-36.9478
  0
LINE
  8
0
 10
-13.6053
 20
-36.9478
 11
-13.5471
 21
-37.127
  0
LINE
  8
0
 10
-13.5471
 20
-37.127
 11
-13.5118
 21
-37.312
  0
LINE
  8
0
 10
-13.5118
 20
-37.312
 11
-13.5
 21
-37.5
  0
LINE
  8
0
 10
-13.5
 20
-37.5
 11
-13.5118
 21
-37.688
  0
LINE
  8
0
 10
-13.5118
 20
-37.688
 11
-13.5471
 21
-37.873
  0
LINE
  8
0
 10
-13.5471
 20
-37.873
 11
-13.6053
 21
-38.0522
  0
LINE
  8
0
 10
-13.6053
 20
-38.0522
 11
-13.6855
 21
-38.2226
  0
LINE
  8
0
 10
-13.6855
 20
-38.2226
 11
-13.7865
 21
-38.3817
  0
LINE
  8
0
 10
-13.7865
 20
-38.3817
 11
-13.9065
 21
-38.5268
  0
LINE
  8
0
 10
-13.9065
 20
-38.5268
 11
-14.0439
 21
-38.6558
  0
LINE
  8
0
 10
-14.0439
 20
-38.6558
 11
-14.1963
 21
-38.7665
  0
LINE
  8
0
 10
-14.1963
 20
-38.7665
 11
-14.3613
 21
-38.8572
  0
LINE
  8
0
 10
-14.3613
 20
-38.8572
 11
-14.5365
 21
-38.9266
  0
LINE
  8
0
 10
-14.5365
 20
-38.9266
 11
-14.7189
 21
-38.9734
  0
LINE
  8
0
 10
-14.7189
 20
-38.9734
 11
-14.9058
 21
-38.997
  0
LINE
  8
0
 10
-14.9058
 20
-38.997
 11
-15.0942
 21
-38.997
  0
LINE
  8
0
 10
-60.0942
 20
-38.997
 11
-60.2811
 21
-38.9734
  0
LINE
  8
0
 10
-60.2811
 20
-38.9734
 11
-60.4635
 21
-38.9266
  0
LINE
  8
0
 10
-60.4635
 20
-38.9266
 11
-60.6387
 21
-38.8572
  0
LINE
  8
0
 10
-60.6387
 20
-38.8572
 11
-60.8037
 21
-38.7665
  0
LINE
  8
0
 10
-60.8037
 20
-38.7665
 11
-60.9561
 21
-38.6558
  0
LINE
  8
0
 10
-60.9561
 20
-38.6558
 11
-61.0934
 21
-38.5268
  0
LINE
  8
0
 10
-61.0934
 20
-38.5268
 11
-61.2135
 21
-38.3817
  0
LINE
  8
0
 10
-61.2135
 20
-38.3817
 11
-61.3145
 21
-38.2226
  0
LINE
  8
0
 10
-61.3145
 20
-38.2226
 11
-61.3947
 21
-38.0522
  0
LINE
  8
0
 10
-61.3947
 20
-38.0522
 11
-61.4529
 21
-37.873
  0
LINE
  8
0
 10
-61.4529
 20
-37.873
 11
-61.4882
 21
-37.688
  0
LINE
  8
0
 10
-61.4882
 20
-37.688
 11
-61.5
 21
-37.5
  0
LINE
  8
0
 10
-61.5
 20
-37.5
 11
-61.4882
 21
-37.312
  0
LINE
  8
0
 10
-61.4882
 20
-37.312
 11
-61.4529
 21
-37.127
  0
LINE
  8
0
 10
-61.4529
 20
-37.127
 11
-61.3947
 21
-36.9478
  0
LINE
  8
0
 10
-61.3947
 20
-36.9478
 11
-61.3145
 21
-36.7774
  0
LINE
  8
0
 10
-61.3145
 20
-36.7774
 11
-61.2135
 21
-36.6183
  0
LINE
  8
0
 10
-61.2135
 20
-36.6183
 11
-61.0934
 21
-36.4732
  0
LINE
  8
0
 10
-61.0934
 20
-36.4732
 11
-60.9561
 21
-36.3442
  0
LINE
  8
0
 10
-60.9561
 20
-36.3442
 11
-60.8037
 21
-36.2335
  0
LINE
  8
0
 10
-60.8037
 20
-36.2335
 11
-60.6387
 21
-36.1428
  0
LINE
  8
0
 10
-60.6387
 20
-36.1428
 11
-60.4635
 21
-36.0734
  0
LINE
  8
0
 10
-60.4635
 20
-36.0734
 11
-60.2811
 21
-36.0266
  0
LINE
  8
0
 10
-60.2811
 20
-36.0266
 11
-60.0942
 21
-36.003
  0
LINE
  8
0
 10
-60.0942
 20
-36.003
 11
-59.9058
 21
-36.003
  0
LINE
  8
0
 10
-59.9058
 20
-36.003
 11
-59.7189
 21
-36.0266
  0
LINE
  8
0
 10
-59.7189
 20
-36.0266
 11
-59.5365
 21
-36.0734
  0
LINE
  8
0
 10
-59.5365
 20
-36.0734
 11
-59.3613
 21
-36.1428
  0
LINE
  8
0
 10
-59.3613
 20
-36.1428
 11
-59.1963
 21
-36.2335
  0
LINE
  8
0
 10
-59.1963
 20
-36.2335
 11
-59.0439
 21
-36.3442
  0
LINE
  8
0
 10
-59.0439
 20
-36.3442
 11
-58.9065
 21
-36.4732
  0
LINE
  8
0
 10
-58.9065
 20
-36.4732
 11
-58.7865
 21
-36.6183
  0
LINE
  8
0
 10
-58.7865
 20
-36.6183
 11
-58.6855
 21
-36.7774
  0
LINE
  8
0
 10
-58.6855
 20
-36.7774
 11
-58.6053
 21
-36.9478
  0
LINE
  8
0
 10
-58.6053
 20
-36.9478
 11
-58.5471
 21
-37.127
  0
LINE
  8
0
 10
-58.5471
 20
-37.127
 11
-58.5118
 21
-37.312
  0
LINE
  8
0
 10
-58.5118
 20
-37.312
 11
-58.5
 21
-37.5
  0
LINE
  8
0
 10
-58.5
 20
-37.5
 11
-58.5118
 21
-37.688
  0
LINE
  8
0
 10
-58.5118
 20
-37.688
 11
-58.5471
 21
-37.873
  0
LINE
  8
0
 10
-58.5471
 20
-37.873
 11
-58.6053
 21
-38.0522
  0
LINE
  8
0
 10
-58.6053
 20
-38.0522
 11
-58.6855
 21
-38.2226
  0
LINE
  8
0
 10
-58.6855
 20
-38.2226
 11
-58.7865
 21
-38.3817
  0
LINE
  8
0
 10
-58.7865
 20
-38.3817
 11
-58.9065
 21
-38.5268
  0
LINE
  8
0
 10
-58.9065
 20
-38.5268
 11
-59.0439
 21
-38.6558
  0
LINE
  8
0
 10
-59.0439
 20
-38.6558
 11
-59.1963
 21
-38.7665
  0
LINE
  8
0
 10
-59.1963
 20
-38.7665
 11
-59.3613
 21
-38.8572
  0
LINE
  8
0
 10
-59.3613
 20
-38.8572
 11
-59.5365
 21
-38.9266
  0
LINE
  8
0
 10
-59.5365
 20
-38.9266
 11
-59.7189
 21
-38.9734
  0
LINE
  8
0
 10
-59.7189
 20
-38.9734
 11
-59.9058
 21
-38.997
  0
LINE
  8
0
 10
-59.9058
 20
-38.997
 11
-60.0942
 21
-38.997
  0
LINE
  8
0
 10
44.9058
 20
-38.997
 11
44.7189
 21
-38.9734
  0
LINE
  8
0
 10
44.7189
 20
-38.9734
 11
44.5365
 21
-38.9266
  0
LINE
  8
0
 10
44.5365
 20
-38.9266
 11
44.3613
 21
-38.8572
  0
LINE
  8
0
 10
44.3613
 20
-38.8572
 11
44.1963
 21
-38.7665
  0
LINE
  8
0
 10
44.1963
 20
-38.7665
 11
44.0439
 21
-38.6558
  0
LINE
  8
0
 10
44.0439
 20
-38.6558
 11
43.9065
 21
-38.5268
  0
LINE
  8
0
 10
43.9065
 20
-38.5268
 11
43.7865
 21
-38.3817
  0
LINE
  8
0
 10
43.7865
 20
-38.3817
 11
43.6855
 21
-38.2226
  0
LINE
  8
0
 10
43.6855
 20
-38.2226
 11
43.6053
 21
-38.0522
  0
LINE
  8
0
 10
43.6053
 20
-38.0522
 11
43.5471
 21
-37.873
  0
LINE
  8
0
 10
43.5471
 20
-37.873
 11
43.5118
 21
-37.688
  0
LINE
  8
0
 10
43.5118
 20
-37.688
 11
43.5
 21
-37.5
  0
LINE
  8
0
 10
43.5
 20
-37.5
 11
43.5118
 21
-37.312
  0
LINE
  8
0
 10
43.5118
 20
-37.312
 11
43.5471
 21
-37.127
  0
LINE
  8
0
 10
43.5471
 20
-37.127
 11
43.6053
 21
-36.9478
  0
LINE
  8
0
 10
43.6053
 20
-36.9478
 11
43.6855
 21
-36.7774
  0
LINE
  8
0
 10
43.6855
 20
-36.7774
 11
43.7865
 21
-36.6183
  0
LINE
  8
0
 10
43.7865
 20
-36.6183
 11
43.9065
 21
-36.4732
  0
LINE
  8
0
 10
43.9065
 20
-36.4732
 11
44.0439
 21
-36.3442
  0
LINE
  8
0
 10
44.0439
 20
-36.3442
 11
44.1963
 21
-36.2335
  0
LINE
  8
0
 10
44.1963
 20
-36.2335
 11
44.3613
 21
-36.1428
  0
LINE
  8
0
 10
44.3613
 20
-36.1428
 11
44.5365
 21
-36.0734
  0
LINE
  8
0
 10
44.5365
 20
-36.0734
 11
44.7189
 21
-36.0266
  0
LINE
  8
0
 10
44.7189
 20
-36.0266
 11
44.9058
 21
-36.003
  0
LINE
  8
0
 10
44.9058
 20
-36.003
 11
45.0942
 21
-36.003
  0
LINE
  8
0
 10
45.0942
 20
-36.003
 11
45.2811
 21
-36.0266
  0
LINE
  8
0
 10
45.2811
 20
-36.0266
 11
45.4635
 21
-36.0734
  0
LINE
  8
0
 10
45.4635
 20
-36.0734
 11
45.6387
 21
-36.1428
  0
LINE
  8
0
 10
45.6387
 20
-36.1428
 11
45.8037
 21
-36.2335
  0
LINE
  8
0
 10
45.8037
 20
-36.2335
 11
45.9561
 21
-36.3442
  0
LINE
  8
0
 10
45.9561
 20
-36.3442
 11
46.0934
 21
-36.4732
  0
LINE
  8
0
 10
46.0934
 20
-36.4732
 11
46.2135
 21
-36.6183
  0
LINE
  8
0
 10
46.2135
 20
-36.6183
 11
46.3145
 21
-36.7774
  0
LINE
  8
0
 10
46.3145
 20
-36.7774
 11
46.3947
 21
-36.9478
  0
LINE
  8
0
 10
46.3947
 20
-36.9478
 11
46.4529
 21
-37.127
  0
LINE
  8
0
 10
46.4529
 20
-37.127
 11
46.4882
 21
-37.312
  0
LINE
  8
0
 10
46.4882
 20
-37.312
 11
46.5
 21
-37.5
  0
LINE
  8
0
 10
46.5
 20
-37.5
 11
46.4882
 21
-37.688
  0
LINE
  8
0
 10
46.4882
 20
-37.688
 11
46.4529
 21
-37.873
  0
LINE
  8
0
 10
46.4529
 20
-37.873
 11
46.3947
 21
-38.0522
  0
LINE
  8
0
 10
46.3947
 20
-38.0522
 11
46.3145
 21
-38.2226
  0
LINE
  8
0
 10
46.3145
 20
-38.2226
 11
46.2135
 21
-38.3817
  0
LINE
  8
0
 10
46.2135
 20
-38.3817
 11
46.0934
 21
-38.5268
  0
LINE
  8
0
 10
46.0934
 20
-38.5268
 11
45.9561
 21
-38.6558
  0
LINE
  8
0
 10
45.9561
 20
-38.6558
 11
45.8037
 21
-38.7665
  0
LINE
  8
0
 10
45.8037
 20
-38.7665
 11
45.6387
 21
-38.8572
  0
LINE
  8
0
 10
45.6387
 20
-38.8572
 11
45.4635
 21
-38.9266
  0
LINE
  8
0
 10
45.4635
 20
-38.9266
 11
45.2811
 21
-38.9734
  0
LINE
  8
0
 10
45.2811
 20
-38.9734
 11
45.0942
 21
-38.997
  0
LINE
  8
0
 10
45.0942
 20
-38.997
 11
44.9058
 21
-38.997
  0
ENDSEC
  0
SECTION
  2
OBJECTS
  0
DICTIONARY
  0
ENDSEC
  0
EOF
