<?xml version="1.0" standalone="no"?>
<!DOCTYPE svg PUBLIC "-//W3C//DTD SVG 1.1//EN" "http://www.w3.org/Graphics/SVG/1.1/DTD/svg11.dtd">
<svg width="150mm" height="134mm" viewBox="-75 -67 150 134" xmlns="http://www.w3.org/2000/svg" version="1.1">
<title>OpenSCAD Model</title>
<path d="
M 70.4369,66.9114 L 71.0451,66.7553 L 71.6289,66.5241 L 72.1791,66.2216 L 72.6871,65.8526 L 73.1448,65.4227
 L 73.5451,64.9389 L 73.8815,64.4088 L 74.1489,63.8406 L 74.3429,63.2434 L 74.4606,62.6267 L 74.5,62
 L 74.5,-62 L 74.4606,-62.6267 L 74.3429,-63.2434 L 74.1489,-63.8406 L 73.8815,-64.4088 L 73.5451,-64.9389
 L 73.1448,-65.4227 L 72.6871,-65.8526 L 72.1791,-66.2216 L 71.6289,-66.5241 L 71.0451,-66.7553 L 70.4369,-66.9114
 L 69.8139,-66.9901 L 65.1861,-66.9901 L 64.5631,-66.9114 L 63.9549,-66.7553 L 63.3711,-66.5241 L 62.8209,-66.2216
 L 62.3129,-65.8526 L 61.8551,-65.4227 L 61.4549,-64.9389 L 61.1185,-64.4088 L 60.8511,-63.8406 L 60.6571,-63.2434
 L 60.5394,-62.6267 L 60.5,-62 L 60.5,53.0099 L -60.5,53.0099 L -60.5,-62 L -60.5394,-62.6267
 L -60.6571,-63.2434 L -60.8511,-63.8406 L -61.1185,-64.4088 L -61.4549,-64.9389 L -61.8551,-65.4227 L -62.3129,-65.8526
 L -62.8209,-66.2216 L -63.3711,-66.5241 L -63.9549,-66.7553 L -64.5631,-66.9114 L -65.1861,-66.9901 L -69.8139,-66.9901
 L -70.4369,-66.9114 L -71.0451,-66.7553 L -71.6289,-66.5241 L -72.1791,-66.2216 L -72.6871,-65.8526 L -73.1448,-65.4227
 L -73.5451,-64.9389 L -73.8815,-64.4088 L -74.1489,-63.8406 L -74.3429,-63.2434 L -74.4606,-62.6267 L -74.5,-62
 L -74.5,62 L -74.4606,62.6267 L -74.3429,63.2434 L -74.1489,63.8406 L -73.8815,64.4088 L -73.5451,64.9389
 L -73.1448,65.4227 L -72.6871,65.8526 L -72.1791,66.2216 L -71.6289,66.5241 L -71.0451,66.7553 L -70.4369,66.9114
 L -69.8139,66.9901 L 69.8139,66.9901 z
M 67.3116,-57.0059 L 66.9379,-57.0531 L 66.573,-57.1468 L 66.2227,-57.2855 L 65.8925,-57.467 L 65.5877,-57.6885
 L 65.3131,-57.9464 L 65.073,-58.2366 L 64.8711,-58.5547 L 64.7107,-58.8956 L 64.5943,-59.2539 L 64.5237,-59.624
 L 64.5,-60 L 64.5237,-60.376 L 64.5943,-60.7461 L 64.7107,-61.1044 L 64.8711,-61.4453 L 65.073,-61.7634
 L 65.3131,-62.0536 L 65.5877,-62.3115 L 65.8925,-62.533 L 66.2227,-62.7145 L 66.573,-62.8532 L 66.9379,-62.9469
 L 67.3116,-62.9941 L 67.6884,-62.9941 L 68.0621,-62.9469 L 68.427,-62.8532 L 68.7773,-62.7145 L 69.1075,-62.533
 L 69.4123,-62.3115 L 69.6869,-62.0536 L 69.927,-61.7634 L 70.1289,-61.4453 L 70.2893,-61.1044 L 70.4057,-60.7461
 L 70.4763,-60.376 L 70.5,-60 L 70.4763,-59.624 L 70.4057,-59.2539 L 70.2893,-58.8956 L 70.1289,-58.5547
 L 69.927,-58.2366 L 69.6869,-57.9464 L 69.4123,-57.6885 L 69.1075,-57.467 L 68.7773,-57.2855 L 68.427,-57.1468
 L 68.0621,-57.0531 L 67.6884,-57.0059 z
M -67.6884,-57.0059 L -68.0621,-57.0531 L -68.427,-57.1468 L -68.7773,-57.2855 L -69.1075,-57.467 L -69.4123,-57.6885
 L -69.6869,-57.9464 L -69.927,-58.2366 L -70.1289,-58.5547 L -70.2893,-58.8956 L -70.4057,-59.2539 L -70.4763,-59.624
 L -70.5,-60 L -70.4763,-60.376 L -70.4057,-60.7461 L -70.2893,-61.1044 L -70.1289,-61.4453 L -69.927,-61.7634
 L -69.6869,-62.0536 L -69.4123,-62.3115 L -69.1075,-62.533 L -68.7773,-62.7145 L -68.427,-62.8532 L -68.0621,-62.9469
 L -67.6884,-62.9941 L -67.3116,-62.9941 L -66.9379,-62.9469 L -66.573,-62.8532 L -66.2227,-62.7145 L -65.8925,-62.533
 L -65.5877,-62.3115 L -65.3131,-62.0536 L -65.073,-61.7634 L -64.8711,-61.4453 L -64.7107,-61.1044 L -64.5943,-60.7461
 L -64.5237,-60.376 L -64.5,-60 L -64.5237,-59.624 L -64.5943,-59.2539 L -64.7107,-58.8956 L -64.8711,-58.5547
 L -65.073,-58.2366 L -65.3131,-57.9464 L -65.5877,-57.6885 L -65.8925,-57.467 L -66.2227,-57.2855 L -66.573,-57.1468
 L -66.9379,-57.0531 L -67.3116,-57.0059 z
M -67.5942,-51.003 L -67.7811,-51.0266 L -67.9635,-51.0734 L -68.1387,-51.1428 L -68.3037,-51.2335 L -68.4561,-51.3442
 L -68.5934,-51.4732 L -68.7135,-51.6183 L -68.8145,-51.7774 L -68.8947,-51.9478 L -68.9529,-52.127 L -68.9882,-52.312
 L -69,-52.5 L -68.9882,-52.688 L -68.9529,-52.873 L -68.8947,-53.0522 L -68.8145,-53.2226 L -68.7135,-53.3817
 L -68.5934,-53.5268 L -68.4561,-53.6558 L -68.3037,-53.7665 L -68.1387,-53.8572 L -67.9635,-53.9266 L -67.7811,-53.9734
 L -67.5942,-53.997 L -67.4058,-53.997 L -67.2189,-53.9734 L -67.0365,-53.9266 L -66.8613,-53.8572 L -66.6963,-53.7665
 L -66.5439,-53.6558 L -66.4065,-53.5268 L -66.2865,-53.3817 L -66.1855,-53.2226 L -66.1053,-53.0522 L -66.0471,-52.873
 L -66.0118,-52.688 L -66,-52.5 L -66.0118,-52.312 L -66.0471,-52.127 L -66.1053,-51.9478 L -66.1855,-51.7774
 L -66.2865,-51.6183 L -66.4065,-51.4732 L -66.5439,-51.3442 L -66.6963,-51.2335 L -66.8613,-51.1428 L -67.0365,-51.0734
 L -67.2189,-51.0266 L -67.4058,-51.003 z
M 67.4058,-51.003 L 67.2189,-51.0266 L 67.0365,-51.0734 L 66.8613,-51.1428 L 66.6963,-51.2335 L 66.5439,-51.3442
 L 66.4065,-51.4732 L 66.2865,-51.6183 L 66.1855,-51.7774 L 66.1053,-51.9478 L 66.0471,-52.127 L 66.0118,-52.312
 L 66,-52.5 L 66.0118,-52.688 L 66.0471,-52.873 L 66.1053,-53.0522 L 66.1855,-53.2226 L 66.2865,-53.3817
 L 66.4065,-53.5268 L 66.5439,-53.6558 L 66.6963,-53.7665 L 66.8613,-53.8572 L 67.0365,-53.9266 L 67.2189,-53.9734
 L 67.4058,-53.997 L 67.5942,-53.997 L 67.7811,-53.9734 L 67.9635,-53.9266 L 68.1387,-53.8572 L 68.3037,-53.7665
 L 68.4561,-53.6558 L 68.5934,-53.5268 L 68.7135,-53.3817 L 68.8145,-53.2226 L 68.8947,-53.0522 L 68.9529,-52.873
 L 68.9882,-52.688 L 69,-52.5 L 68.9882,-52.312 L 68.9529,-52.127 L 68.8947,-51.9478 L 68.8145,-51.7774
 L 68.7135,-51.6183 L 68.5934,-51.4732 L 68.4561,-51.3442 L 68.3037,-51.2335 L 68.1387,-51.1428 L 67.9635,-51.0734
 L 67.7811,-51.0266 L 67.5942,-51.003 z
M -67.6884,-42.0059 L -68.0621,-42.0531 L -68.427,-42.1468 L -68.7773,-42.2855 L -69.1075,-42.467 L -69.4123,-42.6885
 L -69.6869,-42.9464 L -69.927,-43.2366 L -70.1289,-43.5547 L -70.2893,-43.8956 L -70.4057,-44.2539 L -70.4763,-44.624
 L -70.5,-45 L -70.4763,-45.376 L -70.4057,-45.7461 L -70.2893,-46.1044 L -70.1289,-46.4453 L -69.927,-46.7634
 L -69.6869,-47.0536 L -69.4123,-47.3115 L -69.1075,-47.533 L -68.7773,-47.7145 L -68.427,-47.8532 L -68.0621,-47.9469
 L -67.6884,-47.9941 L -67.3116,-47.9941 L -66.9379,-47.9469 L -66.573,-47.8532 L -66.2227,-47.7145 L -65.8925,-47.533
 L -65.5877,-47.3115 L -65.3131,-47.0536 L -65.073,-46.7634 L -64.8711,-46.4453 L -64.7107,-46.1044 L -64.5943,-45.7461
 L -64.5237,-45.376 L -64.5,-45 L -64.5237,-44.624 L -64.5943,-44.2539 L -64.7107,-43.8956 L -64.8711,-43.5547
 L -65.073,-43.2366 L -65.3131,-42.9464 L -65.5877,-42.6885 L -65.8925,-42.467 L -66.2227,-42.2855 L -66.573,-42.1468
 L -66.9379,-42.0531 L -67.3116,-42.0059 z
M 67.3116,-42.0059 L 66.9379,-42.0531 L 66.573,-42.1468 L 66.2227,-42.2855 L 65.8925,-42.467 L 65.5877,-42.6885
 L 65.3131,-42.9464 L 65.073,-43.2366 L 64.8711,-43.5547 L 64.7107,-43.8956 L 64.5943,-44.2539 L 64.5237,-44.624
 L 64.5,-45 L 64.5237,-45.376 L 64.5943,-45.7461 L 64.7107,-46.1044 L 64.8711,-46.4453 L 65.073,-46.7634
 L 65.3131,-47.0536 L 65.5877,-47.3115 L 65.8925,-47.533 L 66.2227,-47.7145 L 66.573,-47.8532 L 66.9379,-47.9469
 L 67.3116,-47.9941 L 67.6884,-47.9941 L 68.0621,-47.9469 L 68.427,-47.8532 L 68.7773,-47.7145 L 69.1075,-47.533
 L 69.4123,-47.3115 L 69.6869,-47.0536 L 69.927,-46.7634 L 70.1289,-46.4453 L 70.2893,-46.1044 L 70.4057,-45.7461
 L 70.4763,-45.376 L 70.5,-45 L 70.4763,-44.624 L 70.4057,-44.2539 L 70.2893,-43.8956 L 70.1289,-43.5547
 L 69.927,-43.2366 L 69.6869,-42.9464 L 69.4123,-42.6885 L 69.1075,-42.467 L 68.7773,-42.2855 L 68.427,-42.1468
 L 68.0621,-42.0531 L 67.6884,-42.0059 z
M 67.4058,-36.003 L 67.2189,-36.0266 L 67.0365,-36.0734 L 66.8613,-36.1428 L 66.6963,-36.2335 L 66.5439,-36.3442
 L 66.4065,-36.4732 L 66.2865,-36.6183 L 66.1855,-36.7774 L 66.1053,-36.9478 L 66.0471,-37.127 L 66.0118,-37.312
 L 66,-37.5 L 66.0118,-37.688 L 66.0471,-37.873 L 66.1053,-38.0522 L 66.1855,-38.2226 L 66.2865,-38.3817
 L 66.4065,-38.5268 L 66.5439,-38.6558 L 66.6963,-38.7665 L 66.8613,-38.8572 L 67.0365,-38.9266 L 67.2189,-38.9734
 L 67.4058,-38.997 L 67.5942,-38.997 L 67.7811,-38.9734 L 67.9635,-38.9266 L 68.1387,-38.8572 L 68.3037,-38.7665
 L 68.4561,-38.6558 L 68.5934,-38.5268 L 68.7135,-38.3817 L 68.8145,-38.2226 L 68.8947,-38.0522 L 68.9529,-37.873
 L 68.9882,-37.688 L 69,-37.5 L 68.9882,-37.312 L 68.9529,-37.127 L 68.8947,-36.9478 L 68.8145,-36.7774
 L 68.7135,-36.6183 L 68.5934,-36.4732 L 68.4561,-36.3442 L 68.3037,-36.2335 L 68.1387,-36.1428 L 67.9635,-36.0734
 L 67.7811,-36.0266 L 67.5942,-36.003 z
M -67.5942,-36.003 L -67.7811,-36.0266 L -67.9635,-36.0734 L -68.1387,-36.1428 L -68.3037,-36.2335 L -68.4561,-36.3442
 L -68.5934,-36.4732 L -68.7135,-36.6183 L -68.8145,-36.7774 L -68.8947,-36.9478 L -68.9529,-37.127 L -68.9882,-37.312
 L -69,-37.5 L -68.9882,-37.688 L -68.9529,-37.873 L -68.8947,-38.0522 L -68.8145,-38.2226 L -68.7135,-38.3817
 L -68.5934,-38.5268 L -68.4561,-38.6558 L -68.3037,-38.7665 L -68.1387,-38.8572 L -67.9635,-38.9266 L -67.7811,-38.9734
 L -67.5942,-38.997 L -67.4058,-38.997 L -67.2189,-38.9734 L -67.0365,-38.9266 L -66.8613,-38.8572 L -66.6963,-38.7665
 L -66.5439,-38.6558 L -66.4065,-38.5268 L -66.2865,-38.3817 L -66.1855,-38.2226 L -66.1053,-38.0522 L -66.0471,-37.873
 L -66.0118,-37.688 L -66,-37.5 L -66.0118,-37.312 L -66.0471,-37.127 L -66.1053,-36.9478 L -66.1855,-36.7774
 L -66.2865,-36.6183 L -66.4065,-36.4732 L -66.5439,-36.3442 L -66.6963,-36.2335 L -66.8613,-36.1428 L -67.0365,-36.0734
 L -67.2189,-36.0266 L -67.4058,-36.003 z
M -67.6884,-27.0059 L -68.0621,-27.0531 L -68.427,-27.1468 L -68.7773,-27.2855 L -69.1075,-27.467 L -69.4123,-27.6884
 L -69.6869,-27.9464 L -69.927,-28.2366 L -70.1289,-28.5547 L -70.2893,-28.8956 L -70.4057,-29.2539 L -70.4763,-29.624
 L -70.5,-30 L -70.4763,-30.376 L -70.4057,-30.7461 L -70.2893,-31.1044 L -70.1289,-31.4453 L -69.927,-31.7634
 L -69.6869,-32.0536 L -69.4123,-32.3115 L -69.1075,-32.533 L -68.7773,-32.7145 L -68.427,-32.8532 L -68.0621,-32.9469
 L -67.6884,-32.9941 L -67.3116,-32.9941 L -66.9379,-32.9469 L -66.573,-32.8532 L -66.2227,-32.7145 L -65.8925,-32.533
 L -65.5877,-32.3115 L -65.3131,-32.0536 L -65.073,-31.7634 L -64.8711,-31.4453 L -64.7107,-31.1044 L -64.5943,-30.7461
 L -64.5237,-30.376 L -64.5,-30 L -64.5237,-29.624 L -64.5943,-29.2539 L -64.7107,-28.8956 L -64.8711,-28.5547
 L -65.073,-28.2366 L -65.3131,-27.9464 L -65.5877,-27.6884 L -65.8925,-27.467 L -66.2227,-27.2855 L -66.573,-27.1468
 L -66.9379,-27.0531 L -67.3116,-27.0059 z
M 67.3116,-27.0059 L 66.9379,-27.0531 L 66.573,-27.1468 L 66.2227,-27.2855 L 65.8925,-27.467 L 65.5877,-27.6884
 L 65.3131,-27.9464 L 65.073,-28.2366 L 64.8711,-28.5547 L 64.7107,-28.8956 L 64.5943,-29.2539 L 64.5237,-29.624
 L 64.5,-30 L 64.5237,-30.376 L 64.5943,-30.7461 L 64.7107,-31.1044 L 64.8711,-31.4453 L 65.073,-31.7634
 L 65.3131,-32.0536 L 65.5877,-32.3115 L 65.8925,-32.533 L 66.2227,-32.7145 L 66.573,-32.8532 L 66.9379,-32.9469
 L 67.3116,-32.9941 L 67.6884,-32.9941 L 68.0621,-32.9469 L 68.427,-32.8532 L 68.7773,-32.7145 L 69.1075,-32.533
 L 69.4123,-32.3115 L 69.6869,-32.0536 L 69.927,-31.7634 L 70.1289,-31.4453 L 70.2893,-31.1044 L 70.4057,-30.7461
 L 70.4763,-30.376 L 70.5,-30 L 70.4763,-29.624 L 70.4057,-29.2539 L 70.2893,-28.8956 L 70.1289,-28.5547
 L 69.927,-28.2366 L 69.6869,-27.9464 L 69.4123,-27.6884 L 69.1075,-27.467 L 68.7773,-27.2855 L 68.427,-27.1468
 L 68.0621,-27.0531 L 67.6884,-27.0059 z
M 67.4058,-21.003 L 67.2189,-21.0266 L 67.0365,-21.0734 L 66.8613,-21.1427 L 66.6963,-21.2335 L 66.5439,-21.3442
 L 66.4065,-21.4732 L 66.2865,-21.6183 L 66.1855,-21.7774 L 66.1053,-21.9478 L 66.0471,-22.127 L 66.0118,-22.312
 L 66,-22.5 L 66.0118,-22.688 L 66.0471,-22.873 L 66.1053,-23.0522 L 66.1855,-23.2226 L 66.2865,-23.3817
 L 66.4065,-23.5268 L 66.5439,-23.6558 L 66.6963,-23.7665 L 66.8613,-23.8572 L 67.0365,-23.9266 L 67.2189,-23.9734
 L 67.4058,-23.997 L 67.5942,-23.997 L 67.7811,-23.9734 L 67.9635,-23.9266 L 68.1387,-23.8572 L 68.3037,-23.7665
 L 68.4561,-23.6558 L 68.5934,-23.5268 L 68.7135,-23.3817 L 68.8145,-23.2226 L 68.8947,-23.0522 L 68.9529,-22.873
 L 68.9882,-22.688 L 69,-22.5 L 68.9882,-22.312 L 68.9529,-22.127 L 68.8947,-21.9478 L 68.8145,-21.7774
 L 68.7135,-21.6183 L 68.5934,-21.4732 L 68.4561,-21.3442 L 68.3037,-21.2335 L 68.1387,-21.1427 L 67.9635,-21.0734
 L 67.7811,-21.0266 L 67.5942,-21.003 z
M -67.5942,-21.003 L -67.7811,-21.0266 L -67.9635,-21.0734 L -68.1387,-21.1427 L -68.3037,-21.2335 L -68.4561,-21.3442
 L -68.5934,-21.4732 L -68.7135,-21.6183 L -68.8145,-21.7774 L -68.8947,-21.9478 L -68.9529,-22.127 L -68.9882,-22.312
 L -69,-22.5 L -68.9882,-22.688 L -68.9529,-22.873 L -68.8947,-23.0522 L -68.8145,-23.2226 L -68.7135,-23.3817
 L -68.5934,-23.5268 L -68.4561,-23.6558 L -68.3037,-23.7665 L -68.1387,-23.8572 L -67.9635,-23.9266 L -67.7811,-23.9734
 L -67.5942,-23.997 L -67.4058,-23.997 L -67.2189,-23.9734 L -67.0365,-23.9266 L -66.8613,-23.8572 L -66.6963,-23.7665
 L -66.5439,-23.6558 L -66.4065,-23.5268 L -66.2865,-23.3817 L -66.1855,-23.2226 L -66.1053,-23.0522 L -66.0471,-22.873
 L -66.0118,-22.688 L -66,-22.5 L -66.0118,-22.312 L -66.0471,-22.127 L -66.1053,-21.9478 L -66.1855,-21.7774
 L -66.2865,-21.6183 L -66.4065,-21.4732 L -66.5439,-21.3442 L -66.6963,-21.2335 L -66.8613,-21.1427 L -67.0365,-21.0734
 L -67.2189,-21.0266 L -67.4058,-21.003 z
M 67.3116,-12.0059 L 66.9379,-12.0531 L 66.573,-12.1468 L 66.2227,-12.2855 L 65.8925,-12.467 L 65.5877,-12.6884
 L 65.3131,-12.9464 L 65.073,-13.2366 L 64.8711,-13.5547 L 64.7107,-13.8956 L 64.5943,-14.2539 L 64.5237,-14.624
 L 64.5,-15 L 64.5237,-15.376 L 64.5943,-15.7461 L 64.7107,-16.1044 L 64.8711,-16.4453 L 65.073,-16.7634
 L 65.3131,-17.0536 L 65.5877,-17.3115 L 65.8925,-17.533 L 66.2227,-17.7145 L 66.573,-17.8532 L 66.9379,-17.9469
 L 67.3116,-17.9941 L 67.6884,-17.9941 L 68.0621,-17.9469 L 68.427,-17.8532 L 68.7773,-17.7145 L 69.1075,-17.533
 L 69.4123,-17.3115 L 69.6869,-17.0536 L 69.927,-16.7634 L 70.1289,-16.4453 L 70.2893,-16.1044 L 70.4057,-15.7461
 L 70.4763,-15.376 L 70.5,-15 L 70.4763,-14.624 L 70.4057,-14.2539 L 70.2893,-13.8956 L 70.1289,-13.5547
 L 69.927,-13.2366 L 69.6869,-12.9464 L 69.4123,-12.6884 L 69.1075,-12.467 L 68.7773,-12.2855 L 68.427,-12.1468
 L 68.0621,-12.0531 L 67.6884,-12.0059 z
M -67.6884,-12.0059 L -68.0621,-12.0531 L -68.427,-12.1468 L -68.7773,-12.2855 L -69.1075,-12.467 L -69.4123,-12.6884
 L -69.6869,-12.9464 L -69.927,-13.2366 L -70.1289,-13.5547 L -70.2893,-13.8956 L -70.4057,-14.2539 L -70.4763,-14.624
 L -70.5,-15 L -70.4763,-15.376 L -70.4057,-15.7461 L -70.2893,-16.1044 L -70.1289,-16.4453 L -69.927,-16.7634
 L -69.6869,-17.0536 L -69.4123,-17.3115 L -69.1075,-17.533 L -68.7773,-17.7145 L -68.427,-17.8532 L -68.0621,-17.9469
 L -67.6884,-17.9941 L -67.3116,-17.9941 L -66.9379,-17.9469 L -66.573,-17.8532 L -66.2227,-17.7145 L -65.8925,-17.533
 L -65.5877,-17.3115 L -65.3131,-17.0536 L -65.073,-16.7634 L -64.8711,-16.4453 L -64.7107,-16.1044 L -64.5943,-15.7461
 L -64.5237,-15.376 L -64.5,-15 L -64.5237,-14.624 L -64.5943,-14.2539 L -64.7107,-13.8956 L -64.8711,-13.5547
 L -65.073,-13.2366 L -65.3131,-12.9464 L -65.5877,-12.6884 L -65.8925,-12.467 L -66.2227,-12.2855 L -66.573,-12.1468
 L -66.9379,-12.0531 L -67.3116,-12.0059 z
M -67.5942,-6.00294 L -67.7811,-6.02657 L -67.9635,-6.07341 L -68.1387,-6.14275 L -68.3037,-6.23351 L -68.4561,-6.34422
 L -68.5934,-6.47318 L -68.7135,-6.61832 L -68.8145,-6.77736 L -68.8947,-6.9478 L -68.9529,-7.12695 L -68.9882,-7.312
 L -69,-7.5 L -68.9882,-7.68799 L -68.9529,-7.87303 L -68.8947,-8.05219 L -68.8145,-8.22263 L -68.7135,-8.38167
 L -68.5934,-8.52681 L -68.4561,-8.65576 L -68.3037,-8.76648 L -68.1387,-8.85724 L -67.9635,-8.92657 L -67.7811,-8.97342
 L -67.5942,-8.99704 L -67.4058,-8.99704 L -67.2189,-8.97342 L -67.0365,-8.92657 L -66.8613,-8.85724 L -66.6963,-8.76648
 L -66.5439,-8.65576 L -66.4065,-8.52681 L -66.2865,-8.38167 L -66.1855,-8.22263 L -66.1053,-8.05219 L -66.0471,-7.87303
 L -66.0118,-7.68799 L -66,-7.5 L -66.0118,-7.312 L -66.0471,-7.12695 L -66.1053,-6.9478 L -66.1855,-6.77736
 L -66.2865,-6.61832 L -66.4065,-6.47318 L -66.5439,-6.34422 L -66.6963,-6.23351 L -66.8613,-6.14275 L -67.0365,-6.07341
 L -67.2189,-6.02657 L -67.4058,-6.00294 z
M 67.4058,-6.00294 L 67.2189,-6.02657 L 67.0365,-6.07341 L 66.8613,-6.14275 L 66.6963,-6.23351 L 66.5439,-6.34422
 L 66.4065,-6.47318 L 66.2865,-6.61832 L 66.1855,-6.77736 L 66.1053,-6.9478 L 66.0471,-7.12695 L 66.0118,-7.312
 L 66,-7.5 L 66.0118,-7.68799 L 66.0471,-7.87303 L 66.1053,-8.05219 L 66.1855,-8.22263 L 66.2865,-8.38167
 L 66.4065,-8.52681 L 66.5439,-8.65576 L 66.6963,-8.76648 L 66.8613,-8.85724 L 67.0365,-8.92657 L 67.2189,-8.97342
 L 67.4058,-8.99704 L 67.5942,-8.99704 L 67.7811,-8.97342 L 67.9635,-8.92657 L 68.1387,-8.85724 L 68.3037,-8.76648
 L 68.4561,-8.65576 L 68.5934,-8.52681 L 68.7135,-8.38167 L 68.8145,-8.22263 L 68.8947,-8.05219 L 68.9529,-7.87303
 L 68.9882,-7.68799 L 69,-7.5 L 68.9882,-7.312 L 68.9529,-7.12695 L 68.8947,-6.9478 L 68.8145,-6.77736
 L 68.7135,-6.61832 L 68.5934,-6.47318 L 68.4561,-6.34422 L 68.3037,-6.23351 L 68.1387,-6.14275 L 67.9635,-6.07341
 L 67.7811,-6.02657 L 67.5942,-6.00294 z
M -67.6884,2.99408 L -68.0621,2.94685 L -68.427,2.85316 L -68.7773,2.71448 L -69.1075,2.53297 L -69.4123,2.31154
 L -69.6869,2.05363 L -69.927,1.76335 L -70.1289,1.44525 L -70.2893,1.10437 L -70.4057,0.746063 L -70.4763,0.375992
 L -70.5,-0 L -70.4763,-0.375992 L -70.4057,-0.746063 L -70.2893,-1.10437 L -70.1289,-1.44525 L -69.927,-1.76335
 L -69.6869,-2.05363 L -69.4123,-2.31154 L -69.1075,-2.53297 L -68.7773,-2.71448 L -68.427,-2.85316 L -68.0621,-2.94685
 L -67.6884,-2.99408 L -67.3116,-2.99408 L -66.9379,-2.94685 L -66.573,-2.85316 L -66.2227,-2.71448 L -65.8925,-2.53297
 L -65.5877,-2.31154 L -65.3131,-2.05363 L -65.073,-1.76335 L -64.8711,-1.44525 L -64.7107,-1.10437 L -64.5943,-0.746063
 L -64.5237,-0.375992 L -64.5,-0 L -64.5237,0.375992 L -64.5943,0.746063 L -64.7107,1.10437 L -64.8711,1.44525
 L -65.073,1.76335 L -65.3131,2.05363 L -65.5877,2.31154 L -65.8925,2.53297 L -66.2227,2.71448 L -66.573,2.85316
 L -66.9379,2.94685 L -67.3116,2.99408 z
M 67.3116,2.99408 L 66.9379,2.94685 L 66.573,2.85316 L 66.2227,2.71448 L 65.8925,2.53297 L 65.5877,2.31154
 L 65.3131,2.05363 L 65.073,1.76335 L 64.8711,1.44525 L 64.7107,1.10437 L 64.5943,0.746063 L 64.5237,0.375992
 L 64.5,-0 L 64.5237,-0.375992 L 64.5943,-0.746063 L 64.7107,-1.10437 L 64.8711,-1.44525 L 65.073,-1.76335
 L 65.3131,-2.05363 L 65.5877,-2.31154 L 65.8925,-2.53297 L 66.2227,-2.71448 L 66.573,-2.85316 L 66.9379,-2.94685
 L 67.3116,-2.99408 L 67.6884,-2.99408 L 68.0621,-2.94685 L 68.427,-2.85316 L 68.7773,-2.71448 L 69.1075,-2.53297
 L 69.4123,-2.31154 L 69.6869,-2.05363 L 69.927,-1.76335 L 70.1289,-1.44525 L 70.2893,-1.10437 L 70.4057,-0.746063
 L 70.4763,-0.375992 L 70.5,-0 L 70.4763,0.375992 L 70.4057,0.746063 L 70.2893,1.10437 L 70.1289,1.44525
 L 69.927,1.76335 L 69.6869,2.05363 L 69.4123,2.31154 L 69.1075,2.53297 L 68.7773,2.71448 L 68.427,2.85316
 L 68.0621,2.94685 L 67.6884,2.99408 z
M 67.4058,8.99704 L 67.2189,8.97342 L 67.0365,8.92657 L 66.8613,8.85724 L 66.6963,8.76648 L 66.5439,8.65576
 L 66.4065,8.52681 L 66.2865,8.38167 L 66.1855,8.22263 L 66.1053,8.05219 L 66.0471,7.87303 L 66.0118,7.68799
 L 66,7.5 L 66.0118,7.312 L 66.0471,7.12695 L 66.1053,6.9478 L 66.1855,6.77736 L 66.2865,6.61832
 L 66.4065,6.47318 L 66.5439,6.34422 L 66.6963,6.23351 L 66.8613,6.14275 L 67.0365,6.07341 L 67.2189,6.02657
 L 67.4058,6.00294 L 67.5942,6.00294 L 67.7811,6.02657 L 67.9635,6.07341 L 68.1387,6.14275 L 68.3037,6.23351
 L 68.4561,6.34422 L 68.5934,6.47318 L 68.7135,6.61832 L 68.8145,6.77736 L 68.8947,6.9478 L 68.9529,7.12695
 L 68.9882,7.312 L 69,7.5 L 68.9882,7.68799 L 68.9529,7.87303 L 68.8947,8.05219 L 68.8145,8.22263
 L 68.7135,8.38167 L 68.5934,8.52681 L 68.4561,8.65576 L 68.3037,8.76648 L 68.1387,8.85724 L 67.9635,8.92657
 L 67.7811,8.97342 L 67.5942,8.99704 z
M -67.5942,8.99704 L -67.7811,8.97342 L -67.9635,8.92657 L -68.1387,8.85724 L -68.3037,8.76648 L -68.4561,8.65576
 L -68.5934,8.52681 L -68.7135,8.38167 L -68.8145,8.22263 L -68.8947,8.05219 L -68.9529,7.87303 L -68.9882,7.68799
 L -69,7.5 L -68.9882,7.312 L -68.9529,7.12695 L -68.8947,6.9478 L -68.8145,6.77736 L -68.7135,6.61832
 L -68.5934,6.47318 L -68.4561,6.34422 L -68.3037,6.23351 L -68.1387,6.14275 L -67.9635,6.07341 L -67.7811,6.02657
 L -67.5942,6.00294 L -67.4058,6.00294 L -67.2189,6.02657 L -67.0365,6.07341 L -66.8613,6.14275 L -66.6963,6.23351
 L -66.5439,6.34422 L -66.4065,6.47318 L -66.2865,6.61832 L -66.1855,6.77736 L -66.1053,6.9478 L -66.0471,7.12695
 L -66.0118,7.312 L -66,7.5 L -66.0118,7.68799 L -66.0471,7.87303 L -66.1053,8.05219 L -66.1855,8.22263
 L -66.2865,8.38167 L -66.4065,8.52681 L -66.5439,8.65576 L -66.6963,8.76648 L -66.8613,8.85724 L -67.0365,8.92657
 L -67.2189,8.97342 L -67.4058,8.99704 z
M 67.3116,17.9941 L 66.9379,17.9469 L 66.573,17.8532 L 66.2227,17.7145 L 65.8925,17.533 L 65.5877,17.3115
 L 65.3131,17.0536 L 65.073,16.7634 L 64.8711,16.4453 L 64.7107,16.1044 L 64.5943,15.7461 L 64.5237,15.376
 L 64.5,15 L 64.5237,14.624 L 64.5943,14.2539 L 64.7107,13.8956 L 64.8711,13.5547 L 65.073,13.2366
 L 65.3131,12.9464 L 65.5877,12.6884 L 65.8925,12.467 L 66.2227,12.2855 L 66.573,12.1468 L 66.9379,12.0531
 L 67.3116,12.0059 L 67.6884,12.0059 L 68.0621,12.0531 L 68.427,12.1468 L 68.7773,12.2855 L 69.1075,12.467
 L 69.4123,12.6884 L 69.6869,12.9464 L 69.927,13.2366 L 70.1289,13.5547 L 70.2893,13.8956 L 70.4057,14.2539
 L 70.4763,14.624 L 70.5,15 L 70.4763,15.376 L 70.4057,15.7461 L 70.2893,16.1044 L 70.1289,16.4453
 L 69.927,16.7634 L 69.6869,17.0536 L 69.4123,17.3115 L 69.1075,17.533 L 68.7773,17.7145 L 68.427,17.8532
 L 68.0621,17.9469 L 67.6884,17.9941 z
M -67.6884,17.9941 L -68.0621,17.9469 L -68.427,17.8532 L -68.7773,17.7145 L -69.1075,17.533 L -69.4123,17.3115
 L -69.6869,17.0536 L -69.927,16.7634 L -70.1289,16.4453 L -70.2893,16.1044 L -70.4057,15.7461 L -70.4763,15.376
 L -70.5,15 L -70.4763,14.624 L -70.4057,14.2539 L -70.2893,13.8956 L -70.1289,13.5547 L -69.927,13.2366
 L -69.6869,12.9464 L -69.4123,12.6884 L -69.1075,12.467 L -68.7773,12.2855 L -68.427,12.1468 L -68.0621,12.0531
 L -67.6884,12.0059 L -67.3116,12.0059 L -66.9379,12.0531 L -66.573,12.1468 L -66.2227,12.2855 L -65.8925,12.467
 L -65.5877,12.6884 L -65.3131,12.9464 L -65.073,13.2366 L -64.8711,13.5547 L -64.7107,13.8956 L -64.5943,14.2539
 L -64.5237,14.624 L -64.5,15 L -64.5237,15.376 L -64.5943,15.7461 L -64.7107,16.1044 L -64.8711,16.4453
 L -65.073,16.7634 L -65.3131,17.0536 L -65.5877,17.3115 L -65.8925,17.533 L -66.2227,17.7145 L -66.573,17.8532
 L -66.9379,17.9469 L -67.3116,17.9941 z
M -67.5942,23.997 L -67.7811,23.9734 L -67.9635,23.9266 L -68.1387,23.8572 L -68.3037,23.7665 L -68.4561,23.6558
 L -68.5934,23.5268 L -68.7135,23.3817 L -68.8145,23.2226 L -68.8947,23.0522 L -68.9529,22.873 L -68.9882,22.688
 L -69,22.5 L -68.9882,22.312 L -68.9529,22.127 L -68.8947,21.9478 L -68.8145,21.7774 L -68.7135,21.6183
 L -68.5934,21.4732 L -68.4561,21.3442 L -68.3037,21.2335 L -68.1387,21.1427 L -67.9635,21.0734 L -67.7811,21.0266
 L -67.5942,21.003 L -67.4058,21.003 L -67.2189,21.0266 L -67.0365,21.0734 L -66.8613,21.1427 L -66.6963,21.2335
 L -66.5439,21.3442 L -66.4065,21.4732 L -66.2865,21.6183 L -66.1855,21.7774 L -66.1053,21.9478 L -66.0471,22.127
 L -66.0118,22.312 L -66,22.5 L -66.0118,22.688 L -66.0471,22.873 L -66.1053,23.0522 L -66.1855,23.2226
 L -66.2865,23.3817 L -66.4065,23.5268 L -66.5439,23.6558 L -66.6963,23.7665 L -66.8613,23.8572 L -67.0365,23.9266
 L -67.2189,23.9734 L -67.4058,23.997 z
M 67.4058,23.997 L 67.2189,23.9734 L 67.0365,23.9266 L 66.8613,23.8572 L 66.6963,23.7665 L 66.5439,23.6558
 L 66.4065,23.5268 L 66.2865,23.3817 L 66.1855,23.2226 L 66.1053,23.0522 L 66.0471,22.873 L 66.0118,22.688
 L 66,22.5 L 66.0118,22.312 L 66.0471,22.127 L 66.1053,21.9478 L 66.1855,21.7774 L 66.2865,21.6183
 L 66.4065,21.4732 L 66.5439,21.3442 L 66.6963,21.2335 L 66.8613,21.1427 L 67.0365,21.0734 L 67.2189,21.0266
 L 67.4058,21.003 L 67.5942,21.003 L 67.7811,21.0266 L 67.9635,21.0734 L 68.1387,21.1427 L 68.3037,21.2335
 L 68.4561,21.3442 L 68.5934,21.4732 L 68.7135,21.6183 L 68.8145,21.7774 L 68.8947,21.9478 L 68.9529,22.127
 L 68.9882,22.312 L 69,22.5 L 68.9882,22.688 L 68.9529,22.873 L 68.8947,23.0522 L 68.8145,23.2226
 L 68.7135,23.3817 L 68.5934,23.5268 L 68.4561,23.6558 L 68.3037,23.7665 L 68.1387,23.8572 L 67.9635,23.9266
 L 67.7811,23.9734 L 67.5942,23.997 z
M 67.3116,32.9941 L 66.9379,32.9469 L 66.573,32.8532 L 66.2227,32.7145 L 65.8925,32.533 L 65.5877,32.3115
 L 65.3131,32.0536 L 65.073,31.7634 L 64.8711,31.4453 L 64.7107,31.1044 L 64.5943,30.7461 L 64.5237,30.376
 L 64.5,30 L 64.5237,29.624 L 64.5943,29.2539 L 64.7107,28.8956 L 64.8711,28.5547 L 65.073,28.2366
 L 65.3131,27.9464 L 65.5877,27.6884 L 65.8925,27.467 L 66.2227,27.2855 L 66.573,27.1468 L 66.9379,27.0531
 L 67.3116,27.0059 L 67.6884,27.0059 L 68.0621,27.0531 L 68.427,27.1468 L 68.7773,27.2855 L 69.1075,27.467
 L 69.4123,27.6884 L 69.6869,27.9464 L 69.927,28.2366 L 70.1289,28.5547 L 70.2893,28.8956 L 70.4057,29.2539
 L 70.4763,29.624 L 70.5,30 L 70.4763,30.376 L 70.4057,30.7461 L 70.2893,31.1044 L 70.1289,31.4453
 L 69.927,31.7634 L 69.6869,32.0536 L 69.4123,32.3115 L 69.1075,32.533 L 68.7773,32.7145 L 68.427,32.8532
 L 68.0621,32.9469 L 67.6884,32.9941 z
M -67.6884,32.9941 L -68.0621,32.9469 L -68.427,32.8532 L -68.7773,32.7145 L -69.1075,32.533 L -69.4123,32.3115
 L -69.6869,32.0536 L -69.927,31.7634 L -70.1289,31.4453 L -70.2893,31.1044 L -70.4057,30.7461 L -70.4763,30.376
 L -70.5,30 L -70.4763,29.624 L -70.4057,29.2539 L -70.2893,28.8956 L -70.1289,28.5547 L -69.927,28.2366
 L -69.6869,27.9464 L -69.4123,27.6884 L -69.1075,27.467 L -68.7773,27.2855 L -68.427,27.1468 L -68.0621,27.0531
 L -67.6884,27.0059 L -67.3116,27.0059 L -66.9379,27.0531 L -66.573,27.1468 L -66.2227,27.2855 L -65.8925,27.467
 L -65.5877,27.6884 L -65.3131,27.9464 L -65.073,28.2366 L -64.8711,28.5547 L -64.7107,28.8956 L -64.5943,29.2539
 L -64.5237,29.624 L -64.5,30 L -64.5237,30.376 L -64.5943,30.7461 L -64.7107,31.1044 L -64.8711,31.4453
 L -65.073,31.7634 L -65.3131,32.0536 L -65.5877,32.3115 L -65.8925,32.533 L -66.2227,32.7145 L -66.573,32.8532
 L -66.9379,32.9469 L -67.3116,32.9941 z
M 67.4058,38.997 L 67.2189,38.9734 L 67.0365,38.9266 L 66.8613,38.8572 L 66.6963,38.7665 L 66.5439,38.6558
 L 66.4065,38.5268 L 66.2865,38.3817 L 66.1855,38.2226 L 66.1053,38.0522 L 66.0471,37.873 L 66.0118,37.688
 L 66,37.5 L 66.0118,37.312 L 66.0471,37.127 L 66.1053,36.9478 L 66.1855,36.7774 L 66.2865,36.6183
 L 66.4065,36.4732 L 66.5439,36.3442 L 66.6963,36.2335 L 66.8613,36.1428 L 67.0365,36.0734 L 67.2189,36.0266
 L 67.4058,36.003 L 67.5942,36.003 L 67.7811,36.0266 L 67.9635,36.0734 L 68.1387,36.1428 L 68.3037,36.2335
 L 68.4561,36.3442 L 68.5934,36.4732 L 68.7135,36.6183 L 68.8145,36.7774 L 68.8947,36.9478 L 68.9529,37.127
 L 68.9882,37.312 L 69,37.5 L 68.9882,37.688 L 68.9529,37.873 L 68.8947,38.0522 L 68.8145,38.2226
 L 68.7135,38.3817 L 68.5934,38.5268 L 68.4561,38.6558 L 68.3037,38.7665 L 68.1387,38.8572 L 67.9635,38.9266
 L 67.7811,38.9734 L 67.5942,38.997 z
M -67.5942,38.997 L -67.7811,38.9734 L -67.9635,38.9266 L -68.1387,38.8572 L -68.3037,38.7665 L -68.4561,38.6558
 L -68.5934,38.5268 L -68.7135,38.3817 L -68.8145,38.2226 L -68.8947,38.0522 L -68.9529,37.873 L -68.9882,37.688
 L -69,37.5 L -68.9882,37.312 L -68.9529,37.127 L -68.8947,36.9478 L -68.8145,36.7774 L -68.7135,36.6183
 L -68.5934,36.4732 L -68.4561,36.3442 L -68.3037,36.2335 L -68.1387,36.1428 L -67.9635,36.0734 L -67.7811,36.0266
 L -67.5942,36.003 L -67.4058,36.003 L -67.2189,36.0266 L -67.0365,36.0734 L -66.8613,36.1428 L -66.6963,36.2335
 L -66.5439,36.3442 L -66.4065,36.4732 L -66.2865,36.6183 L -66.1855,36.7774 L -66.1053,36.9478 L -66.0471,37.127
 L -66.0118,37.312 L -66,37.5 L -66.0118,37.688 L -66.0471,37.873 L -66.1053,38.0522 L -66.1855,38.2226
 L -66.2865,38.3817 L -66.4065,38.5268 L -66.5439,38.6558 L -66.6963,38.7665 L -66.8613,38.8572 L -67.0365,38.9266
 L -67.2189,38.9734 L -67.4058,38.997 z
M 67.3116,47.9941 L 66.9379,47.9469 L 66.573,47.8532 L 66.2227,47.7145 L 65.8925,47.533 L 65.5877,47.3115
 L 65.3131,47.0536 L 65.073,46.7634 L 64.8711,46.4453 L 64.7107,46.1044 L 64.5943,45.7461 L 64.5237,45.376
 L 64.5,45 L 64.5237,44.624 L 64.5943,44.2539 L 64.7107,43.8956 L 64.8711,43.5547 L 65.073,43.2366
 L 65.3131,42.9464 L 65.5877,42.6885 L 65.8925,42.467 L 66.2227,42.2855 L 66.573,42.1468 L 66.9379,42.0531
 L 67.3116,42.0059 L 67.6884,42.0059 L 68.0621,42.0531 L 68.427,42.1468 L 68.7773,42.2855 L 69.1075,42.467
 L 69.4123,42.6885 L 69.6869,42.9464 L 69.927,43.2366 L 70.1289,43.5547 L 70.2893,43.8956 L 70.4057,44.2539
 L 70.4763,44.624 L 70.5,45 L 70.4763,45.376 L 70.4057,45.7461 L 70.2893,46.1044 L 70.1289,46.4453
 L 69.927,46.7634 L 69.6869,47.0536 L 69.4123,47.3115 L 69.1075,47.533 L 68.7773,47.7145 L 68.427,47.8532
 L 68.0621,47.9469 L 67.6884,47.9941 z
M -67.6884,47.9941 L -68.0621,47.9469 L -68.427,47.8532 L -68.7773,47.7145 L -69.1075,47.533 L -69.4123,47.3115
 L -69.6869,47.0536 L -69.927,46.7634 L -70.1289,46.4453 L -70.2893,46.1044 L -70.4057,45.7461 L -70.4763,45.376
 L -70.5,45 L -70.4763,44.624 L -70.4057,44.2539 L -70.2893,43.8956 L -70.1289,43.5547 L -69.927,43.2366
 L -69.6869,42.9464 L -69.4123,42.6885 L -69.1075,42.467 L -68.7773,42.2855 L -68.427,42.1468 L -68.0621,42.0531
 L -67.6884,42.0059 L -67.3116,42.0059 L -66.9379,42.0531 L -66.573,42.1468 L -66.2227,42.2855 L -65.8925,42.467
 L -65.5877,42.6885 L -65.3131,42.9464 L -65.073,43.2366 L -64.8711,43.5547 L -64.7107,43.8956 L -64.5943,44.2539
 L -64.5237,44.624 L -64.5,45 L -64.5237,45.376 L -64.5943,45.7461 L -64.7107,46.1044 L -64.8711,46.4453
 L -65.073,46.7634 L -65.3131,47.0536 L -65.5877,47.3115 L -65.8925,47.533 L -66.2227,47.7145 L -66.573,47.8532
 L -66.9379,47.9469 L -67.3116,47.9941 z
M 67.4058,53.997 L 67.2189,53.9734 L 67.0365,53.9266 L 66.8613,53.8572 L 66.6963,53.7665 L 66.5439,53.6558
 L 66.4065,53.5268 L 66.2865,53.3817 L 66.1855,53.2226 L 66.1053,53.0522 L 66.0471,52.873 L 66.0118,52.688
 L 66,52.5 L 66.0118,52.312 L 66.0471,52.127 L 66.1053,51.9478 L 66.1855,51.7774 L 66.2865,51.6183
 L 66.4065,51.4732 L 66.5439,51.3442 L 66.6963,51.2335 L 66.8613,51.1428 L 67.0365,51.0734 L 67.2189,51.0266
 L 67.4058,51.003 L 67.5942,51.003 L 67.7811,51.0266 L 67.9635,51.0734 L 68.1387,51.1428 L 68.3037,51.2335
 L 68.4561,51.3442 L 68.5934,51.4732 L 68.7135,51.6183 L 68.8145,51.7774 L 68.8947,51.9478 L 68.9529,52.127
 L 68.9882,52.312 L 69,52.5 L 68.9882,52.688 L 68.9529,52.873 L 68.8947,53.0522 L 68.8145,53.2226
 L 68.7135,53.3817 L 68.5934,53.5268 L 68.4561,53.6558 L 68.3037,53.7665 L 68.1387,53.8572 L 67.9635,53.9266
 L 67.7811,53.9734 L 67.5942,53.997 z
M -67.5942,53.997 L -67.7811,53.9734 L -67.9635,53.9266 L -68.1387,53.8572 L -68.3037,53.7665 L -68.4561,53.6558
 L -68.5934,53.5268 L -68.7135,53.3817 L -68.8145,53.2226 L -68.8947,53.0522 L -68.9529,52.873 L -68.9882,52.688
 L -69,52.5 L -68.9882,52.312 L -68.9529,52.127 L -68.8947,51.9478 L -68.8145,51.7774 L -68.7135,51.6183
 L -68.5934,51.4732 L -68.4561,51.3442 L -68.3037,51.2335 L -68.1387,51.1428 L -67.9635,51.0734 L -67.7811,51.0266
 L -67.5942,51.003 L -67.4058,51.003 L -67.2189,51.0266 L -67.0365,51.0734 L -66.8613,51.1428 L -66.6963,51.2335
 L -66.5439,51.3442 L -66.4065,51.4732 L -66.2865,51.6183 L -66.1855,51.7774 L -66.1053,51.9478 L -66.0471,52.127
 L -66.0118,52.312 L -66,52.5 L -66.0118,52.688 L -66.0471,52.873 L -66.1053,53.0522 L -66.1855,53.2226
 L -66.2865,53.3817 L -66.4065,53.5268 L -66.5439,53.6558 L -66.6963,53.7665 L -66.8613,53.8572 L -67.0365,53.9266
 L -67.2189,53.9734 L -67.4058,53.997 z
M 67.3116,62.9941 L 66.9379,62.9469 L 66.573,62.8532 L 66.2227,62.7145 L 65.8925,62.533 L 65.5877,62.3115
 L 65.3131,62.0536 L 65.073,61.7634 L 64.8711,61.4453 L 64.7107,61.1044 L 64.5943,60.7461 L 64.5237,60.376
 L 64.5,60 L 64.5237,59.624 L 64.5943,59.2539 L 64.7107,58.8956 L 64.8711,58.5547 L 65.073,58.2366
 L 65.3131,57.9464 L 65.5877,57.6885 L 65.8925,57.467 L 66.2227,57.2855 L 66.573,57.1468 L 66.9379,57.0531
 L 67.3116,57.0059 L 67.6884,57.0059 L 68.0621,57.0531 L 68.427,57.1468 L 68.7773,57.2855 L 69.1075,57.467
 L 69.4123,57.6885 L 69.6869,57.9464 L 69.927,58.2366 L 70.1289,58.5547 L 70.2893,58.8956 L 70.4057,59.2539
 L 70.4763,59.624 L 70.5,60 L 70.4763,60.376 L 70.4057,60.7461 L 70.2893,61.1044 L 70.1289,61.4453
 L 69.927,61.7634 L 69.6869,62.0536 L 69.4123,62.3115 L 69.1075,62.533 L 68.7773,62.7145 L 68.427,62.8532
 L 68.0621,62.9469 L 67.6884,62.9941 z
M 22.3116,62.9941 L 21.9379,62.9469 L 21.5729,62.8532 L 21.2227,62.7145 L 20.8925,62.533 L 20.5877,62.3115
 L 20.3131,62.0536 L 20.0729,61.7634 L 19.8711,61.4453 L 19.7107,61.1044 L 19.5942,60.7461 L 19.5237,60.376
 L 19.5,60 L 19.5237,59.624 L 19.5942,59.2539 L 19.7107,58.8956 L 19.8711,58.5547 L 20.0729,58.2366
 L 20.3131,57.9464 L 20.5877,57.6885 L 20.8925,57.467 L 21.2227,57.2855 L 21.5729,57.1468 L 21.9379,57.0531
 L 22.3116,57.0059 L 22.6884,57.0059 L 23.0621,57.0531 L 23.427,57.1468 L 23.7773,57.2855 L 24.1075,57.467
 L 24.4123,57.6885 L 24.6869,57.9464 L 24.927,58.2366 L 25.1289,58.5547 L 25.2893,58.8956 L 25.4057,59.2539
 L 25.4763,59.624 L 25.5,60 L 25.4763,60.376 L 25.4057,60.7461 L 25.2893,61.1044 L 25.1289,61.4453
 L 24.927,61.7634 L 24.6869,62.0536 L 24.4123,62.3115 L 24.1075,62.533 L 23.7773,62.7145 L 23.427,62.8532
 L 23.0621,62.9469 L 22.6884,62.9941 z
M -52.6884,62.9941 L -53.0621,62.9469 L -53.427,62.8532 L -53.7773,62.7145 L -54.1075,62.533 L -54.4123,62.3115
 L -54.6869,62.0536 L -54.927,61.7634 L -55.1289,61.4453 L -55.2893,61.1044 L -55.4057,60.7461 L -55.4763,60.376
 L -55.5,60 L -55.4763,59.624 L -55.4057,59.2539 L -55.2893,58.8956 L -55.1289,58.5547 L -54.927,58.2366
 L -54.6869,57.9464 L -54.4123,57.6885 L -54.1075,57.467 L -53.7773,57.2855 L -53.427,57.1468 L -53.0621,57.0531
 L -52.6884,57.0059 L -52.3116,57.0059 L -51.9379,57.0531 L -51.5729,57.1468 L -51.2227,57.2855 L -50.8925,57.467
 L -50.5877,57.6885 L -50.3131,57.9464 L -50.0729,58.2366 L -49.8711,58.5547 L -49.7107,58.8956 L -49.5942,59.2539
 L -49.5237,59.624 L -49.5,60 L -49.5237,60.376 L -49.5942,60.7461 L -49.7107,61.1044 L -49.8711,61.4453
 L -50.0729,61.7634 L -50.3131,62.0536 L -50.5877,62.3115 L -50.8925,62.533 L -51.2227,62.7145 L -51.5729,62.8532
 L -51.9379,62.9469 L -52.3116,62.9941 z
M -67.6884,62.9941 L -68.0621,62.9469 L -68.427,62.8532 L -68.7773,62.7145 L -69.1075,62.533 L -69.4123,62.3115
 L -69.6869,62.0536 L -69.927,61.7634 L -70.1289,61.4453 L -70.2893,61.1044 L -70.4057,60.7461 L -70.4763,60.376
 L -70.5,60 L -70.4763,59.624 L -70.4057,59.2539 L -70.2893,58.8956 L -70.1289,58.5547 L -69.927,58.2366
 L -69.6869,57.9464 L -69.4123,57.6885 L -69.1075,57.467 L -68.7773,57.2855 L -68.427,57.1468 L -68.0621,57.0531
 L -67.6884,57.0059 L -67.3116,57.0059 L -66.9379,57.0531 L -66.573,57.1468 L -66.2227,57.2855 L -65.8925,57.467
 L -65.5877,57.6885 L -65.3131,57.9464 L -65.073,58.2366 L -64.8711,58.5547 L -64.7107,58.8956 L -64.5943,59.2539
 L -64.5237,59.624 L -64.5,60 L -64.5237,60.376 L -64.5943,60.7461 L -64.7107,61.1044 L -64.8711,61.4453
 L -65.073,61.7634 L -65.3131,62.0536 L -65.5877,62.3115 L -65.8925,62.533 L -66.2227,62.7145 L -66.573,62.8532
 L -66.9379,62.9469 L -67.3116,62.9941 z
M 7.31161,62.9941 L 6.93785,62.9469 L 6.57294,62.8532 L 6.22266,62.7145 L 5.89252,62.533 L 5.58772,62.3115
 L 5.31308,62.0536 L 5.07294,61.7634 L 4.87108,61.4453 L 4.71066,61.1044 L 4.59424,60.7461 L 4.52365,60.376
 L 4.5,60 L 4.52365,59.624 L 4.59424,59.2539 L 4.71066,58.8956 L 4.87108,58.5547 L 5.07294,58.2366
 L 5.31308,57.9464 L 5.58772,57.6885 L 5.89252,57.467 L 6.22266,57.2855 L 6.57294,57.1468 L 6.93785,57.0531
 L 7.31161,57.0059 L 7.68837,57.0059 L 8.06213,57.0531 L 8.42705,57.1468 L 8.77733,57.2855 L 9.10747,57.467
 L 9.41226,57.6885 L 9.6869,57.9464 L 9.92705,58.2366 L 10.1289,58.5547 L 10.2893,58.8956 L 10.4057,59.2539
 L 10.4763,59.624 L 10.5,60 L 10.4763,60.376 L 10.4057,60.7461 L 10.2893,61.1044 L 10.1289,61.4453
 L 9.92705,61.7634 L 9.6869,62.0536 L 9.41226,62.3115 L 9.10747,62.533 L 8.77733,62.7145 L 8.42705,62.8532
 L 8.06213,62.9469 L 7.68837,62.9941 z
M -7.68837,62.9941 L -8.06213,62.9469 L -8.42705,62.8532 L -8.77733,62.7145 L -9.10747,62.533 L -9.41226,62.3115
 L -9.6869,62.0536 L -9.92705,61.7634 L -10.1289,61.4453 L -10.2893,61.1044 L -10.4057,60.7461 L -10.4763,60.376
 L -10.5,60 L -10.4763,59.624 L -10.4057,59.2539 L -10.2893,58.8956 L -10.1289,58.5547 L -9.92705,58.2366
 L -9.6869,57.9464 L -9.41226,57.6885 L -9.10747,57.467 L -8.77733,57.2855 L -8.42705,57.1468 L -8.06213,57.0531
 L -7.68837,57.0059 L -7.31161,57.0059 L -6.93785,57.0531 L -6.57294,57.1468 L -6.22266,57.2855 L -5.89252,57.467
 L -5.58772,57.6885 L -5.31308,57.9464 L -5.07294,58.2366 L -4.87108,58.5547 L -4.71066,58.8956 L -4.59424,59.2539
 L -4.52365,59.624 L -4.5,60 L -4.52365,60.376 L -4.59424,60.7461 L -4.71066,61.1044 L -4.87108,61.4453
 L -5.07294,61.7634 L -5.31308,62.0536 L -5.58772,62.3115 L -5.89252,62.533 L -6.22266,62.7145 L -6.57294,62.8532
 L -6.93785,62.9469 L -7.31161,62.9941 z
M 37.3116,62.9941 L 36.9379,62.9469 L 36.5729,62.8532 L 36.2227,62.7145 L 35.8925,62.533 L 35.5877,62.3115
 L 35.3131,62.0536 L 35.0729,61.7634 L 34.8711,61.4453 L 34.7107,61.1044 L 34.5942,60.7461 L 34.5237,60.376
 L 34.5,60 L 34.5237,59.624 L 34.5942,59.2539 L 34.7107,58.8956 L 34.8711,58.5547 L 35.0729,58.2366
 L 35.3131,57.9464 L 35.5877,57.6885 L 35.8925,57.467 L 36.2227,57.2855 L 36.5729,57.1468 L 36.9379,57.0531
 L 37.3116,57.0059 L 37.6884,57.0059 L 38.0621,57.0531 L 38.427,57.1468 L 38.7773,57.2855 L 39.1075,57.467
 L 39.4123,57.6885 L 39.6869,57.9464 L 39.927,58.2366 L 40.1289,58.5547 L 40.2893,58.8956 L 40.4057,59.2539
 L 40.4763,59.624 L 40.5,60 L 40.4763,60.376 L 40.4057,60.7461 L 40.2893,61.1044 L 40.1289,61.4453
 L 39.927,61.7634 L 39.6869,62.0536 L 39.4123,62.3115 L 39.1075,62.533 L 38.7773,62.7145 L 38.427,62.8532
 L 38.0621,62.9469 L 37.6884,62.9941 z
M -37.6884,62.9941 L -38.0621,62.9469 L -38.427,62.8532 L -38.7773,62.7145 L -39.1075,62.533 L -39.4123,62.3115
 L -39.6869,62.0536 L -39.927,61.7634 L -40.1289,61.4453 L -40.2893,61.1044 L -40.4057,60.7461 L -40.4763,60.376
 L -40.5,60 L -40.4763,59.624 L -40.4057,59.2539 L -40.2893,58.8956 L -40.1289,58.5547 L -39.927,58.2366
 L -39.6869,57.9464 L -39.4123,57.6885 L -39.1075,57.467 L -38.7773,57.2855 L -38.427,57.1468 L -38.0621,57.0531
 L -37.6884,57.0059 L -37.3116,57.0059 L -36.9379,57.0531 L -36.5729,57.1468 L -36.2227,57.2855 L -35.8925,57.467
 L -35.5877,57.6885 L -35.3131,57.9464 L -35.0729,58.2366 L -34.8711,58.5547 L -34.7107,58.8956 L -34.5942,59.2539
 L -34.5237,59.624 L -34.5,60 L -34.5237,60.376 L -34.5942,60.7461 L -34.7107,61.1044 L -34.8711,61.4453
 L -35.0729,61.7634 L -35.3131,62.0536 L -35.5877,62.3115 L -35.8925,62.533 L -36.2227,62.7145 L -36.5729,62.8532
 L -36.9379,62.9469 L -37.3116,62.9941 z
M -22.6884,62.9941 L -23.0621,62.9469 L -23.427,62.8532 L -23.7773,62.7145 L -24.1075,62.533 L -24.4123,62.3115
 L -24.6869,62.0536 L -24.927,61.7634 L -25.1289,61.4453 L -25.2893,61.1044 L -25.4057,60.7461 L -25.4763,60.376
 L -25.5,60 L -25.4763,59.624 L -25.4057,59.2539 L -25.2893,58.8956 L -25.1289,58.5547 L -24.927,58.2366
 L -24.6869,57.9464 L -24.4123,57.6885 L -24.1075,57.467 L -23.7773,57.2855 L -23.427,57.1468 L -23.0621,57.0531
 L -22.6884,57.0059 L -22.3116,57.0059 L -21.9379,57.0531 L -21.5729,57.1468 L -21.2227,57.2855 L -20.8925,57.467
 L -20.5877,57.6885 L -20.3131,57.9464 L -20.0729,58.2366 L -19.8711,58.5547 L -19.7107,58.8956 L -19.5942,59.2539
 L -19.5237,59.624 L -19.5,60 L -19.5237,60.376 L -19.5942,60.7461 L -19.7107,61.1044 L -19.8711,61.4453
 L -20.0729,61.7634 L -20.3131,62.0536 L -20.5877,62.3115 L -20.8925,62.533 L -21.2227,62.7145 L -21.5729,62.8532
 L -21.9379,62.9469 L -22.3116,62.9941 z
M 52.3116,62.9941 L 51.9379,62.9469 L 51.5729,62.8532 L 51.2227,62.7145 L 50.8925,62.533 L 50.5877,62.3115
 L 50.3131,62.0536 L 50.0729,61.7634 L 49.8711,61.4453 L 49.7107,61.1044 L 49.5942,60.7461 L 49.5237,60.376
 L 49.5,60 L 49.5237,59.624 L 49.5942,59.2539 L 49.7107,58.8956 L 49.8711,58.5547 L 50.0729,58.2366
 L 50.3131,57.9464 L 50.5877,57.6885 L 50.8925,57.467 L 51.2227,57.2855 L 51.5729,57.1468 L 51.9379,57.0531
 L 52.3116,57.0059 L 52.6884,57.0059 L 53.0621,57.0531 L 53.427,57.1468 L 53.7773,57.2855 L 54.1075,57.467
 L 54.4123,57.6885 L 54.6869,57.9464 L 54.927,58.2366 L 55.1289,58.5547 L 55.2893,58.8956 L 55.4057,59.2539
 L 55.4763,59.624 L 55.5,60 L 55.4763,60.376 L 55.4057,60.7461 L 55.2893,61.1044 L 55.1289,61.4453
 L 54.927,61.7634 L 54.6869,62.0536 L 54.4123,62.3115 L 54.1075,62.533 L 53.7773,62.7145 L 53.427,62.8532
 L 53.0621,62.9469 L 52.6884,62.9941 z
M -60.0942,61.497 L -60.2811,61.4734 L -60.4635,61.4266 L -60.6387,61.3572 L -60.8037,61.2665 L -60.9561,61.1558
 L -61.0934,61.0268 L -61.2135,60.8817 L -61.3145,60.7226 L -61.3947,60.5522 L -61.4529,60.373 L -61.4882,60.188
 L -61.5,60 L -61.4882,59.812 L -61.4529,59.627 L -61.3947,59.4478 L -61.3145,59.2774 L -61.2135,59.1183
 L -61.0934,58.9732 L -60.9561,58.8442 L -60.8037,58.7335 L -60.6387,58.6428 L -60.4635,58.5734 L -60.2811,58.5266
 L -60.0942,58.503 L -59.9058,58.503 L -59.7189,58.5266 L -59.5365,58.5734 L -59.3613,58.6428 L -59.1963,58.7335
 L -59.0439,58.8442 L -58.9065,58.9732 L -58.7865,59.1183 L -58.6855,59.2774 L -58.6053,59.4478 L -58.5471,59.627
 L -58.5118,59.812 L -58.5,60 L -58.5118,60.188 L -58.5471,60.373 L -58.6053,60.5522 L -58.6855,60.7226
 L -58.7865,60.8817 L -58.9065,61.0268 L -59.0439,61.1558 L -59.1963,61.2665 L -59.3613,61.3572 L -59.5365,61.4266
 L -59.7189,61.4734 L -59.9058,61.497 z
M -15.0942,61.497 L -15.2811,61.4734 L -15.4635,61.4266 L -15.6387,61.3572 L -15.8037,61.2665 L -15.9561,61.1558
 L -16.0934,61.0268 L -16.2135,60.8817 L -16.3145,60.7226 L -16.3947,60.5522 L -16.4529,60.373 L -16.4882,60.188
 L -16.5,60 L -16.4882,59.812 L -16.4529,59.627 L -16.3947,59.4478 L -16.3145,59.2774 L -16.2135,59.1183
 L -16.0934,58.9732 L -15.9561,58.8442 L -15.8037,58.7335 L -15.6387,58.6428 L -15.4635,58.5734 L -15.2811,58.5266
 L -15.0942,58.503 L -14.9058,58.503 L -14.7189,58.5266 L -14.5365,58.5734 L -14.3613,58.6428 L -14.1963,58.7335
 L -14.0439,58.8442 L -13.9065,58.9732 L -13.7865,59.1183 L -13.6855,59.2774 L -13.6053,59.4478 L -13.5471,59.627
 L -13.5118,59.812 L -13.5,60 L -13.5118,60.188 L -13.5471,60.373 L -13.6053,60.5522 L -13.6855,60.7226
 L -13.7865,60.8817 L -13.9065,61.0268 L -14.0439,61.1558 L -14.1963,61.2665 L -14.3613,61.3572 L -14.5365,61.4266
 L -14.7189,61.4734 L -14.9058,61.497 z
M 44.9058,61.497 L 44.7189,61.4734 L 44.5365,61.4266 L 44.3613,61.3572 L 44.1963,61.2665 L 44.0439,61.1558
 L 43.9065,61.0268 L 43.7865,60.8817 L 43.6855,60.7226 L 43.6053,60.5522 L 43.5471,60.373 L 43.5118,60.188
 L 43.5,60 L 43.5118,59.812 L 43.5471,59.627 L 43.6053,59.4478 L 43.6855,59.2774 L 43.7865,59.1183
 L 43.9065,58.9732 L 44.0439,58.8442 L 44.1963,58.7335 L 44.3613,58.6428 L 44.5365,58.5734 L 44.7189,58.5266
 L 44.9058,58.503 L 45.0942,58.503 L 45.2811,58.5266 L 45.4635,58.5734 L 45.6387,58.6428 L 45.8037,58.7335
 L 45.9561,58.8442 L 46.0934,58.9732 L 46.2135,59.1183 L 46.3145,59.2774 L 46.3947,59.4478 L 46.4529,59.627
 L 46.4882,59.812 L 46.5,60 L 46.4882,60.188 L 46.4529,60.373 L 46.3947,60.5522 L 46.3145,60.7226
 L 46.2135,60.8817 L 46.0934,61.0268 L 45.9561,61.1558 L 45.8037,61.2665 L 45.6387,61.3572 L 45.4635,61.4266
 L 45.2811,61.4734 L 45.0942,61.497 z
M 29.9058,61.497 L 29.7189,61.4734 L 29.5365,61.4266 L 29.3613,61.3572 L 29.1963,61.2665 L 29.0439,61.1558
 L 28.9065,61.0268 L 28.7865,60.8817 L 28.6855,60.7226 L 28.6053,60.5522 L 28.5471,60.373 L 28.5118,60.188
 L 28.5,60 L 28.5118,59.812 L 28.5471,59.627 L 28.6053,59.4478 L 28.6855,59.2774 L 28.7865,59.1183
 L 28.9065,58.9732 L 29.0439,58.8442 L 29.1963,58.7335 L 29.3613,58.6428 L 29.5365,58.5734 L 29.7189,58.5266
 L 29.9058,58.503 L 30.0942,58.503 L 30.2811,58.5266 L 30.4635,58.5734 L 30.6387,58.6428 L 30.8037,58.7335
 L 30.9561,58.8442 L 31.0934,58.9732 L 31.2135,59.1183 L 31.3145,59.2774 L 31.3947,59.4478 L 31.4529,59.627
 L 31.4882,59.812 L 31.5,60 L 31.4882,60.188 L 31.4529,60.373 L 31.3947,60.5522 L 31.3145,60.7226
 L 31.2135,60.8817 L 31.0934,61.0268 L 30.9561,61.1558 L 30.8037,61.2665 L 30.6387,61.3572 L 30.4635,61.4266
 L 30.2811,61.4734 L 30.0942,61.497 z
M 14.9058,61.497 L 14.7189,61.4734 L 14.5365,61.4266 L 14.3613,61.3572 L 14.1963,61.2665 L 14.0439,61.1558
 L 13.9065,61.0268 L 13.7865,60.8817 L 13.6855,60.7226 L 13.6053,60.5522 L 13.5471,60.373 L 13.5118,60.188
 L 13.5,60 L 13.5118,59.812 L 13.5471,59.627 L 13.6053,59.4478 L 13.6855,59.2774 L 13.7865,59.1183
 L 13.9065,58.9732 L 14.0439,58.8442 L 14.1963,58.7335 L 14.3613,58.6428 L 14.5365,58.5734 L 14.7189,58.5266
 L 14.9058,58.503 L 15.0942,58.503 L 15.2811,58.5266 L 15.4635,58.5734 L 15.6387,58.6428 L 15.8037,58.7335
 L 15.9561,58.8442 L 16.0934,58.9732 L 16.2135,59.1183 L 16.3145,59.2774 L 16.3947,59.4478 L 16.4529,59.627
 L 16.4882,59.812 L 16.5,60 L 16.4882,60.188 L 16.4529,60.373 L 16.3947,60.5522 L 16.3145,60.7226
 L 16.2135,60.8817 L 16.0934,61.0268 L 15.9561,61.1558 L 15.8037,61.2665 L 15.6387,61.3572 L 15.4635,61.4266
 L 15.2811,61.4734 L 15.0942,61.497 z
M -30.0942,61.497 L -30.2811,61.4734 L -30.4635,61.4266 L -30.6387,61.3572 L -30.8037,61.2665 L -30.9561,61.1558
 L -31.0934,61.0268 L -31.2135,60.8817 L -31.3145,60.7226 L -31.3947,60.5522 L -31.4529,60.373 L -31.4882,60.188
 L -31.5,60 L -31.4882,59.812 L -31.4529,59.627 L -31.3947,59.4478 L -31.3145,59.2774 L -31.2135,59.1183
 L -31.0934,58.9732 L -30.9561,58.8442 L -30.8037,58.7335 L -30.6387,58.6428 L -30.4635,58.5734 L -30.2811,58.5266
 L -30.0942,58.503 L -29.9058,58.503 L -29.7189,58.5266 L -29.5365,58.5734 L -29.3613,58.6428 L -29.1963,58.7335
 L -29.0439,58.8442 L -28.9065,58.9732 L -28.7865,59.1183 L -28.6855,59.2774 L -28.6053,59.4478 L -28.5471,59.627
 L -28.5118,59.812 L -28.5,60 L -28.5118,60.188 L -28.5471,60.373 L -28.6053,60.5522 L -28.6855,60.7226
 L -28.7865,60.8817 L -28.9065,61.0268 L -29.0439,61.1558 L -29.1963,61.2665 L -29.3613,61.3572 L -29.5365,61.4266
 L -29.7189,61.4734 L -29.9058,61.497 z
M 59.9058,61.497 L 59.7189,61.4734 L 59.5365,61.4266 L 59.3613,61.3572 L 59.1963,61.2665 L 59.0439,61.1558
 L 58.9065,61.0268 L 58.7865,60.8817 L 58.6855,60.7226 L 58.6053,60.5522 L 58.5471,60.373 L 58.5118,60.188
 L 58.5,60 L 58.5118,59.812 L 58.5471,59.627 L 58.6053,59.4478 L 58.6855,59.2774 L 58.7865,59.1183
 L 58.9065,58.9732 L 59.0439,58.8442 L 59.1963,58.7335 L 59.3613,58.6428 L 59.5365,58.5734 L 59.7189,58.5266
 L 59.9058,58.503 L 60.0942,58.503 L 60.2811,58.5266 L 60.4635,58.5734 L 60.6387,58.6428 L 60.8037,58.7335
 L 60.9561,58.8442 L 61.0934,58.9732 L 61.2135,59.1183 L 61.3145,59.2774 L 61.3947,59.4478 L 61.4529,59.627
 L 61.4882,59.812 L 61.5,60 L 61.4882,60.188 L 61.4529,60.373 L 61.3947,60.5522 L 61.3145,60.7226
 L 61.2135,60.8817 L 61.0934,61.0268 L 60.9561,61.1558 L 60.8037,61.2665 L 60.6387,61.3572 L 60.4635,61.4266
 L 60.2811,61.4734 L 60.0942,61.497 z
M -45.0942,61.497 L -45.2811,61.4734 L -45.4635,61.4266 L -45.6387,61.3572 L -45.8037,61.2665 L -45.9561,61.1558
 L -46.0934,61.0268 L -46.2135,60.8817 L -46.3145,60.7226 L -46.3947,60.5522 L -46.4529,60.373 L -46.4882,60.188
 L -46.5,60 L -46.4882,59.812 L -46.4529,59.627 L -46.3947,59.4478 L -46.3145,59.2774 L -46.2135,59.1183
 L -46.0934,58.9732 L -45.9561,58.8442 L -45.8037,58.7335 L -45.6387,58.6428 L -45.4635,58.5734 L -45.2811,58.5266
 L -45.0942,58.503 L -44.9058,58.503 L -44.7189,58.5266 L -44.5365,58.5734 L -44.3613,58.6428 L -44.1963,58.7335
 L -44.0439,58.8442 L -43.9065,58.9732 L -43.7865,59.1183 L -43.6855,59.2774 L -43.6053,59.4478 L -43.5471,59.627
 L -43.5118,59.812 L -43.5,60 L -43.5118,60.188 L -43.5471,60.373 L -43.6053,60.5522 L -43.6855,60.7226
 L -43.7865,60.8817 L -43.9065,61.0268 L -44.0439,61.1558 L -44.1963,61.2665 L -44.3613,61.3572 L -44.5365,61.4266
 L -44.7189,61.4734 L -44.9058,61.497 z
M -0.0941772,61.497 L -0.281067,61.4734 L -0.463516,61.4266 L -0.638657,61.3572 L -0.803726,61.2665 L -0.956131,61.1558
 L -1.09344,61.0268 L -1.21352,60.8817 L -1.31445,60.7226 L -1.39465,60.5522 L -1.45287,60.373 L -1.48816,60.188
 L -1.5,60 L -1.48816,59.812 L -1.45287,59.627 L -1.39465,59.4478 L -1.31445,59.2774 L -1.21352,59.1183
 L -1.09344,58.9732 L -0.956131,58.8442 L -0.803726,58.7335 L -0.638657,58.6428 L -0.463516,58.5734 L -0.281067,58.5266
 L -0.0941772,58.503 L 0.0941772,58.503 L 0.281067,58.5266 L 0.463516,58.5734 L 0.638657,58.6428 L 0.803726,58.7335
 L 0.956131,58.8442 L 1.09344,58.9732 L 1.21352,59.1183 L 1.31445,59.2774 L 1.39465,59.4478 L 1.45287,59.627
 L 1.48816,59.812 L 1.5,60 L 1.48816,60.188 L 1.45287,60.373 L 1.39465,60.5522 L 1.31445,60.7226
 L 1.21352,60.8817 L 1.09344,61.0268 L 0.956131,61.1558 L 0.803726,61.2665 L 0.638657,61.3572 L 0.463516,61.4266
 L 0.281067,61.4734 L 0.0941772,61.497 z
" stroke="black" fill="lightgray" stroke-width="0.5"/>
</svg>
