  0
SECTION
  2
BLOCKS
  0
ENDSEC
  0
SECTION
  2
ENTITIES
  0
LINE
  8
0
 10
70.4369
 20
-51.9114
 11
71.0451
 21
-51.7553
  0
LINE
  8
0
 10
71.0451
 20
-51.7553
 11
71.6289
 21
-51.5241
  0
LINE
  8
0
 10
71.6289
 20
-51.5241
 11
72.1791
 21
-51.2216
  0
LINE
  8
0
 10
72.1791
 20
-51.2216
 11
72.6871
 21
-50.8526
  0
LINE
  8
0
 10
72.6871
 20
-50.8526
 11
73.1448
 21
-50.4227
  0
LINE
  8
0
 10
73.1448
 20
-50.4227
 11
73.5451
 21
-49.9389
  0
LINE
  8
0
 10
73.5451
 20
-49.9389
 11
73.8815
 21
-49.4088
  0
LINE
  8
0
 10
73.8815
 20
-49.4088
 11
74.1489
 21
-48.8406
  0
LINE
  8
0
 10
74.1489
 20
-48.8406
 11
74.3429
 21
-48.2434
  0
LINE
  8
0
 10
74.3429
 20
-48.2434
 11
74.4606
 21
-47.6267
  0
LINE
  8
0
 10
74.4606
 20
-47.6267
 11
74.5
 21
-47
  0
LINE
  8
0
 10
74.5
 20
-47
 11
74.5
 21
47
  0
LINE
  8
0
 10
74.5
 20
47
 11
74.4606
 21
47.6267
  0
LINE
  8
0
 10
74.4606
 20
47.6267
 11
74.3429
 21
48.2434
  0
LINE
  8
0
 10
74.3429
 20
48.2434
 11
74.1489
 21
48.8406
  0
LINE
  8
0
 10
74.1489
 20
48.8406
 11
73.8815
 21
49.4088
  0
LINE
  8
0
 10
73.8815
 20
49.4088
 11
73.5451
 21
49.9389
  0
LINE
  8
0
 10
73.5451
 20
49.9389
 11
73.1448
 21
50.4227
  0
LINE
  8
0
 10
73.1448
 20
50.4227
 11
72.6871
 21
50.8526
  0
LINE
  8
0
 10
72.6871
 20
50.8526
 11
72.1791
 21
51.2216
  0
LINE
  8
0
 10
72.1791
 20
51.2216
 11
71.6289
 21
51.5241
  0
LINE
  8
0
 10
71.6289
 20
51.5241
 11
71.0451
 21
51.7553
  0
LINE
  8
0
 10
71.0451
 20
51.7553
 11
70.4369
 21
51.9114
  0
LINE
  8
0
 10
70.4369
 20
51.9114
 11
69.8139
 21
51.9901
  0
LINE
  8
0
 10
69.8139
 20
51.9901
 11
65.1861
 21
51.9901
  0
LINE
  8
0
 10
65.1861
 20
51.9901
 11
64.5631
 21
51.9114
  0
LINE
  8
0
 10
64.5631
 20
51.9114
 11
63.9549
 21
51.7553
  0
LINE
  8
0
 10
63.9549
 20
51.7553
 11
63.3711
 21
51.5241
  0
LINE
  8
0
 10
63.3711
 20
51.5241
 11
62.8209
 21
51.2216
  0
LINE
  8
0
 10
62.8209
 20
51.2216
 11
62.3129
 21
50.8526
  0
LINE
  8
0
 10
62.3129
 20
50.8526
 11
61.8551
 21
50.4227
  0
LINE
  8
0
 10
61.8551
 20
50.4227
 11
61.4549
 21
49.9389
  0
LINE
  8
0
 10
61.4549
 20
49.9389
 11
61.1185
 21
49.4088
  0
LINE
  8
0
 10
61.1185
 20
49.4088
 11
60.8511
 21
48.8406
  0
LINE
  8
0
 10
60.8511
 20
48.8406
 11
60.6571
 21
48.2434
  0
LINE
  8
0
 10
60.6571
 20
48.2434
 11
60.5394
 21
47.6267
  0
LINE
  8
0
 10
60.5394
 20
47.6267
 11
60.5
 21
47
  0
LINE
  8
0
 10
60.5
 20
47
 11
60.5
 21
-38.0099
  0
LINE
  8
0
 10
60.5
 20
-38.0099
 11
-60.5
 21
-38.0099
  0
LINE
  8
0
 10
-60.5
 20
-38.0099
 11
-60.5
 21
47
  0
LINE
  8
0
 10
-60.5
 20
47
 11
-60.5394
 21
47.6267
  0
LINE
  8
0
 10
-60.5394
 20
47.6267
 11
-60.6571
 21
48.2434
  0
LINE
  8
0
 10
-60.6571
 20
48.2434
 11
-60.8511
 21
48.8406
  0
LINE
  8
0
 10
-60.8511
 20
48.8406
 11
-61.1185
 21
49.4088
  0
LINE
  8
0
 10
-61.1185
 20
49.4088
 11
-61.4549
 21
49.9389
  0
LINE
  8
0
 10
-61.4549
 20
49.9389
 11
-61.8551
 21
50.4227
  0
LINE
  8
0
 10
-61.8551
 20
50.4227
 11
-62.3129
 21
50.8526
  0
LINE
  8
0
 10
-62.3129
 20
50.8526
 11
-62.8209
 21
51.2216
  0
LINE
  8
0
 10
-62.8209
 20
51.2216
 11
-63.3711
 21
51.5241
  0
LINE
  8
0
 10
-63.3711
 20
51.5241
 11
-63.9549
 21
51.7553
  0
LINE
  8
0
 10
-63.9549
 20
51.7553
 11
-64.5631
 21
51.9114
  0
LINE
  8
0
 10
-64.5631
 20
51.9114
 11
-65.1861
 21
51.9901
  0
LINE
  8
0
 10
-65.1861
 20
51.9901
 11
-69.8139
 21
51.9901
  0
LINE
  8
0
 10
-69.8139
 20
51.9901
 11
-70.4369
 21
51.9114
  0
LINE
  8
0
 10
-70.4369
 20
51.9114
 11
-71.0451
 21
51.7553
  0
LINE
  8
0
 10
-71.0451
 20
51.7553
 11
-71.6289
 21
51.5241
  0
LINE
  8
0
 10
-71.6289
 20
51.5241
 11
-72.1791
 21
51.2216
  0
LINE
  8
0
 10
-72.1791
 20
51.2216
 11
-72.6871
 21
50.8526
  0
LINE
  8
0
 10
-72.6871
 20
50.8526
 11
-73.1448
 21
50.4227
  0
LINE
  8
0
 10
-73.1448
 20
50.4227
 11
-73.5451
 21
49.9389
  0
LINE
  8
0
 10
-73.5451
 20
49.9389
 11
-73.8815
 21
49.4088
  0
LINE
  8
0
 10
-73.8815
 20
49.4088
 11
-74.1489
 21
48.8406
  0
LINE
  8
0
 10
-74.1489
 20
48.8406
 11
-74.3429
 21
48.2434
  0
LINE
  8
0
 10
-74.3429
 20
48.2434
 11
-74.4606
 21
47.6267
  0
LINE
  8
0
 10
-74.4606
 20
47.6267
 11
-74.5
 21
47
  0
LINE
  8
0
 10
-74.5
 20
47
 11
-74.5
 21
-47
  0
LINE
  8
0
 10
-74.5
 20
-47
 11
-74.4606
 21
-47.6267
  0
LINE
  8
0
 10
-74.4606
 20
-47.6267
 11
-74.3429
 21
-48.2434
  0
LINE
  8
0
 10
-74.3429
 20
-48.2434
 11
-74.1489
 21
-48.8406
  0
LINE
  8
0
 10
-74.1489
 20
-48.8406
 11
-73.8815
 21
-49.4088
  0
LINE
  8
0
 10
-73.8815
 20
-49.4088
 11
-73.5451
 21
-49.9389
  0
LINE
  8
0
 10
-73.5451
 20
-49.9389
 11
-73.1448
 21
-50.4227
  0
LINE
  8
0
 10
-73.1448
 20
-50.4227
 11
-72.6871
 21
-50.8526
  0
LINE
  8
0
 10
-72.6871
 20
-50.8526
 11
-72.1791
 21
-51.2216
  0
LINE
  8
0
 10
-72.1791
 20
-51.2216
 11
-71.6289
 21
-51.5241
  0
LINE
  8
0
 10
-71.6289
 20
-51.5241
 11
-71.0451
 21
-51.7553
  0
LINE
  8
0
 10
-71.0451
 20
-51.7553
 11
-70.4369
 21
-51.9114
  0
LINE
  8
0
 10
-70.4369
 20
-51.9114
 11
-69.8139
 21
-51.9901
  0
LINE
  8
0
 10
-69.8139
 20
-51.9901
 11
69.8139
 21
-51.9901
  0
LINE
  8
0
 10
69.8139
 20
-51.9901
 11
70.4369
 21
-51.9114
  0
LINE
  8
0
 10
67.3116
 20
42.0059
 11
66.9379
 21
42.0531
  0
LINE
  8
0
 10
66.9379
 20
42.0531
 11
66.573
 21
42.1468
  0
LINE
  8
0
 10
66.573
 20
42.1468
 11
66.2227
 21
42.2855
  0
LINE
  8
0
 10
66.2227
 20
42.2855
 11
65.8925
 21
42.467
  0
LINE
  8
0
 10
65.8925
 20
42.467
 11
65.5877
 21
42.6885
  0
LINE
  8
0
 10
65.5877
 20
42.6885
 11
65.3131
 21
42.9464
  0
LINE
  8
0
 10
65.3131
 20
42.9464
 11
65.073
 21
43.2366
  0
LINE
  8
0
 10
65.073
 20
43.2366
 11
64.8711
 21
43.5547
  0
LINE
  8
0
 10
64.8711
 20
43.5547
 11
64.7107
 21
43.8956
  0
LINE
  8
0
 10
64.7107
 20
43.8956
 11
64.5943
 21
44.2539
  0
LINE
  8
0
 10
64.5943
 20
44.2539
 11
64.5237
 21
44.624
  0
LINE
  8
0
 10
64.5237
 20
44.624
 11
64.5
 21
45
  0
LINE
  8
0
 10
64.5
 20
45
 11
64.5237
 21
45.376
  0
LINE
  8
0
 10
64.5237
 20
45.376
 11
64.5943
 21
45.7461
  0
LINE
  8
0
 10
64.5943
 20
45.7461
 11
64.7107
 21
46.1044
  0
LINE
  8
0
 10
64.7107
 20
46.1044
 11
64.8711
 21
46.4453
  0
LINE
  8
0
 10
64.8711
 20
46.4453
 11
65.073
 21
46.7634
  0
LINE
  8
0
 10
65.073
 20
46.7634
 11
65.3131
 21
47.0536
  0
LINE
  8
0
 10
65.3131
 20
47.0536
 11
65.5877
 21
47.3115
  0
LINE
  8
0
 10
65.5877
 20
47.3115
 11
65.8925
 21
47.533
  0
LINE
  8
0
 10
65.8925
 20
47.533
 11
66.2227
 21
47.7145
  0
LINE
  8
0
 10
66.2227
 20
47.7145
 11
66.573
 21
47.8532
  0
LINE
  8
0
 10
66.573
 20
47.8532
 11
66.9379
 21
47.9469
  0
LINE
  8
0
 10
66.9379
 20
47.9469
 11
67.3116
 21
47.9941
  0
LINE
  8
0
 10
67.3116
 20
47.9941
 11
67.6884
 21
47.9941
  0
LINE
  8
0
 10
67.6884
 20
47.9941
 11
68.0621
 21
47.9469
  0
LINE
  8
0
 10
68.0621
 20
47.9469
 11
68.427
 21
47.8532
  0
LINE
  8
0
 10
68.427
 20
47.8532
 11
68.7773
 21
47.7145
  0
LINE
  8
0
 10
68.7773
 20
47.7145
 11
69.1075
 21
47.533
  0
LINE
  8
0
 10
69.1075
 20
47.533
 11
69.4123
 21
47.3115
  0
LINE
  8
0
 10
69.4123
 20
47.3115
 11
69.6869
 21
47.0536
  0
LINE
  8
0
 10
69.6869
 20
47.0536
 11
69.927
 21
46.7634
  0
LINE
  8
0
 10
69.927
 20
46.7634
 11
70.1289
 21
46.4453
  0
LINE
  8
0
 10
70.1289
 20
46.4453
 11
70.2893
 21
46.1044
  0
LINE
  8
0
 10
70.2893
 20
46.1044
 11
70.4057
 21
45.7461
  0
LINE
  8
0
 10
70.4057
 20
45.7461
 11
70.4763
 21
45.376
  0
LINE
  8
0
 10
70.4763
 20
45.376
 11
70.5
 21
45
  0
LINE
  8
0
 10
70.5
 20
45
 11
70.4763
 21
44.624
  0
LINE
  8
0
 10
70.4763
 20
44.624
 11
70.4057
 21
44.2539
  0
LINE
  8
0
 10
70.4057
 20
44.2539
 11
70.2893
 21
43.8956
  0
LINE
  8
0
 10
70.2893
 20
43.8956
 11
70.1289
 21
43.5547
  0
LINE
  8
0
 10
70.1289
 20
43.5547
 11
69.927
 21
43.2366
  0
LINE
  8
0
 10
69.927
 20
43.2366
 11
69.6869
 21
42.9464
  0
LINE
  8
0
 10
69.6869
 20
42.9464
 11
69.4123
 21
42.6885
  0
LINE
  8
0
 10
69.4123
 20
42.6885
 11
69.1075
 21
42.467
  0
LINE
  8
0
 10
69.1075
 20
42.467
 11
68.7773
 21
42.2855
  0
LINE
  8
0
 10
68.7773
 20
42.2855
 11
68.427
 21
42.1468
  0
LINE
  8
0
 10
68.427
 20
42.1468
 11
68.0621
 21
42.0531
  0
LINE
  8
0
 10
68.0621
 20
42.0531
 11
67.6884
 21
42.0059
  0
LINE
  8
0
 10
67.6884
 20
42.0059
 11
67.3116
 21
42.0059
  0
LINE
  8
0
 10
-67.6884
 20
42.0059
 11
-68.0621
 21
42.0531
  0
LINE
  8
0
 10
-68.0621
 20
42.0531
 11
-68.427
 21
42.1468
  0
LINE
  8
0
 10
-68.427
 20
42.1468
 11
-68.7773
 21
42.2855
  0
LINE
  8
0
 10
-68.7773
 20
42.2855
 11
-69.1075
 21
42.467
  0
LINE
  8
0
 10
-69.1075
 20
42.467
 11
-69.4123
 21
42.6885
  0
LINE
  8
0
 10
-69.4123
 20
42.6885
 11
-69.6869
 21
42.9464
  0
LINE
  8
0
 10
-69.6869
 20
42.9464
 11
-69.927
 21
43.2366
  0
LINE
  8
0
 10
-69.927
 20
43.2366
 11
-70.1289
 21
43.5547
  0
LINE
  8
0
 10
-70.1289
 20
43.5547
 11
-70.2893
 21
43.8956
  0
LINE
  8
0
 10
-70.2893
 20
43.8956
 11
-70.4057
 21
44.2539
  0
LINE
  8
0
 10
-70.4057
 20
44.2539
 11
-70.4763
 21
44.624
  0
LINE
  8
0
 10
-70.4763
 20
44.624
 11
-70.5
 21
45
  0
LINE
  8
0
 10
-70.5
 20
45
 11
-70.4763
 21
45.376
  0
LINE
  8
0
 10
-70.4763
 20
45.376
 11
-70.4057
 21
45.7461
  0
LINE
  8
0
 10
-70.4057
 20
45.7461
 11
-70.2893
 21
46.1044
  0
LINE
  8
0
 10
-70.2893
 20
46.1044
 11
-70.1289
 21
46.4453
  0
LINE
  8
0
 10
-70.1289
 20
46.4453
 11
-69.927
 21
46.7634
  0
LINE
  8
0
 10
-69.927
 20
46.7634
 11
-69.6869
 21
47.0536
  0
LINE
  8
0
 10
-69.6869
 20
47.0536
 11
-69.4123
 21
47.3115
  0
LINE
  8
0
 10
-69.4123
 20
47.3115
 11
-69.1075
 21
47.533
  0
LINE
  8
0
 10
-69.1075
 20
47.533
 11
-68.7773
 21
47.7145
  0
LINE
  8
0
 10
-68.7773
 20
47.7145
 11
-68.427
 21
47.8532
  0
LINE
  8
0
 10
-68.427
 20
47.8532
 11
-68.0621
 21
47.9469
  0
LINE
  8
0
 10
-68.0621
 20
47.9469
 11
-67.6884
 21
47.9941
  0
LINE
  8
0
 10
-67.6884
 20
47.9941
 11
-67.3116
 21
47.9941
  0
LINE
  8
0
 10
-67.3116
 20
47.9941
 11
-66.9379
 21
47.9469
  0
LINE
  8
0
 10
-66.9379
 20
47.9469
 11
-66.573
 21
47.8532
  0
LINE
  8
0
 10
-66.573
 20
47.8532
 11
-66.2227
 21
47.7145
  0
LINE
  8
0
 10
-66.2227
 20
47.7145
 11
-65.8925
 21
47.533
  0
LINE
  8
0
 10
-65.8925
 20
47.533
 11
-65.5877
 21
47.3115
  0
LINE
  8
0
 10
-65.5877
 20
47.3115
 11
-65.3131
 21
47.0536
  0
LINE
  8
0
 10
-65.3131
 20
47.0536
 11
-65.073
 21
46.7634
  0
LINE
  8
0
 10
-65.073
 20
46.7634
 11
-64.8711
 21
46.4453
  0
LINE
  8
0
 10
-64.8711
 20
46.4453
 11
-64.7107
 21
46.1044
  0
LINE
  8
0
 10
-64.7107
 20
46.1044
 11
-64.5943
 21
45.7461
  0
LINE
  8
0
 10
-64.5943
 20
45.7461
 11
-64.5237
 21
45.376
  0
LINE
  8
0
 10
-64.5237
 20
45.376
 11
-64.5
 21
45
  0
LINE
  8
0
 10
-64.5
 20
45
 11
-64.5237
 21
44.624
  0
LINE
  8
0
 10
-64.5237
 20
44.624
 11
-64.5943
 21
44.2539
  0
LINE
  8
0
 10
-64.5943
 20
44.2539
 11
-64.7107
 21
43.8956
  0
LINE
  8
0
 10
-64.7107
 20
43.8956
 11
-64.8711
 21
43.5547
  0
LINE
  8
0
 10
-64.8711
 20
43.5547
 11
-65.073
 21
43.2366
  0
LINE
  8
0
 10
-65.073
 20
43.2366
 11
-65.3131
 21
42.9464
  0
LINE
  8
0
 10
-65.3131
 20
42.9464
 11
-65.5877
 21
42.6885
  0
LINE
  8
0
 10
-65.5877
 20
42.6885
 11
-65.8925
 21
42.467
  0
LINE
  8
0
 10
-65.8925
 20
42.467
 11
-66.2227
 21
42.2855
  0
LINE
  8
0
 10
-66.2227
 20
42.2855
 11
-66.573
 21
42.1468
  0
LINE
  8
0
 10
-66.573
 20
42.1468
 11
-66.9379
 21
42.0531
  0
LINE
  8
0
 10
-66.9379
 20
42.0531
 11
-67.3116
 21
42.0059
  0
LINE
  8
0
 10
-67.3116
 20
42.0059
 11
-67.6884
 21
42.0059
  0
LINE
  8
0
 10
-67.5942
 20
36.003
 11
-67.7811
 21
36.0266
  0
LINE
  8
0
 10
-67.7811
 20
36.0266
 11
-67.9635
 21
36.0734
  0
LINE
  8
0
 10
-67.9635
 20
36.0734
 11
-68.1387
 21
36.1428
  0
LINE
  8
0
 10
-68.1387
 20
36.1428
 11
-68.3037
 21
36.2335
  0
LINE
  8
0
 10
-68.3037
 20
36.2335
 11
-68.4561
 21
36.3442
  0
LINE
  8
0
 10
-68.4561
 20
36.3442
 11
-68.5934
 21
36.4732
  0
LINE
  8
0
 10
-68.5934
 20
36.4732
 11
-68.7135
 21
36.6183
  0
LINE
  8
0
 10
-68.7135
 20
36.6183
 11
-68.8145
 21
36.7774
  0
LINE
  8
0
 10
-68.8145
 20
36.7774
 11
-68.8947
 21
36.9478
  0
LINE
  8
0
 10
-68.8947
 20
36.9478
 11
-68.9529
 21
37.127
  0
LINE
  8
0
 10
-68.9529
 20
37.127
 11
-68.9882
 21
37.312
  0
LINE
  8
0
 10
-68.9882
 20
37.312
 11
-69
 21
37.5
  0
LINE
  8
0
 10
-69
 20
37.5
 11
-68.9882
 21
37.688
  0
LINE
  8
0
 10
-68.9882
 20
37.688
 11
-68.9529
 21
37.873
  0
LINE
  8
0
 10
-68.9529
 20
37.873
 11
-68.8947
 21
38.0522
  0
LINE
  8
0
 10
-68.8947
 20
38.0522
 11
-68.8145
 21
38.2226
  0
LINE
  8
0
 10
-68.8145
 20
38.2226
 11
-68.7135
 21
38.3817
  0
LINE
  8
0
 10
-68.7135
 20
38.3817
 11
-68.5934
 21
38.5268
  0
LINE
  8
0
 10
-68.5934
 20
38.5268
 11
-68.4561
 21
38.6558
  0
LINE
  8
0
 10
-68.4561
 20
38.6558
 11
-68.3037
 21
38.7665
  0
LINE
  8
0
 10
-68.3037
 20
38.7665
 11
-68.1387
 21
38.8572
  0
LINE
  8
0
 10
-68.1387
 20
38.8572
 11
-67.9635
 21
38.9266
  0
LINE
  8
0
 10
-67.9635
 20
38.9266
 11
-67.7811
 21
38.9734
  0
LINE
  8
0
 10
-67.7811
 20
38.9734
 11
-67.5942
 21
38.997
  0
LINE
  8
0
 10
-67.5942
 20
38.997
 11
-67.4058
 21
38.997
  0
LINE
  8
0
 10
-67.4058
 20
38.997
 11
-67.2189
 21
38.9734
  0
LINE
  8
0
 10
-67.2189
 20
38.9734
 11
-67.0365
 21
38.9266
  0
LINE
  8
0
 10
-67.0365
 20
38.9266
 11
-66.8613
 21
38.8572
  0
LINE
  8
0
 10
-66.8613
 20
38.8572
 11
-66.6963
 21
38.7665
  0
LINE
  8
0
 10
-66.6963
 20
38.7665
 11
-66.5439
 21
38.6558
  0
LINE
  8
0
 10
-66.5439
 20
38.6558
 11
-66.4065
 21
38.5268
  0
LINE
  8
0
 10
-66.4065
 20
38.5268
 11
-66.2865
 21
38.3817
  0
LINE
  8
0
 10
-66.2865
 20
38.3817
 11
-66.1855
 21
38.2226
  0
LINE
  8
0
 10
-66.1855
 20
38.2226
 11
-66.1053
 21
38.0522
  0
LINE
  8
0
 10
-66.1053
 20
38.0522
 11
-66.0471
 21
37.873
  0
LINE
  8
0
 10
-66.0471
 20
37.873
 11
-66.0118
 21
37.688
  0
LINE
  8
0
 10
-66.0118
 20
37.688
 11
-66
 21
37.5
  0
LINE
  8
0
 10
-66
 20
37.5
 11
-66.0118
 21
37.312
  0
LINE
  8
0
 10
-66.0118
 20
37.312
 11
-66.0471
 21
37.127
  0
LINE
  8
0
 10
-66.0471
 20
37.127
 11
-66.1053
 21
36.9478
  0
LINE
  8
0
 10
-66.1053
 20
36.9478
 11
-66.1855
 21
36.7774
  0
LINE
  8
0
 10
-66.1855
 20
36.7774
 11
-66.2865
 21
36.6183
  0
LINE
  8
0
 10
-66.2865
 20
36.6183
 11
-66.4065
 21
36.4732
  0
LINE
  8
0
 10
-66.4065
 20
36.4732
 11
-66.5439
 21
36.3442
  0
LINE
  8
0
 10
-66.5439
 20
36.3442
 11
-66.6963
 21
36.2335
  0
LINE
  8
0
 10
-66.6963
 20
36.2335
 11
-66.8613
 21
36.1428
  0
LINE
  8
0
 10
-66.8613
 20
36.1428
 11
-67.0365
 21
36.0734
  0
LINE
  8
0
 10
-67.0365
 20
36.0734
 11
-67.2189
 21
36.0266
  0
LINE
  8
0
 10
-67.2189
 20
36.0266
 11
-67.4058
 21
36.003
  0
LINE
  8
0
 10
-67.4058
 20
36.003
 11
-67.5942
 21
36.003
  0
LINE
  8
0
 10
67.4058
 20
36.003
 11
67.2189
 21
36.0266
  0
LINE
  8
0
 10
67.2189
 20
36.0266
 11
67.0365
 21
36.0734
  0
LINE
  8
0
 10
67.0365
 20
36.0734
 11
66.8613
 21
36.1428
  0
LINE
  8
0
 10
66.8613
 20
36.1428
 11
66.6963
 21
36.2335
  0
LINE
  8
0
 10
66.6963
 20
36.2335
 11
66.5439
 21
36.3442
  0
LINE
  8
0
 10
66.5439
 20
36.3442
 11
66.4065
 21
36.4732
  0
LINE
  8
0
 10
66.4065
 20
36.4732
 11
66.2865
 21
36.6183
  0
LINE
  8
0
 10
66.2865
 20
36.6183
 11
66.1855
 21
36.7774
  0
LINE
  8
0
 10
66.1855
 20
36.7774
 11
66.1053
 21
36.9478
  0
LINE
  8
0
 10
66.1053
 20
36.9478
 11
66.0471
 21
37.127
  0
LINE
  8
0
 10
66.0471
 20
37.127
 11
66.0118
 21
37.312
  0
LINE
  8
0
 10
66.0118
 20
37.312
 11
66
 21
37.5
  0
LINE
  8
0
 10
66
 20
37.5
 11
66.0118
 21
37.688
  0
LINE
  8
0
 10
66.0118
 20
37.688
 11
66.0471
 21
37.873
  0
LINE
  8
0
 10
66.0471
 20
37.873
 11
66.1053
 21
38.0522
  0
LINE
  8
0
 10
66.1053
 20
38.0522
 11
66.1855
 21
38.2226
  0
LINE
  8
0
 10
66.1855
 20
38.2226
 11
66.2865
 21
38.3817
  0
LINE
  8
0
 10
66.2865
 20
38.3817
 11
66.4065
 21
38.5268
  0
LINE
  8
0
 10
66.4065
 20
38.5268
 11
66.5439
 21
38.6558
  0
LINE
  8
0
 10
66.5439
 20
38.6558
 11
66.6963
 21
38.7665
  0
LINE
  8
0
 10
66.6963
 20
38.7665
 11
66.8613
 21
38.8572
  0
LINE
  8
0
 10
66.8613
 20
38.8572
 11
67.0365
 21
38.9266
  0
LINE
  8
0
 10
67.0365
 20
38.9266
 11
67.2189
 21
38.9734
  0
LINE
  8
0
 10
67.2189
 20
38.9734
 11
67.4058
 21
38.997
  0
LINE
  8
0
 10
67.4058
 20
38.997
 11
67.5942
 21
38.997
  0
LINE
  8
0
 10
67.5942
 20
38.997
 11
67.7811
 21
38.9734
  0
LINE
  8
0
 10
67.7811
 20
38.9734
 11
67.9635
 21
38.9266
  0
LINE
  8
0
 10
67.9635
 20
38.9266
 11
68.1387
 21
38.8572
  0
LINE
  8
0
 10
68.1387
 20
38.8572
 11
68.3037
 21
38.7665
  0
LINE
  8
0
 10
68.3037
 20
38.7665
 11
68.4561
 21
38.6558
  0
LINE
  8
0
 10
68.4561
 20
38.6558
 11
68.5934
 21
38.5268
  0
LINE
  8
0
 10
68.5934
 20
38.5268
 11
68.7135
 21
38.3817
  0
LINE
  8
0
 10
68.7135
 20
38.3817
 11
68.8145
 21
38.2226
  0
LINE
  8
0
 10
68.8145
 20
38.2226
 11
68.8947
 21
38.0522
  0
LINE
  8
0
 10
68.8947
 20
38.0522
 11
68.9529
 21
37.873
  0
LINE
  8
0
 10
68.9529
 20
37.873
 11
68.9882
 21
37.688
  0
LINE
  8
0
 10
68.9882
 20
37.688
 11
69
 21
37.5
  0
LINE
  8
0
 10
69
 20
37.5
 11
68.9882
 21
37.312
  0
LINE
  8
0
 10
68.9882
 20
37.312
 11
68.9529
 21
37.127
  0
LINE
  8
0
 10
68.9529
 20
37.127
 11
68.8947
 21
36.9478
  0
LINE
  8
0
 10
68.8947
 20
36.9478
 11
68.8145
 21
36.7774
  0
LINE
  8
0
 10
68.8145
 20
36.7774
 11
68.7135
 21
36.6183
  0
LINE
  8
0
 10
68.7135
 20
36.6183
 11
68.5934
 21
36.4732
  0
LINE
  8
0
 10
68.5934
 20
36.4732
 11
68.4561
 21
36.3442
  0
LINE
  8
0
 10
68.4561
 20
36.3442
 11
68.3037
 21
36.2335
  0
LINE
  8
0
 10
68.3037
 20
36.2335
 11
68.1387
 21
36.1428
  0
LINE
  8
0
 10
68.1387
 20
36.1428
 11
67.9635
 21
36.0734
  0
LINE
  8
0
 10
67.9635
 20
36.0734
 11
67.7811
 21
36.0266
  0
LINE
  8
0
 10
67.7811
 20
36.0266
 11
67.5942
 21
36.003
  0
LINE
  8
0
 10
67.5942
 20
36.003
 11
67.4058
 21
36.003
  0
LINE
  8
0
 10
-67.6884
 20
27.0059
 11
-68.0621
 21
27.0531
  0
LINE
  8
0
 10
-68.0621
 20
27.0531
 11
-68.427
 21
27.1468
  0
LINE
  8
0
 10
-68.427
 20
27.1468
 11
-68.7773
 21
27.2855
  0
LINE
  8
0
 10
-68.7773
 20
27.2855
 11
-69.1075
 21
27.467
  0
LINE
  8
0
 10
-69.1075
 20
27.467
 11
-69.4123
 21
27.6884
  0
LINE
  8
0
 10
-69.4123
 20
27.6884
 11
-69.6869
 21
27.9464
  0
LINE
  8
0
 10
-69.6869
 20
27.9464
 11
-69.927
 21
28.2366
  0
LINE
  8
0
 10
-69.927
 20
28.2366
 11
-70.1289
 21
28.5547
  0
LINE
  8
0
 10
-70.1289
 20
28.5547
 11
-70.2893
 21
28.8956
  0
LINE
  8
0
 10
-70.2893
 20
28.8956
 11
-70.4057
 21
29.2539
  0
LINE
  8
0
 10
-70.4057
 20
29.2539
 11
-70.4763
 21
29.624
  0
LINE
  8
0
 10
-70.4763
 20
29.624
 11
-70.5
 21
30
  0
LINE
  8
0
 10
-70.5
 20
30
 11
-70.4763
 21
30.376
  0
LINE
  8
0
 10
-70.4763
 20
30.376
 11
-70.4057
 21
30.7461
  0
LINE
  8
0
 10
-70.4057
 20
30.7461
 11
-70.2893
 21
31.1044
  0
LINE
  8
0
 10
-70.2893
 20
31.1044
 11
-70.1289
 21
31.4453
  0
LINE
  8
0
 10
-70.1289
 20
31.4453
 11
-69.927
 21
31.7634
  0
LINE
  8
0
 10
-69.927
 20
31.7634
 11
-69.6869
 21
32.0536
  0
LINE
  8
0
 10
-69.6869
 20
32.0536
 11
-69.4123
 21
32.3115
  0
LINE
  8
0
 10
-69.4123
 20
32.3115
 11
-69.1075
 21
32.533
  0
LINE
  8
0
 10
-69.1075
 20
32.533
 11
-68.7773
 21
32.7145
  0
LINE
  8
0
 10
-68.7773
 20
32.7145
 11
-68.427
 21
32.8532
  0
LINE
  8
0
 10
-68.427
 20
32.8532
 11
-68.0621
 21
32.9469
  0
LINE
  8
0
 10
-68.0621
 20
32.9469
 11
-67.6884
 21
32.9941
  0
LINE
  8
0
 10
-67.6884
 20
32.9941
 11
-67.3116
 21
32.9941
  0
LINE
  8
0
 10
-67.3116
 20
32.9941
 11
-66.9379
 21
32.9469
  0
LINE
  8
0
 10
-66.9379
 20
32.9469
 11
-66.573
 21
32.8532
  0
LINE
  8
0
 10
-66.573
 20
32.8532
 11
-66.2227
 21
32.7145
  0
LINE
  8
0
 10
-66.2227
 20
32.7145
 11
-65.8925
 21
32.533
  0
LINE
  8
0
 10
-65.8925
 20
32.533
 11
-65.5877
 21
32.3115
  0
LINE
  8
0
 10
-65.5877
 20
32.3115
 11
-65.3131
 21
32.0536
  0
LINE
  8
0
 10
-65.3131
 20
32.0536
 11
-65.073
 21
31.7634
  0
LINE
  8
0
 10
-65.073
 20
31.7634
 11
-64.8711
 21
31.4453
  0
LINE
  8
0
 10
-64.8711
 20
31.4453
 11
-64.7107
 21
31.1044
  0
LINE
  8
0
 10
-64.7107
 20
31.1044
 11
-64.5943
 21
30.7461
  0
LINE
  8
0
 10
-64.5943
 20
30.7461
 11
-64.5237
 21
30.376
  0
LINE
  8
0
 10
-64.5237
 20
30.376
 11
-64.5
 21
30
  0
LINE
  8
0
 10
-64.5
 20
30
 11
-64.5237
 21
29.624
  0
LINE
  8
0
 10
-64.5237
 20
29.624
 11
-64.5943
 21
29.2539
  0
LINE
  8
0
 10
-64.5943
 20
29.2539
 11
-64.7107
 21
28.8956
  0
LINE
  8
0
 10
-64.7107
 20
28.8956
 11
-64.8711
 21
28.5547
  0
LINE
  8
0
 10
-64.8711
 20
28.5547
 11
-65.073
 21
28.2366
  0
LINE
  8
0
 10
-65.073
 20
28.2366
 11
-65.3131
 21
27.9464
  0
LINE
  8
0
 10
-65.3131
 20
27.9464
 11
-65.5877
 21
27.6884
  0
LINE
  8
0
 10
-65.5877
 20
27.6884
 11
-65.8925
 21
27.467
  0
LINE
  8
0
 10
-65.8925
 20
27.467
 11
-66.2227
 21
27.2855
  0
LINE
  8
0
 10
-66.2227
 20
27.2855
 11
-66.573
 21
27.1468
  0
LINE
  8
0
 10
-66.573
 20
27.1468
 11
-66.9379
 21
27.0531
  0
LINE
  8
0
 10
-66.9379
 20
27.0531
 11
-67.3116
 21
27.0059
  0
LINE
  8
0
 10
-67.3116
 20
27.0059
 11
-67.6884
 21
27.0059
  0
LINE
  8
0
 10
67.3116
 20
27.0059
 11
66.9379
 21
27.0531
  0
LINE
  8
0
 10
66.9379
 20
27.0531
 11
66.573
 21
27.1468
  0
LINE
  8
0
 10
66.573
 20
27.1468
 11
66.2227
 21
27.2855
  0
LINE
  8
0
 10
66.2227
 20
27.2855
 11
65.8925
 21
27.467
  0
LINE
  8
0
 10
65.8925
 20
27.467
 11
65.5877
 21
27.6884
  0
LINE
  8
0
 10
65.5877
 20
27.6884
 11
65.3131
 21
27.9464
  0
LINE
  8
0
 10
65.3131
 20
27.9464
 11
65.073
 21
28.2366
  0
LINE
  8
0
 10
65.073
 20
28.2366
 11
64.8711
 21
28.5547
  0
LINE
  8
0
 10
64.8711
 20
28.5547
 11
64.7107
 21
28.8956
  0
LINE
  8
0
 10
64.7107
 20
28.8956
 11
64.5943
 21
29.2539
  0
LINE
  8
0
 10
64.5943
 20
29.2539
 11
64.5237
 21
29.624
  0
LINE
  8
0
 10
64.5237
 20
29.624
 11
64.5
 21
30
  0
LINE
  8
0
 10
64.5
 20
30
 11
64.5237
 21
30.376
  0
LINE
  8
0
 10
64.5237
 20
30.376
 11
64.5943
 21
30.7461
  0
LINE
  8
0
 10
64.5943
 20
30.7461
 11
64.7107
 21
31.1044
  0
LINE
  8
0
 10
64.7107
 20
31.1044
 11
64.8711
 21
31.4453
  0
LINE
  8
0
 10
64.8711
 20
31.4453
 11
65.073
 21
31.7634
  0
LINE
  8
0
 10
65.073
 20
31.7634
 11
65.3131
 21
32.0536
  0
LINE
  8
0
 10
65.3131
 20
32.0536
 11
65.5877
 21
32.3115
  0
LINE
  8
0
 10
65.5877
 20
32.3115
 11
65.8925
 21
32.533
  0
LINE
  8
0
 10
65.8925
 20
32.533
 11
66.2227
 21
32.7145
  0
LINE
  8
0
 10
66.2227
 20
32.7145
 11
66.573
 21
32.8532
  0
LINE
  8
0
 10
66.573
 20
32.8532
 11
66.9379
 21
32.9469
  0
LINE
  8
0
 10
66.9379
 20
32.9469
 11
67.3116
 21
32.9941
  0
LINE
  8
0
 10
67.3116
 20
32.9941
 11
67.6884
 21
32.9941
  0
LINE
  8
0
 10
67.6884
 20
32.9941
 11
68.0621
 21
32.9469
  0
LINE
  8
0
 10
68.0621
 20
32.9469
 11
68.427
 21
32.8532
  0
LINE
  8
0
 10
68.427
 20
32.8532
 11
68.7773
 21
32.7145
  0
LINE
  8
0
 10
68.7773
 20
32.7145
 11
69.1075
 21
32.533
  0
LINE
  8
0
 10
69.1075
 20
32.533
 11
69.4123
 21
32.3115
  0
LINE
  8
0
 10
69.4123
 20
32.3115
 11
69.6869
 21
32.0536
  0
LINE
  8
0
 10
69.6869
 20
32.0536
 11
69.927
 21
31.7634
  0
LINE
  8
0
 10
69.927
 20
31.7634
 11
70.1289
 21
31.4453
  0
LINE
  8
0
 10
70.1289
 20
31.4453
 11
70.2893
 21
31.1044
  0
LINE
  8
0
 10
70.2893
 20
31.1044
 11
70.4057
 21
30.7461
  0
LINE
  8
0
 10
70.4057
 20
30.7461
 11
70.4763
 21
30.376
  0
LINE
  8
0
 10
70.4763
 20
30.376
 11
70.5
 21
30
  0
LINE
  8
0
 10
70.5
 20
30
 11
70.4763
 21
29.624
  0
LINE
  8
0
 10
70.4763
 20
29.624
 11
70.4057
 21
29.2539
  0
LINE
  8
0
 10
70.4057
 20
29.2539
 11
70.2893
 21
28.8956
  0
LINE
  8
0
 10
70.2893
 20
28.8956
 11
70.1289
 21
28.5547
  0
LINE
  8
0
 10
70.1289
 20
28.5547
 11
69.927
 21
28.2366
  0
LINE
  8
0
 10
69.927
 20
28.2366
 11
69.6869
 21
27.9464
  0
LINE
  8
0
 10
69.6869
 20
27.9464
 11
69.4123
 21
27.6884
  0
LINE
  8
0
 10
69.4123
 20
27.6884
 11
69.1075
 21
27.467
  0
LINE
  8
0
 10
69.1075
 20
27.467
 11
68.7773
 21
27.2855
  0
LINE
  8
0
 10
68.7773
 20
27.2855
 11
68.427
 21
27.1468
  0
LINE
  8
0
 10
68.427
 20
27.1468
 11
68.0621
 21
27.0531
  0
LINE
  8
0
 10
68.0621
 20
27.0531
 11
67.6884
 21
27.0059
  0
LINE
  8
0
 10
67.6884
 20
27.0059
 11
67.3116
 21
27.0059
  0
LINE
  8
0
 10
67.4058
 20
21.003
 11
67.2189
 21
21.0266
  0
LINE
  8
0
 10
67.2189
 20
21.0266
 11
67.0365
 21
21.0734
  0
LINE
  8
0
 10
67.0365
 20
21.0734
 11
66.8613
 21
21.1427
  0
LINE
  8
0
 10
66.8613
 20
21.1427
 11
66.6963
 21
21.2335
  0
LINE
  8
0
 10
66.6963
 20
21.2335
 11
66.5439
 21
21.3442
  0
LINE
  8
0
 10
66.5439
 20
21.3442
 11
66.4065
 21
21.4732
  0
LINE
  8
0
 10
66.4065
 20
21.4732
 11
66.2865
 21
21.6183
  0
LINE
  8
0
 10
66.2865
 20
21.6183
 11
66.1855
 21
21.7774
  0
LINE
  8
0
 10
66.1855
 20
21.7774
 11
66.1053
 21
21.9478
  0
LINE
  8
0
 10
66.1053
 20
21.9478
 11
66.0471
 21
22.127
  0
LINE
  8
0
 10
66.0471
 20
22.127
 11
66.0118
 21
22.312
  0
LINE
  8
0
 10
66.0118
 20
22.312
 11
66
 21
22.5
  0
LINE
  8
0
 10
66
 20
22.5
 11
66.0118
 21
22.688
  0
LINE
  8
0
 10
66.0118
 20
22.688
 11
66.0471
 21
22.873
  0
LINE
  8
0
 10
66.0471
 20
22.873
 11
66.1053
 21
23.0522
  0
LINE
  8
0
 10
66.1053
 20
23.0522
 11
66.1855
 21
23.2226
  0
LINE
  8
0
 10
66.1855
 20
23.2226
 11
66.2865
 21
23.3817
  0
LINE
  8
0
 10
66.2865
 20
23.3817
 11
66.4065
 21
23.5268
  0
LINE
  8
0
 10
66.4065
 20
23.5268
 11
66.5439
 21
23.6558
  0
LINE
  8
0
 10
66.5439
 20
23.6558
 11
66.6963
 21
23.7665
  0
LINE
  8
0
 10
66.6963
 20
23.7665
 11
66.8613
 21
23.8572
  0
LINE
  8
0
 10
66.8613
 20
23.8572
 11
67.0365
 21
23.9266
  0
LINE
  8
0
 10
67.0365
 20
23.9266
 11
67.2189
 21
23.9734
  0
LINE
  8
0
 10
67.2189
 20
23.9734
 11
67.4058
 21
23.997
  0
LINE
  8
0
 10
67.4058
 20
23.997
 11
67.5942
 21
23.997
  0
LINE
  8
0
 10
67.5942
 20
23.997
 11
67.7811
 21
23.9734
  0
LINE
  8
0
 10
67.7811
 20
23.9734
 11
67.9635
 21
23.9266
  0
LINE
  8
0
 10
67.9635
 20
23.9266
 11
68.1387
 21
23.8572
  0
LINE
  8
0
 10
68.1387
 20
23.8572
 11
68.3037
 21
23.7665
  0
LINE
  8
0
 10
68.3037
 20
23.7665
 11
68.4561
 21
23.6558
  0
LINE
  8
0
 10
68.4561
 20
23.6558
 11
68.5934
 21
23.5268
  0
LINE
  8
0
 10
68.5934
 20
23.5268
 11
68.7135
 21
23.3817
  0
LINE
  8
0
 10
68.7135
 20
23.3817
 11
68.8145
 21
23.2226
  0
LINE
  8
0
 10
68.8145
 20
23.2226
 11
68.8947
 21
23.0522
  0
LINE
  8
0
 10
68.8947
 20
23.0522
 11
68.9529
 21
22.873
  0
LINE
  8
0
 10
68.9529
 20
22.873
 11
68.9882
 21
22.688
  0
LINE
  8
0
 10
68.9882
 20
22.688
 11
69
 21
22.5
  0
LINE
  8
0
 10
69
 20
22.5
 11
68.9882
 21
22.312
  0
LINE
  8
0
 10
68.9882
 20
22.312
 11
68.9529
 21
22.127
  0
LINE
  8
0
 10
68.9529
 20
22.127
 11
68.8947
 21
21.9478
  0
LINE
  8
0
 10
68.8947
 20
21.9478
 11
68.8145
 21
21.7774
  0
LINE
  8
0
 10
68.8145
 20
21.7774
 11
68.7135
 21
21.6183
  0
LINE
  8
0
 10
68.7135
 20
21.6183
 11
68.5934
 21
21.4732
  0
LINE
  8
0
 10
68.5934
 20
21.4732
 11
68.4561
 21
21.3442
  0
LINE
  8
0
 10
68.4561
 20
21.3442
 11
68.3037
 21
21.2335
  0
LINE
  8
0
 10
68.3037
 20
21.2335
 11
68.1387
 21
21.1427
  0
LINE
  8
0
 10
68.1387
 20
21.1427
 11
67.9635
 21
21.0734
  0
LINE
  8
0
 10
67.9635
 20
21.0734
 11
67.7811
 21
21.0266
  0
LINE
  8
0
 10
67.7811
 20
21.0266
 11
67.5942
 21
21.003
  0
LINE
  8
0
 10
67.5942
 20
21.003
 11
67.4058
 21
21.003
  0
LINE
  8
0
 10
-67.5942
 20
21.003
 11
-67.7811
 21
21.0266
  0
LINE
  8
0
 10
-67.7811
 20
21.0266
 11
-67.9635
 21
21.0734
  0
LINE
  8
0
 10
-67.9635
 20
21.0734
 11
-68.1387
 21
21.1427
  0
LINE
  8
0
 10
-68.1387
 20
21.1427
 11
-68.3037
 21
21.2335
  0
LINE
  8
0
 10
-68.3037
 20
21.2335
 11
-68.4561
 21
21.3442
  0
LINE
  8
0
 10
-68.4561
 20
21.3442
 11
-68.5934
 21
21.4732
  0
LINE
  8
0
 10
-68.5934
 20
21.4732
 11
-68.7135
 21
21.6183
  0
LINE
  8
0
 10
-68.7135
 20
21.6183
 11
-68.8145
 21
21.7774
  0
LINE
  8
0
 10
-68.8145
 20
21.7774
 11
-68.8947
 21
21.9478
  0
LINE
  8
0
 10
-68.8947
 20
21.9478
 11
-68.9529
 21
22.127
  0
LINE
  8
0
 10
-68.9529
 20
22.127
 11
-68.9882
 21
22.312
  0
LINE
  8
0
 10
-68.9882
 20
22.312
 11
-69
 21
22.5
  0
LINE
  8
0
 10
-69
 20
22.5
 11
-68.9882
 21
22.688
  0
LINE
  8
0
 10
-68.9882
 20
22.688
 11
-68.9529
 21
22.873
  0
LINE
  8
0
 10
-68.9529
 20
22.873
 11
-68.8947
 21
23.0522
  0
LINE
  8
0
 10
-68.8947
 20
23.0522
 11
-68.8145
 21
23.2226
  0
LINE
  8
0
 10
-68.8145
 20
23.2226
 11
-68.7135
 21
23.3817
  0
LINE
  8
0
 10
-68.7135
 20
23.3817
 11
-68.5934
 21
23.5268
  0
LINE
  8
0
 10
-68.5934
 20
23.5268
 11
-68.4561
 21
23.6558
  0
LINE
  8
0
 10
-68.4561
 20
23.6558
 11
-68.3037
 21
23.7665
  0
LINE
  8
0
 10
-68.3037
 20
23.7665
 11
-68.1387
 21
23.8572
  0
LINE
  8
0
 10
-68.1387
 20
23.8572
 11
-67.9635
 21
23.9266
  0
LINE
  8
0
 10
-67.9635
 20
23.9266
 11
-67.7811
 21
23.9734
  0
LINE
  8
0
 10
-67.7811
 20
23.9734
 11
-67.5942
 21
23.997
  0
LINE
  8
0
 10
-67.5942
 20
23.997
 11
-67.4058
 21
23.997
  0
LINE
  8
0
 10
-67.4058
 20
23.997
 11
-67.2189
 21
23.9734
  0
LINE
  8
0
 10
-67.2189
 20
23.9734
 11
-67.0365
 21
23.9266
  0
LINE
  8
0
 10
-67.0365
 20
23.9266
 11
-66.8613
 21
23.8572
  0
LINE
  8
0
 10
-66.8613
 20
23.8572
 11
-66.6963
 21
23.7665
  0
LINE
  8
0
 10
-66.6963
 20
23.7665
 11
-66.5439
 21
23.6558
  0
LINE
  8
0
 10
-66.5439
 20
23.6558
 11
-66.4065
 21
23.5268
  0
LINE
  8
0
 10
-66.4065
 20
23.5268
 11
-66.2865
 21
23.3817
  0
LINE
  8
0
 10
-66.2865
 20
23.3817
 11
-66.1855
 21
23.2226
  0
LINE
  8
0
 10
-66.1855
 20
23.2226
 11
-66.1053
 21
23.0522
  0
LINE
  8
0
 10
-66.1053
 20
23.0522
 11
-66.0471
 21
22.873
  0
LINE
  8
0
 10
-66.0471
 20
22.873
 11
-66.0118
 21
22.688
  0
LINE
  8
0
 10
-66.0118
 20
22.688
 11
-66
 21
22.5
  0
LINE
  8
0
 10
-66
 20
22.5
 11
-66.0118
 21
22.312
  0
LINE
  8
0
 10
-66.0118
 20
22.312
 11
-66.0471
 21
22.127
  0
LINE
  8
0
 10
-66.0471
 20
22.127
 11
-66.1053
 21
21.9478
  0
LINE
  8
0
 10
-66.1053
 20
21.9478
 11
-66.1855
 21
21.7774
  0
LINE
  8
0
 10
-66.1855
 20
21.7774
 11
-66.2865
 21
21.6183
  0
LINE
  8
0
 10
-66.2865
 20
21.6183
 11
-66.4065
 21
21.4732
  0
LINE
  8
0
 10
-66.4065
 20
21.4732
 11
-66.5439
 21
21.3442
  0
LINE
  8
0
 10
-66.5439
 20
21.3442
 11
-66.6963
 21
21.2335
  0
LINE
  8
0
 10
-66.6963
 20
21.2335
 11
-66.8613
 21
21.1427
  0
LINE
  8
0
 10
-66.8613
 20
21.1427
 11
-67.0365
 21
21.0734
  0
LINE
  8
0
 10
-67.0365
 20
21.0734
 11
-67.2189
 21
21.0266
  0
LINE
  8
0
 10
-67.2189
 20
21.0266
 11
-67.4058
 21
21.003
  0
LINE
  8
0
 10
-67.4058
 20
21.003
 11
-67.5942
 21
21.003
  0
LINE
  8
0
 10
-67.6884
 20
12.0059
 11
-68.0621
 21
12.0531
  0
LINE
  8
0
 10
-68.0621
 20
12.0531
 11
-68.427
 21
12.1468
  0
LINE
  8
0
 10
-68.427
 20
12.1468
 11
-68.7773
 21
12.2855
  0
LINE
  8
0
 10
-68.7773
 20
12.2855
 11
-69.1075
 21
12.467
  0
LINE
  8
0
 10
-69.1075
 20
12.467
 11
-69.4123
 21
12.6884
  0
LINE
  8
0
 10
-69.4123
 20
12.6884
 11
-69.6869
 21
12.9464
  0
LINE
  8
0
 10
-69.6869
 20
12.9464
 11
-69.927
 21
13.2366
  0
LINE
  8
0
 10
-69.927
 20
13.2366
 11
-70.1289
 21
13.5547
  0
LINE
  8
0
 10
-70.1289
 20
13.5547
 11
-70.2893
 21
13.8956
  0
LINE
  8
0
 10
-70.2893
 20
13.8956
 11
-70.4057
 21
14.2539
  0
LINE
  8
0
 10
-70.4057
 20
14.2539
 11
-70.4763
 21
14.624
  0
LINE
  8
0
 10
-70.4763
 20
14.624
 11
-70.5
 21
15
  0
LINE
  8
0
 10
-70.5
 20
15
 11
-70.4763
 21
15.376
  0
LINE
  8
0
 10
-70.4763
 20
15.376
 11
-70.4057
 21
15.7461
  0
LINE
  8
0
 10
-70.4057
 20
15.7461
 11
-70.2893
 21
16.1044
  0
LINE
  8
0
 10
-70.2893
 20
16.1044
 11
-70.1289
 21
16.4453
  0
LINE
  8
0
 10
-70.1289
 20
16.4453
 11
-69.927
 21
16.7634
  0
LINE
  8
0
 10
-69.927
 20
16.7634
 11
-69.6869
 21
17.0536
  0
LINE
  8
0
 10
-69.6869
 20
17.0536
 11
-69.4123
 21
17.3115
  0
LINE
  8
0
 10
-69.4123
 20
17.3115
 11
-69.1075
 21
17.533
  0
LINE
  8
0
 10
-69.1075
 20
17.533
 11
-68.7773
 21
17.7145
  0
LINE
  8
0
 10
-68.7773
 20
17.7145
 11
-68.427
 21
17.8532
  0
LINE
  8
0
 10
-68.427
 20
17.8532
 11
-68.0621
 21
17.9469
  0
LINE
  8
0
 10
-68.0621
 20
17.9469
 11
-67.6884
 21
17.9941
  0
LINE
  8
0
 10
-67.6884
 20
17.9941
 11
-67.3116
 21
17.9941
  0
LINE
  8
0
 10
-67.3116
 20
17.9941
 11
-66.9379
 21
17.9469
  0
LINE
  8
0
 10
-66.9379
 20
17.9469
 11
-66.573
 21
17.8532
  0
LINE
  8
0
 10
-66.573
 20
17.8532
 11
-66.2227
 21
17.7145
  0
LINE
  8
0
 10
-66.2227
 20
17.7145
 11
-65.8925
 21
17.533
  0
LINE
  8
0
 10
-65.8925
 20
17.533
 11
-65.5877
 21
17.3115
  0
LINE
  8
0
 10
-65.5877
 20
17.3115
 11
-65.3131
 21
17.0536
  0
LINE
  8
0
 10
-65.3131
 20
17.0536
 11
-65.073
 21
16.7634
  0
LINE
  8
0
 10
-65.073
 20
16.7634
 11
-64.8711
 21
16.4453
  0
LINE
  8
0
 10
-64.8711
 20
16.4453
 11
-64.7107
 21
16.1044
  0
LINE
  8
0
 10
-64.7107
 20
16.1044
 11
-64.5943
 21
15.7461
  0
LINE
  8
0
 10
-64.5943
 20
15.7461
 11
-64.5237
 21
15.376
  0
LINE
  8
0
 10
-64.5237
 20
15.376
 11
-64.5
 21
15
  0
LINE
  8
0
 10
-64.5
 20
15
 11
-64.5237
 21
14.624
  0
LINE
  8
0
 10
-64.5237
 20
14.624
 11
-64.5943
 21
14.2539
  0
LINE
  8
0
 10
-64.5943
 20
14.2539
 11
-64.7107
 21
13.8956
  0
LINE
  8
0
 10
-64.7107
 20
13.8956
 11
-64.8711
 21
13.5547
  0
LINE
  8
0
 10
-64.8711
 20
13.5547
 11
-65.073
 21
13.2366
  0
LINE
  8
0
 10
-65.073
 20
13.2366
 11
-65.3131
 21
12.9464
  0
LINE
  8
0
 10
-65.3131
 20
12.9464
 11
-65.5877
 21
12.6884
  0
LINE
  8
0
 10
-65.5877
 20
12.6884
 11
-65.8925
 21
12.467
  0
LINE
  8
0
 10
-65.8925
 20
12.467
 11
-66.2227
 21
12.2855
  0
LINE
  8
0
 10
-66.2227
 20
12.2855
 11
-66.573
 21
12.1468
  0
LINE
  8
0
 10
-66.573
 20
12.1468
 11
-66.9379
 21
12.0531
  0
LINE
  8
0
 10
-66.9379
 20
12.0531
 11
-67.3116
 21
12.0059
  0
LINE
  8
0
 10
-67.3116
 20
12.0059
 11
-67.6884
 21
12.0059
  0
LINE
  8
0
 10
67.3116
 20
12.0059
 11
66.9379
 21
12.0531
  0
LINE
  8
0
 10
66.9379
 20
12.0531
 11
66.573
 21
12.1468
  0
LINE
  8
0
 10
66.573
 20
12.1468
 11
66.2227
 21
12.2855
  0
LINE
  8
0
 10
66.2227
 20
12.2855
 11
65.8925
 21
12.467
  0
LINE
  8
0
 10
65.8925
 20
12.467
 11
65.5877
 21
12.6884
  0
LINE
  8
0
 10
65.5877
 20
12.6884
 11
65.3131
 21
12.9464
  0
LINE
  8
0
 10
65.3131
 20
12.9464
 11
65.073
 21
13.2366
  0
LINE
  8
0
 10
65.073
 20
13.2366
 11
64.8711
 21
13.5547
  0
LINE
  8
0
 10
64.8711
 20
13.5547
 11
64.7107
 21
13.8956
  0
LINE
  8
0
 10
64.7107
 20
13.8956
 11
64.5943
 21
14.2539
  0
LINE
  8
0
 10
64.5943
 20
14.2539
 11
64.5237
 21
14.624
  0
LINE
  8
0
 10
64.5237
 20
14.624
 11
64.5
 21
15
  0
LINE
  8
0
 10
64.5
 20
15
 11
64.5237
 21
15.376
  0
LINE
  8
0
 10
64.5237
 20
15.376
 11
64.5943
 21
15.7461
  0
LINE
  8
0
 10
64.5943
 20
15.7461
 11
64.7107
 21
16.1044
  0
LINE
  8
0
 10
64.7107
 20
16.1044
 11
64.8711
 21
16.4453
  0
LINE
  8
0
 10
64.8711
 20
16.4453
 11
65.073
 21
16.7634
  0
LINE
  8
0
 10
65.073
 20
16.7634
 11
65.3131
 21
17.0536
  0
LINE
  8
0
 10
65.3131
 20
17.0536
 11
65.5877
 21
17.3115
  0
LINE
  8
0
 10
65.5877
 20
17.3115
 11
65.8925
 21
17.533
  0
LINE
  8
0
 10
65.8925
 20
17.533
 11
66.2227
 21
17.7145
  0
LINE
  8
0
 10
66.2227
 20
17.7145
 11
66.573
 21
17.8532
  0
LINE
  8
0
 10
66.573
 20
17.8532
 11
66.9379
 21
17.9469
  0
LINE
  8
0
 10
66.9379
 20
17.9469
 11
67.3116
 21
17.9941
  0
LINE
  8
0
 10
67.3116
 20
17.9941
 11
67.6884
 21
17.9941
  0
LINE
  8
0
 10
67.6884
 20
17.9941
 11
68.0621
 21
17.9469
  0
LINE
  8
0
 10
68.0621
 20
17.9469
 11
68.427
 21
17.8532
  0
LINE
  8
0
 10
68.427
 20
17.8532
 11
68.7773
 21
17.7145
  0
LINE
  8
0
 10
68.7773
 20
17.7145
 11
69.1075
 21
17.533
  0
LINE
  8
0
 10
69.1075
 20
17.533
 11
69.4123
 21
17.3115
  0
LINE
  8
0
 10
69.4123
 20
17.3115
 11
69.6869
 21
17.0536
  0
LINE
  8
0
 10
69.6869
 20
17.0536
 11
69.927
 21
16.7634
  0
LINE
  8
0
 10
69.927
 20
16.7634
 11
70.1289
 21
16.4453
  0
LINE
  8
0
 10
70.1289
 20
16.4453
 11
70.2893
 21
16.1044
  0
LINE
  8
0
 10
70.2893
 20
16.1044
 11
70.4057
 21
15.7461
  0
LINE
  8
0
 10
70.4057
 20
15.7461
 11
70.4763
 21
15.376
  0
LINE
  8
0
 10
70.4763
 20
15.376
 11
70.5
 21
15
  0
LINE
  8
0
 10
70.5
 20
15
 11
70.4763
 21
14.624
  0
LINE
  8
0
 10
70.4763
 20
14.624
 11
70.4057
 21
14.2539
  0
LINE
  8
0
 10
70.4057
 20
14.2539
 11
70.2893
 21
13.8956
  0
LINE
  8
0
 10
70.2893
 20
13.8956
 11
70.1289
 21
13.5547
  0
LINE
  8
0
 10
70.1289
 20
13.5547
 11
69.927
 21
13.2366
  0
LINE
  8
0
 10
69.927
 20
13.2366
 11
69.6869
 21
12.9464
  0
LINE
  8
0
 10
69.6869
 20
12.9464
 11
69.4123
 21
12.6884
  0
LINE
  8
0
 10
69.4123
 20
12.6884
 11
69.1075
 21
12.467
  0
LINE
  8
0
 10
69.1075
 20
12.467
 11
68.7773
 21
12.2855
  0
LINE
  8
0
 10
68.7773
 20
12.2855
 11
68.427
 21
12.1468
  0
LINE
  8
0
 10
68.427
 20
12.1468
 11
68.0621
 21
12.0531
  0
LINE
  8
0
 10
68.0621
 20
12.0531
 11
67.6884
 21
12.0059
  0
LINE
  8
0
 10
67.6884
 20
12.0059
 11
67.3116
 21
12.0059
  0
LINE
  8
0
 10
-67.5942
 20
6.00294
 11
-67.7811
 21
6.02657
  0
LINE
  8
0
 10
-67.7811
 20
6.02657
 11
-67.9635
 21
6.07341
  0
LINE
  8
0
 10
-67.9635
 20
6.07341
 11
-68.1387
 21
6.14275
  0
LINE
  8
0
 10
-68.1387
 20
6.14275
 11
-68.3037
 21
6.23351
  0
LINE
  8
0
 10
-68.3037
 20
6.23351
 11
-68.4561
 21
6.34422
  0
LINE
  8
0
 10
-68.4561
 20
6.34422
 11
-68.5934
 21
6.47318
  0
LINE
  8
0
 10
-68.5934
 20
6.47318
 11
-68.7135
 21
6.61832
  0
LINE
  8
0
 10
-68.7135
 20
6.61832
 11
-68.8145
 21
6.77736
  0
LINE
  8
0
 10
-68.8145
 20
6.77736
 11
-68.8947
 21
6.9478
  0
LINE
  8
0
 10
-68.8947
 20
6.9478
 11
-68.9529
 21
7.12695
  0
LINE
  8
0
 10
-68.9529
 20
7.12695
 11
-68.9882
 21
7.312
  0
LINE
  8
0
 10
-68.9882
 20
7.312
 11
-69
 21
7.5
  0
LINE
  8
0
 10
-69
 20
7.5
 11
-68.9882
 21
7.68799
  0
LINE
  8
0
 10
-68.9882
 20
7.68799
 11
-68.9529
 21
7.87303
  0
LINE
  8
0
 10
-68.9529
 20
7.87303
 11
-68.8947
 21
8.05219
  0
LINE
  8
0
 10
-68.8947
 20
8.05219
 11
-68.8145
 21
8.22263
  0
LINE
  8
0
 10
-68.8145
 20
8.22263
 11
-68.7135
 21
8.38167
  0
LINE
  8
0
 10
-68.7135
 20
8.38167
 11
-68.5934
 21
8.52681
  0
LINE
  8
0
 10
-68.5934
 20
8.52681
 11
-68.4561
 21
8.65576
  0
LINE
  8
0
 10
-68.4561
 20
8.65576
 11
-68.3037
 21
8.76648
  0
LINE
  8
0
 10
-68.3037
 20
8.76648
 11
-68.1387
 21
8.85724
  0
LINE
  8
0
 10
-68.1387
 20
8.85724
 11
-67.9635
 21
8.92657
  0
LINE
  8
0
 10
-67.9635
 20
8.92657
 11
-67.7811
 21
8.97342
  0
LINE
  8
0
 10
-67.7811
 20
8.97342
 11
-67.5942
 21
8.99704
  0
LINE
  8
0
 10
-67.5942
 20
8.99704
 11
-67.4058
 21
8.99704
  0
LINE
  8
0
 10
-67.4058
 20
8.99704
 11
-67.2189
 21
8.97342
  0
LINE
  8
0
 10
-67.2189
 20
8.97342
 11
-67.0365
 21
8.92657
  0
LINE
  8
0
 10
-67.0365
 20
8.92657
 11
-66.8613
 21
8.85724
  0
LINE
  8
0
 10
-66.8613
 20
8.85724
 11
-66.6963
 21
8.76648
  0
LINE
  8
0
 10
-66.6963
 20
8.76648
 11
-66.5439
 21
8.65576
  0
LINE
  8
0
 10
-66.5439
 20
8.65576
 11
-66.4065
 21
8.52681
  0
LINE
  8
0
 10
-66.4065
 20
8.52681
 11
-66.2865
 21
8.38167
  0
LINE
  8
0
 10
-66.2865
 20
8.38167
 11
-66.1855
 21
8.22263
  0
LINE
  8
0
 10
-66.1855
 20
8.22263
 11
-66.1053
 21
8.05219
  0
LINE
  8
0
 10
-66.1053
 20
8.05219
 11
-66.0471
 21
7.87303
  0
LINE
  8
0
 10
-66.0471
 20
7.87303
 11
-66.0118
 21
7.68799
  0
LINE
  8
0
 10
-66.0118
 20
7.68799
 11
-66
 21
7.5
  0
LINE
  8
0
 10
-66
 20
7.5
 11
-66.0118
 21
7.312
  0
LINE
  8
0
 10
-66.0118
 20
7.312
 11
-66.0471
 21
7.12695
  0
LINE
  8
0
 10
-66.0471
 20
7.12695
 11
-66.1053
 21
6.9478
  0
LINE
  8
0
 10
-66.1053
 20
6.9478
 11
-66.1855
 21
6.77736
  0
LINE
  8
0
 10
-66.1855
 20
6.77736
 11
-66.2865
 21
6.61832
  0
LINE
  8
0
 10
-66.2865
 20
6.61832
 11
-66.4065
 21
6.47318
  0
LINE
  8
0
 10
-66.4065
 20
6.47318
 11
-66.5439
 21
6.34422
  0
LINE
  8
0
 10
-66.5439
 20
6.34422
 11
-66.6963
 21
6.23351
  0
LINE
  8
0
 10
-66.6963
 20
6.23351
 11
-66.8613
 21
6.14275
  0
LINE
  8
0
 10
-66.8613
 20
6.14275
 11
-67.0365
 21
6.07341
  0
LINE
  8
0
 10
-67.0365
 20
6.07341
 11
-67.2189
 21
6.02657
  0
LINE
  8
0
 10
-67.2189
 20
6.02657
 11
-67.4058
 21
6.00294
  0
LINE
  8
0
 10
-67.4058
 20
6.00294
 11
-67.5942
 21
6.00294
  0
LINE
  8
0
 10
67.4058
 20
6.00294
 11
67.2189
 21
6.02657
  0
LINE
  8
0
 10
67.2189
 20
6.02657
 11
67.0365
 21
6.07341
  0
LINE
  8
0
 10
67.0365
 20
6.07341
 11
66.8613
 21
6.14275
  0
LINE
  8
0
 10
66.8613
 20
6.14275
 11
66.6963
 21
6.23351
  0
LINE
  8
0
 10
66.6963
 20
6.23351
 11
66.5439
 21
6.34422
  0
LINE
  8
0
 10
66.5439
 20
6.34422
 11
66.4065
 21
6.47318
  0
LINE
  8
0
 10
66.4065
 20
6.47318
 11
66.2865
 21
6.61832
  0
LINE
  8
0
 10
66.2865
 20
6.61832
 11
66.1855
 21
6.77736
  0
LINE
  8
0
 10
66.1855
 20
6.77736
 11
66.1053
 21
6.9478
  0
LINE
  8
0
 10
66.1053
 20
6.9478
 11
66.0471
 21
7.12695
  0
LINE
  8
0
 10
66.0471
 20
7.12695
 11
66.0118
 21
7.312
  0
LINE
  8
0
 10
66.0118
 20
7.312
 11
66
 21
7.5
  0
LINE
  8
0
 10
66
 20
7.5
 11
66.0118
 21
7.68799
  0
LINE
  8
0
 10
66.0118
 20
7.68799
 11
66.0471
 21
7.87303
  0
LINE
  8
0
 10
66.0471
 20
7.87303
 11
66.1053
 21
8.05219
  0
LINE
  8
0
 10
66.1053
 20
8.05219
 11
66.1855
 21
8.22263
  0
LINE
  8
0
 10
66.1855
 20
8.22263
 11
66.2865
 21
8.38167
  0
LINE
  8
0
 10
66.2865
 20
8.38167
 11
66.4065
 21
8.52681
  0
LINE
  8
0
 10
66.4065
 20
8.52681
 11
66.5439
 21
8.65576
  0
LINE
  8
0
 10
66.5439
 20
8.65576
 11
66.6963
 21
8.76648
  0
LINE
  8
0
 10
66.6963
 20
8.76648
 11
66.8613
 21
8.85724
  0
LINE
  8
0
 10
66.8613
 20
8.85724
 11
67.0365
 21
8.92657
  0
LINE
  8
0
 10
67.0365
 20
8.92657
 11
67.2189
 21
8.97342
  0
LINE
  8
0
 10
67.2189
 20
8.97342
 11
67.4058
 21
8.99704
  0
LINE
  8
0
 10
67.4058
 20
8.99704
 11
67.5942
 21
8.99704
  0
LINE
  8
0
 10
67.5942
 20
8.99704
 11
67.7811
 21
8.97342
  0
LINE
  8
0
 10
67.7811
 20
8.97342
 11
67.9635
 21
8.92657
  0
LINE
  8
0
 10
67.9635
 20
8.92657
 11
68.1387
 21
8.85724
  0
LINE
  8
0
 10
68.1387
 20
8.85724
 11
68.3037
 21
8.76648
  0
LINE
  8
0
 10
68.3037
 20
8.76648
 11
68.4561
 21
8.65576
  0
LINE
  8
0
 10
68.4561
 20
8.65576
 11
68.5934
 21
8.52681
  0
LINE
  8
0
 10
68.5934
 20
8.52681
 11
68.7135
 21
8.38167
  0
LINE
  8
0
 10
68.7135
 20
8.38167
 11
68.8145
 21
8.22263
  0
LINE
  8
0
 10
68.8145
 20
8.22263
 11
68.8947
 21
8.05219
  0
LINE
  8
0
 10
68.8947
 20
8.05219
 11
68.9529
 21
7.87303
  0
LINE
  8
0
 10
68.9529
 20
7.87303
 11
68.9882
 21
7.68799
  0
LINE
  8
0
 10
68.9882
 20
7.68799
 11
69
 21
7.5
  0
LINE
  8
0
 10
69
 20
7.5
 11
68.9882
 21
7.312
  0
LINE
  8
0
 10
68.9882
 20
7.312
 11
68.9529
 21
7.12695
  0
LINE
  8
0
 10
68.9529
 20
7.12695
 11
68.8947
 21
6.9478
  0
LINE
  8
0
 10
68.8947
 20
6.9478
 11
68.8145
 21
6.77736
  0
LINE
  8
0
 10
68.8145
 20
6.77736
 11
68.7135
 21
6.61832
  0
LINE
  8
0
 10
68.7135
 20
6.61832
 11
68.5934
 21
6.47318
  0
LINE
  8
0
 10
68.5934
 20
6.47318
 11
68.4561
 21
6.34422
  0
LINE
  8
0
 10
68.4561
 20
6.34422
 11
68.3037
 21
6.23351
  0
LINE
  8
0
 10
68.3037
 20
6.23351
 11
68.1387
 21
6.14275
  0
LINE
  8
0
 10
68.1387
 20
6.14275
 11
67.9635
 21
6.07341
  0
LINE
  8
0
 10
67.9635
 20
6.07341
 11
67.7811
 21
6.02657
  0
LINE
  8
0
 10
67.7811
 20
6.02657
 11
67.5942
 21
6.00294
  0
LINE
  8
0
 10
67.5942
 20
6.00294
 11
67.4058
 21
6.00294
  0
LINE
  8
0
 10
67.3116
 20
-2.99408
 11
66.9379
 21
-2.94685
  0
LINE
  8
0
 10
66.9379
 20
-2.94685
 11
66.573
 21
-2.85316
  0
LINE
  8
0
 10
66.573
 20
-2.85316
 11
66.2227
 21
-2.71448
  0
LINE
  8
0
 10
66.2227
 20
-2.71448
 11
65.8925
 21
-2.53297
  0
LINE
  8
0
 10
65.8925
 20
-2.53297
 11
65.5877
 21
-2.31154
  0
LINE
  8
0
 10
65.5877
 20
-2.31154
 11
65.3131
 21
-2.05363
  0
LINE
  8
0
 10
65.3131
 20
-2.05363
 11
65.073
 21
-1.76335
  0
LINE
  8
0
 10
65.073
 20
-1.76335
 11
64.8711
 21
-1.44525
  0
LINE
  8
0
 10
64.8711
 20
-1.44525
 11
64.7107
 21
-1.10437
  0
LINE
  8
0
 10
64.7107
 20
-1.10437
 11
64.5943
 21
-0.746063
  0
LINE
  8
0
 10
64.5943
 20
-0.746063
 11
64.5237
 21
-0.375992
  0
LINE
  8
0
 10
64.5237
 20
-0.375992
 11
64.5
 21
0
  0
LINE
  8
0
 10
64.5
 20
0
 11
64.5237
 21
0.375992
  0
LINE
  8
0
 10
64.5237
 20
0.375992
 11
64.5943
 21
0.746063
  0
LINE
  8
0
 10
64.5943
 20
0.746063
 11
64.7107
 21
1.10437
  0
LINE
  8
0
 10
64.7107
 20
1.10437
 11
64.8711
 21
1.44525
  0
LINE
  8
0
 10
64.8711
 20
1.44525
 11
65.073
 21
1.76335
  0
LINE
  8
0
 10
65.073
 20
1.76335
 11
65.3131
 21
2.05363
  0
LINE
  8
0
 10
65.3131
 20
2.05363
 11
65.5877
 21
2.31154
  0
LINE
  8
0
 10
65.5877
 20
2.31154
 11
65.8925
 21
2.53297
  0
LINE
  8
0
 10
65.8925
 20
2.53297
 11
66.2227
 21
2.71448
  0
LINE
  8
0
 10
66.2227
 20
2.71448
 11
66.573
 21
2.85316
  0
LINE
  8
0
 10
66.573
 20
2.85316
 11
66.9379
 21
2.94685
  0
LINE
  8
0
 10
66.9379
 20
2.94685
 11
67.3116
 21
2.99408
  0
LINE
  8
0
 10
67.3116
 20
2.99408
 11
67.6884
 21
2.99408
  0
LINE
  8
0
 10
67.6884
 20
2.99408
 11
68.0621
 21
2.94685
  0
LINE
  8
0
 10
68.0621
 20
2.94685
 11
68.427
 21
2.85316
  0
LINE
  8
0
 10
68.427
 20
2.85316
 11
68.7773
 21
2.71448
  0
LINE
  8
0
 10
68.7773
 20
2.71448
 11
69.1075
 21
2.53297
  0
LINE
  8
0
 10
69.1075
 20
2.53297
 11
69.4123
 21
2.31154
  0
LINE
  8
0
 10
69.4123
 20
2.31154
 11
69.6869
 21
2.05363
  0
LINE
  8
0
 10
69.6869
 20
2.05363
 11
69.927
 21
1.76335
  0
LINE
  8
0
 10
69.927
 20
1.76335
 11
70.1289
 21
1.44525
  0
LINE
  8
0
 10
70.1289
 20
1.44525
 11
70.2893
 21
1.10437
  0
LINE
  8
0
 10
70.2893
 20
1.10437
 11
70.4057
 21
0.746063
  0
LINE
  8
0
 10
70.4057
 20
0.746063
 11
70.4763
 21
0.375992
  0
LINE
  8
0
 10
70.4763
 20
0.375992
 11
70.5
 21
0
  0
LINE
  8
0
 10
70.5
 20
0
 11
70.4763
 21
-0.375992
  0
LINE
  8
0
 10
70.4763
 20
-0.375992
 11
70.4057
 21
-0.746063
  0
LINE
  8
0
 10
70.4057
 20
-0.746063
 11
70.2893
 21
-1.10437
  0
LINE
  8
0
 10
70.2893
 20
-1.10437
 11
70.1289
 21
-1.44525
  0
LINE
  8
0
 10
70.1289
 20
-1.44525
 11
69.927
 21
-1.76335
  0
LINE
  8
0
 10
69.927
 20
-1.76335
 11
69.6869
 21
-2.05363
  0
LINE
  8
0
 10
69.6869
 20
-2.05363
 11
69.4123
 21
-2.31154
  0
LINE
  8
0
 10
69.4123
 20
-2.31154
 11
69.1075
 21
-2.53297
  0
LINE
  8
0
 10
69.1075
 20
-2.53297
 11
68.7773
 21
-2.71448
  0
LINE
  8
0
 10
68.7773
 20
-2.71448
 11
68.427
 21
-2.85316
  0
LINE
  8
0
 10
68.427
 20
-2.85316
 11
68.0621
 21
-2.94685
  0
LINE
  8
0
 10
68.0621
 20
-2.94685
 11
67.6884
 21
-2.99408
  0
LINE
  8
0
 10
67.6884
 20
-2.99408
 11
67.3116
 21
-2.99408
  0
LINE
  8
0
 10
-67.6884
 20
-2.99408
 11
-68.0621
 21
-2.94685
  0
LINE
  8
0
 10
-68.0621
 20
-2.94685
 11
-68.427
 21
-2.85316
  0
LINE
  8
0
 10
-68.427
 20
-2.85316
 11
-68.7773
 21
-2.71448
  0
LINE
  8
0
 10
-68.7773
 20
-2.71448
 11
-69.1075
 21
-2.53297
  0
LINE
  8
0
 10
-69.1075
 20
-2.53297
 11
-69.4123
 21
-2.31154
  0
LINE
  8
0
 10
-69.4123
 20
-2.31154
 11
-69.6869
 21
-2.05363
  0
LINE
  8
0
 10
-69.6869
 20
-2.05363
 11
-69.927
 21
-1.76335
  0
LINE
  8
0
 10
-69.927
 20
-1.76335
 11
-70.1289
 21
-1.44525
  0
LINE
  8
0
 10
-70.1289
 20
-1.44525
 11
-70.2893
 21
-1.10437
  0
LINE
  8
0
 10
-70.2893
 20
-1.10437
 11
-70.4057
 21
-0.746063
  0
LINE
  8
0
 10
-70.4057
 20
-0.746063
 11
-70.4763
 21
-0.375992
  0
LINE
  8
0
 10
-70.4763
 20
-0.375992
 11
-70.5
 21
0
  0
LINE
  8
0
 10
-70.5
 20
0
 11
-70.4763
 21
0.375992
  0
LINE
  8
0
 10
-70.4763
 20
0.375992
 11
-70.4057
 21
0.746063
  0
LINE
  8
0
 10
-70.4057
 20
0.746063
 11
-70.2893
 21
1.10437
  0
LINE
  8
0
 10
-70.2893
 20
1.10437
 11
-70.1289
 21
1.44525
  0
LINE
  8
0
 10
-70.1289
 20
1.44525
 11
-69.927
 21
1.76335
  0
LINE
  8
0
 10
-69.927
 20
1.76335
 11
-69.6869
 21
2.05363
  0
LINE
  8
0
 10
-69.6869
 20
2.05363
 11
-69.4123
 21
2.31154
  0
LINE
  8
0
 10
-69.4123
 20
2.31154
 11
-69.1075
 21
2.53297
  0
LINE
  8
0
 10
-69.1075
 20
2.53297
 11
-68.7773
 21
2.71448
  0
LINE
  8
0
 10
-68.7773
 20
2.71448
 11
-68.427
 21
2.85316
  0
LINE
  8
0
 10
-68.427
 20
2.85316
 11
-68.0621
 21
2.94685
  0
LINE
  8
0
 10
-68.0621
 20
2.94685
 11
-67.6884
 21
2.99408
  0
LINE
  8
0
 10
-67.6884
 20
2.99408
 11
-67.3116
 21
2.99408
  0
LINE
  8
0
 10
-67.3116
 20
2.99408
 11
-66.9379
 21
2.94685
  0
LINE
  8
0
 10
-66.9379
 20
2.94685
 11
-66.573
 21
2.85316
  0
LINE
  8
0
 10
-66.573
 20
2.85316
 11
-66.2227
 21
2.71448
  0
LINE
  8
0
 10
-66.2227
 20
2.71448
 11
-65.8925
 21
2.53297
  0
LINE
  8
0
 10
-65.8925
 20
2.53297
 11
-65.5877
 21
2.31154
  0
LINE
  8
0
 10
-65.5877
 20
2.31154
 11
-65.3131
 21
2.05363
  0
LINE
  8
0
 10
-65.3131
 20
2.05363
 11
-65.073
 21
1.76335
  0
LINE
  8
0
 10
-65.073
 20
1.76335
 11
-64.8711
 21
1.44525
  0
LINE
  8
0
 10
-64.8711
 20
1.44525
 11
-64.7107
 21
1.10437
  0
LINE
  8
0
 10
-64.7107
 20
1.10437
 11
-64.5943
 21
0.746063
  0
LINE
  8
0
 10
-64.5943
 20
0.746063
 11
-64.5237
 21
0.375992
  0
LINE
  8
0
 10
-64.5237
 20
0.375992
 11
-64.5
 21
0
  0
LINE
  8
0
 10
-64.5
 20
0
 11
-64.5237
 21
-0.375992
  0
LINE
  8
0
 10
-64.5237
 20
-0.375992
 11
-64.5943
 21
-0.746063
  0
LINE
  8
0
 10
-64.5943
 20
-0.746063
 11
-64.7107
 21
-1.10437
  0
LINE
  8
0
 10
-64.7107
 20
-1.10437
 11
-64.8711
 21
-1.44525
  0
LINE
  8
0
 10
-64.8711
 20
-1.44525
 11
-65.073
 21
-1.76335
  0
LINE
  8
0
 10
-65.073
 20
-1.76335
 11
-65.3131
 21
-2.05363
  0
LINE
  8
0
 10
-65.3131
 20
-2.05363
 11
-65.5877
 21
-2.31154
  0
LINE
  8
0
 10
-65.5877
 20
-2.31154
 11
-65.8925
 21
-2.53297
  0
LINE
  8
0
 10
-65.8925
 20
-2.53297
 11
-66.2227
 21
-2.71448
  0
LINE
  8
0
 10
-66.2227
 20
-2.71448
 11
-66.573
 21
-2.85316
  0
LINE
  8
0
 10
-66.573
 20
-2.85316
 11
-66.9379
 21
-2.94685
  0
LINE
  8
0
 10
-66.9379
 20
-2.94685
 11
-67.3116
 21
-2.99408
  0
LINE
  8
0
 10
-67.3116
 20
-2.99408
 11
-67.6884
 21
-2.99408
  0
LINE
  8
0
 10
-67.5942
 20
-8.99704
 11
-67.7811
 21
-8.97342
  0
LINE
  8
0
 10
-67.7811
 20
-8.97342
 11
-67.9635
 21
-8.92657
  0
LINE
  8
0
 10
-67.9635
 20
-8.92657
 11
-68.1387
 21
-8.85724
  0
LINE
  8
0
 10
-68.1387
 20
-8.85724
 11
-68.3037
 21
-8.76648
  0
LINE
  8
0
 10
-68.3037
 20
-8.76648
 11
-68.4561
 21
-8.65576
  0
LINE
  8
0
 10
-68.4561
 20
-8.65576
 11
-68.5934
 21
-8.52681
  0
LINE
  8
0
 10
-68.5934
 20
-8.52681
 11
-68.7135
 21
-8.38167
  0
LINE
  8
0
 10
-68.7135
 20
-8.38167
 11
-68.8145
 21
-8.22263
  0
LINE
  8
0
 10
-68.8145
 20
-8.22263
 11
-68.8947
 21
-8.05219
  0
LINE
  8
0
 10
-68.8947
 20
-8.05219
 11
-68.9529
 21
-7.87303
  0
LINE
  8
0
 10
-68.9529
 20
-7.87303
 11
-68.9882
 21
-7.68799
  0
LINE
  8
0
 10
-68.9882
 20
-7.68799
 11
-69
 21
-7.5
  0
LINE
  8
0
 10
-69
 20
-7.5
 11
-68.9882
 21
-7.312
  0
LINE
  8
0
 10
-68.9882
 20
-7.312
 11
-68.9529
 21
-7.12695
  0
LINE
  8
0
 10
-68.9529
 20
-7.12695
 11
-68.8947
 21
-6.9478
  0
LINE
  8
0
 10
-68.8947
 20
-6.9478
 11
-68.8145
 21
-6.77736
  0
LINE
  8
0
 10
-68.8145
 20
-6.77736
 11
-68.7135
 21
-6.61832
  0
LINE
  8
0
 10
-68.7135
 20
-6.61832
 11
-68.5934
 21
-6.47318
  0
LINE
  8
0
 10
-68.5934
 20
-6.47318
 11
-68.4561
 21
-6.34422
  0
LINE
  8
0
 10
-68.4561
 20
-6.34422
 11
-68.3037
 21
-6.23351
  0
LINE
  8
0
 10
-68.3037
 20
-6.23351
 11
-68.1387
 21
-6.14275
  0
LINE
  8
0
 10
-68.1387
 20
-6.14275
 11
-67.9635
 21
-6.07341
  0
LINE
  8
0
 10
-67.9635
 20
-6.07341
 11
-67.7811
 21
-6.02657
  0
LINE
  8
0
 10
-67.7811
 20
-6.02657
 11
-67.5942
 21
-6.00294
  0
LINE
  8
0
 10
-67.5942
 20
-6.00294
 11
-67.4058
 21
-6.00294
  0
LINE
  8
0
 10
-67.4058
 20
-6.00294
 11
-67.2189
 21
-6.02657
  0
LINE
  8
0
 10
-67.2189
 20
-6.02657
 11
-67.0365
 21
-6.07341
  0
LINE
  8
0
 10
-67.0365
 20
-6.07341
 11
-66.8613
 21
-6.14275
  0
LINE
  8
0
 10
-66.8613
 20
-6.14275
 11
-66.6963
 21
-6.23351
  0
LINE
  8
0
 10
-66.6963
 20
-6.23351
 11
-66.5439
 21
-6.34422
  0
LINE
  8
0
 10
-66.5439
 20
-6.34422
 11
-66.4065
 21
-6.47318
  0
LINE
  8
0
 10
-66.4065
 20
-6.47318
 11
-66.2865
 21
-6.61832
  0
LINE
  8
0
 10
-66.2865
 20
-6.61832
 11
-66.1855
 21
-6.77736
  0
LINE
  8
0
 10
-66.1855
 20
-6.77736
 11
-66.1053
 21
-6.9478
  0
LINE
  8
0
 10
-66.1053
 20
-6.9478
 11
-66.0471
 21
-7.12695
  0
LINE
  8
0
 10
-66.0471
 20
-7.12695
 11
-66.0118
 21
-7.312
  0
LINE
  8
0
 10
-66.0118
 20
-7.312
 11
-66
 21
-7.5
  0
LINE
  8
0
 10
-66
 20
-7.5
 11
-66.0118
 21
-7.68799
  0
LINE
  8
0
 10
-66.0118
 20
-7.68799
 11
-66.0471
 21
-7.87303
  0
LINE
  8
0
 10
-66.0471
 20
-7.87303
 11
-66.1053
 21
-8.05219
  0
LINE
  8
0
 10
-66.1053
 20
-8.05219
 11
-66.1855
 21
-8.22263
  0
LINE
  8
0
 10
-66.1855
 20
-8.22263
 11
-66.2865
 21
-8.38167
  0
LINE
  8
0
 10
-66.2865
 20
-8.38167
 11
-66.4065
 21
-8.52681
  0
LINE
  8
0
 10
-66.4065
 20
-8.52681
 11
-66.5439
 21
-8.65576
  0
LINE
  8
0
 10
-66.5439
 20
-8.65576
 11
-66.6963
 21
-8.76648
  0
LINE
  8
0
 10
-66.6963
 20
-8.76648
 11
-66.8613
 21
-8.85724
  0
LINE
  8
0
 10
-66.8613
 20
-8.85724
 11
-67.0365
 21
-8.92657
  0
LINE
  8
0
 10
-67.0365
 20
-8.92657
 11
-67.2189
 21
-8.97342
  0
LINE
  8
0
 10
-67.2189
 20
-8.97342
 11
-67.4058
 21
-8.99704
  0
LINE
  8
0
 10
-67.4058
 20
-8.99704
 11
-67.5942
 21
-8.99704
  0
LINE
  8
0
 10
67.4058
 20
-8.99704
 11
67.2189
 21
-8.97342
  0
LINE
  8
0
 10
67.2189
 20
-8.97342
 11
67.0365
 21
-8.92657
  0
LINE
  8
0
 10
67.0365
 20
-8.92657
 11
66.8613
 21
-8.85724
  0
LINE
  8
0
 10
66.8613
 20
-8.85724
 11
66.6963
 21
-8.76648
  0
LINE
  8
0
 10
66.6963
 20
-8.76648
 11
66.5439
 21
-8.65576
  0
LINE
  8
0
 10
66.5439
 20
-8.65576
 11
66.4065
 21
-8.52681
  0
LINE
  8
0
 10
66.4065
 20
-8.52681
 11
66.2865
 21
-8.38167
  0
LINE
  8
0
 10
66.2865
 20
-8.38167
 11
66.1855
 21
-8.22263
  0
LINE
  8
0
 10
66.1855
 20
-8.22263
 11
66.1053
 21
-8.05219
  0
LINE
  8
0
 10
66.1053
 20
-8.05219
 11
66.0471
 21
-7.87303
  0
LINE
  8
0
 10
66.0471
 20
-7.87303
 11
66.0118
 21
-7.68799
  0
LINE
  8
0
 10
66.0118
 20
-7.68799
 11
66
 21
-7.5
  0
LINE
  8
0
 10
66
 20
-7.5
 11
66.0118
 21
-7.312
  0
LINE
  8
0
 10
66.0118
 20
-7.312
 11
66.0471
 21
-7.12695
  0
LINE
  8
0
 10
66.0471
 20
-7.12695
 11
66.1053
 21
-6.9478
  0
LINE
  8
0
 10
66.1053
 20
-6.9478
 11
66.1855
 21
-6.77736
  0
LINE
  8
0
 10
66.1855
 20
-6.77736
 11
66.2865
 21
-6.61832
  0
LINE
  8
0
 10
66.2865
 20
-6.61832
 11
66.4065
 21
-6.47318
  0
LINE
  8
0
 10
66.4065
 20
-6.47318
 11
66.5439
 21
-6.34422
  0
LINE
  8
0
 10
66.5439
 20
-6.34422
 11
66.6963
 21
-6.23351
  0
LINE
  8
0
 10
66.6963
 20
-6.23351
 11
66.8613
 21
-6.14275
  0
LINE
  8
0
 10
66.8613
 20
-6.14275
 11
67.0365
 21
-6.07341
  0
LINE
  8
0
 10
67.0365
 20
-6.07341
 11
67.2189
 21
-6.02657
  0
LINE
  8
0
 10
67.2189
 20
-6.02657
 11
67.4058
 21
-6.00294
  0
LINE
  8
0
 10
67.4058
 20
-6.00294
 11
67.5942
 21
-6.00294
  0
LINE
  8
0
 10
67.5942
 20
-6.00294
 11
67.7811
 21
-6.02657
  0
LINE
  8
0
 10
67.7811
 20
-6.02657
 11
67.9635
 21
-6.07341
  0
LINE
  8
0
 10
67.9635
 20
-6.07341
 11
68.1387
 21
-6.14275
  0
LINE
  8
0
 10
68.1387
 20
-6.14275
 11
68.3037
 21
-6.23351
  0
LINE
  8
0
 10
68.3037
 20
-6.23351
 11
68.4561
 21
-6.34422
  0
LINE
  8
0
 10
68.4561
 20
-6.34422
 11
68.5934
 21
-6.47318
  0
LINE
  8
0
 10
68.5934
 20
-6.47318
 11
68.7135
 21
-6.61832
  0
LINE
  8
0
 10
68.7135
 20
-6.61832
 11
68.8145
 21
-6.77736
  0
LINE
  8
0
 10
68.8145
 20
-6.77736
 11
68.8947
 21
-6.9478
  0
LINE
  8
0
 10
68.8947
 20
-6.9478
 11
68.9529
 21
-7.12695
  0
LINE
  8
0
 10
68.9529
 20
-7.12695
 11
68.9882
 21
-7.312
  0
LINE
  8
0
 10
68.9882
 20
-7.312
 11
69
 21
-7.5
  0
LINE
  8
0
 10
69
 20
-7.5
 11
68.9882
 21
-7.68799
  0
LINE
  8
0
 10
68.9882
 20
-7.68799
 11
68.9529
 21
-7.87303
  0
LINE
  8
0
 10
68.9529
 20
-7.87303
 11
68.8947
 21
-8.05219
  0
LINE
  8
0
 10
68.8947
 20
-8.05219
 11
68.8145
 21
-8.22263
  0
LINE
  8
0
 10
68.8145
 20
-8.22263
 11
68.7135
 21
-8.38167
  0
LINE
  8
0
 10
68.7135
 20
-8.38167
 11
68.5934
 21
-8.52681
  0
LINE
  8
0
 10
68.5934
 20
-8.52681
 11
68.4561
 21
-8.65576
  0
LINE
  8
0
 10
68.4561
 20
-8.65576
 11
68.3037
 21
-8.76648
  0
LINE
  8
0
 10
68.3037
 20
-8.76648
 11
68.1387
 21
-8.85724
  0
LINE
  8
0
 10
68.1387
 20
-8.85724
 11
67.9635
 21
-8.92657
  0
LINE
  8
0
 10
67.9635
 20
-8.92657
 11
67.7811
 21
-8.97342
  0
LINE
  8
0
 10
67.7811
 20
-8.97342
 11
67.5942
 21
-8.99704
  0
LINE
  8
0
 10
67.5942
 20
-8.99704
 11
67.4058
 21
-8.99704
  0
LINE
  8
0
 10
-67.6884
 20
-17.9941
 11
-68.0621
 21
-17.9469
  0
LINE
  8
0
 10
-68.0621
 20
-17.9469
 11
-68.427
 21
-17.8532
  0
LINE
  8
0
 10
-68.427
 20
-17.8532
 11
-68.7773
 21
-17.7145
  0
LINE
  8
0
 10
-68.7773
 20
-17.7145
 11
-69.1075
 21
-17.533
  0
LINE
  8
0
 10
-69.1075
 20
-17.533
 11
-69.4123
 21
-17.3115
  0
LINE
  8
0
 10
-69.4123
 20
-17.3115
 11
-69.6869
 21
-17.0536
  0
LINE
  8
0
 10
-69.6869
 20
-17.0536
 11
-69.927
 21
-16.7634
  0
LINE
  8
0
 10
-69.927
 20
-16.7634
 11
-70.1289
 21
-16.4453
  0
LINE
  8
0
 10
-70.1289
 20
-16.4453
 11
-70.2893
 21
-16.1044
  0
LINE
  8
0
 10
-70.2893
 20
-16.1044
 11
-70.4057
 21
-15.7461
  0
LINE
  8
0
 10
-70.4057
 20
-15.7461
 11
-70.4763
 21
-15.376
  0
LINE
  8
0
 10
-70.4763
 20
-15.376
 11
-70.5
 21
-15
  0
LINE
  8
0
 10
-70.5
 20
-15
 11
-70.4763
 21
-14.624
  0
LINE
  8
0
 10
-70.4763
 20
-14.624
 11
-70.4057
 21
-14.2539
  0
LINE
  8
0
 10
-70.4057
 20
-14.2539
 11
-70.2893
 21
-13.8956
  0
LINE
  8
0
 10
-70.2893
 20
-13.8956
 11
-70.1289
 21
-13.5547
  0
LINE
  8
0
 10
-70.1289
 20
-13.5547
 11
-69.927
 21
-13.2366
  0
LINE
  8
0
 10
-69.927
 20
-13.2366
 11
-69.6869
 21
-12.9464
  0
LINE
  8
0
 10
-69.6869
 20
-12.9464
 11
-69.4123
 21
-12.6884
  0
LINE
  8
0
 10
-69.4123
 20
-12.6884
 11
-69.1075
 21
-12.467
  0
LINE
  8
0
 10
-69.1075
 20
-12.467
 11
-68.7773
 21
-12.2855
  0
LINE
  8
0
 10
-68.7773
 20
-12.2855
 11
-68.427
 21
-12.1468
  0
LINE
  8
0
 10
-68.427
 20
-12.1468
 11
-68.0621
 21
-12.0531
  0
LINE
  8
0
 10
-68.0621
 20
-12.0531
 11
-67.6884
 21
-12.0059
  0
LINE
  8
0
 10
-67.6884
 20
-12.0059
 11
-67.3116
 21
-12.0059
  0
LINE
  8
0
 10
-67.3116
 20
-12.0059
 11
-66.9379
 21
-12.0531
  0
LINE
  8
0
 10
-66.9379
 20
-12.0531
 11
-66.573
 21
-12.1468
  0
LINE
  8
0
 10
-66.573
 20
-12.1468
 11
-66.2227
 21
-12.2855
  0
LINE
  8
0
 10
-66.2227
 20
-12.2855
 11
-65.8925
 21
-12.467
  0
LINE
  8
0
 10
-65.8925
 20
-12.467
 11
-65.5877
 21
-12.6884
  0
LINE
  8
0
 10
-65.5877
 20
-12.6884
 11
-65.3131
 21
-12.9464
  0
LINE
  8
0
 10
-65.3131
 20
-12.9464
 11
-65.073
 21
-13.2366
  0
LINE
  8
0
 10
-65.073
 20
-13.2366
 11
-64.8711
 21
-13.5547
  0
LINE
  8
0
 10
-64.8711
 20
-13.5547
 11
-64.7107
 21
-13.8956
  0
LINE
  8
0
 10
-64.7107
 20
-13.8956
 11
-64.5943
 21
-14.2539
  0
LINE
  8
0
 10
-64.5943
 20
-14.2539
 11
-64.5237
 21
-14.624
  0
LINE
  8
0
 10
-64.5237
 20
-14.624
 11
-64.5
 21
-15
  0
LINE
  8
0
 10
-64.5
 20
-15
 11
-64.5237
 21
-15.376
  0
LINE
  8
0
 10
-64.5237
 20
-15.376
 11
-64.5943
 21
-15.7461
  0
LINE
  8
0
 10
-64.5943
 20
-15.7461
 11
-64.7107
 21
-16.1044
  0
LINE
  8
0
 10
-64.7107
 20
-16.1044
 11
-64.8711
 21
-16.4453
  0
LINE
  8
0
 10
-64.8711
 20
-16.4453
 11
-65.073
 21
-16.7634
  0
LINE
  8
0
 10
-65.073
 20
-16.7634
 11
-65.3131
 21
-17.0536
  0
LINE
  8
0
 10
-65.3131
 20
-17.0536
 11
-65.5877
 21
-17.3115
  0
LINE
  8
0
 10
-65.5877
 20
-17.3115
 11
-65.8925
 21
-17.533
  0
LINE
  8
0
 10
-65.8925
 20
-17.533
 11
-66.2227
 21
-17.7145
  0
LINE
  8
0
 10
-66.2227
 20
-17.7145
 11
-66.573
 21
-17.8532
  0
LINE
  8
0
 10
-66.573
 20
-17.8532
 11
-66.9379
 21
-17.9469
  0
LINE
  8
0
 10
-66.9379
 20
-17.9469
 11
-67.3116
 21
-17.9941
  0
LINE
  8
0
 10
-67.3116
 20
-17.9941
 11
-67.6884
 21
-17.9941
  0
LINE
  8
0
 10
67.3116
 20
-17.9941
 11
66.9379
 21
-17.9469
  0
LINE
  8
0
 10
66.9379
 20
-17.9469
 11
66.573
 21
-17.8532
  0
LINE
  8
0
 10
66.573
 20
-17.8532
 11
66.2227
 21
-17.7145
  0
LINE
  8
0
 10
66.2227
 20
-17.7145
 11
65.8925
 21
-17.533
  0
LINE
  8
0
 10
65.8925
 20
-17.533
 11
65.5877
 21
-17.3115
  0
LINE
  8
0
 10
65.5877
 20
-17.3115
 11
65.3131
 21
-17.0536
  0
LINE
  8
0
 10
65.3131
 20
-17.0536
 11
65.073
 21
-16.7634
  0
LINE
  8
0
 10
65.073
 20
-16.7634
 11
64.8711
 21
-16.4453
  0
LINE
  8
0
 10
64.8711
 20
-16.4453
 11
64.7107
 21
-16.1044
  0
LINE
  8
0
 10
64.7107
 20
-16.1044
 11
64.5943
 21
-15.7461
  0
LINE
  8
0
 10
64.5943
 20
-15.7461
 11
64.5237
 21
-15.376
  0
LINE
  8
0
 10
64.5237
 20
-15.376
 11
64.5
 21
-15
  0
LINE
  8
0
 10
64.5
 20
-15
 11
64.5237
 21
-14.624
  0
LINE
  8
0
 10
64.5237
 20
-14.624
 11
64.5943
 21
-14.2539
  0
LINE
  8
0
 10
64.5943
 20
-14.2539
 11
64.7107
 21
-13.8956
  0
LINE
  8
0
 10
64.7107
 20
-13.8956
 11
64.8711
 21
-13.5547
  0
LINE
  8
0
 10
64.8711
 20
-13.5547
 11
65.073
 21
-13.2366
  0
LINE
  8
0
 10
65.073
 20
-13.2366
 11
65.3131
 21
-12.9464
  0
LINE
  8
0
 10
65.3131
 20
-12.9464
 11
65.5877
 21
-12.6884
  0
LINE
  8
0
 10
65.5877
 20
-12.6884
 11
65.8925
 21
-12.467
  0
LINE
  8
0
 10
65.8925
 20
-12.467
 11
66.2227
 21
-12.2855
  0
LINE
  8
0
 10
66.2227
 20
-12.2855
 11
66.573
 21
-12.1468
  0
LINE
  8
0
 10
66.573
 20
-12.1468
 11
66.9379
 21
-12.0531
  0
LINE
  8
0
 10
66.9379
 20
-12.0531
 11
67.3116
 21
-12.0059
  0
LINE
  8
0
 10
67.3116
 20
-12.0059
 11
67.6884
 21
-12.0059
  0
LINE
  8
0
 10
67.6884
 20
-12.0059
 11
68.0621
 21
-12.0531
  0
LINE
  8
0
 10
68.0621
 20
-12.0531
 11
68.427
 21
-12.1468
  0
LINE
  8
0
 10
68.427
 20
-12.1468
 11
68.7773
 21
-12.2855
  0
LINE
  8
0
 10
68.7773
 20
-12.2855
 11
69.1075
 21
-12.467
  0
LINE
  8
0
 10
69.1075
 20
-12.467
 11
69.4123
 21
-12.6884
  0
LINE
  8
0
 10
69.4123
 20
-12.6884
 11
69.6869
 21
-12.9464
  0
LINE
  8
0
 10
69.6869
 20
-12.9464
 11
69.927
 21
-13.2366
  0
LINE
  8
0
 10
69.927
 20
-13.2366
 11
70.1289
 21
-13.5547
  0
LINE
  8
0
 10
70.1289
 20
-13.5547
 11
70.2893
 21
-13.8956
  0
LINE
  8
0
 10
70.2893
 20
-13.8956
 11
70.4057
 21
-14.2539
  0
LINE
  8
0
 10
70.4057
 20
-14.2539
 11
70.4763
 21
-14.624
  0
LINE
  8
0
 10
70.4763
 20
-14.624
 11
70.5
 21
-15
  0
LINE
  8
0
 10
70.5
 20
-15
 11
70.4763
 21
-15.376
  0
LINE
  8
0
 10
70.4763
 20
-15.376
 11
70.4057
 21
-15.7461
  0
LINE
  8
0
 10
70.4057
 20
-15.7461
 11
70.2893
 21
-16.1044
  0
LINE
  8
0
 10
70.2893
 20
-16.1044
 11
70.1289
 21
-16.4453
  0
LINE
  8
0
 10
70.1289
 20
-16.4453
 11
69.927
 21
-16.7634
  0
LINE
  8
0
 10
69.927
 20
-16.7634
 11
69.6869
 21
-17.0536
  0
LINE
  8
0
 10
69.6869
 20
-17.0536
 11
69.4123
 21
-17.3115
  0
LINE
  8
0
 10
69.4123
 20
-17.3115
 11
69.1075
 21
-17.533
  0
LINE
  8
0
 10
69.1075
 20
-17.533
 11
68.7773
 21
-17.7145
  0
LINE
  8
0
 10
68.7773
 20
-17.7145
 11
68.427
 21
-17.8532
  0
LINE
  8
0
 10
68.427
 20
-17.8532
 11
68.0621
 21
-17.9469
  0
LINE
  8
0
 10
68.0621
 20
-17.9469
 11
67.6884
 21
-17.9941
  0
LINE
  8
0
 10
67.6884
 20
-17.9941
 11
67.3116
 21
-17.9941
  0
LINE
  8
0
 10
-67.5942
 20
-23.997
 11
-67.7811
 21
-23.9734
  0
LINE
  8
0
 10
-67.7811
 20
-23.9734
 11
-67.9635
 21
-23.9266
  0
LINE
  8
0
 10
-67.9635
 20
-23.9266
 11
-68.1387
 21
-23.8572
  0
LINE
  8
0
 10
-68.1387
 20
-23.8572
 11
-68.3037
 21
-23.7665
  0
LINE
  8
0
 10
-68.3037
 20
-23.7665
 11
-68.4561
 21
-23.6558
  0
LINE
  8
0
 10
-68.4561
 20
-23.6558
 11
-68.5934
 21
-23.5268
  0
LINE
  8
0
 10
-68.5934
 20
-23.5268
 11
-68.7135
 21
-23.3817
  0
LINE
  8
0
 10
-68.7135
 20
-23.3817
 11
-68.8145
 21
-23.2226
  0
LINE
  8
0
 10
-68.8145
 20
-23.2226
 11
-68.8947
 21
-23.0522
  0
LINE
  8
0
 10
-68.8947
 20
-23.0522
 11
-68.9529
 21
-22.873
  0
LINE
  8
0
 10
-68.9529
 20
-22.873
 11
-68.9882
 21
-22.688
  0
LINE
  8
0
 10
-68.9882
 20
-22.688
 11
-69
 21
-22.5
  0
LINE
  8
0
 10
-69
 20
-22.5
 11
-68.9882
 21
-22.312
  0
LINE
  8
0
 10
-68.9882
 20
-22.312
 11
-68.9529
 21
-22.127
  0
LINE
  8
0
 10
-68.9529
 20
-22.127
 11
-68.8947
 21
-21.9478
  0
LINE
  8
0
 10
-68.8947
 20
-21.9478
 11
-68.8145
 21
-21.7774
  0
LINE
  8
0
 10
-68.8145
 20
-21.7774
 11
-68.7135
 21
-21.6183
  0
LINE
  8
0
 10
-68.7135
 20
-21.6183
 11
-68.5934
 21
-21.4732
  0
LINE
  8
0
 10
-68.5934
 20
-21.4732
 11
-68.4561
 21
-21.3442
  0
LINE
  8
0
 10
-68.4561
 20
-21.3442
 11
-68.3037
 21
-21.2335
  0
LINE
  8
0
 10
-68.3037
 20
-21.2335
 11
-68.1387
 21
-21.1427
  0
LINE
  8
0
 10
-68.1387
 20
-21.1427
 11
-67.9635
 21
-21.0734
  0
LINE
  8
0
 10
-67.9635
 20
-21.0734
 11
-67.7811
 21
-21.0266
  0
LINE
  8
0
 10
-67.7811
 20
-21.0266
 11
-67.5942
 21
-21.003
  0
LINE
  8
0
 10
-67.5942
 20
-21.003
 11
-67.4058
 21
-21.003
  0
LINE
  8
0
 10
-67.4058
 20
-21.003
 11
-67.2189
 21
-21.0266
  0
LINE
  8
0
 10
-67.2189
 20
-21.0266
 11
-67.0365
 21
-21.0734
  0
LINE
  8
0
 10
-67.0365
 20
-21.0734
 11
-66.8613
 21
-21.1427
  0
LINE
  8
0
 10
-66.8613
 20
-21.1427
 11
-66.6963
 21
-21.2335
  0
LINE
  8
0
 10
-66.6963
 20
-21.2335
 11
-66.5439
 21
-21.3442
  0
LINE
  8
0
 10
-66.5439
 20
-21.3442
 11
-66.4065
 21
-21.4732
  0
LINE
  8
0
 10
-66.4065
 20
-21.4732
 11
-66.2865
 21
-21.6183
  0
LINE
  8
0
 10
-66.2865
 20
-21.6183
 11
-66.1855
 21
-21.7774
  0
LINE
  8
0
 10
-66.1855
 20
-21.7774
 11
-66.1053
 21
-21.9478
  0
LINE
  8
0
 10
-66.1053
 20
-21.9478
 11
-66.0471
 21
-22.127
  0
LINE
  8
0
 10
-66.0471
 20
-22.127
 11
-66.0118
 21
-22.312
  0
LINE
  8
0
 10
-66.0118
 20
-22.312
 11
-66
 21
-22.5
  0
LINE
  8
0
 10
-66
 20
-22.5
 11
-66.0118
 21
-22.688
  0
LINE
  8
0
 10
-66.0118
 20
-22.688
 11
-66.0471
 21
-22.873
  0
LINE
  8
0
 10
-66.0471
 20
-22.873
 11
-66.1053
 21
-23.0522
  0
LINE
  8
0
 10
-66.1053
 20
-23.0522
 11
-66.1855
 21
-23.2226
  0
LINE
  8
0
 10
-66.1855
 20
-23.2226
 11
-66.2865
 21
-23.3817
  0
LINE
  8
0
 10
-66.2865
 20
-23.3817
 11
-66.4065
 21
-23.5268
  0
LINE
  8
0
 10
-66.4065
 20
-23.5268
 11
-66.5439
 21
-23.6558
  0
LINE
  8
0
 10
-66.5439
 20
-23.6558
 11
-66.6963
 21
-23.7665
  0
LINE
  8
0
 10
-66.6963
 20
-23.7665
 11
-66.8613
 21
-23.8572
  0
LINE
  8
0
 10
-66.8613
 20
-23.8572
 11
-67.0365
 21
-23.9266
  0
LINE
  8
0
 10
-67.0365
 20
-23.9266
 11
-67.2189
 21
-23.9734
  0
LINE
  8
0
 10
-67.2189
 20
-23.9734
 11
-67.4058
 21
-23.997
  0
LINE
  8
0
 10
-67.4058
 20
-23.997
 11
-67.5942
 21
-23.997
  0
LINE
  8
0
 10
67.4058
 20
-23.997
 11
67.2189
 21
-23.9734
  0
LINE
  8
0
 10
67.2189
 20
-23.9734
 11
67.0365
 21
-23.9266
  0
LINE
  8
0
 10
67.0365
 20
-23.9266
 11
66.8613
 21
-23.8572
  0
LINE
  8
0
 10
66.8613
 20
-23.8572
 11
66.6963
 21
-23.7665
  0
LINE
  8
0
 10
66.6963
 20
-23.7665
 11
66.5439
 21
-23.6558
  0
LINE
  8
0
 10
66.5439
 20
-23.6558
 11
66.4065
 21
-23.5268
  0
LINE
  8
0
 10
66.4065
 20
-23.5268
 11
66.2865
 21
-23.3817
  0
LINE
  8
0
 10
66.2865
 20
-23.3817
 11
66.1855
 21
-23.2226
  0
LINE
  8
0
 10
66.1855
 20
-23.2226
 11
66.1053
 21
-23.0522
  0
LINE
  8
0
 10
66.1053
 20
-23.0522
 11
66.0471
 21
-22.873
  0
LINE
  8
0
 10
66.0471
 20
-22.873
 11
66.0118
 21
-22.688
  0
LINE
  8
0
 10
66.0118
 20
-22.688
 11
66
 21
-22.5
  0
LINE
  8
0
 10
66
 20
-22.5
 11
66.0118
 21
-22.312
  0
LINE
  8
0
 10
66.0118
 20
-22.312
 11
66.0471
 21
-22.127
  0
LINE
  8
0
 10
66.0471
 20
-22.127
 11
66.1053
 21
-21.9478
  0
LINE
  8
0
 10
66.1053
 20
-21.9478
 11
66.1855
 21
-21.7774
  0
LINE
  8
0
 10
66.1855
 20
-21.7774
 11
66.2865
 21
-21.6183
  0
LINE
  8
0
 10
66.2865
 20
-21.6183
 11
66.4065
 21
-21.4732
  0
LINE
  8
0
 10
66.4065
 20
-21.4732
 11
66.5439
 21
-21.3442
  0
LINE
  8
0
 10
66.5439
 20
-21.3442
 11
66.6963
 21
-21.2335
  0
LINE
  8
0
 10
66.6963
 20
-21.2335
 11
66.8613
 21
-21.1427
  0
LINE
  8
0
 10
66.8613
 20
-21.1427
 11
67.0365
 21
-21.0734
  0
LINE
  8
0
 10
67.0365
 20
-21.0734
 11
67.2189
 21
-21.0266
  0
LINE
  8
0
 10
67.2189
 20
-21.0266
 11
67.4058
 21
-21.003
  0
LINE
  8
0
 10
67.4058
 20
-21.003
 11
67.5942
 21
-21.003
  0
LINE
  8
0
 10
67.5942
 20
-21.003
 11
67.7811
 21
-21.0266
  0
LINE
  8
0
 10
67.7811
 20
-21.0266
 11
67.9635
 21
-21.0734
  0
LINE
  8
0
 10
67.9635
 20
-21.0734
 11
68.1387
 21
-21.1427
  0
LINE
  8
0
 10
68.1387
 20
-21.1427
 11
68.3037
 21
-21.2335
  0
LINE
  8
0
 10
68.3037
 20
-21.2335
 11
68.4561
 21
-21.3442
  0
LINE
  8
0
 10
68.4561
 20
-21.3442
 11
68.5934
 21
-21.4732
  0
LINE
  8
0
 10
68.5934
 20
-21.4732
 11
68.7135
 21
-21.6183
  0
LINE
  8
0
 10
68.7135
 20
-21.6183
 11
68.8145
 21
-21.7774
  0
LINE
  8
0
 10
68.8145
 20
-21.7774
 11
68.8947
 21
-21.9478
  0
LINE
  8
0
 10
68.8947
 20
-21.9478
 11
68.9529
 21
-22.127
  0
LINE
  8
0
 10
68.9529
 20
-22.127
 11
68.9882
 21
-22.312
  0
LINE
  8
0
 10
68.9882
 20
-22.312
 11
69
 21
-22.5
  0
LINE
  8
0
 10
69
 20
-22.5
 11
68.9882
 21
-22.688
  0
LINE
  8
0
 10
68.9882
 20
-22.688
 11
68.9529
 21
-22.873
  0
LINE
  8
0
 10
68.9529
 20
-22.873
 11
68.8947
 21
-23.0522
  0
LINE
  8
0
 10
68.8947
 20
-23.0522
 11
68.8145
 21
-23.2226
  0
LINE
  8
0
 10
68.8145
 20
-23.2226
 11
68.7135
 21
-23.3817
  0
LINE
  8
0
 10
68.7135
 20
-23.3817
 11
68.5934
 21
-23.5268
  0
LINE
  8
0
 10
68.5934
 20
-23.5268
 11
68.4561
 21
-23.6558
  0
LINE
  8
0
 10
68.4561
 20
-23.6558
 11
68.3037
 21
-23.7665
  0
LINE
  8
0
 10
68.3037
 20
-23.7665
 11
68.1387
 21
-23.8572
  0
LINE
  8
0
 10
68.1387
 20
-23.8572
 11
67.9635
 21
-23.9266
  0
LINE
  8
0
 10
67.9635
 20
-23.9266
 11
67.7811
 21
-23.9734
  0
LINE
  8
0
 10
67.7811
 20
-23.9734
 11
67.5942
 21
-23.997
  0
LINE
  8
0
 10
67.5942
 20
-23.997
 11
67.4058
 21
-23.997
  0
LINE
  8
0
 10
-67.6884
 20
-32.9941
 11
-68.0621
 21
-32.9469
  0
LINE
  8
0
 10
-68.0621
 20
-32.9469
 11
-68.427
 21
-32.8532
  0
LINE
  8
0
 10
-68.427
 20
-32.8532
 11
-68.7773
 21
-32.7145
  0
LINE
  8
0
 10
-68.7773
 20
-32.7145
 11
-69.1075
 21
-32.533
  0
LINE
  8
0
 10
-69.1075
 20
-32.533
 11
-69.4123
 21
-32.3115
  0
LINE
  8
0
 10
-69.4123
 20
-32.3115
 11
-69.6869
 21
-32.0536
  0
LINE
  8
0
 10
-69.6869
 20
-32.0536
 11
-69.927
 21
-31.7634
  0
LINE
  8
0
 10
-69.927
 20
-31.7634
 11
-70.1289
 21
-31.4453
  0
LINE
  8
0
 10
-70.1289
 20
-31.4453
 11
-70.2893
 21
-31.1044
  0
LINE
  8
0
 10
-70.2893
 20
-31.1044
 11
-70.4057
 21
-30.7461
  0
LINE
  8
0
 10
-70.4057
 20
-30.7461
 11
-70.4763
 21
-30.376
  0
LINE
  8
0
 10
-70.4763
 20
-30.376
 11
-70.5
 21
-30
  0
LINE
  8
0
 10
-70.5
 20
-30
 11
-70.4763
 21
-29.624
  0
LINE
  8
0
 10
-70.4763
 20
-29.624
 11
-70.4057
 21
-29.2539
  0
LINE
  8
0
 10
-70.4057
 20
-29.2539
 11
-70.2893
 21
-28.8956
  0
LINE
  8
0
 10
-70.2893
 20
-28.8956
 11
-70.1289
 21
-28.5547
  0
LINE
  8
0
 10
-70.1289
 20
-28.5547
 11
-69.927
 21
-28.2366
  0
LINE
  8
0
 10
-69.927
 20
-28.2366
 11
-69.6869
 21
-27.9464
  0
LINE
  8
0
 10
-69.6869
 20
-27.9464
 11
-69.4123
 21
-27.6884
  0
LINE
  8
0
 10
-69.4123
 20
-27.6884
 11
-69.1075
 21
-27.467
  0
LINE
  8
0
 10
-69.1075
 20
-27.467
 11
-68.7773
 21
-27.2855
  0
LINE
  8
0
 10
-68.7773
 20
-27.2855
 11
-68.427
 21
-27.1468
  0
LINE
  8
0
 10
-68.427
 20
-27.1468
 11
-68.0621
 21
-27.0531
  0
LINE
  8
0
 10
-68.0621
 20
-27.0531
 11
-67.6884
 21
-27.0059
  0
LINE
  8
0
 10
-67.6884
 20
-27.0059
 11
-67.3116
 21
-27.0059
  0
LINE
  8
0
 10
-67.3116
 20
-27.0059
 11
-66.9379
 21
-27.0531
  0
LINE
  8
0
 10
-66.9379
 20
-27.0531
 11
-66.573
 21
-27.1468
  0
LINE
  8
0
 10
-66.573
 20
-27.1468
 11
-66.2227
 21
-27.2855
  0
LINE
  8
0
 10
-66.2227
 20
-27.2855
 11
-65.8925
 21
-27.467
  0
LINE
  8
0
 10
-65.8925
 20
-27.467
 11
-65.5877
 21
-27.6884
  0
LINE
  8
0
 10
-65.5877
 20
-27.6884
 11
-65.3131
 21
-27.9464
  0
LINE
  8
0
 10
-65.3131
 20
-27.9464
 11
-65.073
 21
-28.2366
  0
LINE
  8
0
 10
-65.073
 20
-28.2366
 11
-64.8711
 21
-28.5547
  0
LINE
  8
0
 10
-64.8711
 20
-28.5547
 11
-64.7107
 21
-28.8956
  0
LINE
  8
0
 10
-64.7107
 20
-28.8956
 11
-64.5943
 21
-29.2539
  0
LINE
  8
0
 10
-64.5943
 20
-29.2539
 11
-64.5237
 21
-29.624
  0
LINE
  8
0
 10
-64.5237
 20
-29.624
 11
-64.5
 21
-30
  0
LINE
  8
0
 10
-64.5
 20
-30
 11
-64.5237
 21
-30.376
  0
LINE
  8
0
 10
-64.5237
 20
-30.376
 11
-64.5943
 21
-30.7461
  0
LINE
  8
0
 10
-64.5943
 20
-30.7461
 11
-64.7107
 21
-31.1044
  0
LINE
  8
0
 10
-64.7107
 20
-31.1044
 11
-64.8711
 21
-31.4453
  0
LINE
  8
0
 10
-64.8711
 20
-31.4453
 11
-65.073
 21
-31.7634
  0
LINE
  8
0
 10
-65.073
 20
-31.7634
 11
-65.3131
 21
-32.0536
  0
LINE
  8
0
 10
-65.3131
 20
-32.0536
 11
-65.5877
 21
-32.3115
  0
LINE
  8
0
 10
-65.5877
 20
-32.3115
 11
-65.8925
 21
-32.533
  0
LINE
  8
0
 10
-65.8925
 20
-32.533
 11
-66.2227
 21
-32.7145
  0
LINE
  8
0
 10
-66.2227
 20
-32.7145
 11
-66.573
 21
-32.8532
  0
LINE
  8
0
 10
-66.573
 20
-32.8532
 11
-66.9379
 21
-32.9469
  0
LINE
  8
0
 10
-66.9379
 20
-32.9469
 11
-67.3116
 21
-32.9941
  0
LINE
  8
0
 10
-67.3116
 20
-32.9941
 11
-67.6884
 21
-32.9941
  0
LINE
  8
0
 10
67.3116
 20
-32.9941
 11
66.9379
 21
-32.9469
  0
LINE
  8
0
 10
66.9379
 20
-32.9469
 11
66.573
 21
-32.8532
  0
LINE
  8
0
 10
66.573
 20
-32.8532
 11
66.2227
 21
-32.7145
  0
LINE
  8
0
 10
66.2227
 20
-32.7145
 11
65.8925
 21
-32.533
  0
LINE
  8
0
 10
65.8925
 20
-32.533
 11
65.5877
 21
-32.3115
  0
LINE
  8
0
 10
65.5877
 20
-32.3115
 11
65.3131
 21
-32.0536
  0
LINE
  8
0
 10
65.3131
 20
-32.0536
 11
65.073
 21
-31.7634
  0
LINE
  8
0
 10
65.073
 20
-31.7634
 11
64.8711
 21
-31.4453
  0
LINE
  8
0
 10
64.8711
 20
-31.4453
 11
64.7107
 21
-31.1044
  0
LINE
  8
0
 10
64.7107
 20
-31.1044
 11
64.5943
 21
-30.7461
  0
LINE
  8
0
 10
64.5943
 20
-30.7461
 11
64.5237
 21
-30.376
  0
LINE
  8
0
 10
64.5237
 20
-30.376
 11
64.5
 21
-30
  0
LINE
  8
0
 10
64.5
 20
-30
 11
64.5237
 21
-29.624
  0
LINE
  8
0
 10
64.5237
 20
-29.624
 11
64.5943
 21
-29.2539
  0
LINE
  8
0
 10
64.5943
 20
-29.2539
 11
64.7107
 21
-28.8956
  0
LINE
  8
0
 10
64.7107
 20
-28.8956
 11
64.8711
 21
-28.5547
  0
LINE
  8
0
 10
64.8711
 20
-28.5547
 11
65.073
 21
-28.2366
  0
LINE
  8
0
 10
65.073
 20
-28.2366
 11
65.3131
 21
-27.9464
  0
LINE
  8
0
 10
65.3131
 20
-27.9464
 11
65.5877
 21
-27.6884
  0
LINE
  8
0
 10
65.5877
 20
-27.6884
 11
65.8925
 21
-27.467
  0
LINE
  8
0
 10
65.8925
 20
-27.467
 11
66.2227
 21
-27.2855
  0
LINE
  8
0
 10
66.2227
 20
-27.2855
 11
66.573
 21
-27.1468
  0
LINE
  8
0
 10
66.573
 20
-27.1468
 11
66.9379
 21
-27.0531
  0
LINE
  8
0
 10
66.9379
 20
-27.0531
 11
67.3116
 21
-27.0059
  0
LINE
  8
0
 10
67.3116
 20
-27.0059
 11
67.6884
 21
-27.0059
  0
LINE
  8
0
 10
67.6884
 20
-27.0059
 11
68.0621
 21
-27.0531
  0
LINE
  8
0
 10
68.0621
 20
-27.0531
 11
68.427
 21
-27.1468
  0
LINE
  8
0
 10
68.427
 20
-27.1468
 11
68.7773
 21
-27.2855
  0
LINE
  8
0
 10
68.7773
 20
-27.2855
 11
69.1075
 21
-27.467
  0
LINE
  8
0
 10
69.1075
 20
-27.467
 11
69.4123
 21
-27.6884
  0
LINE
  8
0
 10
69.4123
 20
-27.6884
 11
69.6869
 21
-27.9464
  0
LINE
  8
0
 10
69.6869
 20
-27.9464
 11
69.927
 21
-28.2366
  0
LINE
  8
0
 10
69.927
 20
-28.2366
 11
70.1289
 21
-28.5547
  0
LINE
  8
0
 10
70.1289
 20
-28.5547
 11
70.2893
 21
-28.8956
  0
LINE
  8
0
 10
70.2893
 20
-28.8956
 11
70.4057
 21
-29.2539
  0
LINE
  8
0
 10
70.4057
 20
-29.2539
 11
70.4763
 21
-29.624
  0
LINE
  8
0
 10
70.4763
 20
-29.624
 11
70.5
 21
-30
  0
LINE
  8
0
 10
70.5
 20
-30
 11
70.4763
 21
-30.376
  0
LINE
  8
0
 10
70.4763
 20
-30.376
 11
70.4057
 21
-30.7461
  0
LINE
  8
0
 10
70.4057
 20
-30.7461
 11
70.2893
 21
-31.1044
  0
LINE
  8
0
 10
70.2893
 20
-31.1044
 11
70.1289
 21
-31.4453
  0
LINE
  8
0
 10
70.1289
 20
-31.4453
 11
69.927
 21
-31.7634
  0
LINE
  8
0
 10
69.927
 20
-31.7634
 11
69.6869
 21
-32.0536
  0
LINE
  8
0
 10
69.6869
 20
-32.0536
 11
69.4123
 21
-32.3115
  0
LINE
  8
0
 10
69.4123
 20
-32.3115
 11
69.1075
 21
-32.533
  0
LINE
  8
0
 10
69.1075
 20
-32.533
 11
68.7773
 21
-32.7145
  0
LINE
  8
0
 10
68.7773
 20
-32.7145
 11
68.427
 21
-32.8532
  0
LINE
  8
0
 10
68.427
 20
-32.8532
 11
68.0621
 21
-32.9469
  0
LINE
  8
0
 10
68.0621
 20
-32.9469
 11
67.6884
 21
-32.9941
  0
LINE
  8
0
 10
67.6884
 20
-32.9941
 11
67.3116
 21
-32.9941
  0
LINE
  8
0
 10
67.4058
 20
-38.997
 11
67.2189
 21
-38.9734
  0
LINE
  8
0
 10
67.2189
 20
-38.9734
 11
67.0365
 21
-38.9266
  0
LINE
  8
0
 10
67.0365
 20
-38.9266
 11
66.8613
 21
-38.8572
  0
LINE
  8
0
 10
66.8613
 20
-38.8572
 11
66.6963
 21
-38.7665
  0
LINE
  8
0
 10
66.6963
 20
-38.7665
 11
66.5439
 21
-38.6558
  0
LINE
  8
0
 10
66.5439
 20
-38.6558
 11
66.4065
 21
-38.5268
  0
LINE
  8
0
 10
66.4065
 20
-38.5268
 11
66.2865
 21
-38.3817
  0
LINE
  8
0
 10
66.2865
 20
-38.3817
 11
66.1855
 21
-38.2226
  0
LINE
  8
0
 10
66.1855
 20
-38.2226
 11
66.1053
 21
-38.0522
  0
LINE
  8
0
 10
66.1053
 20
-38.0522
 11
66.0471
 21
-37.873
  0
LINE
  8
0
 10
66.0471
 20
-37.873
 11
66.0118
 21
-37.688
  0
LINE
  8
0
 10
66.0118
 20
-37.688
 11
66
 21
-37.5
  0
LINE
  8
0
 10
66
 20
-37.5
 11
66.0118
 21
-37.312
  0
LINE
  8
0
 10
66.0118
 20
-37.312
 11
66.0471
 21
-37.127
  0
LINE
  8
0
 10
66.0471
 20
-37.127
 11
66.1053
 21
-36.9478
  0
LINE
  8
0
 10
66.1053
 20
-36.9478
 11
66.1855
 21
-36.7774
  0
LINE
  8
0
 10
66.1855
 20
-36.7774
 11
66.2865
 21
-36.6183
  0
LINE
  8
0
 10
66.2865
 20
-36.6183
 11
66.4065
 21
-36.4732
  0
LINE
  8
0
 10
66.4065
 20
-36.4732
 11
66.5439
 21
-36.3442
  0
LINE
  8
0
 10
66.5439
 20
-36.3442
 11
66.6963
 21
-36.2335
  0
LINE
  8
0
 10
66.6963
 20
-36.2335
 11
66.8613
 21
-36.1428
  0
LINE
  8
0
 10
66.8613
 20
-36.1428
 11
67.0365
 21
-36.0734
  0
LINE
  8
0
 10
67.0365
 20
-36.0734
 11
67.2189
 21
-36.0266
  0
LINE
  8
0
 10
67.2189
 20
-36.0266
 11
67.4058
 21
-36.003
  0
LINE
  8
0
 10
67.4058
 20
-36.003
 11
67.5942
 21
-36.003
  0
LINE
  8
0
 10
67.5942
 20
-36.003
 11
67.7811
 21
-36.0266
  0
LINE
  8
0
 10
67.7811
 20
-36.0266
 11
67.9635
 21
-36.0734
  0
LINE
  8
0
 10
67.9635
 20
-36.0734
 11
68.1387
 21
-36.1428
  0
LINE
  8
0
 10
68.1387
 20
-36.1428
 11
68.3037
 21
-36.2335
  0
LINE
  8
0
 10
68.3037
 20
-36.2335
 11
68.4561
 21
-36.3442
  0
LINE
  8
0
 10
68.4561
 20
-36.3442
 11
68.5934
 21
-36.4732
  0
LINE
  8
0
 10
68.5934
 20
-36.4732
 11
68.7135
 21
-36.6183
  0
LINE
  8
0
 10
68.7135
 20
-36.6183
 11
68.8145
 21
-36.7774
  0
LINE
  8
0
 10
68.8145
 20
-36.7774
 11
68.8947
 21
-36.9478
  0
LINE
  8
0
 10
68.8947
 20
-36.9478
 11
68.9529
 21
-37.127
  0
LINE
  8
0
 10
68.9529
 20
-37.127
 11
68.9882
 21
-37.312
  0
LINE
  8
0
 10
68.9882
 20
-37.312
 11
69
 21
-37.5
  0
LINE
  8
0
 10
69
 20
-37.5
 11
68.9882
 21
-37.688
  0
LINE
  8
0
 10
68.9882
 20
-37.688
 11
68.9529
 21
-37.873
  0
LINE
  8
0
 10
68.9529
 20
-37.873
 11
68.8947
 21
-38.0522
  0
LINE
  8
0
 10
68.8947
 20
-38.0522
 11
68.8145
 21
-38.2226
  0
LINE
  8
0
 10
68.8145
 20
-38.2226
 11
68.7135
 21
-38.3817
  0
LINE
  8
0
 10
68.7135
 20
-38.3817
 11
68.5934
 21
-38.5268
  0
LINE
  8
0
 10
68.5934
 20
-38.5268
 11
68.4561
 21
-38.6558
  0
LINE
  8
0
 10
68.4561
 20
-38.6558
 11
68.3037
 21
-38.7665
  0
LINE
  8
0
 10
68.3037
 20
-38.7665
 11
68.1387
 21
-38.8572
  0
LINE
  8
0
 10
68.1387
 20
-38.8572
 11
67.9635
 21
-38.9266
  0
LINE
  8
0
 10
67.9635
 20
-38.9266
 11
67.7811
 21
-38.9734
  0
LINE
  8
0
 10
67.7811
 20
-38.9734
 11
67.5942
 21
-38.997
  0
LINE
  8
0
 10
67.5942
 20
-38.997
 11
67.4058
 21
-38.997
  0
LINE
  8
0
 10
-67.5942
 20
-38.997
 11
-67.7811
 21
-38.9734
  0
LINE
  8
0
 10
-67.7811
 20
-38.9734
 11
-67.9635
 21
-38.9266
  0
LINE
  8
0
 10
-67.9635
 20
-38.9266
 11
-68.1387
 21
-38.8572
  0
LINE
  8
0
 10
-68.1387
 20
-38.8572
 11
-68.3037
 21
-38.7665
  0
LINE
  8
0
 10
-68.3037
 20
-38.7665
 11
-68.4561
 21
-38.6558
  0
LINE
  8
0
 10
-68.4561
 20
-38.6558
 11
-68.5934
 21
-38.5268
  0
LINE
  8
0
 10
-68.5934
 20
-38.5268
 11
-68.7135
 21
-38.3817
  0
LINE
  8
0
 10
-68.7135
 20
-38.3817
 11
-68.8145
 21
-38.2226
  0
LINE
  8
0
 10
-68.8145
 20
-38.2226
 11
-68.8947
 21
-38.0522
  0
LINE
  8
0
 10
-68.8947
 20
-38.0522
 11
-68.9529
 21
-37.873
  0
LINE
  8
0
 10
-68.9529
 20
-37.873
 11
-68.9882
 21
-37.688
  0
LINE
  8
0
 10
-68.9882
 20
-37.688
 11
-69
 21
-37.5
  0
LINE
  8
0
 10
-69
 20
-37.5
 11
-68.9882
 21
-37.312
  0
LINE
  8
0
 10
-68.9882
 20
-37.312
 11
-68.9529
 21
-37.127
  0
LINE
  8
0
 10
-68.9529
 20
-37.127
 11
-68.8947
 21
-36.9478
  0
LINE
  8
0
 10
-68.8947
 20
-36.9478
 11
-68.8145
 21
-36.7774
  0
LINE
  8
0
 10
-68.8145
 20
-36.7774
 11
-68.7135
 21
-36.6183
  0
LINE
  8
0
 10
-68.7135
 20
-36.6183
 11
-68.5934
 21
-36.4732
  0
LINE
  8
0
 10
-68.5934
 20
-36.4732
 11
-68.4561
 21
-36.3442
  0
LINE
  8
0
 10
-68.4561
 20
-36.3442
 11
-68.3037
 21
-36.2335
  0
LINE
  8
0
 10
-68.3037
 20
-36.2335
 11
-68.1387
 21
-36.1428
  0
LINE
  8
0
 10
-68.1387
 20
-36.1428
 11
-67.9635
 21
-36.0734
  0
LINE
  8
0
 10
-67.9635
 20
-36.0734
 11
-67.7811
 21
-36.0266
  0
LINE
  8
0
 10
-67.7811
 20
-36.0266
 11
-67.5942
 21
-36.003
  0
LINE
  8
0
 10
-67.5942
 20
-36.003
 11
-67.4058
 21
-36.003
  0
LINE
  8
0
 10
-67.4058
 20
-36.003
 11
-67.2189
 21
-36.0266
  0
LINE
  8
0
 10
-67.2189
 20
-36.0266
 11
-67.0365
 21
-36.0734
  0
LINE
  8
0
 10
-67.0365
 20
-36.0734
 11
-66.8613
 21
-36.1428
  0
LINE
  8
0
 10
-66.8613
 20
-36.1428
 11
-66.6963
 21
-36.2335
  0
LINE
  8
0
 10
-66.6963
 20
-36.2335
 11
-66.5439
 21
-36.3442
  0
LINE
  8
0
 10
-66.5439
 20
-36.3442
 11
-66.4065
 21
-36.4732
  0
LINE
  8
0
 10
-66.4065
 20
-36.4732
 11
-66.2865
 21
-36.6183
  0
LINE
  8
0
 10
-66.2865
 20
-36.6183
 11
-66.1855
 21
-36.7774
  0
LINE
  8
0
 10
-66.1855
 20
-36.7774
 11
-66.1053
 21
-36.9478
  0
LINE
  8
0
 10
-66.1053
 20
-36.9478
 11
-66.0471
 21
-37.127
  0
LINE
  8
0
 10
-66.0471
 20
-37.127
 11
-66.0118
 21
-37.312
  0
LINE
  8
0
 10
-66.0118
 20
-37.312
 11
-66
 21
-37.5
  0
LINE
  8
0
 10
-66
 20
-37.5
 11
-66.0118
 21
-37.688
  0
LINE
  8
0
 10
-66.0118
 20
-37.688
 11
-66.0471
 21
-37.873
  0
LINE
  8
0
 10
-66.0471
 20
-37.873
 11
-66.1053
 21
-38.0522
  0
LINE
  8
0
 10
-66.1053
 20
-38.0522
 11
-66.1855
 21
-38.2226
  0
LINE
  8
0
 10
-66.1855
 20
-38.2226
 11
-66.2865
 21
-38.3817
  0
LINE
  8
0
 10
-66.2865
 20
-38.3817
 11
-66.4065
 21
-38.5268
  0
LINE
  8
0
 10
-66.4065
 20
-38.5268
 11
-66.5439
 21
-38.6558
  0
LINE
  8
0
 10
-66.5439
 20
-38.6558
 11
-66.6963
 21
-38.7665
  0
LINE
  8
0
 10
-66.6963
 20
-38.7665
 11
-66.8613
 21
-38.8572
  0
LINE
  8
0
 10
-66.8613
 20
-38.8572
 11
-67.0365
 21
-38.9266
  0
LINE
  8
0
 10
-67.0365
 20
-38.9266
 11
-67.2189
 21
-38.9734
  0
LINE
  8
0
 10
-67.2189
 20
-38.9734
 11
-67.4058
 21
-38.997
  0
LINE
  8
0
 10
-67.4058
 20
-38.997
 11
-67.5942
 21
-38.997
  0
LINE
  8
0
 10
-52.6884
 20
-47.9941
 11
-53.0621
 21
-47.9469
  0
LINE
  8
0
 10
-53.0621
 20
-47.9469
 11
-53.427
 21
-47.8532
  0
LINE
  8
0
 10
-53.427
 20
-47.8532
 11
-53.7773
 21
-47.7145
  0
LINE
  8
0
 10
-53.7773
 20
-47.7145
 11
-54.1075
 21
-47.533
  0
LINE
  8
0
 10
-54.1075
 20
-47.533
 11
-54.4123
 21
-47.3115
  0
LINE
  8
0
 10
-54.4123
 20
-47.3115
 11
-54.6869
 21
-47.0536
  0
LINE
  8
0
 10
-54.6869
 20
-47.0536
 11
-54.927
 21
-46.7634
  0
LINE
  8
0
 10
-54.927
 20
-46.7634
 11
-55.1289
 21
-46.4453
  0
LINE
  8
0
 10
-55.1289
 20
-46.4453
 11
-55.2893
 21
-46.1044
  0
LINE
  8
0
 10
-55.2893
 20
-46.1044
 11
-55.4057
 21
-45.7461
  0
LINE
  8
0
 10
-55.4057
 20
-45.7461
 11
-55.4763
 21
-45.376
  0
LINE
  8
0
 10
-55.4763
 20
-45.376
 11
-55.5
 21
-45
  0
LINE
  8
0
 10
-55.5
 20
-45
 11
-55.4763
 21
-44.624
  0
LINE
  8
0
 10
-55.4763
 20
-44.624
 11
-55.4057
 21
-44.2539
  0
LINE
  8
0
 10
-55.4057
 20
-44.2539
 11
-55.2893
 21
-43.8956
  0
LINE
  8
0
 10
-55.2893
 20
-43.8956
 11
-55.1289
 21
-43.5547
  0
LINE
  8
0
 10
-55.1289
 20
-43.5547
 11
-54.927
 21
-43.2366
  0
LINE
  8
0
 10
-54.927
 20
-43.2366
 11
-54.6869
 21
-42.9464
  0
LINE
  8
0
 10
-54.6869
 20
-42.9464
 11
-54.4123
 21
-42.6885
  0
LINE
  8
0
 10
-54.4123
 20
-42.6885
 11
-54.1075
 21
-42.467
  0
LINE
  8
0
 10
-54.1075
 20
-42.467
 11
-53.7773
 21
-42.2855
  0
LINE
  8
0
 10
-53.7773
 20
-42.2855
 11
-53.427
 21
-42.1468
  0
LINE
  8
0
 10
-53.427
 20
-42.1468
 11
-53.0621
 21
-42.0531
  0
LINE
  8
0
 10
-53.0621
 20
-42.0531
 11
-52.6884
 21
-42.0059
  0
LINE
  8
0
 10
-52.6884
 20
-42.0059
 11
-52.3116
 21
-42.0059
  0
LINE
  8
0
 10
-52.3116
 20
-42.0059
 11
-51.9379
 21
-42.0531
  0
LINE
  8
0
 10
-51.9379
 20
-42.0531
 11
-51.5729
 21
-42.1468
  0
LINE
  8
0
 10
-51.5729
 20
-42.1468
 11
-51.2227
 21
-42.2855
  0
LINE
  8
0
 10
-51.2227
 20
-42.2855
 11
-50.8925
 21
-42.467
  0
LINE
  8
0
 10
-50.8925
 20
-42.467
 11
-50.5877
 21
-42.6885
  0
LINE
  8
0
 10
-50.5877
 20
-42.6885
 11
-50.3131
 21
-42.9464
  0
LINE
  8
0
 10
-50.3131
 20
-42.9464
 11
-50.0729
 21
-43.2366
  0
LINE
  8
0
 10
-50.0729
 20
-43.2366
 11
-49.8711
 21
-43.5547
  0
LINE
  8
0
 10
-49.8711
 20
-43.5547
 11
-49.7107
 21
-43.8956
  0
LINE
  8
0
 10
-49.7107
 20
-43.8956
 11
-49.5942
 21
-44.2539
  0
LINE
  8
0
 10
-49.5942
 20
-44.2539
 11
-49.5237
 21
-44.624
  0
LINE
  8
0
 10
-49.5237
 20
-44.624
 11
-49.5
 21
-45
  0
LINE
  8
0
 10
-49.5
 20
-45
 11
-49.5237
 21
-45.376
  0
LINE
  8
0
 10
-49.5237
 20
-45.376
 11
-49.5942
 21
-45.7461
  0
LINE
  8
0
 10
-49.5942
 20
-45.7461
 11
-49.7107
 21
-46.1044
  0
LINE
  8
0
 10
-49.7107
 20
-46.1044
 11
-49.8711
 21
-46.4453
  0
LINE
  8
0
 10
-49.8711
 20
-46.4453
 11
-50.0729
 21
-46.7634
  0
LINE
  8
0
 10
-50.0729
 20
-46.7634
 11
-50.3131
 21
-47.0536
  0
LINE
  8
0
 10
-50.3131
 20
-47.0536
 11
-50.5877
 21
-47.3115
  0
LINE
  8
0
 10
-50.5877
 20
-47.3115
 11
-50.8925
 21
-47.533
  0
LINE
  8
0
 10
-50.8925
 20
-47.533
 11
-51.2227
 21
-47.7145
  0
LINE
  8
0
 10
-51.2227
 20
-47.7145
 11
-51.5729
 21
-47.8532
  0
LINE
  8
0
 10
-51.5729
 20
-47.8532
 11
-51.9379
 21
-47.9469
  0
LINE
  8
0
 10
-51.9379
 20
-47.9469
 11
-52.3116
 21
-47.9941
  0
LINE
  8
0
 10
-52.3116
 20
-47.9941
 11
-52.6884
 21
-47.9941
  0
LINE
  8
0
 10
-22.6884
 20
-47.9941
 11
-23.0621
 21
-47.9469
  0
LINE
  8
0
 10
-23.0621
 20
-47.9469
 11
-23.427
 21
-47.8532
  0
LINE
  8
0
 10
-23.427
 20
-47.8532
 11
-23.7773
 21
-47.7145
  0
LINE
  8
0
 10
-23.7773
 20
-47.7145
 11
-24.1075
 21
-47.533
  0
LINE
  8
0
 10
-24.1075
 20
-47.533
 11
-24.4123
 21
-47.3115
  0
LINE
  8
0
 10
-24.4123
 20
-47.3115
 11
-24.6869
 21
-47.0536
  0
LINE
  8
0
 10
-24.6869
 20
-47.0536
 11
-24.927
 21
-46.7634
  0
LINE
  8
0
 10
-24.927
 20
-46.7634
 11
-25.1289
 21
-46.4453
  0
LINE
  8
0
 10
-25.1289
 20
-46.4453
 11
-25.2893
 21
-46.1044
  0
LINE
  8
0
 10
-25.2893
 20
-46.1044
 11
-25.4057
 21
-45.7461
  0
LINE
  8
0
 10
-25.4057
 20
-45.7461
 11
-25.4763
 21
-45.376
  0
LINE
  8
0
 10
-25.4763
 20
-45.376
 11
-25.5
 21
-45
  0
LINE
  8
0
 10
-25.5
 20
-45
 11
-25.4763
 21
-44.624
  0
LINE
  8
0
 10
-25.4763
 20
-44.624
 11
-25.4057
 21
-44.2539
  0
LINE
  8
0
 10
-25.4057
 20
-44.2539
 11
-25.2893
 21
-43.8956
  0
LINE
  8
0
 10
-25.2893
 20
-43.8956
 11
-25.1289
 21
-43.5547
  0
LINE
  8
0
 10
-25.1289
 20
-43.5547
 11
-24.927
 21
-43.2366
  0
LINE
  8
0
 10
-24.927
 20
-43.2366
 11
-24.6869
 21
-42.9464
  0
LINE
  8
0
 10
-24.6869
 20
-42.9464
 11
-24.4123
 21
-42.6885
  0
LINE
  8
0
 10
-24.4123
 20
-42.6885
 11
-24.1075
 21
-42.467
  0
LINE
  8
0
 10
-24.1075
 20
-42.467
 11
-23.7773
 21
-42.2855
  0
LINE
  8
0
 10
-23.7773
 20
-42.2855
 11
-23.427
 21
-42.1468
  0
LINE
  8
0
 10
-23.427
 20
-42.1468
 11
-23.0621
 21
-42.0531
  0
LINE
  8
0
 10
-23.0621
 20
-42.0531
 11
-22.6884
 21
-42.0059
  0
LINE
  8
0
 10
-22.6884
 20
-42.0059
 11
-22.3116
 21
-42.0059
  0
LINE
  8
0
 10
-22.3116
 20
-42.0059
 11
-21.9379
 21
-42.0531
  0
LINE
  8
0
 10
-21.9379
 20
-42.0531
 11
-21.5729
 21
-42.1468
  0
LINE
  8
0
 10
-21.5729
 20
-42.1468
 11
-21.2227
 21
-42.2855
  0
LINE
  8
0
 10
-21.2227
 20
-42.2855
 11
-20.8925
 21
-42.467
  0
LINE
  8
0
 10
-20.8925
 20
-42.467
 11
-20.5877
 21
-42.6885
  0
LINE
  8
0
 10
-20.5877
 20
-42.6885
 11
-20.3131
 21
-42.9464
  0
LINE
  8
0
 10
-20.3131
 20
-42.9464
 11
-20.0729
 21
-43.2366
  0
LINE
  8
0
 10
-20.0729
 20
-43.2366
 11
-19.8711
 21
-43.5547
  0
LINE
  8
0
 10
-19.8711
 20
-43.5547
 11
-19.7107
 21
-43.8956
  0
LINE
  8
0
 10
-19.7107
 20
-43.8956
 11
-19.5942
 21
-44.2539
  0
LINE
  8
0
 10
-19.5942
 20
-44.2539
 11
-19.5237
 21
-44.624
  0
LINE
  8
0
 10
-19.5237
 20
-44.624
 11
-19.5
 21
-45
  0
LINE
  8
0
 10
-19.5
 20
-45
 11
-19.5237
 21
-45.376
  0
LINE
  8
0
 10
-19.5237
 20
-45.376
 11
-19.5942
 21
-45.7461
  0
LINE
  8
0
 10
-19.5942
 20
-45.7461
 11
-19.7107
 21
-46.1044
  0
LINE
  8
0
 10
-19.7107
 20
-46.1044
 11
-19.8711
 21
-46.4453
  0
LINE
  8
0
 10
-19.8711
 20
-46.4453
 11
-20.0729
 21
-46.7634
  0
LINE
  8
0
 10
-20.0729
 20
-46.7634
 11
-20.3131
 21
-47.0536
  0
LINE
  8
0
 10
-20.3131
 20
-47.0536
 11
-20.5877
 21
-47.3115
  0
LINE
  8
0
 10
-20.5877
 20
-47.3115
 11
-20.8925
 21
-47.533
  0
LINE
  8
0
 10
-20.8925
 20
-47.533
 11
-21.2227
 21
-47.7145
  0
LINE
  8
0
 10
-21.2227
 20
-47.7145
 11
-21.5729
 21
-47.8532
  0
LINE
  8
0
 10
-21.5729
 20
-47.8532
 11
-21.9379
 21
-47.9469
  0
LINE
  8
0
 10
-21.9379
 20
-47.9469
 11
-22.3116
 21
-47.9941
  0
LINE
  8
0
 10
-22.3116
 20
-47.9941
 11
-22.6884
 21
-47.9941
  0
LINE
  8
0
 10
-7.68837
 20
-47.9941
 11
-8.06213
 21
-47.9469
  0
LINE
  8
0
 10
-8.06213
 20
-47.9469
 11
-8.42705
 21
-47.8532
  0
LINE
  8
0
 10
-8.42705
 20
-47.8532
 11
-8.77733
 21
-47.7145
  0
LINE
  8
0
 10
-8.77733
 20
-47.7145
 11
-9.10747
 21
-47.533
  0
LINE
  8
0
 10
-9.10747
 20
-47.533
 11
-9.41226
 21
-47.3115
  0
LINE
  8
0
 10
-9.41226
 20
-47.3115
 11
-9.6869
 21
-47.0536
  0
LINE
  8
0
 10
-9.6869
 20
-47.0536
 11
-9.92705
 21
-46.7634
  0
LINE
  8
0
 10
-9.92705
 20
-46.7634
 11
-10.1289
 21
-46.4453
  0
LINE
  8
0
 10
-10.1289
 20
-46.4453
 11
-10.2893
 21
-46.1044
  0
LINE
  8
0
 10
-10.2893
 20
-46.1044
 11
-10.4057
 21
-45.7461
  0
LINE
  8
0
 10
-10.4057
 20
-45.7461
 11
-10.4763
 21
-45.376
  0
LINE
  8
0
 10
-10.4763
 20
-45.376
 11
-10.5
 21
-45
  0
LINE
  8
0
 10
-10.5
 20
-45
 11
-10.4763
 21
-44.624
  0
LINE
  8
0
 10
-10.4763
 20
-44.624
 11
-10.4057
 21
-44.2539
  0
LINE
  8
0
 10
-10.4057
 20
-44.2539
 11
-10.2893
 21
-43.8956
  0
LINE
  8
0
 10
-10.2893
 20
-43.8956
 11
-10.1289
 21
-43.5547
  0
LINE
  8
0
 10
-10.1289
 20
-43.5547
 11
-9.92705
 21
-43.2366
  0
LINE
  8
0
 10
-9.92705
 20
-43.2366
 11
-9.6869
 21
-42.9464
  0
LINE
  8
0
 10
-9.6869
 20
-42.9464
 11
-9.41226
 21
-42.6885
  0
LINE
  8
0
 10
-9.41226
 20
-42.6885
 11
-9.10747
 21
-42.467
  0
LINE
  8
0
 10
-9.10747
 20
-42.467
 11
-8.77733
 21
-42.2855
  0
LINE
  8
0
 10
-8.77733
 20
-42.2855
 11
-8.42705
 21
-42.1468
  0
LINE
  8
0
 10
-8.42705
 20
-42.1468
 11
-8.06213
 21
-42.0531
  0
LINE
  8
0
 10
-8.06213
 20
-42.0531
 11
-7.68837
 21
-42.0059
  0
LINE
  8
0
 10
-7.68837
 20
-42.0059
 11
-7.31161
 21
-42.0059
  0
LINE
  8
0
 10
-7.31161
 20
-42.0059
 11
-6.93785
 21
-42.0531
  0
LINE
  8
0
 10
-6.93785
 20
-42.0531
 11
-6.57294
 21
-42.1468
  0
LINE
  8
0
 10
-6.57294
 20
-42.1468
 11
-6.22266
 21
-42.2855
  0
LINE
  8
0
 10
-6.22266
 20
-42.2855
 11
-5.89252
 21
-42.467
  0
LINE
  8
0
 10
-5.89252
 20
-42.467
 11
-5.58772
 21
-42.6885
  0
LINE
  8
0
 10
-5.58772
 20
-42.6885
 11
-5.31308
 21
-42.9464
  0
LINE
  8
0
 10
-5.31308
 20
-42.9464
 11
-5.07294
 21
-43.2366
  0
LINE
  8
0
 10
-5.07294
 20
-43.2366
 11
-4.87108
 21
-43.5547
  0
LINE
  8
0
 10
-4.87108
 20
-43.5547
 11
-4.71066
 21
-43.8956
  0
LINE
  8
0
 10
-4.71066
 20
-43.8956
 11
-4.59424
 21
-44.2539
  0
LINE
  8
0
 10
-4.59424
 20
-44.2539
 11
-4.52365
 21
-44.624
  0
LINE
  8
0
 10
-4.52365
 20
-44.624
 11
-4.5
 21
-45
  0
LINE
  8
0
 10
-4.5
 20
-45
 11
-4.52365
 21
-45.376
  0
LINE
  8
0
 10
-4.52365
 20
-45.376
 11
-4.59424
 21
-45.7461
  0
LINE
  8
0
 10
-4.59424
 20
-45.7461
 11
-4.71066
 21
-46.1044
  0
LINE
  8
0
 10
-4.71066
 20
-46.1044
 11
-4.87108
 21
-46.4453
  0
LINE
  8
0
 10
-4.87108
 20
-46.4453
 11
-5.07294
 21
-46.7634
  0
LINE
  8
0
 10
-5.07294
 20
-46.7634
 11
-5.31308
 21
-47.0536
  0
LINE
  8
0
 10
-5.31308
 20
-47.0536
 11
-5.58772
 21
-47.3115
  0
LINE
  8
0
 10
-5.58772
 20
-47.3115
 11
-5.89252
 21
-47.533
  0
LINE
  8
0
 10
-5.89252
 20
-47.533
 11
-6.22266
 21
-47.7145
  0
LINE
  8
0
 10
-6.22266
 20
-47.7145
 11
-6.57294
 21
-47.8532
  0
LINE
  8
0
 10
-6.57294
 20
-47.8532
 11
-6.93785
 21
-47.9469
  0
LINE
  8
0
 10
-6.93785
 20
-47.9469
 11
-7.31161
 21
-47.9941
  0
LINE
  8
0
 10
-7.31161
 20
-47.9941
 11
-7.68837
 21
-47.9941
  0
LINE
  8
0
 10
-67.6884
 20
-47.9941
 11
-68.0621
 21
-47.9469
  0
LINE
  8
0
 10
-68.0621
 20
-47.9469
 11
-68.427
 21
-47.8532
  0
LINE
  8
0
 10
-68.427
 20
-47.8532
 11
-68.7773
 21
-47.7145
  0
LINE
  8
0
 10
-68.7773
 20
-47.7145
 11
-69.1075
 21
-47.533
  0
LINE
  8
0
 10
-69.1075
 20
-47.533
 11
-69.4123
 21
-47.3115
  0
LINE
  8
0
 10
-69.4123
 20
-47.3115
 11
-69.6869
 21
-47.0536
  0
LINE
  8
0
 10
-69.6869
 20
-47.0536
 11
-69.927
 21
-46.7634
  0
LINE
  8
0
 10
-69.927
 20
-46.7634
 11
-70.1289
 21
-46.4453
  0
LINE
  8
0
 10
-70.1289
 20
-46.4453
 11
-70.2893
 21
-46.1044
  0
LINE
  8
0
 10
-70.2893
 20
-46.1044
 11
-70.4057
 21
-45.7461
  0
LINE
  8
0
 10
-70.4057
 20
-45.7461
 11
-70.4763
 21
-45.376
  0
LINE
  8
0
 10
-70.4763
 20
-45.376
 11
-70.5
 21
-45
  0
LINE
  8
0
 10
-70.5
 20
-45
 11
-70.4763
 21
-44.624
  0
LINE
  8
0
 10
-70.4763
 20
-44.624
 11
-70.4057
 21
-44.2539
  0
LINE
  8
0
 10
-70.4057
 20
-44.2539
 11
-70.2893
 21
-43.8956
  0
LINE
  8
0
 10
-70.2893
 20
-43.8956
 11
-70.1289
 21
-43.5547
  0
LINE
  8
0
 10
-70.1289
 20
-43.5547
 11
-69.927
 21
-43.2366
  0
LINE
  8
0
 10
-69.927
 20
-43.2366
 11
-69.6869
 21
-42.9464
  0
LINE
  8
0
 10
-69.6869
 20
-42.9464
 11
-69.4123
 21
-42.6885
  0
LINE
  8
0
 10
-69.4123
 20
-42.6885
 11
-69.1075
 21
-42.467
  0
LINE
  8
0
 10
-69.1075
 20
-42.467
 11
-68.7773
 21
-42.2855
  0
LINE
  8
0
 10
-68.7773
 20
-42.2855
 11
-68.427
 21
-42.1468
  0
LINE
  8
0
 10
-68.427
 20
-42.1468
 11
-68.0621
 21
-42.0531
  0
LINE
  8
0
 10
-68.0621
 20
-42.0531
 11
-67.6884
 21
-42.0059
  0
LINE
  8
0
 10
-67.6884
 20
-42.0059
 11
-67.3116
 21
-42.0059
  0
LINE
  8
0
 10
-67.3116
 20
-42.0059
 11
-66.9379
 21
-42.0531
  0
LINE
  8
0
 10
-66.9379
 20
-42.0531
 11
-66.573
 21
-42.1468
  0
LINE
  8
0
 10
-66.573
 20
-42.1468
 11
-66.2227
 21
-42.2855
  0
LINE
  8
0
 10
-66.2227
 20
-42.2855
 11
-65.8925
 21
-42.467
  0
LINE
  8
0
 10
-65.8925
 20
-42.467
 11
-65.5877
 21
-42.6885
  0
LINE
  8
0
 10
-65.5877
 20
-42.6885
 11
-65.3131
 21
-42.9464
  0
LINE
  8
0
 10
-65.3131
 20
-42.9464
 11
-65.073
 21
-43.2366
  0
LINE
  8
0
 10
-65.073
 20
-43.2366
 11
-64.8711
 21
-43.5547
  0
LINE
  8
0
 10
-64.8711
 20
-43.5547
 11
-64.7107
 21
-43.8956
  0
LINE
  8
0
 10
-64.7107
 20
-43.8956
 11
-64.5943
 21
-44.2539
  0
LINE
  8
0
 10
-64.5943
 20
-44.2539
 11
-64.5237
 21
-44.624
  0
LINE
  8
0
 10
-64.5237
 20
-44.624
 11
-64.5
 21
-45
  0
LINE
  8
0
 10
-64.5
 20
-45
 11
-64.5237
 21
-45.376
  0
LINE
  8
0
 10
-64.5237
 20
-45.376
 11
-64.5943
 21
-45.7461
  0
LINE
  8
0
 10
-64.5943
 20
-45.7461
 11
-64.7107
 21
-46.1044
  0
LINE
  8
0
 10
-64.7107
 20
-46.1044
 11
-64.8711
 21
-46.4453
  0
LINE
  8
0
 10
-64.8711
 20
-46.4453
 11
-65.073
 21
-46.7634
  0
LINE
  8
0
 10
-65.073
 20
-46.7634
 11
-65.3131
 21
-47.0536
  0
LINE
  8
0
 10
-65.3131
 20
-47.0536
 11
-65.5877
 21
-47.3115
  0
LINE
  8
0
 10
-65.5877
 20
-47.3115
 11
-65.8925
 21
-47.533
  0
LINE
  8
0
 10
-65.8925
 20
-47.533
 11
-66.2227
 21
-47.7145
  0
LINE
  8
0
 10
-66.2227
 20
-47.7145
 11
-66.573
 21
-47.8532
  0
LINE
  8
0
 10
-66.573
 20
-47.8532
 11
-66.9379
 21
-47.9469
  0
LINE
  8
0
 10
-66.9379
 20
-47.9469
 11
-67.3116
 21
-47.9941
  0
LINE
  8
0
 10
-67.3116
 20
-47.9941
 11
-67.6884
 21
-47.9941
  0
LINE
  8
0
 10
7.31161
 20
-47.9941
 11
6.93785
 21
-47.9469
  0
LINE
  8
0
 10
6.93785
 20
-47.9469
 11
6.57294
 21
-47.8532
  0
LINE
  8
0
 10
6.57294
 20
-47.8532
 11
6.22266
 21
-47.7145
  0
LINE
  8
0
 10
6.22266
 20
-47.7145
 11
5.89252
 21
-47.533
  0
LINE
  8
0
 10
5.89252
 20
-47.533
 11
5.58772
 21
-47.3115
  0
LINE
  8
0
 10
5.58772
 20
-47.3115
 11
5.31308
 21
-47.0536
  0
LINE
  8
0
 10
5.31308
 20
-47.0536
 11
5.07294
 21
-46.7634
  0
LINE
  8
0
 10
5.07294
 20
-46.7634
 11
4.87108
 21
-46.4453
  0
LINE
  8
0
 10
4.87108
 20
-46.4453
 11
4.71066
 21
-46.1044
  0
LINE
  8
0
 10
4.71066
 20
-46.1044
 11
4.59424
 21
-45.7461
  0
LINE
  8
0
 10
4.59424
 20
-45.7461
 11
4.52365
 21
-45.376
  0
LINE
  8
0
 10
4.52365
 20
-45.376
 11
4.5
 21
-45
  0
LINE
  8
0
 10
4.5
 20
-45
 11
4.52365
 21
-44.624
  0
LINE
  8
0
 10
4.52365
 20
-44.624
 11
4.59424
 21
-44.2539
  0
LINE
  8
0
 10
4.59424
 20
-44.2539
 11
4.71066
 21
-43.8956
  0
LINE
  8
0
 10
4.71066
 20
-43.8956
 11
4.87108
 21
-43.5547
  0
LINE
  8
0
 10
4.87108
 20
-43.5547
 11
5.07294
 21
-43.2366
  0
LINE
  8
0
 10
5.07294
 20
-43.2366
 11
5.31308
 21
-42.9464
  0
LINE
  8
0
 10
5.31308
 20
-42.9464
 11
5.58772
 21
-42.6885
  0
LINE
  8
0
 10
5.58772
 20
-42.6885
 11
5.89252
 21
-42.467
  0
LINE
  8
0
 10
5.89252
 20
-42.467
 11
6.22266
 21
-42.2855
  0
LINE
  8
0
 10
6.22266
 20
-42.2855
 11
6.57294
 21
-42.1468
  0
LINE
  8
0
 10
6.57294
 20
-42.1468
 11
6.93785
 21
-42.0531
  0
LINE
  8
0
 10
6.93785
 20
-42.0531
 11
7.31161
 21
-42.0059
  0
LINE
  8
0
 10
7.31161
 20
-42.0059
 11
7.68837
 21
-42.0059
  0
LINE
  8
0
 10
7.68837
 20
-42.0059
 11
8.06213
 21
-42.0531
  0
LINE
  8
0
 10
8.06213
 20
-42.0531
 11
8.42705
 21
-42.1468
  0
LINE
  8
0
 10
8.42705
 20
-42.1468
 11
8.77733
 21
-42.2855
  0
LINE
  8
0
 10
8.77733
 20
-42.2855
 11
9.10747
 21
-42.467
  0
LINE
  8
0
 10
9.10747
 20
-42.467
 11
9.41226
 21
-42.6885
  0
LINE
  8
0
 10
9.41226
 20
-42.6885
 11
9.6869
 21
-42.9464
  0
LINE
  8
0
 10
9.6869
 20
-42.9464
 11
9.92705
 21
-43.2366
  0
LINE
  8
0
 10
9.92705
 20
-43.2366
 11
10.1289
 21
-43.5547
  0
LINE
  8
0
 10
10.1289
 20
-43.5547
 11
10.2893
 21
-43.8956
  0
LINE
  8
0
 10
10.2893
 20
-43.8956
 11
10.4057
 21
-44.2539
  0
LINE
  8
0
 10
10.4057
 20
-44.2539
 11
10.4763
 21
-44.624
  0
LINE
  8
0
 10
10.4763
 20
-44.624
 11
10.5
 21
-45
  0
LINE
  8
0
 10
10.5
 20
-45
 11
10.4763
 21
-45.376
  0
LINE
  8
0
 10
10.4763
 20
-45.376
 11
10.4057
 21
-45.7461
  0
LINE
  8
0
 10
10.4057
 20
-45.7461
 11
10.2893
 21
-46.1044
  0
LINE
  8
0
 10
10.2893
 20
-46.1044
 11
10.1289
 21
-46.4453
  0
LINE
  8
0
 10
10.1289
 20
-46.4453
 11
9.92705
 21
-46.7634
  0
LINE
  8
0
 10
9.92705
 20
-46.7634
 11
9.6869
 21
-47.0536
  0
LINE
  8
0
 10
9.6869
 20
-47.0536
 11
9.41226
 21
-47.3115
  0
LINE
  8
0
 10
9.41226
 20
-47.3115
 11
9.10747
 21
-47.533
  0
LINE
  8
0
 10
9.10747
 20
-47.533
 11
8.77733
 21
-47.7145
  0
LINE
  8
0
 10
8.77733
 20
-47.7145
 11
8.42705
 21
-47.8532
  0
LINE
  8
0
 10
8.42705
 20
-47.8532
 11
8.06213
 21
-47.9469
  0
LINE
  8
0
 10
8.06213
 20
-47.9469
 11
7.68837
 21
-47.9941
  0
LINE
  8
0
 10
7.68837
 20
-47.9941
 11
7.31161
 21
-47.9941
  0
LINE
  8
0
 10
67.3116
 20
-47.9941
 11
66.9379
 21
-47.9469
  0
LINE
  8
0
 10
66.9379
 20
-47.9469
 11
66.573
 21
-47.8532
  0
LINE
  8
0
 10
66.573
 20
-47.8532
 11
66.2227
 21
-47.7145
  0
LINE
  8
0
 10
66.2227
 20
-47.7145
 11
65.8925
 21
-47.533
  0
LINE
  8
0
 10
65.8925
 20
-47.533
 11
65.5877
 21
-47.3115
  0
LINE
  8
0
 10
65.5877
 20
-47.3115
 11
65.3131
 21
-47.0536
  0
LINE
  8
0
 10
65.3131
 20
-47.0536
 11
65.073
 21
-46.7634
  0
LINE
  8
0
 10
65.073
 20
-46.7634
 11
64.8711
 21
-46.4453
  0
LINE
  8
0
 10
64.8711
 20
-46.4453
 11
64.7107
 21
-46.1044
  0
LINE
  8
0
 10
64.7107
 20
-46.1044
 11
64.5943
 21
-45.7461
  0
LINE
  8
0
 10
64.5943
 20
-45.7461
 11
64.5237
 21
-45.376
  0
LINE
  8
0
 10
64.5237
 20
-45.376
 11
64.5
 21
-45
  0
LINE
  8
0
 10
64.5
 20
-45
 11
64.5237
 21
-44.624
  0
LINE
  8
0
 10
64.5237
 20
-44.624
 11
64.5943
 21
-44.2539
  0
LINE
  8
0
 10
64.5943
 20
-44.2539
 11
64.7107
 21
-43.8956
  0
LINE
  8
0
 10
64.7107
 20
-43.8956
 11
64.8711
 21
-43.5547
  0
LINE
  8
0
 10
64.8711
 20
-43.5547
 11
65.073
 21
-43.2366
  0
LINE
  8
0
 10
65.073
 20
-43.2366
 11
65.3131
 21
-42.9464
  0
LINE
  8
0
 10
65.3131
 20
-42.9464
 11
65.5877
 21
-42.6885
  0
LINE
  8
0
 10
65.5877
 20
-42.6885
 11
65.8925
 21
-42.467
  0
LINE
  8
0
 10
65.8925
 20
-42.467
 11
66.2227
 21
-42.2855
  0
LINE
  8
0
 10
66.2227
 20
-42.2855
 11
66.573
 21
-42.1468
  0
LINE
  8
0
 10
66.573
 20
-42.1468
 11
66.9379
 21
-42.0531
  0
LINE
  8
0
 10
66.9379
 20
-42.0531
 11
67.3116
 21
-42.0059
  0
LINE
  8
0
 10
67.3116
 20
-42.0059
 11
67.6884
 21
-42.0059
  0
LINE
  8
0
 10
67.6884
 20
-42.0059
 11
68.0621
 21
-42.0531
  0
LINE
  8
0
 10
68.0621
 20
-42.0531
 11
68.427
 21
-42.1468
  0
LINE
  8
0
 10
68.427
 20
-42.1468
 11
68.7773
 21
-42.2855
  0
LINE
  8
0
 10
68.7773
 20
-42.2855
 11
69.1075
 21
-42.467
  0
LINE
  8
0
 10
69.1075
 20
-42.467
 11
69.4123
 21
-42.6885
  0
LINE
  8
0
 10
69.4123
 20
-42.6885
 11
69.6869
 21
-42.9464
  0
LINE
  8
0
 10
69.6869
 20
-42.9464
 11
69.927
 21
-43.2366
  0
LINE
  8
0
 10
69.927
 20
-43.2366
 11
70.1289
 21
-43.5547
  0
LINE
  8
0
 10
70.1289
 20
-43.5547
 11
70.2893
 21
-43.8956
  0
LINE
  8
0
 10
70.2893
 20
-43.8956
 11
70.4057
 21
-44.2539
  0
LINE
  8
0
 10
70.4057
 20
-44.2539
 11
70.4763
 21
-44.624
  0
LINE
  8
0
 10
70.4763
 20
-44.624
 11
70.5
 21
-45
  0
LINE
  8
0
 10
70.5
 20
-45
 11
70.4763
 21
-45.376
  0
LINE
  8
0
 10
70.4763
 20
-45.376
 11
70.4057
 21
-45.7461
  0
LINE
  8
0
 10
70.4057
 20
-45.7461
 11
70.2893
 21
-46.1044
  0
LINE
  8
0
 10
70.2893
 20
-46.1044
 11
70.1289
 21
-46.4453
  0
LINE
  8
0
 10
70.1289
 20
-46.4453
 11
69.927
 21
-46.7634
  0
LINE
  8
0
 10
69.927
 20
-46.7634
 11
69.6869
 21
-47.0536
  0
LINE
  8
0
 10
69.6869
 20
-47.0536
 11
69.4123
 21
-47.3115
  0
LINE
  8
0
 10
69.4123
 20
-47.3115
 11
69.1075
 21
-47.533
  0
LINE
  8
0
 10
69.1075
 20
-47.533
 11
68.7773
 21
-47.7145
  0
LINE
  8
0
 10
68.7773
 20
-47.7145
 11
68.427
 21
-47.8532
  0
LINE
  8
0
 10
68.427
 20
-47.8532
 11
68.0621
 21
-47.9469
  0
LINE
  8
0
 10
68.0621
 20
-47.9469
 11
67.6884
 21
-47.9941
  0
LINE
  8
0
 10
67.6884
 20
-47.9941
 11
67.3116
 21
-47.9941
  0
LINE
  8
0
 10
22.3116
 20
-47.9941
 11
21.9379
 21
-47.9469
  0
LINE
  8
0
 10
21.9379
 20
-47.9469
 11
21.5729
 21
-47.8532
  0
LINE
  8
0
 10
21.5729
 20
-47.8532
 11
21.2227
 21
-47.7145
  0
LINE
  8
0
 10
21.2227
 20
-47.7145
 11
20.8925
 21
-47.533
  0
LINE
  8
0
 10
20.8925
 20
-47.533
 11
20.5877
 21
-47.3115
  0
LINE
  8
0
 10
20.5877
 20
-47.3115
 11
20.3131
 21
-47.0536
  0
LINE
  8
0
 10
20.3131
 20
-47.0536
 11
20.0729
 21
-46.7634
  0
LINE
  8
0
 10
20.0729
 20
-46.7634
 11
19.8711
 21
-46.4453
  0
LINE
  8
0
 10
19.8711
 20
-46.4453
 11
19.7107
 21
-46.1044
  0
LINE
  8
0
 10
19.7107
 20
-46.1044
 11
19.5942
 21
-45.7461
  0
LINE
  8
0
 10
19.5942
 20
-45.7461
 11
19.5237
 21
-45.376
  0
LINE
  8
0
 10
19.5237
 20
-45.376
 11
19.5
 21
-45
  0
LINE
  8
0
 10
19.5
 20
-45
 11
19.5237
 21
-44.624
  0
LINE
  8
0
 10
19.5237
 20
-44.624
 11
19.5942
 21
-44.2539
  0
LINE
  8
0
 10
19.5942
 20
-44.2539
 11
19.7107
 21
-43.8956
  0
LINE
  8
0
 10
19.7107
 20
-43.8956
 11
19.8711
 21
-43.5547
  0
LINE
  8
0
 10
19.8711
 20
-43.5547
 11
20.0729
 21
-43.2366
  0
LINE
  8
0
 10
20.0729
 20
-43.2366
 11
20.3131
 21
-42.9464
  0
LINE
  8
0
 10
20.3131
 20
-42.9464
 11
20.5877
 21
-42.6885
  0
LINE
  8
0
 10
20.5877
 20
-42.6885
 11
20.8925
 21
-42.467
  0
LINE
  8
0
 10
20.8925
 20
-42.467
 11
21.2227
 21
-42.2855
  0
LINE
  8
0
 10
21.2227
 20
-42.2855
 11
21.5729
 21
-42.1468
  0
LINE
  8
0
 10
21.5729
 20
-42.1468
 11
21.9379
 21
-42.0531
  0
LINE
  8
0
 10
21.9379
 20
-42.0531
 11
22.3116
 21
-42.0059
  0
LINE
  8
0
 10
22.3116
 20
-42.0059
 11
22.6884
 21
-42.0059
  0
LINE
  8
0
 10
22.6884
 20
-42.0059
 11
23.0621
 21
-42.0531
  0
LINE
  8
0
 10
23.0621
 20
-42.0531
 11
23.427
 21
-42.1468
  0
LINE
  8
0
 10
23.427
 20
-42.1468
 11
23.7773
 21
-42.2855
  0
LINE
  8
0
 10
23.7773
 20
-42.2855
 11
24.1075
 21
-42.467
  0
LINE
  8
0
 10
24.1075
 20
-42.467
 11
24.4123
 21
-42.6885
  0
LINE
  8
0
 10
24.4123
 20
-42.6885
 11
24.6869
 21
-42.9464
  0
LINE
  8
0
 10
24.6869
 20
-42.9464
 11
24.927
 21
-43.2366
  0
LINE
  8
0
 10
24.927
 20
-43.2366
 11
25.1289
 21
-43.5547
  0
LINE
  8
0
 10
25.1289
 20
-43.5547
 11
25.2893
 21
-43.8956
  0
LINE
  8
0
 10
25.2893
 20
-43.8956
 11
25.4057
 21
-44.2539
  0
LINE
  8
0
 10
25.4057
 20
-44.2539
 11
25.4763
 21
-44.624
  0
LINE
  8
0
 10
25.4763
 20
-44.624
 11
25.5
 21
-45
  0
LINE
  8
0
 10
25.5
 20
-45
 11
25.4763
 21
-45.376
  0
LINE
  8
0
 10
25.4763
 20
-45.376
 11
25.4057
 21
-45.7461
  0
LINE
  8
0
 10
25.4057
 20
-45.7461
 11
25.2893
 21
-46.1044
  0
LINE
  8
0
 10
25.2893
 20
-46.1044
 11
25.1289
 21
-46.4453
  0
LINE
  8
0
 10
25.1289
 20
-46.4453
 11
24.927
 21
-46.7634
  0
LINE
  8
0
 10
24.927
 20
-46.7634
 11
24.6869
 21
-47.0536
  0
LINE
  8
0
 10
24.6869
 20
-47.0536
 11
24.4123
 21
-47.3115
  0
LINE
  8
0
 10
24.4123
 20
-47.3115
 11
24.1075
 21
-47.533
  0
LINE
  8
0
 10
24.1075
 20
-47.533
 11
23.7773
 21
-47.7145
  0
LINE
  8
0
 10
23.7773
 20
-47.7145
 11
23.427
 21
-47.8532
  0
LINE
  8
0
 10
23.427
 20
-47.8532
 11
23.0621
 21
-47.9469
  0
LINE
  8
0
 10
23.0621
 20
-47.9469
 11
22.6884
 21
-47.9941
  0
LINE
  8
0
 10
22.6884
 20
-47.9941
 11
22.3116
 21
-47.9941
  0
LINE
  8
0
 10
-37.6884
 20
-47.9941
 11
-38.0621
 21
-47.9469
  0
LINE
  8
0
 10
-38.0621
 20
-47.9469
 11
-38.427
 21
-47.8532
  0
LINE
  8
0
 10
-38.427
 20
-47.8532
 11
-38.7773
 21
-47.7145
  0
LINE
  8
0
 10
-38.7773
 20
-47.7145
 11
-39.1075
 21
-47.533
  0
LINE
  8
0
 10
-39.1075
 20
-47.533
 11
-39.4123
 21
-47.3115
  0
LINE
  8
0
 10
-39.4123
 20
-47.3115
 11
-39.6869
 21
-47.0536
  0
LINE
  8
0
 10
-39.6869
 20
-47.0536
 11
-39.927
 21
-46.7634
  0
LINE
  8
0
 10
-39.927
 20
-46.7634
 11
-40.1289
 21
-46.4453
  0
LINE
  8
0
 10
-40.1289
 20
-46.4453
 11
-40.2893
 21
-46.1044
  0
LINE
  8
0
 10
-40.2893
 20
-46.1044
 11
-40.4057
 21
-45.7461
  0
LINE
  8
0
 10
-40.4057
 20
-45.7461
 11
-40.4763
 21
-45.376
  0
LINE
  8
0
 10
-40.4763
 20
-45.376
 11
-40.5
 21
-45
  0
LINE
  8
0
 10
-40.5
 20
-45
 11
-40.4763
 21
-44.624
  0
LINE
  8
0
 10
-40.4763
 20
-44.624
 11
-40.4057
 21
-44.2539
  0
LINE
  8
0
 10
-40.4057
 20
-44.2539
 11
-40.2893
 21
-43.8956
  0
LINE
  8
0
 10
-40.2893
 20
-43.8956
 11
-40.1289
 21
-43.5547
  0
LINE
  8
0
 10
-40.1289
 20
-43.5547
 11
-39.927
 21
-43.2366
  0
LINE
  8
0
 10
-39.927
 20
-43.2366
 11
-39.6869
 21
-42.9464
  0
LINE
  8
0
 10
-39.6869
 20
-42.9464
 11
-39.4123
 21
-42.6885
  0
LINE
  8
0
 10
-39.4123
 20
-42.6885
 11
-39.1075
 21
-42.467
  0
LINE
  8
0
 10
-39.1075
 20
-42.467
 11
-38.7773
 21
-42.2855
  0
LINE
  8
0
 10
-38.7773
 20
-42.2855
 11
-38.427
 21
-42.1468
  0
LINE
  8
0
 10
-38.427
 20
-42.1468
 11
-38.0621
 21
-42.0531
  0
LINE
  8
0
 10
-38.0621
 20
-42.0531
 11
-37.6884
 21
-42.0059
  0
LINE
  8
0
 10
-37.6884
 20
-42.0059
 11
-37.3116
 21
-42.0059
  0
LINE
  8
0
 10
-37.3116
 20
-42.0059
 11
-36.9379
 21
-42.0531
  0
LINE
  8
0
 10
-36.9379
 20
-42.0531
 11
-36.5729
 21
-42.1468
  0
LINE
  8
0
 10
-36.5729
 20
-42.1468
 11
-36.2227
 21
-42.2855
  0
LINE
  8
0
 10
-36.2227
 20
-42.2855
 11
-35.8925
 21
-42.467
  0
LINE
  8
0
 10
-35.8925
 20
-42.467
 11
-35.5877
 21
-42.6885
  0
LINE
  8
0
 10
-35.5877
 20
-42.6885
 11
-35.3131
 21
-42.9464
  0
LINE
  8
0
 10
-35.3131
 20
-42.9464
 11
-35.0729
 21
-43.2366
  0
LINE
  8
0
 10
-35.0729
 20
-43.2366
 11
-34.8711
 21
-43.5547
  0
LINE
  8
0
 10
-34.8711
 20
-43.5547
 11
-34.7107
 21
-43.8956
  0
LINE
  8
0
 10
-34.7107
 20
-43.8956
 11
-34.5942
 21
-44.2539
  0
LINE
  8
0
 10
-34.5942
 20
-44.2539
 11
-34.5237
 21
-44.624
  0
LINE
  8
0
 10
-34.5237
 20
-44.624
 11
-34.5
 21
-45
  0
LINE
  8
0
 10
-34.5
 20
-45
 11
-34.5237
 21
-45.376
  0
LINE
  8
0
 10
-34.5237
 20
-45.376
 11
-34.5942
 21
-45.7461
  0
LINE
  8
0
 10
-34.5942
 20
-45.7461
 11
-34.7107
 21
-46.1044
  0
LINE
  8
0
 10
-34.7107
 20
-46.1044
 11
-34.8711
 21
-46.4453
  0
LINE
  8
0
 10
-34.8711
 20
-46.4453
 11
-35.0729
 21
-46.7634
  0
LINE
  8
0
 10
-35.0729
 20
-46.7634
 11
-35.3131
 21
-47.0536
  0
LINE
  8
0
 10
-35.3131
 20
-47.0536
 11
-35.5877
 21
-47.3115
  0
LINE
  8
0
 10
-35.5877
 20
-47.3115
 11
-35.8925
 21
-47.533
  0
LINE
  8
0
 10
-35.8925
 20
-47.533
 11
-36.2227
 21
-47.7145
  0
LINE
  8
0
 10
-36.2227
 20
-47.7145
 11
-36.5729
 21
-47.8532
  0
LINE
  8
0
 10
-36.5729
 20
-47.8532
 11
-36.9379
 21
-47.9469
  0
LINE
  8
0
 10
-36.9379
 20
-47.9469
 11
-37.3116
 21
-47.9941
  0
LINE
  8
0
 10
-37.3116
 20
-47.9941
 11
-37.6884
 21
-47.9941
  0
LINE
  8
0
 10
37.3116
 20
-47.9941
 11
36.9379
 21
-47.9469
  0
LINE
  8
0
 10
36.9379
 20
-47.9469
 11
36.5729
 21
-47.8532
  0
LINE
  8
0
 10
36.5729
 20
-47.8532
 11
36.2227
 21
-47.7145
  0
LINE
  8
0
 10
36.2227
 20
-47.7145
 11
35.8925
 21
-47.533
  0
LINE
  8
0
 10
35.8925
 20
-47.533
 11
35.5877
 21
-47.3115
  0
LINE
  8
0
 10
35.5877
 20
-47.3115
 11
35.3131
 21
-47.0536
  0
LINE
  8
0
 10
35.3131
 20
-47.0536
 11
35.0729
 21
-46.7634
  0
LINE
  8
0
 10
35.0729
 20
-46.7634
 11
34.8711
 21
-46.4453
  0
LINE
  8
0
 10
34.8711
 20
-46.4453
 11
34.7107
 21
-46.1044
  0
LINE
  8
0
 10
34.7107
 20
-46.1044
 11
34.5942
 21
-45.7461
  0
LINE
  8
0
 10
34.5942
 20
-45.7461
 11
34.5237
 21
-45.376
  0
LINE
  8
0
 10
34.5237
 20
-45.376
 11
34.5
 21
-45
  0
LINE
  8
0
 10
34.5
 20
-45
 11
34.5237
 21
-44.624
  0
LINE
  8
0
 10
34.5237
 20
-44.624
 11
34.5942
 21
-44.2539
  0
LINE
  8
0
 10
34.5942
 20
-44.2539
 11
34.7107
 21
-43.8956
  0
LINE
  8
0
 10
34.7107
 20
-43.8956
 11
34.8711
 21
-43.5547
  0
LINE
  8
0
 10
34.8711
 20
-43.5547
 11
35.0729
 21
-43.2366
  0
LINE
  8
0
 10
35.0729
 20
-43.2366
 11
35.3131
 21
-42.9464
  0
LINE
  8
0
 10
35.3131
 20
-42.9464
 11
35.5877
 21
-42.6885
  0
LINE
  8
0
 10
35.5877
 20
-42.6885
 11
35.8925
 21
-42.467
  0
LINE
  8
0
 10
35.8925
 20
-42.467
 11
36.2227
 21
-42.2855
  0
LINE
  8
0
 10
36.2227
 20
-42.2855
 11
36.5729
 21
-42.1468
  0
LINE
  8
0
 10
36.5729
 20
-42.1468
 11
36.9379
 21
-42.0531
  0
LINE
  8
0
 10
36.9379
 20
-42.0531
 11
37.3116
 21
-42.0059
  0
LINE
  8
0
 10
37.3116
 20
-42.0059
 11
37.6884
 21
-42.0059
  0
LINE
  8
0
 10
37.6884
 20
-42.0059
 11
38.0621
 21
-42.0531
  0
LINE
  8
0
 10
38.0621
 20
-42.0531
 11
38.427
 21
-42.1468
  0
LINE
  8
0
 10
38.427
 20
-42.1468
 11
38.7773
 21
-42.2855
  0
LINE
  8
0
 10
38.7773
 20
-42.2855
 11
39.1075
 21
-42.467
  0
LINE
  8
0
 10
39.1075
 20
-42.467
 11
39.4123
 21
-42.6885
  0
LINE
  8
0
 10
39.4123
 20
-42.6885
 11
39.6869
 21
-42.9464
  0
LINE
  8
0
 10
39.6869
 20
-42.9464
 11
39.927
 21
-43.2366
  0
LINE
  8
0
 10
39.927
 20
-43.2366
 11
40.1289
 21
-43.5547
  0
LINE
  8
0
 10
40.1289
 20
-43.5547
 11
40.2893
 21
-43.8956
  0
LINE
  8
0
 10
40.2893
 20
-43.8956
 11
40.4057
 21
-44.2539
  0
LINE
  8
0
 10
40.4057
 20
-44.2539
 11
40.4763
 21
-44.624
  0
LINE
  8
0
 10
40.4763
 20
-44.624
 11
40.5
 21
-45
  0
LINE
  8
0
 10
40.5
 20
-45
 11
40.4763
 21
-45.376
  0
LINE
  8
0
 10
40.4763
 20
-45.376
 11
40.4057
 21
-45.7461
  0
LINE
  8
0
 10
40.4057
 20
-45.7461
 11
40.2893
 21
-46.1044
  0
LINE
  8
0
 10
40.2893
 20
-46.1044
 11
40.1289
 21
-46.4453
  0
LINE
  8
0
 10
40.1289
 20
-46.4453
 11
39.927
 21
-46.7634
  0
LINE
  8
0
 10
39.927
 20
-46.7634
 11
39.6869
 21
-47.0536
  0
LINE
  8
0
 10
39.6869
 20
-47.0536
 11
39.4123
 21
-47.3115
  0
LINE
  8
0
 10
39.4123
 20
-47.3115
 11
39.1075
 21
-47.533
  0
LINE
  8
0
 10
39.1075
 20
-47.533
 11
38.7773
 21
-47.7145
  0
LINE
  8
0
 10
38.7773
 20
-47.7145
 11
38.427
 21
-47.8532
  0
LINE
  8
0
 10
38.427
 20
-47.8532
 11
38.0621
 21
-47.9469
  0
LINE
  8
0
 10
38.0621
 20
-47.9469
 11
37.6884
 21
-47.9941
  0
LINE
  8
0
 10
37.6884
 20
-47.9941
 11
37.3116
 21
-47.9941
  0
LINE
  8
0
 10
52.3116
 20
-47.9941
 11
51.9379
 21
-47.9469
  0
LINE
  8
0
 10
51.9379
 20
-47.9469
 11
51.5729
 21
-47.8532
  0
LINE
  8
0
 10
51.5729
 20
-47.8532
 11
51.2227
 21
-47.7145
  0
LINE
  8
0
 10
51.2227
 20
-47.7145
 11
50.8925
 21
-47.533
  0
LINE
  8
0
 10
50.8925
 20
-47.533
 11
50.5877
 21
-47.3115
  0
LINE
  8
0
 10
50.5877
 20
-47.3115
 11
50.3131
 21
-47.0536
  0
LINE
  8
0
 10
50.3131
 20
-47.0536
 11
50.0729
 21
-46.7634
  0
LINE
  8
0
 10
50.0729
 20
-46.7634
 11
49.8711
 21
-46.4453
  0
LINE
  8
0
 10
49.8711
 20
-46.4453
 11
49.7107
 21
-46.1044
  0
LINE
  8
0
 10
49.7107
 20
-46.1044
 11
49.5942
 21
-45.7461
  0
LINE
  8
0
 10
49.5942
 20
-45.7461
 11
49.5237
 21
-45.376
  0
LINE
  8
0
 10
49.5237
 20
-45.376
 11
49.5
 21
-45
  0
LINE
  8
0
 10
49.5
 20
-45
 11
49.5237
 21
-44.624
  0
LINE
  8
0
 10
49.5237
 20
-44.624
 11
49.5942
 21
-44.2539
  0
LINE
  8
0
 10
49.5942
 20
-44.2539
 11
49.7107
 21
-43.8956
  0
LINE
  8
0
 10
49.7107
 20
-43.8956
 11
49.8711
 21
-43.5547
  0
LINE
  8
0
 10
49.8711
 20
-43.5547
 11
50.0729
 21
-43.2366
  0
LINE
  8
0
 10
50.0729
 20
-43.2366
 11
50.3131
 21
-42.9464
  0
LINE
  8
0
 10
50.3131
 20
-42.9464
 11
50.5877
 21
-42.6885
  0
LINE
  8
0
 10
50.5877
 20
-42.6885
 11
50.8925
 21
-42.467
  0
LINE
  8
0
 10
50.8925
 20
-42.467
 11
51.2227
 21
-42.2855
  0
LINE
  8
0
 10
51.2227
 20
-42.2855
 11
51.5729
 21
-42.1468
  0
LINE
  8
0
 10
51.5729
 20
-42.1468
 11
51.9379
 21
-42.0531
  0
LINE
  8
0
 10
51.9379
 20
-42.0531
 11
52.3116
 21
-42.0059
  0
LINE
  8
0
 10
52.3116
 20
-42.0059
 11
52.6884
 21
-42.0059
  0
LINE
  8
0
 10
52.6884
 20
-42.0059
 11
53.0621
 21
-42.0531
  0
LINE
  8
0
 10
53.0621
 20
-42.0531
 11
53.427
 21
-42.1468
  0
LINE
  8
0
 10
53.427
 20
-42.1468
 11
53.7773
 21
-42.2855
  0
LINE
  8
0
 10
53.7773
 20
-42.2855
 11
54.1075
 21
-42.467
  0
LINE
  8
0
 10
54.1075
 20
-42.467
 11
54.4123
 21
-42.6885
  0
LINE
  8
0
 10
54.4123
 20
-42.6885
 11
54.6869
 21
-42.9464
  0
LINE
  8
0
 10
54.6869
 20
-42.9464
 11
54.927
 21
-43.2366
  0
LINE
  8
0
 10
54.927
 20
-43.2366
 11
55.1289
 21
-43.5547
  0
LINE
  8
0
 10
55.1289
 20
-43.5547
 11
55.2893
 21
-43.8956
  0
LINE
  8
0
 10
55.2893
 20
-43.8956
 11
55.4057
 21
-44.2539
  0
LINE
  8
0
 10
55.4057
 20
-44.2539
 11
55.4763
 21
-44.624
  0
LINE
  8
0
 10
55.4763
 20
-44.624
 11
55.5
 21
-45
  0
LINE
  8
0
 10
55.5
 20
-45
 11
55.4763
 21
-45.376
  0
LINE
  8
0
 10
55.4763
 20
-45.376
 11
55.4057
 21
-45.7461
  0
LINE
  8
0
 10
55.4057
 20
-45.7461
 11
55.2893
 21
-46.1044
  0
LINE
  8
0
 10
55.2893
 20
-46.1044
 11
55.1289
 21
-46.4453
  0
LINE
  8
0
 10
55.1289
 20
-46.4453
 11
54.927
 21
-46.7634
  0
LINE
  8
0
 10
54.927
 20
-46.7634
 11
54.6869
 21
-47.0536
  0
LINE
  8
0
 10
54.6869
 20
-47.0536
 11
54.4123
 21
-47.3115
  0
LINE
  8
0
 10
54.4123
 20
-47.3115
 11
54.1075
 21
-47.533
  0
LINE
  8
0
 10
54.1075
 20
-47.533
 11
53.7773
 21
-47.7145
  0
LINE
  8
0
 10
53.7773
 20
-47.7145
 11
53.427
 21
-47.8532
  0
LINE
  8
0
 10
53.427
 20
-47.8532
 11
53.0621
 21
-47.9469
  0
LINE
  8
0
 10
53.0621
 20
-47.9469
 11
52.6884
 21
-47.9941
  0
LINE
  8
0
 10
52.6884
 20
-47.9941
 11
52.3116
 21
-47.9941
  0
LINE
  8
0
 10
-30.0942
 20
-46.497
 11
-30.2811
 21
-46.4734
  0
LINE
  8
0
 10
-30.2811
 20
-46.4734
 11
-30.4635
 21
-46.4266
  0
LINE
  8
0
 10
-30.4635
 20
-46.4266
 11
-30.6387
 21
-46.3572
  0
LINE
  8
0
 10
-30.6387
 20
-46.3572
 11
-30.8037
 21
-46.2665
  0
LINE
  8
0
 10
-30.8037
 20
-46.2665
 11
-30.9561
 21
-46.1558
  0
LINE
  8
0
 10
-30.9561
 20
-46.1558
 11
-31.0934
 21
-46.0268
  0
LINE
  8
0
 10
-31.0934
 20
-46.0268
 11
-31.2135
 21
-45.8817
  0
LINE
  8
0
 10
-31.2135
 20
-45.8817
 11
-31.3145
 21
-45.7226
  0
LINE
  8
0
 10
-31.3145
 20
-45.7226
 11
-31.3947
 21
-45.5522
  0
LINE
  8
0
 10
-31.3947
 20
-45.5522
 11
-31.4529
 21
-45.373
  0
LINE
  8
0
 10
-31.4529
 20
-45.373
 11
-31.4882
 21
-45.188
  0
LINE
  8
0
 10
-31.4882
 20
-45.188
 11
-31.5
 21
-45
  0
LINE
  8
0
 10
-31.5
 20
-45
 11
-31.4882
 21
-44.812
  0
LINE
  8
0
 10
-31.4882
 20
-44.812
 11
-31.4529
 21
-44.627
  0
LINE
  8
0
 10
-31.4529
 20
-44.627
 11
-31.3947
 21
-44.4478
  0
LINE
  8
0
 10
-31.3947
 20
-44.4478
 11
-31.3145
 21
-44.2774
  0
LINE
  8
0
 10
-31.3145
 20
-44.2774
 11
-31.2135
 21
-44.1183
  0
LINE
  8
0
 10
-31.2135
 20
-44.1183
 11
-31.0934
 21
-43.9732
  0
LINE
  8
0
 10
-31.0934
 20
-43.9732
 11
-30.9561
 21
-43.8442
  0
LINE
  8
0
 10
-30.9561
 20
-43.8442
 11
-30.8037
 21
-43.7335
  0
LINE
  8
0
 10
-30.8037
 20
-43.7335
 11
-30.6387
 21
-43.6428
  0
LINE
  8
0
 10
-30.6387
 20
-43.6428
 11
-30.4635
 21
-43.5734
  0
LINE
  8
0
 10
-30.4635
 20
-43.5734
 11
-30.2811
 21
-43.5266
  0
LINE
  8
0
 10
-30.2811
 20
-43.5266
 11
-30.0942
 21
-43.503
  0
LINE
  8
0
 10
-30.0942
 20
-43.503
 11
-29.9058
 21
-43.503
  0
LINE
  8
0
 10
-29.9058
 20
-43.503
 11
-29.7189
 21
-43.5266
  0
LINE
  8
0
 10
-29.7189
 20
-43.5266
 11
-29.5365
 21
-43.5734
  0
LINE
  8
0
 10
-29.5365
 20
-43.5734
 11
-29.3613
 21
-43.6428
  0
LINE
  8
0
 10
-29.3613
 20
-43.6428
 11
-29.1963
 21
-43.7335
  0
LINE
  8
0
 10
-29.1963
 20
-43.7335
 11
-29.0439
 21
-43.8442
  0
LINE
  8
0
 10
-29.0439
 20
-43.8442
 11
-28.9065
 21
-43.9732
  0
LINE
  8
0
 10
-28.9065
 20
-43.9732
 11
-28.7865
 21
-44.1183
  0
LINE
  8
0
 10
-28.7865
 20
-44.1183
 11
-28.6855
 21
-44.2774
  0
LINE
  8
0
 10
-28.6855
 20
-44.2774
 11
-28.6053
 21
-44.4478
  0
LINE
  8
0
 10
-28.6053
 20
-44.4478
 11
-28.5471
 21
-44.627
  0
LINE
  8
0
 10
-28.5471
 20
-44.627
 11
-28.5118
 21
-44.812
  0
LINE
  8
0
 10
-28.5118
 20
-44.812
 11
-28.5
 21
-45
  0
LINE
  8
0
 10
-28.5
 20
-45
 11
-28.5118
 21
-45.188
  0
LINE
  8
0
 10
-28.5118
 20
-45.188
 11
-28.5471
 21
-45.373
  0
LINE
  8
0
 10
-28.5471
 20
-45.373
 11
-28.6053
 21
-45.5522
  0
LINE
  8
0
 10
-28.6053
 20
-45.5522
 11
-28.6855
 21
-45.7226
  0
LINE
  8
0
 10
-28.6855
 20
-45.7226
 11
-28.7865
 21
-45.8817
  0
LINE
  8
0
 10
-28.7865
 20
-45.8817
 11
-28.9065
 21
-46.0268
  0
LINE
  8
0
 10
-28.9065
 20
-46.0268
 11
-29.0439
 21
-46.1558
  0
LINE
  8
0
 10
-29.0439
 20
-46.1558
 11
-29.1963
 21
-46.2665
  0
LINE
  8
0
 10
-29.1963
 20
-46.2665
 11
-29.3613
 21
-46.3572
  0
LINE
  8
0
 10
-29.3613
 20
-46.3572
 11
-29.5365
 21
-46.4266
  0
LINE
  8
0
 10
-29.5365
 20
-46.4266
 11
-29.7189
 21
-46.4734
  0
LINE
  8
0
 10
-29.7189
 20
-46.4734
 11
-29.9058
 21
-46.497
  0
LINE
  8
0
 10
-29.9058
 20
-46.497
 11
-30.0942
 21
-46.497
  0
LINE
  8
0
 10
-45.0942
 20
-46.497
 11
-45.2811
 21
-46.4734
  0
LINE
  8
0
 10
-45.2811
 20
-46.4734
 11
-45.4635
 21
-46.4266
  0
LINE
  8
0
 10
-45.4635
 20
-46.4266
 11
-45.6387
 21
-46.3572
  0
LINE
  8
0
 10
-45.6387
 20
-46.3572
 11
-45.8037
 21
-46.2665
  0
LINE
  8
0
 10
-45.8037
 20
-46.2665
 11
-45.9561
 21
-46.1558
  0
LINE
  8
0
 10
-45.9561
 20
-46.1558
 11
-46.0934
 21
-46.0268
  0
LINE
  8
0
 10
-46.0934
 20
-46.0268
 11
-46.2135
 21
-45.8817
  0
LINE
  8
0
 10
-46.2135
 20
-45.8817
 11
-46.3145
 21
-45.7226
  0
LINE
  8
0
 10
-46.3145
 20
-45.7226
 11
-46.3947
 21
-45.5522
  0
LINE
  8
0
 10
-46.3947
 20
-45.5522
 11
-46.4529
 21
-45.373
  0
LINE
  8
0
 10
-46.4529
 20
-45.373
 11
-46.4882
 21
-45.188
  0
LINE
  8
0
 10
-46.4882
 20
-45.188
 11
-46.5
 21
-45
  0
LINE
  8
0
 10
-46.5
 20
-45
 11
-46.4882
 21
-44.812
  0
LINE
  8
0
 10
-46.4882
 20
-44.812
 11
-46.4529
 21
-44.627
  0
LINE
  8
0
 10
-46.4529
 20
-44.627
 11
-46.3947
 21
-44.4478
  0
LINE
  8
0
 10
-46.3947
 20
-44.4478
 11
-46.3145
 21
-44.2774
  0
LINE
  8
0
 10
-46.3145
 20
-44.2774
 11
-46.2135
 21
-44.1183
  0
LINE
  8
0
 10
-46.2135
 20
-44.1183
 11
-46.0934
 21
-43.9732
  0
LINE
  8
0
 10
-46.0934
 20
-43.9732
 11
-45.9561
 21
-43.8442
  0
LINE
  8
0
 10
-45.9561
 20
-43.8442
 11
-45.8037
 21
-43.7335
  0
LINE
  8
0
 10
-45.8037
 20
-43.7335
 11
-45.6387
 21
-43.6428
  0
LINE
  8
0
 10
-45.6387
 20
-43.6428
 11
-45.4635
 21
-43.5734
  0
LINE
  8
0
 10
-45.4635
 20
-43.5734
 11
-45.2811
 21
-43.5266
  0
LINE
  8
0
 10
-45.2811
 20
-43.5266
 11
-45.0942
 21
-43.503
  0
LINE
  8
0
 10
-45.0942
 20
-43.503
 11
-44.9058
 21
-43.503
  0
LINE
  8
0
 10
-44.9058
 20
-43.503
 11
-44.7189
 21
-43.5266
  0
LINE
  8
0
 10
-44.7189
 20
-43.5266
 11
-44.5365
 21
-43.5734
  0
LINE
  8
0
 10
-44.5365
 20
-43.5734
 11
-44.3613
 21
-43.6428
  0
LINE
  8
0
 10
-44.3613
 20
-43.6428
 11
-44.1963
 21
-43.7335
  0
LINE
  8
0
 10
-44.1963
 20
-43.7335
 11
-44.0439
 21
-43.8442
  0
LINE
  8
0
 10
-44.0439
 20
-43.8442
 11
-43.9065
 21
-43.9732
  0
LINE
  8
0
 10
-43.9065
 20
-43.9732
 11
-43.7865
 21
-44.1183
  0
LINE
  8
0
 10
-43.7865
 20
-44.1183
 11
-43.6855
 21
-44.2774
  0
LINE
  8
0
 10
-43.6855
 20
-44.2774
 11
-43.6053
 21
-44.4478
  0
LINE
  8
0
 10
-43.6053
 20
-44.4478
 11
-43.5471
 21
-44.627
  0
LINE
  8
0
 10
-43.5471
 20
-44.627
 11
-43.5118
 21
-44.812
  0
LINE
  8
0
 10
-43.5118
 20
-44.812
 11
-43.5
 21
-45
  0
LINE
  8
0
 10
-43.5
 20
-45
 11
-43.5118
 21
-45.188
  0
LINE
  8
0
 10
-43.5118
 20
-45.188
 11
-43.5471
 21
-45.373
  0
LINE
  8
0
 10
-43.5471
 20
-45.373
 11
-43.6053
 21
-45.5522
  0
LINE
  8
0
 10
-43.6053
 20
-45.5522
 11
-43.6855
 21
-45.7226
  0
LINE
  8
0
 10
-43.6855
 20
-45.7226
 11
-43.7865
 21
-45.8817
  0
LINE
  8
0
 10
-43.7865
 20
-45.8817
 11
-43.9065
 21
-46.0268
  0
LINE
  8
0
 10
-43.9065
 20
-46.0268
 11
-44.0439
 21
-46.1558
  0
LINE
  8
0
 10
-44.0439
 20
-46.1558
 11
-44.1963
 21
-46.2665
  0
LINE
  8
0
 10
-44.1963
 20
-46.2665
 11
-44.3613
 21
-46.3572
  0
LINE
  8
0
 10
-44.3613
 20
-46.3572
 11
-44.5365
 21
-46.4266
  0
LINE
  8
0
 10
-44.5365
 20
-46.4266
 11
-44.7189
 21
-46.4734
  0
LINE
  8
0
 10
-44.7189
 20
-46.4734
 11
-44.9058
 21
-46.497
  0
LINE
  8
0
 10
-44.9058
 20
-46.497
 11
-45.0942
 21
-46.497
  0
LINE
  8
0
 10
14.9058
 20
-46.497
 11
14.7189
 21
-46.4734
  0
LINE
  8
0
 10
14.7189
 20
-46.4734
 11
14.5365
 21
-46.4266
  0
LINE
  8
0
 10
14.5365
 20
-46.4266
 11
14.3613
 21
-46.3572
  0
LINE
  8
0
 10
14.3613
 20
-46.3572
 11
14.1963
 21
-46.2665
  0
LINE
  8
0
 10
14.1963
 20
-46.2665
 11
14.0439
 21
-46.1558
  0
LINE
  8
0
 10
14.0439
 20
-46.1558
 11
13.9065
 21
-46.0268
  0
LINE
  8
0
 10
13.9065
 20
-46.0268
 11
13.7865
 21
-45.8817
  0
LINE
  8
0
 10
13.7865
 20
-45.8817
 11
13.6855
 21
-45.7226
  0
LINE
  8
0
 10
13.6855
 20
-45.7226
 11
13.6053
 21
-45.5522
  0
LINE
  8
0
 10
13.6053
 20
-45.5522
 11
13.5471
 21
-45.373
  0
LINE
  8
0
 10
13.5471
 20
-45.373
 11
13.5118
 21
-45.188
  0
LINE
  8
0
 10
13.5118
 20
-45.188
 11
13.5
 21
-45
  0
LINE
  8
0
 10
13.5
 20
-45
 11
13.5118
 21
-44.812
  0
LINE
  8
0
 10
13.5118
 20
-44.812
 11
13.5471
 21
-44.627
  0
LINE
  8
0
 10
13.5471
 20
-44.627
 11
13.6053
 21
-44.4478
  0
LINE
  8
0
 10
13.6053
 20
-44.4478
 11
13.6855
 21
-44.2774
  0
LINE
  8
0
 10
13.6855
 20
-44.2774
 11
13.7865
 21
-44.1183
  0
LINE
  8
0
 10
13.7865
 20
-44.1183
 11
13.9065
 21
-43.9732
  0
LINE
  8
0
 10
13.9065
 20
-43.9732
 11
14.0439
 21
-43.8442
  0
LINE
  8
0
 10
14.0439
 20
-43.8442
 11
14.1963
 21
-43.7335
  0
LINE
  8
0
 10
14.1963
 20
-43.7335
 11
14.3613
 21
-43.6428
  0
LINE
  8
0
 10
14.3613
 20
-43.6428
 11
14.5365
 21
-43.5734
  0
LINE
  8
0
 10
14.5365
 20
-43.5734
 11
14.7189
 21
-43.5266
  0
LINE
  8
0
 10
14.7189
 20
-43.5266
 11
14.9058
 21
-43.503
  0
LINE
  8
0
 10
14.9058
 20
-43.503
 11
15.0942
 21
-43.503
  0
LINE
  8
0
 10
15.0942
 20
-43.503
 11
15.2811
 21
-43.5266
  0
LINE
  8
0
 10
15.2811
 20
-43.5266
 11
15.4635
 21
-43.5734
  0
LINE
  8
0
 10
15.4635
 20
-43.5734
 11
15.6387
 21
-43.6428
  0
LINE
  8
0
 10
15.6387
 20
-43.6428
 11
15.8037
 21
-43.7335
  0
LINE
  8
0
 10
15.8037
 20
-43.7335
 11
15.9561
 21
-43.8442
  0
LINE
  8
0
 10
15.9561
 20
-43.8442
 11
16.0934
 21
-43.9732
  0
LINE
  8
0
 10
16.0934
 20
-43.9732
 11
16.2135
 21
-44.1183
  0
LINE
  8
0
 10
16.2135
 20
-44.1183
 11
16.3145
 21
-44.2774
  0
LINE
  8
0
 10
16.3145
 20
-44.2774
 11
16.3947
 21
-44.4478
  0
LINE
  8
0
 10
16.3947
 20
-44.4478
 11
16.4529
 21
-44.627
  0
LINE
  8
0
 10
16.4529
 20
-44.627
 11
16.4882
 21
-44.812
  0
LINE
  8
0
 10
16.4882
 20
-44.812
 11
16.5
 21
-45
  0
LINE
  8
0
 10
16.5
 20
-45
 11
16.4882
 21
-45.188
  0
LINE
  8
0
 10
16.4882
 20
-45.188
 11
16.4529
 21
-45.373
  0
LINE
  8
0
 10
16.4529
 20
-45.373
 11
16.3947
 21
-45.5522
  0
LINE
  8
0
 10
16.3947
 20
-45.5522
 11
16.3145
 21
-45.7226
  0
LINE
  8
0
 10
16.3145
 20
-45.7226
 11
16.2135
 21
-45.8817
  0
LINE
  8
0
 10
16.2135
 20
-45.8817
 11
16.0934
 21
-46.0268
  0
LINE
  8
0
 10
16.0934
 20
-46.0268
 11
15.9561
 21
-46.1558
  0
LINE
  8
0
 10
15.9561
 20
-46.1558
 11
15.8037
 21
-46.2665
  0
LINE
  8
0
 10
15.8037
 20
-46.2665
 11
15.6387
 21
-46.3572
  0
LINE
  8
0
 10
15.6387
 20
-46.3572
 11
15.4635
 21
-46.4266
  0
LINE
  8
0
 10
15.4635
 20
-46.4266
 11
15.2811
 21
-46.4734
  0
LINE
  8
0
 10
15.2811
 20
-46.4734
 11
15.0942
 21
-46.497
  0
LINE
  8
0
 10
15.0942
 20
-46.497
 11
14.9058
 21
-46.497
  0
LINE
  8
0
 10
-0.0941772
 20
-46.497
 11
-0.281067
 21
-46.4734
  0
LINE
  8
0
 10
-0.281067
 20
-46.4734
 11
-0.463516
 21
-46.4266
  0
LINE
  8
0
 10
-0.463516
 20
-46.4266
 11
-0.638657
 21
-46.3572
  0
LINE
  8
0
 10
-0.638657
 20
-46.3572
 11
-0.803726
 21
-46.2665
  0
LINE
  8
0
 10
-0.803726
 20
-46.2665
 11
-0.956131
 21
-46.1558
  0
LINE
  8
0
 10
-0.956131
 20
-46.1558
 11
-1.09344
 21
-46.0268
  0
LINE
  8
0
 10
-1.09344
 20
-46.0268
 11
-1.21352
 21
-45.8817
  0
LINE
  8
0
 10
-1.21352
 20
-45.8817
 11
-1.31445
 21
-45.7226
  0
LINE
  8
0
 10
-1.31445
 20
-45.7226
 11
-1.39465
 21
-45.5522
  0
LINE
  8
0
 10
-1.39465
 20
-45.5522
 11
-1.45287
 21
-45.373
  0
LINE
  8
0
 10
-1.45287
 20
-45.373
 11
-1.48816
 21
-45.188
  0
LINE
  8
0
 10
-1.48816
 20
-45.188
 11
-1.5
 21
-45
  0
LINE
  8
0
 10
-1.5
 20
-45
 11
-1.48816
 21
-44.812
  0
LINE
  8
0
 10
-1.48816
 20
-44.812
 11
-1.45287
 21
-44.627
  0
LINE
  8
0
 10
-1.45287
 20
-44.627
 11
-1.39465
 21
-44.4478
  0
LINE
  8
0
 10
-1.39465
 20
-44.4478
 11
-1.31445
 21
-44.2774
  0
LINE
  8
0
 10
-1.31445
 20
-44.2774
 11
-1.21352
 21
-44.1183
  0
LINE
  8
0
 10
-1.21352
 20
-44.1183
 11
-1.09344
 21
-43.9732
  0
LINE
  8
0
 10
-1.09344
 20
-43.9732
 11
-0.956131
 21
-43.8442
  0
LINE
  8
0
 10
-0.956131
 20
-43.8442
 11
-0.803726
 21
-43.7335
  0
LINE
  8
0
 10
-0.803726
 20
-43.7335
 11
-0.638657
 21
-43.6428
  0
LINE
  8
0
 10
-0.638657
 20
-43.6428
 11
-0.463516
 21
-43.5734
  0
LINE
  8
0
 10
-0.463516
 20
-43.5734
 11
-0.281067
 21
-43.5266
  0
LINE
  8
0
 10
-0.281067
 20
-43.5266
 11
-0.0941772
 21
-43.503
  0
LINE
  8
0
 10
-0.0941772
 20
-43.503
 11
0.0941772
 21
-43.503
  0
LINE
  8
0
 10
0.0941772
 20
-43.503
 11
0.281067
 21
-43.5266
  0
LINE
  8
0
 10
0.281067
 20
-43.5266
 11
0.463516
 21
-43.5734
  0
LINE
  8
0
 10
0.463516
 20
-43.5734
 11
0.638657
 21
-43.6428
  0
LINE
  8
0
 10
0.638657
 20
-43.6428
 11
0.803726
 21
-43.7335
  0
LINE
  8
0
 10
0.803726
 20
-43.7335
 11
0.956131
 21
-43.8442
  0
LINE
  8
0
 10
0.956131
 20
-43.8442
 11
1.09344
 21
-43.9732
  0
LINE
  8
0
 10
1.09344
 20
-43.9732
 11
1.21352
 21
-44.1183
  0
LINE
  8
0
 10
1.21352
 20
-44.1183
 11
1.31445
 21
-44.2774
  0
LINE
  8
0
 10
1.31445
 20
-44.2774
 11
1.39465
 21
-44.4478
  0
LINE
  8
0
 10
1.39465
 20
-44.4478
 11
1.45287
 21
-44.627
  0
LINE
  8
0
 10
1.45287
 20
-44.627
 11
1.48816
 21
-44.812
  0
LINE
  8
0
 10
1.48816
 20
-44.812
 11
1.5
 21
-45
  0
LINE
  8
0
 10
1.5
 20
-45
 11
1.48816
 21
-45.188
  0
LINE
  8
0
 10
1.48816
 20
-45.188
 11
1.45287
 21
-45.373
  0
LINE
  8
0
 10
1.45287
 20
-45.373
 11
1.39465
 21
-45.5522
  0
LINE
  8
0
 10
1.39465
 20
-45.5522
 11
1.31445
 21
-45.7226
  0
LINE
  8
0
 10
1.31445
 20
-45.7226
 11
1.21352
 21
-45.8817
  0
LINE
  8
0
 10
1.21352
 20
-45.8817
 11
1.09344
 21
-46.0268
  0
LINE
  8
0
 10
1.09344
 20
-46.0268
 11
0.956131
 21
-46.1558
  0
LINE
  8
0
 10
0.956131
 20
-46.1558
 11
0.803726
 21
-46.2665
  0
LINE
  8
0
 10
0.803726
 20
-46.2665
 11
0.638657
 21
-46.3572
  0
LINE
  8
0
 10
0.638657
 20
-46.3572
 11
0.463516
 21
-46.4266
  0
LINE
  8
0
 10
0.463516
 20
-46.4266
 11
0.281067
 21
-46.4734
  0
LINE
  8
0
 10
0.281067
 20
-46.4734
 11
0.0941772
 21
-46.497
  0
LINE
  8
0
 10
0.0941772
 20
-46.497
 11
-0.0941772
 21
-46.497
  0
LINE
  8
0
 10
-60.0942
 20
-46.497
 11
-60.2811
 21
-46.4734
  0
LINE
  8
0
 10
-60.2811
 20
-46.4734
 11
-60.4635
 21
-46.4266
  0
LINE
  8
0
 10
-60.4635
 20
-46.4266
 11
-60.6387
 21
-46.3572
  0
LINE
  8
0
 10
-60.6387
 20
-46.3572
 11
-60.8037
 21
-46.2665
  0
LINE
  8
0
 10
-60.8037
 20
-46.2665
 11
-60.9561
 21
-46.1558
  0
LINE
  8
0
 10
-60.9561
 20
-46.1558
 11
-61.0934
 21
-46.0268
  0
LINE
  8
0
 10
-61.0934
 20
-46.0268
 11
-61.2135
 21
-45.8817
  0
LINE
  8
0
 10
-61.2135
 20
-45.8817
 11
-61.3145
 21
-45.7226
  0
LINE
  8
0
 10
-61.3145
 20
-45.7226
 11
-61.3947
 21
-45.5522
  0
LINE
  8
0
 10
-61.3947
 20
-45.5522
 11
-61.4529
 21
-45.373
  0
LINE
  8
0
 10
-61.4529
 20
-45.373
 11
-61.4882
 21
-45.188
  0
LINE
  8
0
 10
-61.4882
 20
-45.188
 11
-61.5
 21
-45
  0
LINE
  8
0
 10
-61.5
 20
-45
 11
-61.4882
 21
-44.812
  0
LINE
  8
0
 10
-61.4882
 20
-44.812
 11
-61.4529
 21
-44.627
  0
LINE
  8
0
 10
-61.4529
 20
-44.627
 11
-61.3947
 21
-44.4478
  0
LINE
  8
0
 10
-61.3947
 20
-44.4478
 11
-61.3145
 21
-44.2774
  0
LINE
  8
0
 10
-61.3145
 20
-44.2774
 11
-61.2135
 21
-44.1183
  0
LINE
  8
0
 10
-61.2135
 20
-44.1183
 11
-61.0934
 21
-43.9732
  0
LINE
  8
0
 10
-61.0934
 20
-43.9732
 11
-60.9561
 21
-43.8442
  0
LINE
  8
0
 10
-60.9561
 20
-43.8442
 11
-60.8037
 21
-43.7335
  0
LINE
  8
0
 10
-60.8037
 20
-43.7335
 11
-60.6387
 21
-43.6428
  0
LINE
  8
0
 10
-60.6387
 20
-43.6428
 11
-60.4635
 21
-43.5734
  0
LINE
  8
0
 10
-60.4635
 20
-43.5734
 11
-60.2811
 21
-43.5266
  0
LINE
  8
0
 10
-60.2811
 20
-43.5266
 11
-60.0942
 21
-43.503
  0
LINE
  8
0
 10
-60.0942
 20
-43.503
 11
-59.9058
 21
-43.503
  0
LINE
  8
0
 10
-59.9058
 20
-43.503
 11
-59.7189
 21
-43.5266
  0
LINE
  8
0
 10
-59.7189
 20
-43.5266
 11
-59.5365
 21
-43.5734
  0
LINE
  8
0
 10
-59.5365
 20
-43.5734
 11
-59.3613
 21
-43.6428
  0
LINE
  8
0
 10
-59.3613
 20
-43.6428
 11
-59.1963
 21
-43.7335
  0
LINE
  8
0
 10
-59.1963
 20
-43.7335
 11
-59.0439
 21
-43.8442
  0
LINE
  8
0
 10
-59.0439
 20
-43.8442
 11
-58.9065
 21
-43.9732
  0
LINE
  8
0
 10
-58.9065
 20
-43.9732
 11
-58.7865
 21
-44.1183
  0
LINE
  8
0
 10
-58.7865
 20
-44.1183
 11
-58.6855
 21
-44.2774
  0
LINE
  8
0
 10
-58.6855
 20
-44.2774
 11
-58.6053
 21
-44.4478
  0
LINE
  8
0
 10
-58.6053
 20
-44.4478
 11
-58.5471
 21
-44.627
  0
LINE
  8
0
 10
-58.5471
 20
-44.627
 11
-58.5118
 21
-44.812
  0
LINE
  8
0
 10
-58.5118
 20
-44.812
 11
-58.5
 21
-45
  0
LINE
  8
0
 10
-58.5
 20
-45
 11
-58.5118
 21
-45.188
  0
LINE
  8
0
 10
-58.5118
 20
-45.188
 11
-58.5471
 21
-45.373
  0
LINE
  8
0
 10
-58.5471
 20
-45.373
 11
-58.6053
 21
-45.5522
  0
LINE
  8
0
 10
-58.6053
 20
-45.5522
 11
-58.6855
 21
-45.7226
  0
LINE
  8
0
 10
-58.6855
 20
-45.7226
 11
-58.7865
 21
-45.8817
  0
LINE
  8
0
 10
-58.7865
 20
-45.8817
 11
-58.9065
 21
-46.0268
  0
LINE
  8
0
 10
-58.9065
 20
-46.0268
 11
-59.0439
 21
-46.1558
  0
LINE
  8
0
 10
-59.0439
 20
-46.1558
 11
-59.1963
 21
-46.2665
  0
LINE
  8
0
 10
-59.1963
 20
-46.2665
 11
-59.3613
 21
-46.3572
  0
LINE
  8
0
 10
-59.3613
 20
-46.3572
 11
-59.5365
 21
-46.4266
  0
LINE
  8
0
 10
-59.5365
 20
-46.4266
 11
-59.7189
 21
-46.4734
  0
LINE
  8
0
 10
-59.7189
 20
-46.4734
 11
-59.9058
 21
-46.497
  0
LINE
  8
0
 10
-59.9058
 20
-46.497
 11
-60.0942
 21
-46.497
  0
LINE
  8
0
 10
29.9058
 20
-46.497
 11
29.7189
 21
-46.4734
  0
LINE
  8
0
 10
29.7189
 20
-46.4734
 11
29.5365
 21
-46.4266
  0
LINE
  8
0
 10
29.5365
 20
-46.4266
 11
29.3613
 21
-46.3572
  0
LINE
  8
0
 10
29.3613
 20
-46.3572
 11
29.1963
 21
-46.2665
  0
LINE
  8
0
 10
29.1963
 20
-46.2665
 11
29.0439
 21
-46.1558
  0
LINE
  8
0
 10
29.0439
 20
-46.1558
 11
28.9065
 21
-46.0268
  0
LINE
  8
0
 10
28.9065
 20
-46.0268
 11
28.7865
 21
-45.8817
  0
LINE
  8
0
 10
28.7865
 20
-45.8817
 11
28.6855
 21
-45.7226
  0
LINE
  8
0
 10
28.6855
 20
-45.7226
 11
28.6053
 21
-45.5522
  0
LINE
  8
0
 10
28.6053
 20
-45.5522
 11
28.5471
 21
-45.373
  0
LINE
  8
0
 10
28.5471
 20
-45.373
 11
28.5118
 21
-45.188
  0
LINE
  8
0
 10
28.5118
 20
-45.188
 11
28.5
 21
-45
  0
LINE
  8
0
 10
28.5
 20
-45
 11
28.5118
 21
-44.812
  0
LINE
  8
0
 10
28.5118
 20
-44.812
 11
28.5471
 21
-44.627
  0
LINE
  8
0
 10
28.5471
 20
-44.627
 11
28.6053
 21
-44.4478
  0
LINE
  8
0
 10
28.6053
 20
-44.4478
 11
28.6855
 21
-44.2774
  0
LINE
  8
0
 10
28.6855
 20
-44.2774
 11
28.7865
 21
-44.1183
  0
LINE
  8
0
 10
28.7865
 20
-44.1183
 11
28.9065
 21
-43.9732
  0
LINE
  8
0
 10
28.9065
 20
-43.9732
 11
29.0439
 21
-43.8442
  0
LINE
  8
0
 10
29.0439
 20
-43.8442
 11
29.1963
 21
-43.7335
  0
LINE
  8
0
 10
29.1963
 20
-43.7335
 11
29.3613
 21
-43.6428
  0
LINE
  8
0
 10
29.3613
 20
-43.6428
 11
29.5365
 21
-43.5734
  0
LINE
  8
0
 10
29.5365
 20
-43.5734
 11
29.7189
 21
-43.5266
  0
LINE
  8
0
 10
29.7189
 20
-43.5266
 11
29.9058
 21
-43.503
  0
LINE
  8
0
 10
29.9058
 20
-43.503
 11
30.0942
 21
-43.503
  0
LINE
  8
0
 10
30.0942
 20
-43.503
 11
30.2811
 21
-43.5266
  0
LINE
  8
0
 10
30.2811
 20
-43.5266
 11
30.4635
 21
-43.5734
  0
LINE
  8
0
 10
30.4635
 20
-43.5734
 11
30.6387
 21
-43.6428
  0
LINE
  8
0
 10
30.6387
 20
-43.6428
 11
30.8037
 21
-43.7335
  0
LINE
  8
0
 10
30.8037
 20
-43.7335
 11
30.9561
 21
-43.8442
  0
LINE
  8
0
 10
30.9561
 20
-43.8442
 11
31.0934
 21
-43.9732
  0
LINE
  8
0
 10
31.0934
 20
-43.9732
 11
31.2135
 21
-44.1183
  0
LINE
  8
0
 10
31.2135
 20
-44.1183
 11
31.3145
 21
-44.2774
  0
LINE
  8
0
 10
31.3145
 20
-44.2774
 11
31.3947
 21
-44.4478
  0
LINE
  8
0
 10
31.3947
 20
-44.4478
 11
31.4529
 21
-44.627
  0
LINE
  8
0
 10
31.4529
 20
-44.627
 11
31.4882
 21
-44.812
  0
LINE
  8
0
 10
31.4882
 20
-44.812
 11
31.5
 21
-45
  0
LINE
  8
0
 10
31.5
 20
-45
 11
31.4882
 21
-45.188
  0
LINE
  8
0
 10
31.4882
 20
-45.188
 11
31.4529
 21
-45.373
  0
LINE
  8
0
 10
31.4529
 20
-45.373
 11
31.3947
 21
-45.5522
  0
LINE
  8
0
 10
31.3947
 20
-45.5522
 11
31.3145
 21
-45.7226
  0
LINE
  8
0
 10
31.3145
 20
-45.7226
 11
31.2135
 21
-45.8817
  0
LINE
  8
0
 10
31.2135
 20
-45.8817
 11
31.0934
 21
-46.0268
  0
LINE
  8
0
 10
31.0934
 20
-46.0268
 11
30.9561
 21
-46.1558
  0
LINE
  8
0
 10
30.9561
 20
-46.1558
 11
30.8037
 21
-46.2665
  0
LINE
  8
0
 10
30.8037
 20
-46.2665
 11
30.6387
 21
-46.3572
  0
LINE
  8
0
 10
30.6387
 20
-46.3572
 11
30.4635
 21
-46.4266
  0
LINE
  8
0
 10
30.4635
 20
-46.4266
 11
30.2811
 21
-46.4734
  0
LINE
  8
0
 10
30.2811
 20
-46.4734
 11
30.0942
 21
-46.497
  0
LINE
  8
0
 10
30.0942
 20
-46.497
 11
29.9058
 21
-46.497
  0
LINE
  8
0
 10
59.9058
 20
-46.497
 11
59.7189
 21
-46.4734
  0
LINE
  8
0
 10
59.7189
 20
-46.4734
 11
59.5365
 21
-46.4266
  0
LINE
  8
0
 10
59.5365
 20
-46.4266
 11
59.3613
 21
-46.3572
  0
LINE
  8
0
 10
59.3613
 20
-46.3572
 11
59.1963
 21
-46.2665
  0
LINE
  8
0
 10
59.1963
 20
-46.2665
 11
59.0439
 21
-46.1558
  0
LINE
  8
0
 10
59.0439
 20
-46.1558
 11
58.9065
 21
-46.0268
  0
LINE
  8
0
 10
58.9065
 20
-46.0268
 11
58.7865
 21
-45.8817
  0
LINE
  8
0
 10
58.7865
 20
-45.8817
 11
58.6855
 21
-45.7226
  0
LINE
  8
0
 10
58.6855
 20
-45.7226
 11
58.6053
 21
-45.5522
  0
LINE
  8
0
 10
58.6053
 20
-45.5522
 11
58.5471
 21
-45.373
  0
LINE
  8
0
 10
58.5471
 20
-45.373
 11
58.5118
 21
-45.188
  0
LINE
  8
0
 10
58.5118
 20
-45.188
 11
58.5
 21
-45
  0
LINE
  8
0
 10
58.5
 20
-45
 11
58.5118
 21
-44.812
  0
LINE
  8
0
 10
58.5118
 20
-44.812
 11
58.5471
 21
-44.627
  0
LINE
  8
0
 10
58.5471
 20
-44.627
 11
58.6053
 21
-44.4478
  0
LINE
  8
0
 10
58.6053
 20
-44.4478
 11
58.6855
 21
-44.2774
  0
LINE
  8
0
 10
58.6855
 20
-44.2774
 11
58.7865
 21
-44.1183
  0
LINE
  8
0
 10
58.7865
 20
-44.1183
 11
58.9065
 21
-43.9732
  0
LINE
  8
0
 10
58.9065
 20
-43.9732
 11
59.0439
 21
-43.8442
  0
LINE
  8
0
 10
59.0439
 20
-43.8442
 11
59.1963
 21
-43.7335
  0
LINE
  8
0
 10
59.1963
 20
-43.7335
 11
59.3613
 21
-43.6428
  0
LINE
  8
0
 10
59.3613
 20
-43.6428
 11
59.5365
 21
-43.5734
  0
LINE
  8
0
 10
59.5365
 20
-43.5734
 11
59.7189
 21
-43.5266
  0
LINE
  8
0
 10
59.7189
 20
-43.5266
 11
59.9058
 21
-43.503
  0
LINE
  8
0
 10
59.9058
 20
-43.503
 11
60.0942
 21
-43.503
  0
LINE
  8
0
 10
60.0942
 20
-43.503
 11
60.2811
 21
-43.5266
  0
LINE
  8
0
 10
60.2811
 20
-43.5266
 11
60.4635
 21
-43.5734
  0
LINE
  8
0
 10
60.4635
 20
-43.5734
 11
60.6387
 21
-43.6428
  0
LINE
  8
0
 10
60.6387
 20
-43.6428
 11
60.8037
 21
-43.7335
  0
LINE
  8
0
 10
60.8037
 20
-43.7335
 11
60.9561
 21
-43.8442
  0
LINE
  8
0
 10
60.9561
 20
-43.8442
 11
61.0934
 21
-43.9732
  0
LINE
  8
0
 10
61.0934
 20
-43.9732
 11
61.2135
 21
-44.1183
  0
LINE
  8
0
 10
61.2135
 20
-44.1183
 11
61.3145
 21
-44.2774
  0
LINE
  8
0
 10
61.3145
 20
-44.2774
 11
61.3947
 21
-44.4478
  0
LINE
  8
0
 10
61.3947
 20
-44.4478
 11
61.4529
 21
-44.627
  0
LINE
  8
0
 10
61.4529
 20
-44.627
 11
61.4882
 21
-44.812
  0
LINE
  8
0
 10
61.4882
 20
-44.812
 11
61.5
 21
-45
  0
LINE
  8
0
 10
61.5
 20
-45
 11
61.4882
 21
-45.188
  0
LINE
  8
0
 10
61.4882
 20
-45.188
 11
61.4529
 21
-45.373
  0
LINE
  8
0
 10
61.4529
 20
-45.373
 11
61.3947
 21
-45.5522
  0
LINE
  8
0
 10
61.3947
 20
-45.5522
 11
61.3145
 21
-45.7226
  0
LINE
  8
0
 10
61.3145
 20
-45.7226
 11
61.2135
 21
-45.8817
  0
LINE
  8
0
 10
61.2135
 20
-45.8817
 11
61.0934
 21
-46.0268
  0
LINE
  8
0
 10
61.0934
 20
-46.0268
 11
60.9561
 21
-46.1558
  0
LINE
  8
0
 10
60.9561
 20
-46.1558
 11
60.8037
 21
-46.2665
  0
LINE
  8
0
 10
60.8037
 20
-46.2665
 11
60.6387
 21
-46.3572
  0
LINE
  8
0
 10
60.6387
 20
-46.3572
 11
60.4635
 21
-46.4266
  0
LINE
  8
0
 10
60.4635
 20
-46.4266
 11
60.2811
 21
-46.4734
  0
LINE
  8
0
 10
60.2811
 20
-46.4734
 11
60.0942
 21
-46.497
  0
LINE
  8
0
 10
60.0942
 20
-46.497
 11
59.9058
 21
-46.497
  0
LINE
  8
0
 10
44.9058
 20
-46.497
 11
44.7189
 21
-46.4734
  0
LINE
  8
0
 10
44.7189
 20
-46.4734
 11
44.5365
 21
-46.4266
  0
LINE
  8
0
 10
44.5365
 20
-46.4266
 11
44.3613
 21
-46.3572
  0
LINE
  8
0
 10
44.3613
 20
-46.3572
 11
44.1963
 21
-46.2665
  0
LINE
  8
0
 10
44.1963
 20
-46.2665
 11
44.0439
 21
-46.1558
  0
LINE
  8
0
 10
44.0439
 20
-46.1558
 11
43.9065
 21
-46.0268
  0
LINE
  8
0
 10
43.9065
 20
-46.0268
 11
43.7865
 21
-45.8817
  0
LINE
  8
0
 10
43.7865
 20
-45.8817
 11
43.6855
 21
-45.7226
  0
LINE
  8
0
 10
43.6855
 20
-45.7226
 11
43.6053
 21
-45.5522
  0
LINE
  8
0
 10
43.6053
 20
-45.5522
 11
43.5471
 21
-45.373
  0
LINE
  8
0
 10
43.5471
 20
-45.373
 11
43.5118
 21
-45.188
  0
LINE
  8
0
 10
43.5118
 20
-45.188
 11
43.5
 21
-45
  0
LINE
  8
0
 10
43.5
 20
-45
 11
43.5118
 21
-44.812
  0
LINE
  8
0
 10
43.5118
 20
-44.812
 11
43.5471
 21
-44.627
  0
LINE
  8
0
 10
43.5471
 20
-44.627
 11
43.6053
 21
-44.4478
  0
LINE
  8
0
 10
43.6053
 20
-44.4478
 11
43.6855
 21
-44.2774
  0
LINE
  8
0
 10
43.6855
 20
-44.2774
 11
43.7865
 21
-44.1183
  0
LINE
  8
0
 10
43.7865
 20
-44.1183
 11
43.9065
 21
-43.9732
  0
LINE
  8
0
 10
43.9065
 20
-43.9732
 11
44.0439
 21
-43.8442
  0
LINE
  8
0
 10
44.0439
 20
-43.8442
 11
44.1963
 21
-43.7335
  0
LINE
  8
0
 10
44.1963
 20
-43.7335
 11
44.3613
 21
-43.6428
  0
LINE
  8
0
 10
44.3613
 20
-43.6428
 11
44.5365
 21
-43.5734
  0
LINE
  8
0
 10
44.5365
 20
-43.5734
 11
44.7189
 21
-43.5266
  0
LINE
  8
0
 10
44.7189
 20
-43.5266
 11
44.9058
 21
-43.503
  0
LINE
  8
0
 10
44.9058
 20
-43.503
 11
45.0942
 21
-43.503
  0
LINE
  8
0
 10
45.0942
 20
-43.503
 11
45.2811
 21
-43.5266
  0
LINE
  8
0
 10
45.2811
 20
-43.5266
 11
45.4635
 21
-43.5734
  0
LINE
  8
0
 10
45.4635
 20
-43.5734
 11
45.6387
 21
-43.6428
  0
LINE
  8
0
 10
45.6387
 20
-43.6428
 11
45.8037
 21
-43.7335
  0
LINE
  8
0
 10
45.8037
 20
-43.7335
 11
45.9561
 21
-43.8442
  0
LINE
  8
0
 10
45.9561
 20
-43.8442
 11
46.0934
 21
-43.9732
  0
LINE
  8
0
 10
46.0934
 20
-43.9732
 11
46.2135
 21
-44.1183
  0
LINE
  8
0
 10
46.2135
 20
-44.1183
 11
46.3145
 21
-44.2774
  0
LINE
  8
0
 10
46.3145
 20
-44.2774
 11
46.3947
 21
-44.4478
  0
LINE
  8
0
 10
46.3947
 20
-44.4478
 11
46.4529
 21
-44.627
  0
LINE
  8
0
 10
46.4529
 20
-44.627
 11
46.4882
 21
-44.812
  0
LINE
  8
0
 10
46.4882
 20
-44.812
 11
46.5
 21
-45
  0
LINE
  8
0
 10
46.5
 20
-45
 11
46.4882
 21
-45.188
  0
LINE
  8
0
 10
46.4882
 20
-45.188
 11
46.4529
 21
-45.373
  0
LINE
  8
0
 10
46.4529
 20
-45.373
 11
46.3947
 21
-45.5522
  0
LINE
  8
0
 10
46.3947
 20
-45.5522
 11
46.3145
 21
-45.7226
  0
LINE
  8
0
 10
46.3145
 20
-45.7226
 11
46.2135
 21
-45.8817
  0
LINE
  8
0
 10
46.2135
 20
-45.8817
 11
46.0934
 21
-46.0268
  0
LINE
  8
0
 10
46.0934
 20
-46.0268
 11
45.9561
 21
-46.1558
  0
LINE
  8
0
 10
45.9561
 20
-46.1558
 11
45.8037
 21
-46.2665
  0
LINE
  8
0
 10
45.8037
 20
-46.2665
 11
45.6387
 21
-46.3572
  0
LINE
  8
0
 10
45.6387
 20
-46.3572
 11
45.4635
 21
-46.4266
  0
LINE
  8
0
 10
45.4635
 20
-46.4266
 11
45.2811
 21
-46.4734
  0
LINE
  8
0
 10
45.2811
 20
-46.4734
 11
45.0942
 21
-46.497
  0
LINE
  8
0
 10
45.0942
 20
-46.497
 11
44.9058
 21
-46.497
  0
LINE
  8
0
 10
-15.0942
 20
-46.497
 11
-15.2811
 21
-46.4734
  0
LINE
  8
0
 10
-15.2811
 20
-46.4734
 11
-15.4635
 21
-46.4266
  0
LINE
  8
0
 10
-15.4635
 20
-46.4266
 11
-15.6387
 21
-46.3572
  0
LINE
  8
0
 10
-15.6387
 20
-46.3572
 11
-15.8037
 21
-46.2665
  0
LINE
  8
0
 10
-15.8037
 20
-46.2665
 11
-15.9561
 21
-46.1558
  0
LINE
  8
0
 10
-15.9561
 20
-46.1558
 11
-16.0934
 21
-46.0268
  0
LINE
  8
0
 10
-16.0934
 20
-46.0268
 11
-16.2135
 21
-45.8817
  0
LINE
  8
0
 10
-16.2135
 20
-45.8817
 11
-16.3145
 21
-45.7226
  0
LINE
  8
0
 10
-16.3145
 20
-45.7226
 11
-16.3947
 21
-45.5522
  0
LINE
  8
0
 10
-16.3947
 20
-45.5522
 11
-16.4529
 21
-45.373
  0
LINE
  8
0
 10
-16.4529
 20
-45.373
 11
-16.4882
 21
-45.188
  0
LINE
  8
0
 10
-16.4882
 20
-45.188
 11
-16.5
 21
-45
  0
LINE
  8
0
 10
-16.5
 20
-45
 11
-16.4882
 21
-44.812
  0
LINE
  8
0
 10
-16.4882
 20
-44.812
 11
-16.4529
 21
-44.627
  0
LINE
  8
0
 10
-16.4529
 20
-44.627
 11
-16.3947
 21
-44.4478
  0
LINE
  8
0
 10
-16.3947
 20
-44.4478
 11
-16.3145
 21
-44.2774
  0
LINE
  8
0
 10
-16.3145
 20
-44.2774
 11
-16.2135
 21
-44.1183
  0
LINE
  8
0
 10
-16.2135
 20
-44.1183
 11
-16.0934
 21
-43.9732
  0
LINE
  8
0
 10
-16.0934
 20
-43.9732
 11
-15.9561
 21
-43.8442
  0
LINE
  8
0
 10
-15.9561
 20
-43.8442
 11
-15.8037
 21
-43.7335
  0
LINE
  8
0
 10
-15.8037
 20
-43.7335
 11
-15.6387
 21
-43.6428
  0
LINE
  8
0
 10
-15.6387
 20
-43.6428
 11
-15.4635
 21
-43.5734
  0
LINE
  8
0
 10
-15.4635
 20
-43.5734
 11
-15.2811
 21
-43.5266
  0
LINE
  8
0
 10
-15.2811
 20
-43.5266
 11
-15.0942
 21
-43.503
  0
LINE
  8
0
 10
-15.0942
 20
-43.503
 11
-14.9058
 21
-43.503
  0
LINE
  8
0
 10
-14.9058
 20
-43.503
 11
-14.7189
 21
-43.5266
  0
LINE
  8
0
 10
-14.7189
 20
-43.5266
 11
-14.5365
 21
-43.5734
  0
LINE
  8
0
 10
-14.5365
 20
-43.5734
 11
-14.3613
 21
-43.6428
  0
LINE
  8
0
 10
-14.3613
 20
-43.6428
 11
-14.1963
 21
-43.7335
  0
LINE
  8
0
 10
-14.1963
 20
-43.7335
 11
-14.0439
 21
-43.8442
  0
LINE
  8
0
 10
-14.0439
 20
-43.8442
 11
-13.9065
 21
-43.9732
  0
LINE
  8
0
 10
-13.9065
 20
-43.9732
 11
-13.7865
 21
-44.1183
  0
LINE
  8
0
 10
-13.7865
 20
-44.1183
 11
-13.6855
 21
-44.2774
  0
LINE
  8
0
 10
-13.6855
 20
-44.2774
 11
-13.6053
 21
-44.4478
  0
LINE
  8
0
 10
-13.6053
 20
-44.4478
 11
-13.5471
 21
-44.627
  0
LINE
  8
0
 10
-13.5471
 20
-44.627
 11
-13.5118
 21
-44.812
  0
LINE
  8
0
 10
-13.5118
 20
-44.812
 11
-13.5
 21
-45
  0
LINE
  8
0
 10
-13.5
 20
-45
 11
-13.5118
 21
-45.188
  0
LINE
  8
0
 10
-13.5118
 20
-45.188
 11
-13.5471
 21
-45.373
  0
LINE
  8
0
 10
-13.5471
 20
-45.373
 11
-13.6053
 21
-45.5522
  0
LINE
  8
0
 10
-13.6053
 20
-45.5522
 11
-13.6855
 21
-45.7226
  0
LINE
  8
0
 10
-13.6855
 20
-45.7226
 11
-13.7865
 21
-45.8817
  0
LINE
  8
0
 10
-13.7865
 20
-45.8817
 11
-13.9065
 21
-46.0268
  0
LINE
  8
0
 10
-13.9065
 20
-46.0268
 11
-14.0439
 21
-46.1558
  0
LINE
  8
0
 10
-14.0439
 20
-46.1558
 11
-14.1963
 21
-46.2665
  0
LINE
  8
0
 10
-14.1963
 20
-46.2665
 11
-14.3613
 21
-46.3572
  0
LINE
  8
0
 10
-14.3613
 20
-46.3572
 11
-14.5365
 21
-46.4266
  0
LINE
  8
0
 10
-14.5365
 20
-46.4266
 11
-14.7189
 21
-46.4734
  0
LINE
  8
0
 10
-14.7189
 20
-46.4734
 11
-14.9058
 21
-46.497
  0
LINE
  8
0
 10
-14.9058
 20
-46.497
 11
-15.0942
 21
-46.497
  0
ENDSEC
  0
SECTION
  2
OBJECTS
  0
DICTIONARY
  0
ENDSEC
  0
EOF
