<?xml version="1.0" standalone="no"?>
<!DOCTYPE svg PUBLIC "-//W3C//DTD SVG 1.1//EN" "http://www.w3.org/Graphics/SVG/1.1/DTD/svg11.dtd">
<svg width="134mm" height="120mm" viewBox="-67 -60 134 120" xmlns="http://www.w3.org/2000/svg" version="1.1">
<title>OpenSCAD Model</title>
<path d="
M 62.9369,59.4114 L 63.5451,59.2553 L 64.1289,59.0241 L 64.6791,58.7216 L 65.1871,58.3526 L 65.6448,57.9227
 L 66.0451,57.4389 L 66.3815,56.9088 L 66.6489,56.3406 L 66.8429,55.7434 L 66.9606,55.1267 L 67,54.5
 L 67,-54.5 L 66.9606,-55.1267 L 66.8429,-55.7434 L 66.6489,-56.3406 L 66.3815,-56.9088 L 66.0451,-57.4389
 L 65.6448,-57.9227 L 65.1871,-58.3526 L 64.6791,-58.7216 L 64.1289,-59.0241 L 63.5451,-59.2553 L 62.9369,-59.4114
 L 62.3139,-59.4901 L 57.686,-59.4901 L 57.0631,-59.4114 L 56.4549,-59.2553 L 55.8711,-59.0241 L 55.3209,-58.7216
 L 54.8129,-58.3526 L 54.3551,-57.9227 L 53.9549,-57.4389 L 53.6185,-56.9088 L 53.3511,-56.3406 L 53.1571,-55.7434
 L 53.0394,-55.1267 L 53,-54.5 L 53,45.5099 L -53,45.5099 L -53,-54.5 L -53.0394,-55.1267
 L -53.1571,-55.7434 L -53.3511,-56.3406 L -53.6185,-56.9088 L -53.9549,-57.4389 L -54.3551,-57.9227 L -54.8129,-58.3526
 L -55.3209,-58.7216 L -55.8711,-59.0241 L -56.4549,-59.2553 L -57.0631,-59.4114 L -57.686,-59.4901 L -62.3139,-59.4901
 L -62.9369,-59.4114 L -63.5451,-59.2553 L -64.1289,-59.0241 L -64.6791,-58.7216 L -65.1871,-58.3526 L -65.6448,-57.9227
 L -66.0451,-57.4389 L -66.3815,-56.9088 L -66.6489,-56.3406 L -66.8429,-55.7434 L -66.9606,-55.1267 L -67,-54.5
 L -67,54.5 L -66.9606,55.1267 L -66.8429,55.7434 L -66.6489,56.3406 L -66.3815,56.9088 L -66.0451,57.4389
 L -65.6448,57.9227 L -65.1871,58.3526 L -64.6791,58.7216 L -64.1289,59.0241 L -63.5451,59.2553 L -62.9369,59.4114
 L -62.3139,59.4901 L 62.3139,59.4901 z
M 59.8116,-49.5059 L 59.4379,-49.5531 L 59.0729,-49.6468 L 58.7227,-49.7855 L 58.3925,-49.967 L 58.0877,-50.1885
 L 57.8131,-50.4464 L 57.5729,-50.7366 L 57.3711,-51.0547 L 57.2107,-51.3956 L 57.0942,-51.7539 L 57.0237,-52.124
 L 57,-52.5 L 57.0237,-52.876 L 57.0942,-53.2461 L 57.2107,-53.6044 L 57.3711,-53.9453 L 57.5729,-54.2634
 L 57.8131,-54.5536 L 58.0877,-54.8115 L 58.3925,-55.033 L 58.7227,-55.2145 L 59.0729,-55.3532 L 59.4379,-55.4469
 L 59.8116,-55.4941 L 60.1884,-55.4941 L 60.5621,-55.4469 L 60.927,-55.3532 L 61.2773,-55.2145 L 61.6075,-55.033
 L 61.9123,-54.8115 L 62.1869,-54.5536 L 62.427,-54.2634 L 62.6289,-53.9453 L 62.7893,-53.6044 L 62.9057,-53.2461
 L 62.9763,-52.876 L 63,-52.5 L 62.9763,-52.124 L 62.9057,-51.7539 L 62.7893,-51.3956 L 62.6289,-51.0547
 L 62.427,-50.7366 L 62.1869,-50.4464 L 61.9123,-50.1885 L 61.6075,-49.967 L 61.2773,-49.7855 L 60.927,-49.6468
 L 60.5621,-49.5531 L 60.1884,-49.5059 z
M -60.1884,-49.5059 L -60.5621,-49.5531 L -60.927,-49.6468 L -61.2773,-49.7855 L -61.6075,-49.967 L -61.9123,-50.1885
 L -62.1869,-50.4464 L -62.427,-50.7366 L -62.6289,-51.0547 L -62.7893,-51.3956 L -62.9057,-51.7539 L -62.9763,-52.124
 L -63,-52.5 L -62.9763,-52.876 L -62.9057,-53.2461 L -62.7893,-53.6044 L -62.6289,-53.9453 L -62.427,-54.2634
 L -62.1869,-54.5536 L -61.9123,-54.8115 L -61.6075,-55.033 L -61.2773,-55.2145 L -60.927,-55.3532 L -60.5621,-55.4469
 L -60.1884,-55.4941 L -59.8116,-55.4941 L -59.4379,-55.4469 L -59.0729,-55.3532 L -58.7227,-55.2145 L -58.3925,-55.033
 L -58.0877,-54.8115 L -57.8131,-54.5536 L -57.5729,-54.2634 L -57.3711,-53.9453 L -57.2107,-53.6044 L -57.0942,-53.2461
 L -57.0237,-52.876 L -57,-52.5 L -57.0237,-52.124 L -57.0942,-51.7539 L -57.2107,-51.3956 L -57.3711,-51.0547
 L -57.5729,-50.7366 L -57.8131,-50.4464 L -58.0877,-50.1885 L -58.3925,-49.967 L -58.7227,-49.7855 L -59.0729,-49.6468
 L -59.4379,-49.5531 L -59.8116,-49.5059 z
M 59.9058,-43.503 L 59.7189,-43.5266 L 59.5365,-43.5734 L 59.3613,-43.6428 L 59.1963,-43.7335 L 59.0439,-43.8442
 L 58.9065,-43.9732 L 58.7865,-44.1183 L 58.6855,-44.2774 L 58.6053,-44.4478 L 58.5471,-44.627 L 58.5118,-44.812
 L 58.5,-45 L 58.5118,-45.188 L 58.5471,-45.373 L 58.6053,-45.5522 L 58.6855,-45.7226 L 58.7865,-45.8817
 L 58.9065,-46.0268 L 59.0439,-46.1558 L 59.1963,-46.2665 L 59.3613,-46.3572 L 59.5365,-46.4266 L 59.7189,-46.4734
 L 59.9058,-46.497 L 60.0942,-46.497 L 60.2811,-46.4734 L 60.4635,-46.4266 L 60.6387,-46.3572 L 60.8037,-46.2665
 L 60.9561,-46.1558 L 61.0934,-46.0268 L 61.2135,-45.8817 L 61.3145,-45.7226 L 61.3947,-45.5522 L 61.4529,-45.373
 L 61.4882,-45.188 L 61.5,-45 L 61.4882,-44.812 L 61.4529,-44.627 L 61.3947,-44.4478 L 61.3145,-44.2774
 L 61.2135,-44.1183 L 61.0934,-43.9732 L 60.9561,-43.8442 L 60.8037,-43.7335 L 60.6387,-43.6428 L 60.4635,-43.5734
 L 60.2811,-43.5266 L 60.0942,-43.503 z
M -60.0942,-43.503 L -60.2811,-43.5266 L -60.4635,-43.5734 L -60.6387,-43.6428 L -60.8037,-43.7335 L -60.9561,-43.8442
 L -61.0934,-43.9732 L -61.2135,-44.1183 L -61.3145,-44.2774 L -61.3947,-44.4478 L -61.4529,-44.627 L -61.4882,-44.812
 L -61.5,-45 L -61.4882,-45.188 L -61.4529,-45.373 L -61.3947,-45.5522 L -61.3145,-45.7226 L -61.2135,-45.8817
 L -61.0934,-46.0268 L -60.9561,-46.1558 L -60.8037,-46.2665 L -60.6387,-46.3572 L -60.4635,-46.4266 L -60.2811,-46.4734
 L -60.0942,-46.497 L -59.9058,-46.497 L -59.7189,-46.4734 L -59.5365,-46.4266 L -59.3613,-46.3572 L -59.1963,-46.2665
 L -59.0439,-46.1558 L -58.9065,-46.0268 L -58.7865,-45.8817 L -58.6855,-45.7226 L -58.6053,-45.5522 L -58.5471,-45.373
 L -58.5118,-45.188 L -58.5,-45 L -58.5118,-44.812 L -58.5471,-44.627 L -58.6053,-44.4478 L -58.6855,-44.2774
 L -58.7865,-44.1183 L -58.9065,-43.9732 L -59.0439,-43.8442 L -59.1963,-43.7335 L -59.3613,-43.6428 L -59.5365,-43.5734
 L -59.7189,-43.5266 L -59.9058,-43.503 z
M 59.8116,-34.5059 L 59.4379,-34.5531 L 59.0729,-34.6468 L 58.7227,-34.7855 L 58.3925,-34.967 L 58.0877,-35.1885
 L 57.8131,-35.4464 L 57.5729,-35.7366 L 57.3711,-36.0547 L 57.2107,-36.3956 L 57.0942,-36.7539 L 57.0237,-37.124
 L 57,-37.5 L 57.0237,-37.876 L 57.0942,-38.2461 L 57.2107,-38.6044 L 57.3711,-38.9453 L 57.5729,-39.2634
 L 57.8131,-39.5536 L 58.0877,-39.8115 L 58.3925,-40.033 L 58.7227,-40.2145 L 59.0729,-40.3532 L 59.4379,-40.4469
 L 59.8116,-40.4941 L 60.1884,-40.4941 L 60.5621,-40.4469 L 60.927,-40.3532 L 61.2773,-40.2145 L 61.6075,-40.033
 L 61.9123,-39.8115 L 62.1869,-39.5536 L 62.427,-39.2634 L 62.6289,-38.9453 L 62.7893,-38.6044 L 62.9057,-38.2461
 L 62.9763,-37.876 L 63,-37.5 L 62.9763,-37.124 L 62.9057,-36.7539 L 62.7893,-36.3956 L 62.6289,-36.0547
 L 62.427,-35.7366 L 62.1869,-35.4464 L 61.9123,-35.1885 L 61.6075,-34.967 L 61.2773,-34.7855 L 60.927,-34.6468
 L 60.5621,-34.5531 L 60.1884,-34.5059 z
M -60.1884,-34.5059 L -60.5621,-34.5531 L -60.927,-34.6468 L -61.2773,-34.7855 L -61.6075,-34.967 L -61.9123,-35.1885
 L -62.1869,-35.4464 L -62.427,-35.7366 L -62.6289,-36.0547 L -62.7893,-36.3956 L -62.9057,-36.7539 L -62.9763,-37.124
 L -63,-37.5 L -62.9763,-37.876 L -62.9057,-38.2461 L -62.7893,-38.6044 L -62.6289,-38.9453 L -62.427,-39.2634
 L -62.1869,-39.5536 L -61.9123,-39.8115 L -61.6075,-40.033 L -61.2773,-40.2145 L -60.927,-40.3532 L -60.5621,-40.4469
 L -60.1884,-40.4941 L -59.8116,-40.4941 L -59.4379,-40.4469 L -59.0729,-40.3532 L -58.7227,-40.2145 L -58.3925,-40.033
 L -58.0877,-39.8115 L -57.8131,-39.5536 L -57.5729,-39.2634 L -57.3711,-38.9453 L -57.2107,-38.6044 L -57.0942,-38.2461
 L -57.0237,-37.876 L -57,-37.5 L -57.0237,-37.124 L -57.0942,-36.7539 L -57.2107,-36.3956 L -57.3711,-36.0547
 L -57.5729,-35.7366 L -57.8131,-35.4464 L -58.0877,-35.1885 L -58.3925,-34.967 L -58.7227,-34.7855 L -59.0729,-34.6468
 L -59.4379,-34.5531 L -59.8116,-34.5059 z
M -60.0942,-28.503 L -60.2811,-28.5266 L -60.4635,-28.5734 L -60.6387,-28.6427 L -60.8037,-28.7335 L -60.9561,-28.8442
 L -61.0934,-28.9732 L -61.2135,-29.1183 L -61.3145,-29.2774 L -61.3947,-29.4478 L -61.4529,-29.627 L -61.4882,-29.812
 L -61.5,-30 L -61.4882,-30.188 L -61.4529,-30.373 L -61.3947,-30.5522 L -61.3145,-30.7226 L -61.2135,-30.8817
 L -61.0934,-31.0268 L -60.9561,-31.1558 L -60.8037,-31.2665 L -60.6387,-31.3572 L -60.4635,-31.4266 L -60.2811,-31.4734
 L -60.0942,-31.497 L -59.9058,-31.497 L -59.7189,-31.4734 L -59.5365,-31.4266 L -59.3613,-31.3572 L -59.1963,-31.2665
 L -59.0439,-31.1558 L -58.9065,-31.0268 L -58.7865,-30.8817 L -58.6855,-30.7226 L -58.6053,-30.5522 L -58.5471,-30.373
 L -58.5118,-30.188 L -58.5,-30 L -58.5118,-29.812 L -58.5471,-29.627 L -58.6053,-29.4478 L -58.6855,-29.2774
 L -58.7865,-29.1183 L -58.9065,-28.9732 L -59.0439,-28.8442 L -59.1963,-28.7335 L -59.3613,-28.6427 L -59.5365,-28.5734
 L -59.7189,-28.5266 L -59.9058,-28.503 z
M 59.9058,-28.503 L 59.7189,-28.5266 L 59.5365,-28.5734 L 59.3613,-28.6427 L 59.1963,-28.7335 L 59.0439,-28.8442
 L 58.9065,-28.9732 L 58.7865,-29.1183 L 58.6855,-29.2774 L 58.6053,-29.4478 L 58.5471,-29.627 L 58.5118,-29.812
 L 58.5,-30 L 58.5118,-30.188 L 58.5471,-30.373 L 58.6053,-30.5522 L 58.6855,-30.7226 L 58.7865,-30.8817
 L 58.9065,-31.0268 L 59.0439,-31.1558 L 59.1963,-31.2665 L 59.3613,-31.3572 L 59.5365,-31.4266 L 59.7189,-31.4734
 L 59.9058,-31.497 L 60.0942,-31.497 L 60.2811,-31.4734 L 60.4635,-31.4266 L 60.6387,-31.3572 L 60.8037,-31.2665
 L 60.9561,-31.1558 L 61.0934,-31.0268 L 61.2135,-30.8817 L 61.3145,-30.7226 L 61.3947,-30.5522 L 61.4529,-30.373
 L 61.4882,-30.188 L 61.5,-30 L 61.4882,-29.812 L 61.4529,-29.627 L 61.3947,-29.4478 L 61.3145,-29.2774
 L 61.2135,-29.1183 L 61.0934,-28.9732 L 60.9561,-28.8442 L 60.8037,-28.7335 L 60.6387,-28.6427 L 60.4635,-28.5734
 L 60.2811,-28.5266 L 60.0942,-28.503 z
M -60.1884,-19.5059 L -60.5621,-19.5531 L -60.927,-19.6468 L -61.2773,-19.7855 L -61.6075,-19.967 L -61.9123,-20.1884
 L -62.1869,-20.4464 L -62.427,-20.7366 L -62.6289,-21.0547 L -62.7893,-21.3956 L -62.9057,-21.7539 L -62.9763,-22.124
 L -63,-22.5 L -62.9763,-22.876 L -62.9057,-23.2461 L -62.7893,-23.6044 L -62.6289,-23.9453 L -62.427,-24.2634
 L -62.1869,-24.5536 L -61.9123,-24.8115 L -61.6075,-25.033 L -61.2773,-25.2145 L -60.927,-25.3532 L -60.5621,-25.4469
 L -60.1884,-25.4941 L -59.8116,-25.4941 L -59.4379,-25.4469 L -59.0729,-25.3532 L -58.7227,-25.2145 L -58.3925,-25.033
 L -58.0877,-24.8115 L -57.8131,-24.5536 L -57.5729,-24.2634 L -57.3711,-23.9453 L -57.2107,-23.6044 L -57.0942,-23.2461
 L -57.0237,-22.876 L -57,-22.5 L -57.0237,-22.124 L -57.0942,-21.7539 L -57.2107,-21.3956 L -57.3711,-21.0547
 L -57.5729,-20.7366 L -57.8131,-20.4464 L -58.0877,-20.1884 L -58.3925,-19.967 L -58.7227,-19.7855 L -59.0729,-19.6468
 L -59.4379,-19.5531 L -59.8116,-19.5059 z
M 59.8116,-19.5059 L 59.4379,-19.5531 L 59.0729,-19.6468 L 58.7227,-19.7855 L 58.3925,-19.967 L 58.0877,-20.1884
 L 57.8131,-20.4464 L 57.5729,-20.7366 L 57.3711,-21.0547 L 57.2107,-21.3956 L 57.0942,-21.7539 L 57.0237,-22.124
 L 57,-22.5 L 57.0237,-22.876 L 57.0942,-23.2461 L 57.2107,-23.6044 L 57.3711,-23.9453 L 57.5729,-24.2634
 L 57.8131,-24.5536 L 58.0877,-24.8115 L 58.3925,-25.033 L 58.7227,-25.2145 L 59.0729,-25.3532 L 59.4379,-25.4469
 L 59.8116,-25.4941 L 60.1884,-25.4941 L 60.5621,-25.4469 L 60.927,-25.3532 L 61.2773,-25.2145 L 61.6075,-25.033
 L 61.9123,-24.8115 L 62.1869,-24.5536 L 62.427,-24.2634 L 62.6289,-23.9453 L 62.7893,-23.6044 L 62.9057,-23.2461
 L 62.9763,-22.876 L 63,-22.5 L 62.9763,-22.124 L 62.9057,-21.7539 L 62.7893,-21.3956 L 62.6289,-21.0547
 L 62.427,-20.7366 L 62.1869,-20.4464 L 61.9123,-20.1884 L 61.6075,-19.967 L 61.2773,-19.7855 L 60.927,-19.6468
 L 60.5621,-19.5531 L 60.1884,-19.5059 z
M 59.9058,-13.5029 L 59.7189,-13.5266 L 59.5365,-13.5734 L 59.3613,-13.6427 L 59.1963,-13.7335 L 59.0439,-13.8442
 L 58.9065,-13.9732 L 58.7865,-14.1183 L 58.6855,-14.2774 L 58.6053,-14.4478 L 58.5471,-14.627 L 58.5118,-14.812
 L 58.5,-15 L 58.5118,-15.188 L 58.5471,-15.373 L 58.6053,-15.5522 L 58.6855,-15.7226 L 58.7865,-15.8817
 L 58.9065,-16.0268 L 59.0439,-16.1558 L 59.1963,-16.2665 L 59.3613,-16.3572 L 59.5365,-16.4266 L 59.7189,-16.4734
 L 59.9058,-16.497 L 60.0942,-16.497 L 60.2811,-16.4734 L 60.4635,-16.4266 L 60.6387,-16.3572 L 60.8037,-16.2665
 L 60.9561,-16.1558 L 61.0934,-16.0268 L 61.2135,-15.8817 L 61.3145,-15.7226 L 61.3947,-15.5522 L 61.4529,-15.373
 L 61.4882,-15.188 L 61.5,-15 L 61.4882,-14.812 L 61.4529,-14.627 L 61.3947,-14.4478 L 61.3145,-14.2774
 L 61.2135,-14.1183 L 61.0934,-13.9732 L 60.9561,-13.8442 L 60.8037,-13.7335 L 60.6387,-13.6427 L 60.4635,-13.5734
 L 60.2811,-13.5266 L 60.0942,-13.5029 z
M -60.0942,-13.5029 L -60.2811,-13.5266 L -60.4635,-13.5734 L -60.6387,-13.6427 L -60.8037,-13.7335 L -60.9561,-13.8442
 L -61.0934,-13.9732 L -61.2135,-14.1183 L -61.3145,-14.2774 L -61.3947,-14.4478 L -61.4529,-14.627 L -61.4882,-14.812
 L -61.5,-15 L -61.4882,-15.188 L -61.4529,-15.373 L -61.3947,-15.5522 L -61.3145,-15.7226 L -61.2135,-15.8817
 L -61.0934,-16.0268 L -60.9561,-16.1558 L -60.8037,-16.2665 L -60.6387,-16.3572 L -60.4635,-16.4266 L -60.2811,-16.4734
 L -60.0942,-16.497 L -59.9058,-16.497 L -59.7189,-16.4734 L -59.5365,-16.4266 L -59.3613,-16.3572 L -59.1963,-16.2665
 L -59.0439,-16.1558 L -58.9065,-16.0268 L -58.7865,-15.8817 L -58.6855,-15.7226 L -58.6053,-15.5522 L -58.5471,-15.373
 L -58.5118,-15.188 L -58.5,-15 L -58.5118,-14.812 L -58.5471,-14.627 L -58.6053,-14.4478 L -58.6855,-14.2774
 L -58.7865,-14.1183 L -58.9065,-13.9732 L -59.0439,-13.8442 L -59.1963,-13.7335 L -59.3613,-13.6427 L -59.5365,-13.5734
 L -59.7189,-13.5266 L -59.9058,-13.5029 z
M -60.1884,-4.50591 L -60.5621,-4.55313 L -60.927,-4.64682 L -61.2773,-4.78551 L -61.6075,-4.96701 L -61.9123,-5.18845
 L -62.1869,-5.44635 L -62.427,-5.73663 L -62.6289,-6.05473 L -62.7893,-6.39561 L -62.9057,-6.75392 L -62.9763,-7.12399
 L -63,-7.5 L -62.9763,-7.87599 L -62.9057,-8.24606 L -62.7893,-8.60437 L -62.6289,-8.94525 L -62.427,-9.26335
 L -62.1869,-9.55363 L -61.9123,-9.81154 L -61.6075,-10.033 L -61.2773,-10.2145 L -60.927,-10.3532 L -60.5621,-10.4469
 L -60.1884,-10.4941 L -59.8116,-10.4941 L -59.4379,-10.4469 L -59.0729,-10.3532 L -58.7227,-10.2145 L -58.3925,-10.033
 L -58.0877,-9.81154 L -57.8131,-9.55363 L -57.5729,-9.26335 L -57.3711,-8.94525 L -57.2107,-8.60437 L -57.0942,-8.24606
 L -57.0237,-7.87599 L -57,-7.5 L -57.0237,-7.12399 L -57.0942,-6.75392 L -57.2107,-6.39561 L -57.3711,-6.05473
 L -57.5729,-5.73663 L -57.8131,-5.44635 L -58.0877,-5.18845 L -58.3925,-4.96701 L -58.7227,-4.78551 L -59.0729,-4.64682
 L -59.4379,-4.55313 L -59.8116,-4.50591 z
M 59.8116,-4.50591 L 59.4379,-4.55313 L 59.0729,-4.64682 L 58.7227,-4.78551 L 58.3925,-4.96701 L 58.0877,-5.18845
 L 57.8131,-5.44635 L 57.5729,-5.73663 L 57.3711,-6.05473 L 57.2107,-6.39561 L 57.0942,-6.75392 L 57.0237,-7.12399
 L 57,-7.5 L 57.0237,-7.87599 L 57.0942,-8.24606 L 57.2107,-8.60437 L 57.3711,-8.94525 L 57.5729,-9.26335
 L 57.8131,-9.55363 L 58.0877,-9.81154 L 58.3925,-10.033 L 58.7227,-10.2145 L 59.0729,-10.3532 L 59.4379,-10.4469
 L 59.8116,-10.4941 L 60.1884,-10.4941 L 60.5621,-10.4469 L 60.927,-10.3532 L 61.2773,-10.2145 L 61.6075,-10.033
 L 61.9123,-9.81154 L 62.1869,-9.55363 L 62.427,-9.26335 L 62.6289,-8.94525 L 62.7893,-8.60437 L 62.9057,-8.24606
 L 62.9763,-7.87599 L 63,-7.5 L 62.9763,-7.12399 L 62.9057,-6.75392 L 62.7893,-6.39561 L 62.6289,-6.05473
 L 62.427,-5.73663 L 62.1869,-5.44635 L 61.9123,-5.18845 L 61.6075,-4.96701 L 61.2773,-4.78551 L 60.927,-4.64682
 L 60.5621,-4.55313 L 60.1884,-4.50591 z
M 59.9058,1.49704 L 59.7189,1.47342 L 59.5365,1.42657 L 59.3613,1.35724 L 59.1963,1.26648 L 59.0439,1.15576
 L 58.9065,1.02681 L 58.7865,0.881668 L 58.6855,0.722626 L 58.6053,0.552185 L 58.5471,0.373032 L 58.5118,0.187988
 L 58.5,-0 L 58.5118,-0.187988 L 58.5471,-0.373032 L 58.6053,-0.552185 L 58.6855,-0.722626 L 58.7865,-0.881668
 L 58.9065,-1.02681 L 59.0439,-1.15576 L 59.1963,-1.26648 L 59.3613,-1.35724 L 59.5365,-1.42657 L 59.7189,-1.47342
 L 59.9058,-1.49704 L 60.0942,-1.49704 L 60.2811,-1.47342 L 60.4635,-1.42657 L 60.6387,-1.35724 L 60.8037,-1.26648
 L 60.9561,-1.15576 L 61.0934,-1.02681 L 61.2135,-0.881668 L 61.3145,-0.722626 L 61.3947,-0.552185 L 61.4529,-0.373032
 L 61.4882,-0.187988 L 61.5,-0 L 61.4882,0.187988 L 61.4529,0.373032 L 61.3947,0.552185 L 61.3145,0.722626
 L 61.2135,0.881668 L 61.0934,1.02681 L 60.9561,1.15576 L 60.8037,1.26648 L 60.6387,1.35724 L 60.4635,1.42657
 L 60.2811,1.47342 L 60.0942,1.49704 z
M -60.0942,1.49704 L -60.2811,1.47342 L -60.4635,1.42657 L -60.6387,1.35724 L -60.8037,1.26648 L -60.9561,1.15576
 L -61.0934,1.02681 L -61.2135,0.881668 L -61.3145,0.722626 L -61.3947,0.552185 L -61.4529,0.373032 L -61.4882,0.187988
 L -61.5,-0 L -61.4882,-0.187988 L -61.4529,-0.373032 L -61.3947,-0.552185 L -61.3145,-0.722626 L -61.2135,-0.881668
 L -61.0934,-1.02681 L -60.9561,-1.15576 L -60.8037,-1.26648 L -60.6387,-1.35724 L -60.4635,-1.42657 L -60.2811,-1.47342
 L -60.0942,-1.49704 L -59.9058,-1.49704 L -59.7189,-1.47342 L -59.5365,-1.42657 L -59.3613,-1.35724 L -59.1963,-1.26648
 L -59.0439,-1.15576 L -58.9065,-1.02681 L -58.7865,-0.881668 L -58.6855,-0.722626 L -58.6053,-0.552185 L -58.5471,-0.373032
 L -58.5118,-0.187988 L -58.5,-0 L -58.5118,0.187988 L -58.5471,0.373032 L -58.6053,0.552185 L -58.6855,0.722626
 L -58.7865,0.881668 L -58.9065,1.02681 L -59.0439,1.15576 L -59.1963,1.26648 L -59.3613,1.35724 L -59.5365,1.42657
 L -59.7189,1.47342 L -59.9058,1.49704 z
M -60.1884,10.4941 L -60.5621,10.4469 L -60.927,10.3532 L -61.2773,10.2145 L -61.6075,10.033 L -61.9123,9.81154
 L -62.1869,9.55363 L -62.427,9.26335 L -62.6289,8.94525 L -62.7893,8.60437 L -62.9057,8.24606 L -62.9763,7.87599
 L -63,7.5 L -62.9763,7.12399 L -62.9057,6.75392 L -62.7893,6.39561 L -62.6289,6.05473 L -62.427,5.73663
 L -62.1869,5.44635 L -61.9123,5.18845 L -61.6075,4.96701 L -61.2773,4.78551 L -60.927,4.64682 L -60.5621,4.55313
 L -60.1884,4.50591 L -59.8116,4.50591 L -59.4379,4.55313 L -59.0729,4.64682 L -58.7227,4.78551 L -58.3925,4.96701
 L -58.0877,5.18845 L -57.8131,5.44635 L -57.5729,5.73663 L -57.3711,6.05473 L -57.2107,6.39561 L -57.0942,6.75392
 L -57.0237,7.12399 L -57,7.5 L -57.0237,7.87599 L -57.0942,8.24606 L -57.2107,8.60437 L -57.3711,8.94525
 L -57.5729,9.26335 L -57.8131,9.55363 L -58.0877,9.81154 L -58.3925,10.033 L -58.7227,10.2145 L -59.0729,10.3532
 L -59.4379,10.4469 L -59.8116,10.4941 z
M 59.8116,10.4941 L 59.4379,10.4469 L 59.0729,10.3532 L 58.7227,10.2145 L 58.3925,10.033 L 58.0877,9.81154
 L 57.8131,9.55363 L 57.5729,9.26335 L 57.3711,8.94525 L 57.2107,8.60437 L 57.0942,8.24606 L 57.0237,7.87599
 L 57,7.5 L 57.0237,7.12399 L 57.0942,6.75392 L 57.2107,6.39561 L 57.3711,6.05473 L 57.5729,5.73663
 L 57.8131,5.44635 L 58.0877,5.18845 L 58.3925,4.96701 L 58.7227,4.78551 L 59.0729,4.64682 L 59.4379,4.55313
 L 59.8116,4.50591 L 60.1884,4.50591 L 60.5621,4.55313 L 60.927,4.64682 L 61.2773,4.78551 L 61.6075,4.96701
 L 61.9123,5.18845 L 62.1869,5.44635 L 62.427,5.73663 L 62.6289,6.05473 L 62.7893,6.39561 L 62.9057,6.75392
 L 62.9763,7.12399 L 63,7.5 L 62.9763,7.87599 L 62.9057,8.24606 L 62.7893,8.60437 L 62.6289,8.94525
 L 62.427,9.26335 L 62.1869,9.55363 L 61.9123,9.81154 L 61.6075,10.033 L 61.2773,10.2145 L 60.927,10.3532
 L 60.5621,10.4469 L 60.1884,10.4941 z
M -60.0942,16.497 L -60.2811,16.4734 L -60.4635,16.4266 L -60.6387,16.3572 L -60.8037,16.2665 L -60.9561,16.1558
 L -61.0934,16.0268 L -61.2135,15.8817 L -61.3145,15.7226 L -61.3947,15.5522 L -61.4529,15.373 L -61.4882,15.188
 L -61.5,15 L -61.4882,14.812 L -61.4529,14.627 L -61.3947,14.4478 L -61.3145,14.2774 L -61.2135,14.1183
 L -61.0934,13.9732 L -60.9561,13.8442 L -60.8037,13.7335 L -60.6387,13.6427 L -60.4635,13.5734 L -60.2811,13.5266
 L -60.0942,13.5029 L -59.9058,13.5029 L -59.7189,13.5266 L -59.5365,13.5734 L -59.3613,13.6427 L -59.1963,13.7335
 L -59.0439,13.8442 L -58.9065,13.9732 L -58.7865,14.1183 L -58.6855,14.2774 L -58.6053,14.4478 L -58.5471,14.627
 L -58.5118,14.812 L -58.5,15 L -58.5118,15.188 L -58.5471,15.373 L -58.6053,15.5522 L -58.6855,15.7226
 L -58.7865,15.8817 L -58.9065,16.0268 L -59.0439,16.1558 L -59.1963,16.2665 L -59.3613,16.3572 L -59.5365,16.4266
 L -59.7189,16.4734 L -59.9058,16.497 z
M 59.9058,16.497 L 59.7189,16.4734 L 59.5365,16.4266 L 59.3613,16.3572 L 59.1963,16.2665 L 59.0439,16.1558
 L 58.9065,16.0268 L 58.7865,15.8817 L 58.6855,15.7226 L 58.6053,15.5522 L 58.5471,15.373 L 58.5118,15.188
 L 58.5,15 L 58.5118,14.812 L 58.5471,14.627 L 58.6053,14.4478 L 58.6855,14.2774 L 58.7865,14.1183
 L 58.9065,13.9732 L 59.0439,13.8442 L 59.1963,13.7335 L 59.3613,13.6427 L 59.5365,13.5734 L 59.7189,13.5266
 L 59.9058,13.5029 L 60.0942,13.5029 L 60.2811,13.5266 L 60.4635,13.5734 L 60.6387,13.6427 L 60.8037,13.7335
 L 60.9561,13.8442 L 61.0934,13.9732 L 61.2135,14.1183 L 61.3145,14.2774 L 61.3947,14.4478 L 61.4529,14.627
 L 61.4882,14.812 L 61.5,15 L 61.4882,15.188 L 61.4529,15.373 L 61.3947,15.5522 L 61.3145,15.7226
 L 61.2135,15.8817 L 61.0934,16.0268 L 60.9561,16.1558 L 60.8037,16.2665 L 60.6387,16.3572 L 60.4635,16.4266
 L 60.2811,16.4734 L 60.0942,16.497 z
M -60.1884,25.4941 L -60.5621,25.4469 L -60.927,25.3532 L -61.2773,25.2145 L -61.6075,25.033 L -61.9123,24.8115
 L -62.1869,24.5536 L -62.427,24.2634 L -62.6289,23.9453 L -62.7893,23.6044 L -62.9057,23.2461 L -62.9763,22.876
 L -63,22.5 L -62.9763,22.124 L -62.9057,21.7539 L -62.7893,21.3956 L -62.6289,21.0547 L -62.427,20.7366
 L -62.1869,20.4464 L -61.9123,20.1884 L -61.6075,19.967 L -61.2773,19.7855 L -60.927,19.6468 L -60.5621,19.5531
 L -60.1884,19.5059 L -59.8116,19.5059 L -59.4379,19.5531 L -59.0729,19.6468 L -58.7227,19.7855 L -58.3925,19.967
 L -58.0877,20.1884 L -57.8131,20.4464 L -57.5729,20.7366 L -57.3711,21.0547 L -57.2107,21.3956 L -57.0942,21.7539
 L -57.0237,22.124 L -57,22.5 L -57.0237,22.876 L -57.0942,23.2461 L -57.2107,23.6044 L -57.3711,23.9453
 L -57.5729,24.2634 L -57.8131,24.5536 L -58.0877,24.8115 L -58.3925,25.033 L -58.7227,25.2145 L -59.0729,25.3532
 L -59.4379,25.4469 L -59.8116,25.4941 z
M 59.8116,25.4941 L 59.4379,25.4469 L 59.0729,25.3532 L 58.7227,25.2145 L 58.3925,25.033 L 58.0877,24.8115
 L 57.8131,24.5536 L 57.5729,24.2634 L 57.3711,23.9453 L 57.2107,23.6044 L 57.0942,23.2461 L 57.0237,22.876
 L 57,22.5 L 57.0237,22.124 L 57.0942,21.7539 L 57.2107,21.3956 L 57.3711,21.0547 L 57.5729,20.7366
 L 57.8131,20.4464 L 58.0877,20.1884 L 58.3925,19.967 L 58.7227,19.7855 L 59.0729,19.6468 L 59.4379,19.5531
 L 59.8116,19.5059 L 60.1884,19.5059 L 60.5621,19.5531 L 60.927,19.6468 L 61.2773,19.7855 L 61.6075,19.967
 L 61.9123,20.1884 L 62.1869,20.4464 L 62.427,20.7366 L 62.6289,21.0547 L 62.7893,21.3956 L 62.9057,21.7539
 L 62.9763,22.124 L 63,22.5 L 62.9763,22.876 L 62.9057,23.2461 L 62.7893,23.6044 L 62.6289,23.9453
 L 62.427,24.2634 L 62.1869,24.5536 L 61.9123,24.8115 L 61.6075,25.033 L 61.2773,25.2145 L 60.927,25.3532
 L 60.5621,25.4469 L 60.1884,25.4941 z
M 59.9058,31.497 L 59.7189,31.4734 L 59.5365,31.4266 L 59.3613,31.3572 L 59.1963,31.2665 L 59.0439,31.1558
 L 58.9065,31.0268 L 58.7865,30.8817 L 58.6855,30.7226 L 58.6053,30.5522 L 58.5471,30.373 L 58.5118,30.188
 L 58.5,30 L 58.5118,29.812 L 58.5471,29.627 L 58.6053,29.4478 L 58.6855,29.2774 L 58.7865,29.1183
 L 58.9065,28.9732 L 59.0439,28.8442 L 59.1963,28.7335 L 59.3613,28.6427 L 59.5365,28.5734 L 59.7189,28.5266
 L 59.9058,28.503 L 60.0942,28.503 L 60.2811,28.5266 L 60.4635,28.5734 L 60.6387,28.6427 L 60.8037,28.7335
 L 60.9561,28.8442 L 61.0934,28.9732 L 61.2135,29.1183 L 61.3145,29.2774 L 61.3947,29.4478 L 61.4529,29.627
 L 61.4882,29.812 L 61.5,30 L 61.4882,30.188 L 61.4529,30.373 L 61.3947,30.5522 L 61.3145,30.7226
 L 61.2135,30.8817 L 61.0934,31.0268 L 60.9561,31.1558 L 60.8037,31.2665 L 60.6387,31.3572 L 60.4635,31.4266
 L 60.2811,31.4734 L 60.0942,31.497 z
M -60.0942,31.497 L -60.2811,31.4734 L -60.4635,31.4266 L -60.6387,31.3572 L -60.8037,31.2665 L -60.9561,31.1558
 L -61.0934,31.0268 L -61.2135,30.8817 L -61.3145,30.7226 L -61.3947,30.5522 L -61.4529,30.373 L -61.4882,30.188
 L -61.5,30 L -61.4882,29.812 L -61.4529,29.627 L -61.3947,29.4478 L -61.3145,29.2774 L -61.2135,29.1183
 L -61.0934,28.9732 L -60.9561,28.8442 L -60.8037,28.7335 L -60.6387,28.6427 L -60.4635,28.5734 L -60.2811,28.5266
 L -60.0942,28.503 L -59.9058,28.503 L -59.7189,28.5266 L -59.5365,28.5734 L -59.3613,28.6427 L -59.1963,28.7335
 L -59.0439,28.8442 L -58.9065,28.9732 L -58.7865,29.1183 L -58.6855,29.2774 L -58.6053,29.4478 L -58.5471,29.627
 L -58.5118,29.812 L -58.5,30 L -58.5118,30.188 L -58.5471,30.373 L -58.6053,30.5522 L -58.6855,30.7226
 L -58.7865,30.8817 L -58.9065,31.0268 L -59.0439,31.1558 L -59.1963,31.2665 L -59.3613,31.3572 L -59.5365,31.4266
 L -59.7189,31.4734 L -59.9058,31.497 z
M -60.1884,40.4941 L -60.5621,40.4469 L -60.927,40.3532 L -61.2773,40.2145 L -61.6075,40.033 L -61.9123,39.8115
 L -62.1869,39.5536 L -62.427,39.2634 L -62.6289,38.9453 L -62.7893,38.6044 L -62.9057,38.2461 L -62.9763,37.876
 L -63,37.5 L -62.9763,37.124 L -62.9057,36.7539 L -62.7893,36.3956 L -62.6289,36.0547 L -62.427,35.7366
 L -62.1869,35.4464 L -61.9123,35.1885 L -61.6075,34.967 L -61.2773,34.7855 L -60.927,34.6468 L -60.5621,34.5531
 L -60.1884,34.5059 L -59.8116,34.5059 L -59.4379,34.5531 L -59.0729,34.6468 L -58.7227,34.7855 L -58.3925,34.967
 L -58.0877,35.1885 L -57.8131,35.4464 L -57.5729,35.7366 L -57.3711,36.0547 L -57.2107,36.3956 L -57.0942,36.7539
 L -57.0237,37.124 L -57,37.5 L -57.0237,37.876 L -57.0942,38.2461 L -57.2107,38.6044 L -57.3711,38.9453
 L -57.5729,39.2634 L -57.8131,39.5536 L -58.0877,39.8115 L -58.3925,40.033 L -58.7227,40.2145 L -59.0729,40.3532
 L -59.4379,40.4469 L -59.8116,40.4941 z
M 59.8116,40.4941 L 59.4379,40.4469 L 59.0729,40.3532 L 58.7227,40.2145 L 58.3925,40.033 L 58.0877,39.8115
 L 57.8131,39.5536 L 57.5729,39.2634 L 57.3711,38.9453 L 57.2107,38.6044 L 57.0942,38.2461 L 57.0237,37.876
 L 57,37.5 L 57.0237,37.124 L 57.0942,36.7539 L 57.2107,36.3956 L 57.3711,36.0547 L 57.5729,35.7366
 L 57.8131,35.4464 L 58.0877,35.1885 L 58.3925,34.967 L 58.7227,34.7855 L 59.0729,34.6468 L 59.4379,34.5531
 L 59.8116,34.5059 L 60.1884,34.5059 L 60.5621,34.5531 L 60.927,34.6468 L 61.2773,34.7855 L 61.6075,34.967
 L 61.9123,35.1885 L 62.1869,35.4464 L 62.427,35.7366 L 62.6289,36.0547 L 62.7893,36.3956 L 62.9057,36.7539
 L 62.9763,37.124 L 63,37.5 L 62.9763,37.876 L 62.9057,38.2461 L 62.7893,38.6044 L 62.6289,38.9453
 L 62.427,39.2634 L 62.1869,39.5536 L 61.9123,39.8115 L 61.6075,40.033 L 61.2773,40.2145 L 60.927,40.3532
 L 60.5621,40.4469 L 60.1884,40.4941 z
M 59.9058,46.497 L 59.7189,46.4734 L 59.5365,46.4266 L 59.3613,46.3572 L 59.1963,46.2665 L 59.0439,46.1558
 L 58.9065,46.0268 L 58.7865,45.8817 L 58.6855,45.7226 L 58.6053,45.5522 L 58.5471,45.373 L 58.5118,45.188
 L 58.5,45 L 58.5118,44.812 L 58.5471,44.627 L 58.6053,44.4478 L 58.6855,44.2774 L 58.7865,44.1183
 L 58.9065,43.9732 L 59.0439,43.8442 L 59.1963,43.7335 L 59.3613,43.6428 L 59.5365,43.5734 L 59.7189,43.5266
 L 59.9058,43.503 L 60.0942,43.503 L 60.2811,43.5266 L 60.4635,43.5734 L 60.6387,43.6428 L 60.8037,43.7335
 L 60.9561,43.8442 L 61.0934,43.9732 L 61.2135,44.1183 L 61.3145,44.2774 L 61.3947,44.4478 L 61.4529,44.627
 L 61.4882,44.812 L 61.5,45 L 61.4882,45.188 L 61.4529,45.373 L 61.3947,45.5522 L 61.3145,45.7226
 L 61.2135,45.8817 L 61.0934,46.0268 L 60.9561,46.1558 L 60.8037,46.2665 L 60.6387,46.3572 L 60.4635,46.4266
 L 60.2811,46.4734 L 60.0942,46.497 z
M -60.0942,46.497 L -60.2811,46.4734 L -60.4635,46.4266 L -60.6387,46.3572 L -60.8037,46.2665 L -60.9561,46.1558
 L -61.0934,46.0268 L -61.2135,45.8817 L -61.3145,45.7226 L -61.3947,45.5522 L -61.4529,45.373 L -61.4882,45.188
 L -61.5,45 L -61.4882,44.812 L -61.4529,44.627 L -61.3947,44.4478 L -61.3145,44.2774 L -61.2135,44.1183
 L -61.0934,43.9732 L -60.9561,43.8442 L -60.8037,43.7335 L -60.6387,43.6428 L -60.4635,43.5734 L -60.2811,43.5266
 L -60.0942,43.503 L -59.9058,43.503 L -59.7189,43.5266 L -59.5365,43.5734 L -59.3613,43.6428 L -59.1963,43.7335
 L -59.0439,43.8442 L -58.9065,43.9732 L -58.7865,44.1183 L -58.6855,44.2774 L -58.6053,44.4478 L -58.5471,44.627
 L -58.5118,44.812 L -58.5,45 L -58.5118,45.188 L -58.5471,45.373 L -58.6053,45.5522 L -58.6855,45.7226
 L -58.7865,45.8817 L -58.9065,46.0268 L -59.0439,46.1558 L -59.1963,46.2665 L -59.3613,46.3572 L -59.5365,46.4266
 L -59.7189,46.4734 L -59.9058,46.497 z
M -60.1884,55.4941 L -60.5621,55.4469 L -60.927,55.3532 L -61.2773,55.2145 L -61.6075,55.033 L -61.9123,54.8115
 L -62.1869,54.5536 L -62.427,54.2634 L -62.6289,53.9453 L -62.7893,53.6044 L -62.9057,53.2461 L -62.9763,52.876
 L -63,52.5 L -62.9763,52.124 L -62.9057,51.7539 L -62.7893,51.3956 L -62.6289,51.0547 L -62.427,50.7366
 L -62.1869,50.4464 L -61.9123,50.1885 L -61.6075,49.967 L -61.2773,49.7855 L -60.927,49.6468 L -60.5621,49.5531
 L -60.1884,49.5059 L -59.8116,49.5059 L -59.4379,49.5531 L -59.0729,49.6468 L -58.7227,49.7855 L -58.3925,49.967
 L -58.0877,50.1885 L -57.8131,50.4464 L -57.5729,50.7366 L -57.3711,51.0547 L -57.2107,51.3956 L -57.0942,51.7539
 L -57.0237,52.124 L -57,52.5 L -57.0237,52.876 L -57.0942,53.2461 L -57.2107,53.6044 L -57.3711,53.9453
 L -57.5729,54.2634 L -57.8131,54.5536 L -58.0877,54.8115 L -58.3925,55.033 L -58.7227,55.2145 L -59.0729,55.3532
 L -59.4379,55.4469 L -59.8116,55.4941 z
M -0.18837,55.4941 L -0.562134,55.4469 L -0.927048,55.3532 L -1.27733,55.2145 L -1.60747,55.033 L -1.91226,54.8115
 L -2.1869,54.5536 L -2.42705,54.2634 L -2.62891,53.9453 L -2.78932,53.6044 L -2.90575,53.2461 L -2.97633,52.876
 L -3,52.5 L -2.97633,52.124 L -2.90575,51.7539 L -2.78932,51.3956 L -2.62891,51.0547 L -2.42705,50.7366
 L -2.1869,50.4464 L -1.91226,50.1885 L -1.60747,49.967 L -1.27733,49.7855 L -0.927048,49.6468 L -0.562134,49.5531
 L -0.18837,49.5059 L 0.18837,49.5059 L 0.562134,49.5531 L 0.927048,49.6468 L 1.27733,49.7855 L 1.60747,49.967
 L 1.91226,50.1885 L 2.1869,50.4464 L 2.42705,50.7366 L 2.62891,51.0547 L 2.78932,51.3956 L 2.90575,51.7539
 L 2.97633,52.124 L 3,52.5 L 2.97633,52.876 L 2.90575,53.2461 L 2.78932,53.6044 L 2.62891,53.9453
 L 2.42705,54.2634 L 2.1869,54.5536 L 1.91226,54.8115 L 1.60747,55.033 L 1.27733,55.2145 L 0.927048,55.3532
 L 0.562134,55.4469 L 0.18837,55.4941 z
M -45.1884,55.4941 L -45.5621,55.4469 L -45.927,55.3532 L -46.2773,55.2145 L -46.6075,55.033 L -46.9123,54.8115
 L -47.1869,54.5536 L -47.427,54.2634 L -47.6289,53.9453 L -47.7893,53.6044 L -47.9057,53.2461 L -47.9763,52.876
 L -48,52.5 L -47.9763,52.124 L -47.9057,51.7539 L -47.7893,51.3956 L -47.6289,51.0547 L -47.427,50.7366
 L -47.1869,50.4464 L -46.9123,50.1885 L -46.6075,49.967 L -46.2773,49.7855 L -45.927,49.6468 L -45.5621,49.5531
 L -45.1884,49.5059 L -44.8116,49.5059 L -44.4379,49.5531 L -44.0729,49.6468 L -43.7227,49.7855 L -43.3925,49.967
 L -43.0877,50.1885 L -42.8131,50.4464 L -42.5729,50.7366 L -42.3711,51.0547 L -42.2107,51.3956 L -42.0942,51.7539
 L -42.0237,52.124 L -42,52.5 L -42.0237,52.876 L -42.0942,53.2461 L -42.2107,53.6044 L -42.3711,53.9453
 L -42.5729,54.2634 L -42.8131,54.5536 L -43.0877,54.8115 L -43.3925,55.033 L -43.7227,55.2145 L -44.0729,55.3532
 L -44.4379,55.4469 L -44.8116,55.4941 z
M -30.1884,55.4941 L -30.5621,55.4469 L -30.927,55.3532 L -31.2773,55.2145 L -31.6075,55.033 L -31.9123,54.8115
 L -32.1869,54.5536 L -32.427,54.2634 L -32.6289,53.9453 L -32.7893,53.6044 L -32.9057,53.2461 L -32.9763,52.876
 L -33,52.5 L -32.9763,52.124 L -32.9057,51.7539 L -32.7893,51.3956 L -32.6289,51.0547 L -32.427,50.7366
 L -32.1869,50.4464 L -31.9123,50.1885 L -31.6075,49.967 L -31.2773,49.7855 L -30.927,49.6468 L -30.5621,49.5531
 L -30.1884,49.5059 L -29.8116,49.5059 L -29.4379,49.5531 L -29.0729,49.6468 L -28.7227,49.7855 L -28.3925,49.967
 L -28.0877,50.1885 L -27.8131,50.4464 L -27.5729,50.7366 L -27.3711,51.0547 L -27.2107,51.3956 L -27.0942,51.7539
 L -27.0237,52.124 L -27,52.5 L -27.0237,52.876 L -27.0942,53.2461 L -27.2107,53.6044 L -27.3711,53.9453
 L -27.5729,54.2634 L -27.8131,54.5536 L -28.0877,54.8115 L -28.3925,55.033 L -28.7227,55.2145 L -29.0729,55.3532
 L -29.4379,55.4469 L -29.8116,55.4941 z
M 59.8116,55.4941 L 59.4379,55.4469 L 59.0729,55.3532 L 58.7227,55.2145 L 58.3925,55.033 L 58.0877,54.8115
 L 57.8131,54.5536 L 57.5729,54.2634 L 57.3711,53.9453 L 57.2107,53.6044 L 57.0942,53.2461 L 57.0237,52.876
 L 57,52.5 L 57.0237,52.124 L 57.0942,51.7539 L 57.2107,51.3956 L 57.3711,51.0547 L 57.5729,50.7366
 L 57.8131,50.4464 L 58.0877,50.1885 L 58.3925,49.967 L 58.7227,49.7855 L 59.0729,49.6468 L 59.4379,49.5531
 L 59.8116,49.5059 L 60.1884,49.5059 L 60.5621,49.5531 L 60.927,49.6468 L 61.2773,49.7855 L 61.6075,49.967
 L 61.9123,50.1885 L 62.1869,50.4464 L 62.427,50.7366 L 62.6289,51.0547 L 62.7893,51.3956 L 62.9057,51.7539
 L 62.9763,52.124 L 63,52.5 L 62.9763,52.876 L 62.9057,53.2461 L 62.7893,53.6044 L 62.6289,53.9453
 L 62.427,54.2634 L 62.1869,54.5536 L 61.9123,54.8115 L 61.6075,55.033 L 61.2773,55.2145 L 60.927,55.3532
 L 60.5621,55.4469 L 60.1884,55.4941 z
M 14.8116,55.4941 L 14.4379,55.4469 L 14.0729,55.3532 L 13.7227,55.2145 L 13.3925,55.033 L 13.0877,54.8115
 L 12.8131,54.5536 L 12.5729,54.2634 L 12.3711,53.9453 L 12.2107,53.6044 L 12.0942,53.2461 L 12.0237,52.876
 L 12,52.5 L 12.0237,52.124 L 12.0942,51.7539 L 12.2107,51.3956 L 12.3711,51.0547 L 12.5729,50.7366
 L 12.8131,50.4464 L 13.0877,50.1885 L 13.3925,49.967 L 13.7227,49.7855 L 14.0729,49.6468 L 14.4379,49.5531
 L 14.8116,49.5059 L 15.1884,49.5059 L 15.5621,49.5531 L 15.927,49.6468 L 16.2773,49.7855 L 16.6075,49.967
 L 16.9123,50.1885 L 17.1869,50.4464 L 17.427,50.7366 L 17.6289,51.0547 L 17.7893,51.3956 L 17.9057,51.7539
 L 17.9763,52.124 L 18,52.5 L 17.9763,52.876 L 17.9057,53.2461 L 17.7893,53.6044 L 17.6289,53.9453
 L 17.427,54.2634 L 17.1869,54.5536 L 16.9123,54.8115 L 16.6075,55.033 L 16.2773,55.2145 L 15.927,55.3532
 L 15.5621,55.4469 L 15.1884,55.4941 z
M -15.1884,55.4941 L -15.5621,55.4469 L -15.927,55.3532 L -16.2773,55.2145 L -16.6075,55.033 L -16.9123,54.8115
 L -17.1869,54.5536 L -17.427,54.2634 L -17.6289,53.9453 L -17.7893,53.6044 L -17.9057,53.2461 L -17.9763,52.876
 L -18,52.5 L -17.9763,52.124 L -17.9057,51.7539 L -17.7893,51.3956 L -17.6289,51.0547 L -17.427,50.7366
 L -17.1869,50.4464 L -16.9123,50.1885 L -16.6075,49.967 L -16.2773,49.7855 L -15.927,49.6468 L -15.5621,49.5531
 L -15.1884,49.5059 L -14.8116,49.5059 L -14.4379,49.5531 L -14.0729,49.6468 L -13.7227,49.7855 L -13.3925,49.967
 L -13.0877,50.1885 L -12.8131,50.4464 L -12.5729,50.7366 L -12.3711,51.0547 L -12.2107,51.3956 L -12.0942,51.7539
 L -12.0237,52.124 L -12,52.5 L -12.0237,52.876 L -12.0942,53.2461 L -12.2107,53.6044 L -12.3711,53.9453
 L -12.5729,54.2634 L -12.8131,54.5536 L -13.0877,54.8115 L -13.3925,55.033 L -13.7227,55.2145 L -14.0729,55.3532
 L -14.4379,55.4469 L -14.8116,55.4941 z
M 29.8116,55.4941 L 29.4379,55.4469 L 29.0729,55.3532 L 28.7227,55.2145 L 28.3925,55.033 L 28.0877,54.8115
 L 27.8131,54.5536 L 27.5729,54.2634 L 27.3711,53.9453 L 27.2107,53.6044 L 27.0942,53.2461 L 27.0237,52.876
 L 27,52.5 L 27.0237,52.124 L 27.0942,51.7539 L 27.2107,51.3956 L 27.3711,51.0547 L 27.5729,50.7366
 L 27.8131,50.4464 L 28.0877,50.1885 L 28.3925,49.967 L 28.7227,49.7855 L 29.0729,49.6468 L 29.4379,49.5531
 L 29.8116,49.5059 L 30.1884,49.5059 L 30.5621,49.5531 L 30.927,49.6468 L 31.2773,49.7855 L 31.6075,49.967
 L 31.9123,50.1885 L 32.1869,50.4464 L 32.427,50.7366 L 32.6289,51.0547 L 32.7893,51.3956 L 32.9057,51.7539
 L 32.9763,52.124 L 33,52.5 L 32.9763,52.876 L 32.9057,53.2461 L 32.7893,53.6044 L 32.6289,53.9453
 L 32.427,54.2634 L 32.1869,54.5536 L 31.9123,54.8115 L 31.6075,55.033 L 31.2773,55.2145 L 30.927,55.3532
 L 30.5621,55.4469 L 30.1884,55.4941 z
M 44.8116,55.4941 L 44.4379,55.4469 L 44.0729,55.3532 L 43.7227,55.2145 L 43.3925,55.033 L 43.0877,54.8115
 L 42.8131,54.5536 L 42.5729,54.2634 L 42.3711,53.9453 L 42.2107,53.6044 L 42.0942,53.2461 L 42.0237,52.876
 L 42,52.5 L 42.0237,52.124 L 42.0942,51.7539 L 42.2107,51.3956 L 42.3711,51.0547 L 42.5729,50.7366
 L 42.8131,50.4464 L 43.0877,50.1885 L 43.3925,49.967 L 43.7227,49.7855 L 44.0729,49.6468 L 44.4379,49.5531
 L 44.8116,49.5059 L 45.1884,49.5059 L 45.5621,49.5531 L 45.927,49.6468 L 46.2773,49.7855 L 46.6075,49.967
 L 46.9123,50.1885 L 47.1869,50.4464 L 47.427,50.7366 L 47.6289,51.0547 L 47.7893,51.3956 L 47.9057,51.7539
 L 47.9763,52.124 L 48,52.5 L 47.9763,52.876 L 47.9057,53.2461 L 47.7893,53.6044 L 47.6289,53.9453
 L 47.427,54.2634 L 47.1869,54.5536 L 46.9123,54.8115 L 46.6075,55.033 L 46.2773,55.2145 L 45.927,55.3532
 L 45.5621,55.4469 L 45.1884,55.4941 z
M 52.4058,53.997 L 52.2189,53.9734 L 52.0365,53.9266 L 51.8613,53.8572 L 51.6963,53.7665 L 51.5439,53.6558
 L 51.4065,53.5268 L 51.2865,53.3817 L 51.1855,53.2226 L 51.1053,53.0522 L 51.0471,52.873 L 51.0118,52.688
 L 51,52.5 L 51.0118,52.312 L 51.0471,52.127 L 51.1053,51.9478 L 51.1855,51.7774 L 51.2865,51.6183
 L 51.4065,51.4732 L 51.5439,51.3442 L 51.6963,51.2335 L 51.8613,51.1428 L 52.0365,51.0734 L 52.2189,51.0266
 L 52.4058,51.003 L 52.5942,51.003 L 52.7811,51.0266 L 52.9635,51.0734 L 53.1387,51.1428 L 53.3037,51.2335
 L 53.4561,51.3442 L 53.5934,51.4732 L 53.7135,51.6183 L 53.8145,51.7774 L 53.8947,51.9478 L 53.9529,52.127
 L 53.9882,52.312 L 54,52.5 L 53.9882,52.688 L 53.9529,52.873 L 53.8947,53.0522 L 53.8145,53.2226
 L 53.7135,53.3817 L 53.5934,53.5268 L 53.4561,53.6558 L 53.3037,53.7665 L 53.1387,53.8572 L 52.9635,53.9266
 L 52.7811,53.9734 L 52.5942,53.997 z
M 7.40581,53.997 L 7.21892,53.9734 L 7.03647,53.9266 L 6.86133,53.8572 L 6.69626,53.7665 L 6.54385,53.6558
 L 6.40654,53.5268 L 6.28647,53.3817 L 6.18553,53.2226 L 6.10533,53.0522 L 6.04712,52.873 L 6.01183,52.688
 L 6,52.5 L 6.01183,52.312 L 6.04712,52.127 L 6.10533,51.9478 L 6.18553,51.7774 L 6.28647,51.6183
 L 6.40654,51.4732 L 6.54385,51.3442 L 6.69626,51.2335 L 6.86133,51.1428 L 7.03647,51.0734 L 7.21892,51.0266
 L 7.40581,51.003 L 7.59418,51.003 L 7.78107,51.0266 L 7.96352,51.0734 L 8.13866,51.1428 L 8.30373,51.2335
 L 8.45613,51.3442 L 8.59344,51.4732 L 8.71352,51.6183 L 8.81445,51.7774 L 8.89465,51.9478 L 8.95287,52.127
 L 8.98816,52.312 L 9,52.5 L 8.98816,52.688 L 8.95287,52.873 L 8.89465,53.0522 L 8.81445,53.2226
 L 8.71352,53.3817 L 8.59344,53.5268 L 8.45613,53.6558 L 8.30373,53.7665 L 8.13866,53.8572 L 7.96352,53.9266
 L 7.78107,53.9734 L 7.59418,53.997 z
M -52.5942,53.997 L -52.7811,53.9734 L -52.9635,53.9266 L -53.1387,53.8572 L -53.3037,53.7665 L -53.4561,53.6558
 L -53.5934,53.5268 L -53.7135,53.3817 L -53.8145,53.2226 L -53.8947,53.0522 L -53.9529,52.873 L -53.9882,52.688
 L -54,52.5 L -53.9882,52.312 L -53.9529,52.127 L -53.8947,51.9478 L -53.8145,51.7774 L -53.7135,51.6183
 L -53.5934,51.4732 L -53.4561,51.3442 L -53.3037,51.2335 L -53.1387,51.1428 L -52.9635,51.0734 L -52.7811,51.0266
 L -52.5942,51.003 L -52.4058,51.003 L -52.2189,51.0266 L -52.0365,51.0734 L -51.8613,51.1428 L -51.6963,51.2335
 L -51.5439,51.3442 L -51.4065,51.4732 L -51.2865,51.6183 L -51.1855,51.7774 L -51.1053,51.9478 L -51.0471,52.127
 L -51.0118,52.312 L -51,52.5 L -51.0118,52.688 L -51.0471,52.873 L -51.1053,53.0522 L -51.1855,53.2226
 L -51.2865,53.3817 L -51.4065,53.5268 L -51.5439,53.6558 L -51.6963,53.7665 L -51.8613,53.8572 L -52.0365,53.9266
 L -52.2189,53.9734 L -52.4058,53.997 z
M -7.59418,53.997 L -7.78107,53.9734 L -7.96352,53.9266 L -8.13866,53.8572 L -8.30373,53.7665 L -8.45613,53.6558
 L -8.59344,53.5268 L -8.71352,53.3817 L -8.81445,53.2226 L -8.89465,53.0522 L -8.95287,52.873 L -8.98816,52.688
 L -9,52.5 L -8.98816,52.312 L -8.95287,52.127 L -8.89465,51.9478 L -8.81445,51.7774 L -8.71352,51.6183
 L -8.59344,51.4732 L -8.45613,51.3442 L -8.30373,51.2335 L -8.13866,51.1428 L -7.96352,51.0734 L -7.78107,51.0266
 L -7.59418,51.003 L -7.40581,51.003 L -7.21892,51.0266 L -7.03647,51.0734 L -6.86133,51.1428 L -6.69626,51.2335
 L -6.54385,51.3442 L -6.40654,51.4732 L -6.28647,51.6183 L -6.18553,51.7774 L -6.10533,51.9478 L -6.04712,52.127
 L -6.01183,52.312 L -6,52.5 L -6.01183,52.688 L -6.04712,52.873 L -6.10533,53.0522 L -6.18553,53.2226
 L -6.28647,53.3817 L -6.40654,53.5268 L -6.54385,53.6558 L -6.69626,53.7665 L -6.86133,53.8572 L -7.03647,53.9266
 L -7.21892,53.9734 L -7.40581,53.997 z
M 37.4058,53.997 L 37.2189,53.9734 L 37.0365,53.9266 L 36.8613,53.8572 L 36.6963,53.7665 L 36.5439,53.6558
 L 36.4065,53.5268 L 36.2865,53.3817 L 36.1855,53.2226 L 36.1053,53.0522 L 36.0471,52.873 L 36.0118,52.688
 L 36,52.5 L 36.0118,52.312 L 36.0471,52.127 L 36.1053,51.9478 L 36.1855,51.7774 L 36.2865,51.6183
 L 36.4065,51.4732 L 36.5439,51.3442 L 36.6963,51.2335 L 36.8613,51.1428 L 37.0365,51.0734 L 37.2189,51.0266
 L 37.4058,51.003 L 37.5942,51.003 L 37.7811,51.0266 L 37.9635,51.0734 L 38.1387,51.1428 L 38.3037,51.2335
 L 38.4561,51.3442 L 38.5934,51.4732 L 38.7135,51.6183 L 38.8145,51.7774 L 38.8947,51.9478 L 38.9529,52.127
 L 38.9882,52.312 L 39,52.5 L 38.9882,52.688 L 38.9529,52.873 L 38.8947,53.0522 L 38.8145,53.2226
 L 38.7135,53.3817 L 38.5934,53.5268 L 38.4561,53.6558 L 38.3037,53.7665 L 38.1387,53.8572 L 37.9635,53.9266
 L 37.7811,53.9734 L 37.5942,53.997 z
M 22.4058,53.997 L 22.2189,53.9734 L 22.0365,53.9266 L 21.8613,53.8572 L 21.6963,53.7665 L 21.5439,53.6558
 L 21.4065,53.5268 L 21.2865,53.3817 L 21.1855,53.2226 L 21.1053,53.0522 L 21.0471,52.873 L 21.0118,52.688
 L 21,52.5 L 21.0118,52.312 L 21.0471,52.127 L 21.1053,51.9478 L 21.1855,51.7774 L 21.2865,51.6183
 L 21.4065,51.4732 L 21.5439,51.3442 L 21.6963,51.2335 L 21.8613,51.1428 L 22.0365,51.0734 L 22.2189,51.0266
 L 22.4058,51.003 L 22.5942,51.003 L 22.7811,51.0266 L 22.9635,51.0734 L 23.1387,51.1428 L 23.3037,51.2335
 L 23.4561,51.3442 L 23.5934,51.4732 L 23.7135,51.6183 L 23.8145,51.7774 L 23.8947,51.9478 L 23.9529,52.127
 L 23.9882,52.312 L 24,52.5 L 23.9882,52.688 L 23.9529,52.873 L 23.8947,53.0522 L 23.8145,53.2226
 L 23.7135,53.3817 L 23.5934,53.5268 L 23.4561,53.6558 L 23.3037,53.7665 L 23.1387,53.8572 L 22.9635,53.9266
 L 22.7811,53.9734 L 22.5942,53.997 z
M -37.5942,53.997 L -37.7811,53.9734 L -37.9635,53.9266 L -38.1387,53.8572 L -38.3037,53.7665 L -38.4561,53.6558
 L -38.5934,53.5268 L -38.7135,53.3817 L -38.8145,53.2226 L -38.8947,53.0522 L -38.9529,52.873 L -38.9882,52.688
 L -39,52.5 L -38.9882,52.312 L -38.9529,52.127 L -38.8947,51.9478 L -38.8145,51.7774 L -38.7135,51.6183
 L -38.5934,51.4732 L -38.4561,51.3442 L -38.3037,51.2335 L -38.1387,51.1428 L -37.9635,51.0734 L -37.7811,51.0266
 L -37.5942,51.003 L -37.4058,51.003 L -37.2189,51.0266 L -37.0365,51.0734 L -36.8613,51.1428 L -36.6963,51.2335
 L -36.5439,51.3442 L -36.4065,51.4732 L -36.2865,51.6183 L -36.1855,51.7774 L -36.1053,51.9478 L -36.0471,52.127
 L -36.0118,52.312 L -36,52.5 L -36.0118,52.688 L -36.0471,52.873 L -36.1053,53.0522 L -36.1855,53.2226
 L -36.2865,53.3817 L -36.4065,53.5268 L -36.5439,53.6558 L -36.6963,53.7665 L -36.8613,53.8572 L -37.0365,53.9266
 L -37.2189,53.9734 L -37.4058,53.997 z
M -22.5942,53.997 L -22.7811,53.9734 L -22.9635,53.9266 L -23.1387,53.8572 L -23.3037,53.7665 L -23.4561,53.6558
 L -23.5934,53.5268 L -23.7135,53.3817 L -23.8145,53.2226 L -23.8947,53.0522 L -23.9529,52.873 L -23.9882,52.688
 L -24,52.5 L -23.9882,52.312 L -23.9529,52.127 L -23.8947,51.9478 L -23.8145,51.7774 L -23.7135,51.6183
 L -23.5934,51.4732 L -23.4561,51.3442 L -23.3037,51.2335 L -23.1387,51.1428 L -22.9635,51.0734 L -22.7811,51.0266
 L -22.5942,51.003 L -22.4058,51.003 L -22.2189,51.0266 L -22.0365,51.0734 L -21.8613,51.1428 L -21.6963,51.2335
 L -21.5439,51.3442 L -21.4065,51.4732 L -21.2865,51.6183 L -21.1855,51.7774 L -21.1053,51.9478 L -21.0471,52.127
 L -21.0118,52.312 L -21,52.5 L -21.0118,52.688 L -21.0471,52.873 L -21.1053,53.0522 L -21.1855,53.2226
 L -21.2865,53.3817 L -21.4065,53.5268 L -21.5439,53.6558 L -21.6963,53.7665 L -21.8613,53.8572 L -22.0365,53.9266
 L -22.2189,53.9734 L -22.4058,53.997 z
" stroke="black" fill="lightgray" stroke-width="0.5"/>
</svg>
