<?xml version="1.0" standalone="no"?>
<!DOCTYPE svg PUBLIC "-//W3C//DTD SVG 1.1//EN" "http://www.w3.org/Graphics/SVG/1.1/DTD/svg11.dtd">
<svg width="150mm" height="60mm" viewBox="-75 -30 150 60" xmlns="http://www.w3.org/2000/svg" version="1.1">
<title>OpenSCAD Model</title>
<path d="
M 70.4369,29.4114 L 71.0451,29.2553 L 71.6289,29.0241 L 72.1791,28.7216 L 72.6871,28.3526 L 73.1448,27.9227
 L 73.5451,27.4389 L 73.8815,26.9088 L 74.1489,26.3406 L 74.3429,25.7434 L 74.4606,25.1267 L 74.5,24.5
 L 74.5,-24.5 L 74.4606,-25.1267 L 74.3429,-25.7434 L 74.1489,-26.3406 L 73.8815,-26.9088 L 73.5451,-27.4389
 L 73.1448,-27.9227 L 72.6871,-28.3526 L 72.1791,-28.7216 L 71.6289,-29.0241 L 71.0451,-29.2553 L 70.4369,-29.4114
 L 69.8139,-29.4901 L 65.1861,-29.4901 L 64.5631,-29.4114 L 63.9549,-29.2553 L 63.3711,-29.0241 L 62.8209,-28.7216
 L 62.3129,-28.3526 L 61.8551,-27.9227 L 61.4549,-27.4389 L 61.1185,-26.9088 L 60.8511,-26.3406 L 60.6571,-25.7434
 L 60.5394,-25.1267 L 60.5,-24.5 L 60.5,15.5099 L -60.5,15.5099 L -60.5,-24.5 L -60.5394,-25.1267
 L -60.6571,-25.7434 L -60.8511,-26.3406 L -61.1185,-26.9088 L -61.4549,-27.4389 L -61.8551,-27.9227 L -62.3129,-28.3526
 L -62.8209,-28.7216 L -63.3711,-29.0241 L -63.9549,-29.2553 L -64.5631,-29.4114 L -65.1861,-29.4901 L -69.8139,-29.4901
 L -70.4369,-29.4114 L -71.0451,-29.2553 L -71.6289,-29.0241 L -72.1791,-28.7216 L -72.6871,-28.3526 L -73.1448,-27.9227
 L -73.5451,-27.4389 L -73.8815,-26.9088 L -74.1489,-26.3406 L -74.3429,-25.7434 L -74.4606,-25.1267 L -74.5,-24.5
 L -74.5,24.5 L -74.4606,25.1267 L -74.3429,25.7434 L -74.1489,26.3406 L -73.8815,26.9088 L -73.5451,27.4389
 L -73.1448,27.9227 L -72.6871,28.3526 L -72.1791,28.7216 L -71.6289,29.0241 L -71.0451,29.2553 L -70.4369,29.4114
 L -69.8139,29.4901 L 69.8139,29.4901 z
M 67.3116,-19.5059 L 66.9379,-19.5531 L 66.573,-19.6468 L 66.2227,-19.7855 L 65.8925,-19.967 L 65.5877,-20.1884
 L 65.3131,-20.4464 L 65.073,-20.7366 L 64.8711,-21.0547 L 64.7107,-21.3956 L 64.5943,-21.7539 L 64.5237,-22.124
 L 64.5,-22.5 L 64.5237,-22.876 L 64.5943,-23.2461 L 64.7107,-23.6044 L 64.8711,-23.9453 L 65.073,-24.2634
 L 65.3131,-24.5536 L 65.5877,-24.8115 L 65.8925,-25.033 L 66.2227,-25.2145 L 66.573,-25.3532 L 66.9379,-25.4469
 L 67.3116,-25.4941 L 67.6884,-25.4941 L 68.0621,-25.4469 L 68.427,-25.3532 L 68.7773,-25.2145 L 69.1075,-25.033
 L 69.4123,-24.8115 L 69.6869,-24.5536 L 69.927,-24.2634 L 70.1289,-23.9453 L 70.2893,-23.6044 L 70.4057,-23.2461
 L 70.4763,-22.876 L 70.5,-22.5 L 70.4763,-22.124 L 70.4057,-21.7539 L 70.2893,-21.3956 L 70.1289,-21.0547
 L 69.927,-20.7366 L 69.6869,-20.4464 L 69.4123,-20.1884 L 69.1075,-19.967 L 68.7773,-19.7855 L 68.427,-19.6468
 L 68.0621,-19.5531 L 67.6884,-19.5059 z
M -67.6884,-19.5059 L -68.0621,-19.5531 L -68.427,-19.6468 L -68.7773,-19.7855 L -69.1075,-19.967 L -69.4123,-20.1884
 L -69.6869,-20.4464 L -69.927,-20.7366 L -70.1289,-21.0547 L -70.2893,-21.3956 L -70.4057,-21.7539 L -70.4763,-22.124
 L -70.5,-22.5 L -70.4763,-22.876 L -70.4057,-23.2461 L -70.2893,-23.6044 L -70.1289,-23.9453 L -69.927,-24.2634
 L -69.6869,-24.5536 L -69.4123,-24.8115 L -69.1075,-25.033 L -68.7773,-25.2145 L -68.427,-25.3532 L -68.0621,-25.4469
 L -67.6884,-25.4941 L -67.3116,-25.4941 L -66.9379,-25.4469 L -66.573,-25.3532 L -66.2227,-25.2145 L -65.8925,-25.033
 L -65.5877,-24.8115 L -65.3131,-24.5536 L -65.073,-24.2634 L -64.8711,-23.9453 L -64.7107,-23.6044 L -64.5943,-23.2461
 L -64.5237,-22.876 L -64.5,-22.5 L -64.5237,-22.124 L -64.5943,-21.7539 L -64.7107,-21.3956 L -64.8711,-21.0547
 L -65.073,-20.7366 L -65.3131,-20.4464 L -65.5877,-20.1884 L -65.8925,-19.967 L -66.2227,-19.7855 L -66.573,-19.6468
 L -66.9379,-19.5531 L -67.3116,-19.5059 z
M -67.5942,-13.5029 L -67.7811,-13.5266 L -67.9635,-13.5734 L -68.1387,-13.6427 L -68.3037,-13.7335 L -68.4561,-13.8442
 L -68.5934,-13.9732 L -68.7135,-14.1183 L -68.8145,-14.2774 L -68.8947,-14.4478 L -68.9529,-14.627 L -68.9882,-14.812
 L -69,-15 L -68.9882,-15.188 L -68.9529,-15.373 L -68.8947,-15.5522 L -68.8145,-15.7226 L -68.7135,-15.8817
 L -68.5934,-16.0268 L -68.4561,-16.1558 L -68.3037,-16.2665 L -68.1387,-16.3572 L -67.9635,-16.4266 L -67.7811,-16.4734
 L -67.5942,-16.497 L -67.4058,-16.497 L -67.2189,-16.4734 L -67.0365,-16.4266 L -66.8613,-16.3572 L -66.6963,-16.2665
 L -66.5439,-16.1558 L -66.4065,-16.0268 L -66.2865,-15.8817 L -66.1855,-15.7226 L -66.1053,-15.5522 L -66.0471,-15.373
 L -66.0118,-15.188 L -66,-15 L -66.0118,-14.812 L -66.0471,-14.627 L -66.1053,-14.4478 L -66.1855,-14.2774
 L -66.2865,-14.1183 L -66.4065,-13.9732 L -66.5439,-13.8442 L -66.6963,-13.7335 L -66.8613,-13.6427 L -67.0365,-13.5734
 L -67.2189,-13.5266 L -67.4058,-13.5029 z
M 67.4058,-13.5029 L 67.2189,-13.5266 L 67.0365,-13.5734 L 66.8613,-13.6427 L 66.6963,-13.7335 L 66.5439,-13.8442
 L 66.4065,-13.9732 L 66.2865,-14.1183 L 66.1855,-14.2774 L 66.1053,-14.4478 L 66.0471,-14.627 L 66.0118,-14.812
 L 66,-15 L 66.0118,-15.188 L 66.0471,-15.373 L 66.1053,-15.5522 L 66.1855,-15.7226 L 66.2865,-15.8817
 L 66.4065,-16.0268 L 66.5439,-16.1558 L 66.6963,-16.2665 L 66.8613,-16.3572 L 67.0365,-16.4266 L 67.2189,-16.4734
 L 67.4058,-16.497 L 67.5942,-16.497 L 67.7811,-16.4734 L 67.9635,-16.4266 L 68.1387,-16.3572 L 68.3037,-16.2665
 L 68.4561,-16.1558 L 68.5934,-16.0268 L 68.7135,-15.8817 L 68.8145,-15.7226 L 68.8947,-15.5522 L 68.9529,-15.373
 L 68.9882,-15.188 L 69,-15 L 68.9882,-14.812 L 68.9529,-14.627 L 68.8947,-14.4478 L 68.8145,-14.2774
 L 68.7135,-14.1183 L 68.5934,-13.9732 L 68.4561,-13.8442 L 68.3037,-13.7335 L 68.1387,-13.6427 L 67.9635,-13.5734
 L 67.7811,-13.5266 L 67.5942,-13.5029 z
M 67.3116,-4.50591 L 66.9379,-4.55313 L 66.573,-4.64682 L 66.2227,-4.78551 L 65.8925,-4.96701 L 65.5877,-5.18845
 L 65.3131,-5.44635 L 65.073,-5.73663 L 64.8711,-6.05473 L 64.7107,-6.39561 L 64.5943,-6.75392 L 64.5237,-7.12399
 L 64.5,-7.5 L 64.5237,-7.87599 L 64.5943,-8.24606 L 64.7107,-8.60437 L 64.8711,-8.94525 L 65.073,-9.26335
 L 65.3131,-9.55363 L 65.5877,-9.81154 L 65.8925,-10.033 L 66.2227,-10.2145 L 66.573,-10.3532 L 66.9379,-10.4469
 L 67.3116,-10.4941 L 67.6884,-10.4941 L 68.0621,-10.4469 L 68.427,-10.3532 L 68.7773,-10.2145 L 69.1075,-10.033
 L 69.4123,-9.81154 L 69.6869,-9.55363 L 69.927,-9.26335 L 70.1289,-8.94525 L 70.2893,-8.60437 L 70.4057,-8.24606
 L 70.4763,-7.87599 L 70.5,-7.5 L 70.4763,-7.12399 L 70.4057,-6.75392 L 70.2893,-6.39561 L 70.1289,-6.05473
 L 69.927,-5.73663 L 69.6869,-5.44635 L 69.4123,-5.18845 L 69.1075,-4.96701 L 68.7773,-4.78551 L 68.427,-4.64682
 L 68.0621,-4.55313 L 67.6884,-4.50591 z
M -67.6884,-4.50591 L -68.0621,-4.55313 L -68.427,-4.64682 L -68.7773,-4.78551 L -69.1075,-4.96701 L -69.4123,-5.18845
 L -69.6869,-5.44635 L -69.927,-5.73663 L -70.1289,-6.05473 L -70.2893,-6.39561 L -70.4057,-6.75392 L -70.4763,-7.12399
 L -70.5,-7.5 L -70.4763,-7.87599 L -70.4057,-8.24606 L -70.2893,-8.60437 L -70.1289,-8.94525 L -69.927,-9.26335
 L -69.6869,-9.55363 L -69.4123,-9.81154 L -69.1075,-10.033 L -68.7773,-10.2145 L -68.427,-10.3532 L -68.0621,-10.4469
 L -67.6884,-10.4941 L -67.3116,-10.4941 L -66.9379,-10.4469 L -66.573,-10.3532 L -66.2227,-10.2145 L -65.8925,-10.033
 L -65.5877,-9.81154 L -65.3131,-9.55363 L -65.073,-9.26335 L -64.8711,-8.94525 L -64.7107,-8.60437 L -64.5943,-8.24606
 L -64.5237,-7.87599 L -64.5,-7.5 L -64.5237,-7.12399 L -64.5943,-6.75392 L -64.7107,-6.39561 L -64.8711,-6.05473
 L -65.073,-5.73663 L -65.3131,-5.44635 L -65.5877,-5.18845 L -65.8925,-4.96701 L -66.2227,-4.78551 L -66.573,-4.64682
 L -66.9379,-4.55313 L -67.3116,-4.50591 z
M -67.5942,1.49704 L -67.7811,1.47342 L -67.9635,1.42657 L -68.1387,1.35724 L -68.3037,1.26648 L -68.4561,1.15576
 L -68.5934,1.02681 L -68.7135,0.881668 L -68.8145,0.722626 L -68.8947,0.552185 L -68.9529,0.373032 L -68.9882,0.187988
 L -69,-0 L -68.9882,-0.187988 L -68.9529,-0.373032 L -68.8947,-0.552185 L -68.8145,-0.722626 L -68.7135,-0.881668
 L -68.5934,-1.02681 L -68.4561,-1.15576 L -68.3037,-1.26648 L -68.1387,-1.35724 L -67.9635,-1.42657 L -67.7811,-1.47342
 L -67.5942,-1.49704 L -67.4058,-1.49704 L -67.2189,-1.47342 L -67.0365,-1.42657 L -66.8613,-1.35724 L -66.6963,-1.26648
 L -66.5439,-1.15576 L -66.4065,-1.02681 L -66.2865,-0.881668 L -66.1855,-0.722626 L -66.1053,-0.552185 L -66.0471,-0.373032
 L -66.0118,-0.187988 L -66,-0 L -66.0118,0.187988 L -66.0471,0.373032 L -66.1053,0.552185 L -66.1855,0.722626
 L -66.2865,0.881668 L -66.4065,1.02681 L -66.5439,1.15576 L -66.6963,1.26648 L -66.8613,1.35724 L -67.0365,1.42657
 L -67.2189,1.47342 L -67.4058,1.49704 z
M 67.4058,1.49704 L 67.2189,1.47342 L 67.0365,1.42657 L 66.8613,1.35724 L 66.6963,1.26648 L 66.5439,1.15576
 L 66.4065,1.02681 L 66.2865,0.881668 L 66.1855,0.722626 L 66.1053,0.552185 L 66.0471,0.373032 L 66.0118,0.187988
 L 66,-0 L 66.0118,-0.187988 L 66.0471,-0.373032 L 66.1053,-0.552185 L 66.1855,-0.722626 L 66.2865,-0.881668
 L 66.4065,-1.02681 L 66.5439,-1.15576 L 66.6963,-1.26648 L 66.8613,-1.35724 L 67.0365,-1.42657 L 67.2189,-1.47342
 L 67.4058,-1.49704 L 67.5942,-1.49704 L 67.7811,-1.47342 L 67.9635,-1.42657 L 68.1387,-1.35724 L 68.3037,-1.26648
 L 68.4561,-1.15576 L 68.5934,-1.02681 L 68.7135,-0.881668 L 68.8145,-0.722626 L 68.8947,-0.552185 L 68.9529,-0.373032
 L 68.9882,-0.187988 L 69,-0 L 68.9882,0.187988 L 68.9529,0.373032 L 68.8947,0.552185 L 68.8145,0.722626
 L 68.7135,0.881668 L 68.5934,1.02681 L 68.4561,1.15576 L 68.3037,1.26648 L 68.1387,1.35724 L 67.9635,1.42657
 L 67.7811,1.47342 L 67.5942,1.49704 z
M 67.3116,10.4941 L 66.9379,10.4469 L 66.573,10.3532 L 66.2227,10.2145 L 65.8925,10.033 L 65.5877,9.81154
 L 65.3131,9.55363 L 65.073,9.26335 L 64.8711,8.94525 L 64.7107,8.60437 L 64.5943,8.24606 L 64.5237,7.87599
 L 64.5,7.5 L 64.5237,7.12399 L 64.5943,6.75392 L 64.7107,6.39561 L 64.8711,6.05473 L 65.073,5.73663
 L 65.3131,5.44635 L 65.5877,5.18845 L 65.8925,4.96701 L 66.2227,4.78551 L 66.573,4.64682 L 66.9379,4.55313
 L 67.3116,4.50591 L 67.6884,4.50591 L 68.0621,4.55313 L 68.427,4.64682 L 68.7773,4.78551 L 69.1075,4.96701
 L 69.4123,5.18845 L 69.6869,5.44635 L 69.927,5.73663 L 70.1289,6.05473 L 70.2893,6.39561 L 70.4057,6.75392
 L 70.4763,7.12399 L 70.5,7.5 L 70.4763,7.87599 L 70.4057,8.24606 L 70.2893,8.60437 L 70.1289,8.94525
 L 69.927,9.26335 L 69.6869,9.55363 L 69.4123,9.81154 L 69.1075,10.033 L 68.7773,10.2145 L 68.427,10.3532
 L 68.0621,10.4469 L 67.6884,10.4941 z
M -67.6884,10.4941 L -68.0621,10.4469 L -68.427,10.3532 L -68.7773,10.2145 L -69.1075,10.033 L -69.4123,9.81154
 L -69.6869,9.55363 L -69.927,9.26335 L -70.1289,8.94525 L -70.2893,8.60437 L -70.4057,8.24606 L -70.4763,7.87599
 L -70.5,7.5 L -70.4763,7.12399 L -70.4057,6.75392 L -70.2893,6.39561 L -70.1289,6.05473 L -69.927,5.73663
 L -69.6869,5.44635 L -69.4123,5.18845 L -69.1075,4.96701 L -68.7773,4.78551 L -68.427,4.64682 L -68.0621,4.55313
 L -67.6884,4.50591 L -67.3116,4.50591 L -66.9379,4.55313 L -66.573,4.64682 L -66.2227,4.78551 L -65.8925,4.96701
 L -65.5877,5.18845 L -65.3131,5.44635 L -65.073,5.73663 L -64.8711,6.05473 L -64.7107,6.39561 L -64.5943,6.75392
 L -64.5237,7.12399 L -64.5,7.5 L -64.5237,7.87599 L -64.5943,8.24606 L -64.7107,8.60437 L -64.8711,8.94525
 L -65.073,9.26335 L -65.3131,9.55363 L -65.5877,9.81154 L -65.8925,10.033 L -66.2227,10.2145 L -66.573,10.3532
 L -66.9379,10.4469 L -67.3116,10.4941 z
M 67.4058,16.497 L 67.2189,16.4734 L 67.0365,16.4266 L 66.8613,16.3572 L 66.6963,16.2665 L 66.5439,16.1558
 L 66.4065,16.0268 L 66.2865,15.8817 L 66.1855,15.7226 L 66.1053,15.5522 L 66.0471,15.373 L 66.0118,15.188
 L 66,15 L 66.0118,14.812 L 66.0471,14.627 L 66.1053,14.4478 L 66.1855,14.2774 L 66.2865,14.1183
 L 66.4065,13.9732 L 66.5439,13.8442 L 66.6963,13.7335 L 66.8613,13.6427 L 67.0365,13.5734 L 67.2189,13.5266
 L 67.4058,13.5029 L 67.5942,13.5029 L 67.7811,13.5266 L 67.9635,13.5734 L 68.1387,13.6427 L 68.3037,13.7335
 L 68.4561,13.8442 L 68.5934,13.9732 L 68.7135,14.1183 L 68.8145,14.2774 L 68.8947,14.4478 L 68.9529,14.627
 L 68.9882,14.812 L 69,15 L 68.9882,15.188 L 68.9529,15.373 L 68.8947,15.5522 L 68.8145,15.7226
 L 68.7135,15.8817 L 68.5934,16.0268 L 68.4561,16.1558 L 68.3037,16.2665 L 68.1387,16.3572 L 67.9635,16.4266
 L 67.7811,16.4734 L 67.5942,16.497 z
M -67.5942,16.497 L -67.7811,16.4734 L -67.9635,16.4266 L -68.1387,16.3572 L -68.3037,16.2665 L -68.4561,16.1558
 L -68.5934,16.0268 L -68.7135,15.8817 L -68.8145,15.7226 L -68.8947,15.5522 L -68.9529,15.373 L -68.9882,15.188
 L -69,15 L -68.9882,14.812 L -68.9529,14.627 L -68.8947,14.4478 L -68.8145,14.2774 L -68.7135,14.1183
 L -68.5934,13.9732 L -68.4561,13.8442 L -68.3037,13.7335 L -68.1387,13.6427 L -67.9635,13.5734 L -67.7811,13.5266
 L -67.5942,13.5029 L -67.4058,13.5029 L -67.2189,13.5266 L -67.0365,13.5734 L -66.8613,13.6427 L -66.6963,13.7335
 L -66.5439,13.8442 L -66.4065,13.9732 L -66.2865,14.1183 L -66.1855,14.2774 L -66.1053,14.4478 L -66.0471,14.627
 L -66.0118,14.812 L -66,15 L -66.0118,15.188 L -66.0471,15.373 L -66.1053,15.5522 L -66.1855,15.7226
 L -66.2865,15.8817 L -66.4065,16.0268 L -66.5439,16.1558 L -66.6963,16.2665 L -66.8613,16.3572 L -67.0365,16.4266
 L -67.2189,16.4734 L -67.4058,16.497 z
M -7.68837,25.4941 L -8.06213,25.4469 L -8.42705,25.3532 L -8.77733,25.2145 L -9.10747,25.033 L -9.41226,24.8115
 L -9.6869,24.5536 L -9.92705,24.2634 L -10.1289,23.9453 L -10.2893,23.6044 L -10.4057,23.2461 L -10.4763,22.876
 L -10.5,22.5 L -10.4763,22.124 L -10.4057,21.7539 L -10.2893,21.3956 L -10.1289,21.0547 L -9.92705,20.7366
 L -9.6869,20.4464 L -9.41226,20.1884 L -9.10747,19.967 L -8.77733,19.7855 L -8.42705,19.6468 L -8.06213,19.5531
 L -7.68837,19.5059 L -7.31161,19.5059 L -6.93785,19.5531 L -6.57294,19.6468 L -6.22266,19.7855 L -5.89252,19.967
 L -5.58772,20.1884 L -5.31308,20.4464 L -5.07294,20.7366 L -4.87108,21.0547 L -4.71066,21.3956 L -4.59424,21.7539
 L -4.52365,22.124 L -4.5,22.5 L -4.52365,22.876 L -4.59424,23.2461 L -4.71066,23.6044 L -4.87108,23.9453
 L -5.07294,24.2634 L -5.31308,24.5536 L -5.58772,24.8115 L -5.89252,25.033 L -6.22266,25.2145 L -6.57294,25.3532
 L -6.93785,25.4469 L -7.31161,25.4941 z
M -52.6884,25.4941 L -53.0621,25.4469 L -53.427,25.3532 L -53.7773,25.2145 L -54.1075,25.033 L -54.4123,24.8115
 L -54.6869,24.5536 L -54.927,24.2634 L -55.1289,23.9453 L -55.2893,23.6044 L -55.4057,23.2461 L -55.4763,22.876
 L -55.5,22.5 L -55.4763,22.124 L -55.4057,21.7539 L -55.2893,21.3956 L -55.1289,21.0547 L -54.927,20.7366
 L -54.6869,20.4464 L -54.4123,20.1884 L -54.1075,19.967 L -53.7773,19.7855 L -53.427,19.6468 L -53.0621,19.5531
 L -52.6884,19.5059 L -52.3116,19.5059 L -51.9379,19.5531 L -51.5729,19.6468 L -51.2227,19.7855 L -50.8925,19.967
 L -50.5877,20.1884 L -50.3131,20.4464 L -50.0729,20.7366 L -49.8711,21.0547 L -49.7107,21.3956 L -49.5942,21.7539
 L -49.5237,22.124 L -49.5,22.5 L -49.5237,22.876 L -49.5942,23.2461 L -49.7107,23.6044 L -49.8711,23.9453
 L -50.0729,24.2634 L -50.3131,24.5536 L -50.5877,24.8115 L -50.8925,25.033 L -51.2227,25.2145 L -51.5729,25.3532
 L -51.9379,25.4469 L -52.3116,25.4941 z
M 7.31161,25.4941 L 6.93785,25.4469 L 6.57294,25.3532 L 6.22266,25.2145 L 5.89252,25.033 L 5.58772,24.8115
 L 5.31308,24.5536 L 5.07294,24.2634 L 4.87108,23.9453 L 4.71066,23.6044 L 4.59424,23.2461 L 4.52365,22.876
 L 4.5,22.5 L 4.52365,22.124 L 4.59424,21.7539 L 4.71066,21.3956 L 4.87108,21.0547 L 5.07294,20.7366
 L 5.31308,20.4464 L 5.58772,20.1884 L 5.89252,19.967 L 6.22266,19.7855 L 6.57294,19.6468 L 6.93785,19.5531
 L 7.31161,19.5059 L 7.68837,19.5059 L 8.06213,19.5531 L 8.42705,19.6468 L 8.77733,19.7855 L 9.10747,19.967
 L 9.41226,20.1884 L 9.6869,20.4464 L 9.92705,20.7366 L 10.1289,21.0547 L 10.2893,21.3956 L 10.4057,21.7539
 L 10.4763,22.124 L 10.5,22.5 L 10.4763,22.876 L 10.4057,23.2461 L 10.2893,23.6044 L 10.1289,23.9453
 L 9.92705,24.2634 L 9.6869,24.5536 L 9.41226,24.8115 L 9.10747,25.033 L 8.77733,25.2145 L 8.42705,25.3532
 L 8.06213,25.4469 L 7.68837,25.4941 z
M -67.6884,25.4941 L -68.0621,25.4469 L -68.427,25.3532 L -68.7773,25.2145 L -69.1075,25.033 L -69.4123,24.8115
 L -69.6869,24.5536 L -69.927,24.2634 L -70.1289,23.9453 L -70.2893,23.6044 L -70.4057,23.2461 L -70.4763,22.876
 L -70.5,22.5 L -70.4763,22.124 L -70.4057,21.7539 L -70.2893,21.3956 L -70.1289,21.0547 L -69.927,20.7366
 L -69.6869,20.4464 L -69.4123,20.1884 L -69.1075,19.967 L -68.7773,19.7855 L -68.427,19.6468 L -68.0621,19.5531
 L -67.6884,19.5059 L -67.3116,19.5059 L -66.9379,19.5531 L -66.573,19.6468 L -66.2227,19.7855 L -65.8925,19.967
 L -65.5877,20.1884 L -65.3131,20.4464 L -65.073,20.7366 L -64.8711,21.0547 L -64.7107,21.3956 L -64.5943,21.7539
 L -64.5237,22.124 L -64.5,22.5 L -64.5237,22.876 L -64.5943,23.2461 L -64.7107,23.6044 L -64.8711,23.9453
 L -65.073,24.2634 L -65.3131,24.5536 L -65.5877,24.8115 L -65.8925,25.033 L -66.2227,25.2145 L -66.573,25.3532
 L -66.9379,25.4469 L -67.3116,25.4941 z
M 22.3116,25.4941 L 21.9379,25.4469 L 21.5729,25.3532 L 21.2227,25.2145 L 20.8925,25.033 L 20.5877,24.8115
 L 20.3131,24.5536 L 20.0729,24.2634 L 19.8711,23.9453 L 19.7107,23.6044 L 19.5942,23.2461 L 19.5237,22.876
 L 19.5,22.5 L 19.5237,22.124 L 19.5942,21.7539 L 19.7107,21.3956 L 19.8711,21.0547 L 20.0729,20.7366
 L 20.3131,20.4464 L 20.5877,20.1884 L 20.8925,19.967 L 21.2227,19.7855 L 21.5729,19.6468 L 21.9379,19.5531
 L 22.3116,19.5059 L 22.6884,19.5059 L 23.0621,19.5531 L 23.427,19.6468 L 23.7773,19.7855 L 24.1075,19.967
 L 24.4123,20.1884 L 24.6869,20.4464 L 24.927,20.7366 L 25.1289,21.0547 L 25.2893,21.3956 L 25.4057,21.7539
 L 25.4763,22.124 L 25.5,22.5 L 25.4763,22.876 L 25.4057,23.2461 L 25.2893,23.6044 L 25.1289,23.9453
 L 24.927,24.2634 L 24.6869,24.5536 L 24.4123,24.8115 L 24.1075,25.033 L 23.7773,25.2145 L 23.427,25.3532
 L 23.0621,25.4469 L 22.6884,25.4941 z
M 37.3116,25.4941 L 36.9379,25.4469 L 36.5729,25.3532 L 36.2227,25.2145 L 35.8925,25.033 L 35.5877,24.8115
 L 35.3131,24.5536 L 35.0729,24.2634 L 34.8711,23.9453 L 34.7107,23.6044 L 34.5942,23.2461 L 34.5237,22.876
 L 34.5,22.5 L 34.5237,22.124 L 34.5942,21.7539 L 34.7107,21.3956 L 34.8711,21.0547 L 35.0729,20.7366
 L 35.3131,20.4464 L 35.5877,20.1884 L 35.8925,19.967 L 36.2227,19.7855 L 36.5729,19.6468 L 36.9379,19.5531
 L 37.3116,19.5059 L 37.6884,19.5059 L 38.0621,19.5531 L 38.427,19.6468 L 38.7773,19.7855 L 39.1075,19.967
 L 39.4123,20.1884 L 39.6869,20.4464 L 39.927,20.7366 L 40.1289,21.0547 L 40.2893,21.3956 L 40.4057,21.7539
 L 40.4763,22.124 L 40.5,22.5 L 40.4763,22.876 L 40.4057,23.2461 L 40.2893,23.6044 L 40.1289,23.9453
 L 39.927,24.2634 L 39.6869,24.5536 L 39.4123,24.8115 L 39.1075,25.033 L 38.7773,25.2145 L 38.427,25.3532
 L 38.0621,25.4469 L 37.6884,25.4941 z
M -37.6884,25.4941 L -38.0621,25.4469 L -38.427,25.3532 L -38.7773,25.2145 L -39.1075,25.033 L -39.4123,24.8115
 L -39.6869,24.5536 L -39.927,24.2634 L -40.1289,23.9453 L -40.2893,23.6044 L -40.4057,23.2461 L -40.4763,22.876
 L -40.5,22.5 L -40.4763,22.124 L -40.4057,21.7539 L -40.2893,21.3956 L -40.1289,21.0547 L -39.927,20.7366
 L -39.6869,20.4464 L -39.4123,20.1884 L -39.1075,19.967 L -38.7773,19.7855 L -38.427,19.6468 L -38.0621,19.5531
 L -37.6884,19.5059 L -37.3116,19.5059 L -36.9379,19.5531 L -36.5729,19.6468 L -36.2227,19.7855 L -35.8925,19.967
 L -35.5877,20.1884 L -35.3131,20.4464 L -35.0729,20.7366 L -34.8711,21.0547 L -34.7107,21.3956 L -34.5942,21.7539
 L -34.5237,22.124 L -34.5,22.5 L -34.5237,22.876 L -34.5942,23.2461 L -34.7107,23.6044 L -34.8711,23.9453
 L -35.0729,24.2634 L -35.3131,24.5536 L -35.5877,24.8115 L -35.8925,25.033 L -36.2227,25.2145 L -36.5729,25.3532
 L -36.9379,25.4469 L -37.3116,25.4941 z
M 67.3116,25.4941 L 66.9379,25.4469 L 66.573,25.3532 L 66.2227,25.2145 L 65.8925,25.033 L 65.5877,24.8115
 L 65.3131,24.5536 L 65.073,24.2634 L 64.8711,23.9453 L 64.7107,23.6044 L 64.5943,23.2461 L 64.5237,22.876
 L 64.5,22.5 L 64.5237,22.124 L 64.5943,21.7539 L 64.7107,21.3956 L 64.8711,21.0547 L 65.073,20.7366
 L 65.3131,20.4464 L 65.5877,20.1884 L 65.8925,19.967 L 66.2227,19.7855 L 66.573,19.6468 L 66.9379,19.5531
 L 67.3116,19.5059 L 67.6884,19.5059 L 68.0621,19.5531 L 68.427,19.6468 L 68.7773,19.7855 L 69.1075,19.967
 L 69.4123,20.1884 L 69.6869,20.4464 L 69.927,20.7366 L 70.1289,21.0547 L 70.2893,21.3956 L 70.4057,21.7539
 L 70.4763,22.124 L 70.5,22.5 L 70.4763,22.876 L 70.4057,23.2461 L 70.2893,23.6044 L 70.1289,23.9453
 L 69.927,24.2634 L 69.6869,24.5536 L 69.4123,24.8115 L 69.1075,25.033 L 68.7773,25.2145 L 68.427,25.3532
 L 68.0621,25.4469 L 67.6884,25.4941 z
M -22.6884,25.4941 L -23.0621,25.4469 L -23.427,25.3532 L -23.7773,25.2145 L -24.1075,25.033 L -24.4123,24.8115
 L -24.6869,24.5536 L -24.927,24.2634 L -25.1289,23.9453 L -25.2893,23.6044 L -25.4057,23.2461 L -25.4763,22.876
 L -25.5,22.5 L -25.4763,22.124 L -25.4057,21.7539 L -25.2893,21.3956 L -25.1289,21.0547 L -24.927,20.7366
 L -24.6869,20.4464 L -24.4123,20.1884 L -24.1075,19.967 L -23.7773,19.7855 L -23.427,19.6468 L -23.0621,19.5531
 L -22.6884,19.5059 L -22.3116,19.5059 L -21.9379,19.5531 L -21.5729,19.6468 L -21.2227,19.7855 L -20.8925,19.967
 L -20.5877,20.1884 L -20.3131,20.4464 L -20.0729,20.7366 L -19.8711,21.0547 L -19.7107,21.3956 L -19.5942,21.7539
 L -19.5237,22.124 L -19.5,22.5 L -19.5237,22.876 L -19.5942,23.2461 L -19.7107,23.6044 L -19.8711,23.9453
 L -20.0729,24.2634 L -20.3131,24.5536 L -20.5877,24.8115 L -20.8925,25.033 L -21.2227,25.2145 L -21.5729,25.3532
 L -21.9379,25.4469 L -22.3116,25.4941 z
M 52.3116,25.4941 L 51.9379,25.4469 L 51.5729,25.3532 L 51.2227,25.2145 L 50.8925,25.033 L 50.5877,24.8115
 L 50.3131,24.5536 L 50.0729,24.2634 L 49.8711,23.9453 L 49.7107,23.6044 L 49.5942,23.2461 L 49.5237,22.876
 L 49.5,22.5 L 49.5237,22.124 L 49.5942,21.7539 L 49.7107,21.3956 L 49.8711,21.0547 L 50.0729,20.7366
 L 50.3131,20.4464 L 50.5877,20.1884 L 50.8925,19.967 L 51.2227,19.7855 L 51.5729,19.6468 L 51.9379,19.5531
 L 52.3116,19.5059 L 52.6884,19.5059 L 53.0621,19.5531 L 53.427,19.6468 L 53.7773,19.7855 L 54.1075,19.967
 L 54.4123,20.1884 L 54.6869,20.4464 L 54.927,20.7366 L 55.1289,21.0547 L 55.2893,21.3956 L 55.4057,21.7539
 L 55.4763,22.124 L 55.5,22.5 L 55.4763,22.876 L 55.4057,23.2461 L 55.2893,23.6044 L 55.1289,23.9453
 L 54.927,24.2634 L 54.6869,24.5536 L 54.4123,24.8115 L 54.1075,25.033 L 53.7773,25.2145 L 53.427,25.3532
 L 53.0621,25.4469 L 52.6884,25.4941 z
M -15.0942,23.997 L -15.2811,23.9734 L -15.4635,23.9266 L -15.6387,23.8572 L -15.8037,23.7665 L -15.9561,23.6558
 L -16.0934,23.5268 L -16.2135,23.3817 L -16.3145,23.2226 L -16.3947,23.0522 L -16.4529,22.873 L -16.4882,22.688
 L -16.5,22.5 L -16.4882,22.312 L -16.4529,22.127 L -16.3947,21.9478 L -16.3145,21.7774 L -16.2135,21.6183
 L -16.0934,21.4732 L -15.9561,21.3442 L -15.8037,21.2335 L -15.6387,21.1427 L -15.4635,21.0734 L -15.2811,21.0266
 L -15.0942,21.003 L -14.9058,21.003 L -14.7189,21.0266 L -14.5365,21.0734 L -14.3613,21.1427 L -14.1963,21.2335
 L -14.0439,21.3442 L -13.9065,21.4732 L -13.7865,21.6183 L -13.6855,21.7774 L -13.6053,21.9478 L -13.5471,22.127
 L -13.5118,22.312 L -13.5,22.5 L -13.5118,22.688 L -13.5471,22.873 L -13.6053,23.0522 L -13.6855,23.2226
 L -13.7865,23.3817 L -13.9065,23.5268 L -14.0439,23.6558 L -14.1963,23.7665 L -14.3613,23.8572 L -14.5365,23.9266
 L -14.7189,23.9734 L -14.9058,23.997 z
M -30.0942,23.997 L -30.2811,23.9734 L -30.4635,23.9266 L -30.6387,23.8572 L -30.8037,23.7665 L -30.9561,23.6558
 L -31.0934,23.5268 L -31.2135,23.3817 L -31.3145,23.2226 L -31.3947,23.0522 L -31.4529,22.873 L -31.4882,22.688
 L -31.5,22.5 L -31.4882,22.312 L -31.4529,22.127 L -31.3947,21.9478 L -31.3145,21.7774 L -31.2135,21.6183
 L -31.0934,21.4732 L -30.9561,21.3442 L -30.8037,21.2335 L -30.6387,21.1427 L -30.4635,21.0734 L -30.2811,21.0266
 L -30.0942,21.003 L -29.9058,21.003 L -29.7189,21.0266 L -29.5365,21.0734 L -29.3613,21.1427 L -29.1963,21.2335
 L -29.0439,21.3442 L -28.9065,21.4732 L -28.7865,21.6183 L -28.6855,21.7774 L -28.6053,21.9478 L -28.5471,22.127
 L -28.5118,22.312 L -28.5,22.5 L -28.5118,22.688 L -28.5471,22.873 L -28.6053,23.0522 L -28.6855,23.2226
 L -28.7865,23.3817 L -28.9065,23.5268 L -29.0439,23.6558 L -29.1963,23.7665 L -29.3613,23.8572 L -29.5365,23.9266
 L -29.7189,23.9734 L -29.9058,23.997 z
M -60.0942,23.997 L -60.2811,23.9734 L -60.4635,23.9266 L -60.6387,23.8572 L -60.8037,23.7665 L -60.9561,23.6558
 L -61.0934,23.5268 L -61.2135,23.3817 L -61.3145,23.2226 L -61.3947,23.0522 L -61.4529,22.873 L -61.4882,22.688
 L -61.5,22.5 L -61.4882,22.312 L -61.4529,22.127 L -61.3947,21.9478 L -61.3145,21.7774 L -61.2135,21.6183
 L -61.0934,21.4732 L -60.9561,21.3442 L -60.8037,21.2335 L -60.6387,21.1427 L -60.4635,21.0734 L -60.2811,21.0266
 L -60.0942,21.003 L -59.9058,21.003 L -59.7189,21.0266 L -59.5365,21.0734 L -59.3613,21.1427 L -59.1963,21.2335
 L -59.0439,21.3442 L -58.9065,21.4732 L -58.7865,21.6183 L -58.6855,21.7774 L -58.6053,21.9478 L -58.5471,22.127
 L -58.5118,22.312 L -58.5,22.5 L -58.5118,22.688 L -58.5471,22.873 L -58.6053,23.0522 L -58.6855,23.2226
 L -58.7865,23.3817 L -58.9065,23.5268 L -59.0439,23.6558 L -59.1963,23.7665 L -59.3613,23.8572 L -59.5365,23.9266
 L -59.7189,23.9734 L -59.9058,23.997 z
M 14.9058,23.997 L 14.7189,23.9734 L 14.5365,23.9266 L 14.3613,23.8572 L 14.1963,23.7665 L 14.0439,23.6558
 L 13.9065,23.5268 L 13.7865,23.3817 L 13.6855,23.2226 L 13.6053,23.0522 L 13.5471,22.873 L 13.5118,22.688
 L 13.5,22.5 L 13.5118,22.312 L 13.5471,22.127 L 13.6053,21.9478 L 13.6855,21.7774 L 13.7865,21.6183
 L 13.9065,21.4732 L 14.0439,21.3442 L 14.1963,21.2335 L 14.3613,21.1427 L 14.5365,21.0734 L 14.7189,21.0266
 L 14.9058,21.003 L 15.0942,21.003 L 15.2811,21.0266 L 15.4635,21.0734 L 15.6387,21.1427 L 15.8037,21.2335
 L 15.9561,21.3442 L 16.0934,21.4732 L 16.2135,21.6183 L 16.3145,21.7774 L 16.3947,21.9478 L 16.4529,22.127
 L 16.4882,22.312 L 16.5,22.5 L 16.4882,22.688 L 16.4529,22.873 L 16.3947,23.0522 L 16.3145,23.2226
 L 16.2135,23.3817 L 16.0934,23.5268 L 15.9561,23.6558 L 15.8037,23.7665 L 15.6387,23.8572 L 15.4635,23.9266
 L 15.2811,23.9734 L 15.0942,23.997 z
M 44.9058,23.997 L 44.7189,23.9734 L 44.5365,23.9266 L 44.3613,23.8572 L 44.1963,23.7665 L 44.0439,23.6558
 L 43.9065,23.5268 L 43.7865,23.3817 L 43.6855,23.2226 L 43.6053,23.0522 L 43.5471,22.873 L 43.5118,22.688
 L 43.5,22.5 L 43.5118,22.312 L 43.5471,22.127 L 43.6053,21.9478 L 43.6855,21.7774 L 43.7865,21.6183
 L 43.9065,21.4732 L 44.0439,21.3442 L 44.1963,21.2335 L 44.3613,21.1427 L 44.5365,21.0734 L 44.7189,21.0266
 L 44.9058,21.003 L 45.0942,21.003 L 45.2811,21.0266 L 45.4635,21.0734 L 45.6387,21.1427 L 45.8037,21.2335
 L 45.9561,21.3442 L 46.0934,21.4732 L 46.2135,21.6183 L 46.3145,21.7774 L 46.3947,21.9478 L 46.4529,22.127
 L 46.4882,22.312 L 46.5,22.5 L 46.4882,22.688 L 46.4529,22.873 L 46.3947,23.0522 L 46.3145,23.2226
 L 46.2135,23.3817 L 46.0934,23.5268 L 45.9561,23.6558 L 45.8037,23.7665 L 45.6387,23.8572 L 45.4635,23.9266
 L 45.2811,23.9734 L 45.0942,23.997 z
M -0.0941772,23.997 L -0.281067,23.9734 L -0.463516,23.9266 L -0.638657,23.8572 L -0.803726,23.7665 L -0.956131,23.6558
 L -1.09344,23.5268 L -1.21352,23.3817 L -1.31445,23.2226 L -1.39465,23.0522 L -1.45287,22.873 L -1.48816,22.688
 L -1.5,22.5 L -1.48816,22.312 L -1.45287,22.127 L -1.39465,21.9478 L -1.31445,21.7774 L -1.21352,21.6183
 L -1.09344,21.4732 L -0.956131,21.3442 L -0.803726,21.2335 L -0.638657,21.1427 L -0.463516,21.0734 L -0.281067,21.0266
 L -0.0941772,21.003 L 0.0941772,21.003 L 0.281067,21.0266 L 0.463516,21.0734 L 0.638657,21.1427 L 0.803726,21.2335
 L 0.956131,21.3442 L 1.09344,21.4732 L 1.21352,21.6183 L 1.31445,21.7774 L 1.39465,21.9478 L 1.45287,22.127
 L 1.48816,22.312 L 1.5,22.5 L 1.48816,22.688 L 1.45287,22.873 L 1.39465,23.0522 L 1.31445,23.2226
 L 1.21352,23.3817 L 1.09344,23.5268 L 0.956131,23.6558 L 0.803726,23.7665 L 0.638657,23.8572 L 0.463516,23.9266
 L 0.281067,23.9734 L 0.0941772,23.997 z
M -45.0942,23.997 L -45.2811,23.9734 L -45.4635,23.9266 L -45.6387,23.8572 L -45.8037,23.7665 L -45.9561,23.6558
 L -46.0934,23.5268 L -46.2135,23.3817 L -46.3145,23.2226 L -46.3947,23.0522 L -46.4529,22.873 L -46.4882,22.688
 L -46.5,22.5 L -46.4882,22.312 L -46.4529,22.127 L -46.3947,21.9478 L -46.3145,21.7774 L -46.2135,21.6183
 L -46.0934,21.4732 L -45.9561,21.3442 L -45.8037,21.2335 L -45.6387,21.1427 L -45.4635,21.0734 L -45.2811,21.0266
 L -45.0942,21.003 L -44.9058,21.003 L -44.7189,21.0266 L -44.5365,21.0734 L -44.3613,21.1427 L -44.1963,21.2335
 L -44.0439,21.3442 L -43.9065,21.4732 L -43.7865,21.6183 L -43.6855,21.7774 L -43.6053,21.9478 L -43.5471,22.127
 L -43.5118,22.312 L -43.5,22.5 L -43.5118,22.688 L -43.5471,22.873 L -43.6053,23.0522 L -43.6855,23.2226
 L -43.7865,23.3817 L -43.9065,23.5268 L -44.0439,23.6558 L -44.1963,23.7665 L -44.3613,23.8572 L -44.5365,23.9266
 L -44.7189,23.9734 L -44.9058,23.997 z
M 59.9058,23.997 L 59.7189,23.9734 L 59.5365,23.9266 L 59.3613,23.8572 L 59.1963,23.7665 L 59.0439,23.6558
 L 58.9065,23.5268 L 58.7865,23.3817 L 58.6855,23.2226 L 58.6053,23.0522 L 58.5471,22.873 L 58.5118,22.688
 L 58.5,22.5 L 58.5118,22.312 L 58.5471,22.127 L 58.6053,21.9478 L 58.6855,21.7774 L 58.7865,21.6183
 L 58.9065,21.4732 L 59.0439,21.3442 L 59.1963,21.2335 L 59.3613,21.1427 L 59.5365,21.0734 L 59.7189,21.0266
 L 59.9058,21.003 L 60.0942,21.003 L 60.2811,21.0266 L 60.4635,21.0734 L 60.6387,21.1427 L 60.8037,21.2335
 L 60.9561,21.3442 L 61.0934,21.4732 L 61.2135,21.6183 L 61.3145,21.7774 L 61.3947,21.9478 L 61.4529,22.127
 L 61.4882,22.312 L 61.5,22.5 L 61.4882,22.688 L 61.4529,22.873 L 61.3947,23.0522 L 61.3145,23.2226
 L 61.2135,23.3817 L 61.0934,23.5268 L 60.9561,23.6558 L 60.8037,23.7665 L 60.6387,23.8572 L 60.4635,23.9266
 L 60.2811,23.9734 L 60.0942,23.997 z
M 29.9058,23.997 L 29.7189,23.9734 L 29.5365,23.9266 L 29.3613,23.8572 L 29.1963,23.7665 L 29.0439,23.6558
 L 28.9065,23.5268 L 28.7865,23.3817 L 28.6855,23.2226 L 28.6053,23.0522 L 28.5471,22.873 L 28.5118,22.688
 L 28.5,22.5 L 28.5118,22.312 L 28.5471,22.127 L 28.6053,21.9478 L 28.6855,21.7774 L 28.7865,21.6183
 L 28.9065,21.4732 L 29.0439,21.3442 L 29.1963,21.2335 L 29.3613,21.1427 L 29.5365,21.0734 L 29.7189,21.0266
 L 29.9058,21.003 L 30.0942,21.003 L 30.2811,21.0266 L 30.4635,21.0734 L 30.6387,21.1427 L 30.8037,21.2335
 L 30.9561,21.3442 L 31.0934,21.4732 L 31.2135,21.6183 L 31.3145,21.7774 L 31.3947,21.9478 L 31.4529,22.127
 L 31.4882,22.312 L 31.5,22.5 L 31.4882,22.688 L 31.4529,22.873 L 31.3947,23.0522 L 31.3145,23.2226
 L 31.2135,23.3817 L 31.0934,23.5268 L 30.9561,23.6558 L 30.8037,23.7665 L 30.6387,23.8572 L 30.4635,23.9266
 L 30.2811,23.9734 L 30.0942,23.997 z
" stroke="black" fill="lightgray" stroke-width="0.5"/>
</svg>
